<?xml version="1.0" encoding="UTF-8" standalone="no"?>
<!-- Created with Inkscape (http://www.inkscape.org/) -->

<svg
   width="172.400mm"
   height="345.204mm"
   viewBox="0 0 172.400 345.204"
   version="1.1"
   id="svg9936"
   inkscape:version="1.1.1 (3bf5ae0d25, 2021-09-20)"
   sodipodi:docname="advertising_column.svg"
   inkscape:export-filename="E:\V-rok\magisterka\implementation\Animation\graphics\objects\advertising_column.png"
   inkscape:export-xdpi="80"
   inkscape:export-ydpi="80"
   xmlns:inkscape="http://www.inkscape.org/namespaces/inkscape"
   xmlns:sodipodi="http://sodipodi.sourceforge.net/DTD/sodipodi-0.dtd"
   xmlns:xlink="http://www.w3.org/1999/xlink"
   xmlns="http://www.w3.org/2000/svg"
   xmlns:svg="http://www.w3.org/2000/svg">
  <sodipodi:namedview
     id="namedview9938"
     pagecolor="#505050"
     bordercolor="#eeeeee"
     borderopacity="1"
     inkscape:pageshadow="0"
     inkscape:pageopacity="0"
     inkscape:pagecheckerboard="0"
     inkscape:document-units="mm"
     showgrid="false"
     inkscape:snap-global="false"
     inkscape:zoom="0.46324355"
     inkscape:cx="320.56572"
     inkscape:cy="896.9364"
     inkscape:window-width="1366"
     inkscape:window-height="705"
     inkscape:window-x="-8"
     inkscape:window-y="-8"
     inkscape:window-maximized="1"
     inkscape:current-layer="layer1" />
  <defs
     id="defs9933">
    <clipPath
       clipPathUnits="userSpaceOnUse"
       id="clipPath10412">
      <use
         x="0"
         y="0"
         xlink:href="#g10408"
         id="use10414" />
    </clipPath>
    <clipPath
       clipPathUnits="userSpaceOnUse"
       id="clipPath10423">
      <use
         x="0"
         y="0"
         xlink:href="#g10419"
         id="use10425" />
    </clipPath>
  </defs>
  <g
     inkscape:label="Warstwa 1"
     inkscape:groupmode="layer"
     id="layer1">
    <g
       id="g11397"
       transform="matrix(1.649568,0,0,1.649568,-11.610638,-10.931494)"
       inkscape:export-filename="E:\V-rok\magisterka\implementation\Animation\graphics\objects\advertising_column.png"
       inkscape:export-xdpi="50"
       inkscape:export-ydpi="50">
      <rect
         style="fill:#999999;stroke-width:1.165"
         id="rect10019"
         width="78.24807"
         height="163.92114"
         x="19.990383"
         y="37.696152" />
      <rect
         style="fill:#808080;stroke-width:1.165"
         id="rect10065"
         width="89.671158"
         height="16.563461"
         x="14.278847"
         y="199.33269" />
      <g
         id="g10421"
         clip-path="url(#clipPath10423)"
         transform="matrix(0.94321656,0,0,0.7120839,-96.488232,0.18935845)">
        <g
           inkscape:label="Clip"
           id="g10419">
          <g
             id="g10410"
             clip-path="url(#clipPath10412)"
             transform="translate(-1.615467,1.615467)">
            <g
               inkscape:label="Clip"
               id="g10408">
              <path
                 id="path10169"
                 style="fill:#008000;stroke-width:4.40315"
                 transform="matrix(0.26458333,0,0,0.26458333,-8.0773347,8.481201)"
                 d="M 660.86719,-3.9921875 A 209.3931,209.3931 0 0 0 451.47266,205.40039 a 209.3931,209.3931 0 0 0 0.8457,11.08399 c 1.46052,0.14804 2.963,0.35189 4.51367,0.62695 1.16029,-0.14428 2.3231,-0.28091 3.48242,-0.43164 2.39804,-0.0752 4.79481,0.0113 7.19141,0.082 1.47035,0.0435 0.92345,0.02 0.60937,0.01 2.73204,-0.0465 5.4649,-0.0211 8.19727,-0.0176 8.27904,1.04614 8.0084,0.9979 6.92188,0.85937 0.3442,-0.0189 0.68769,-0.0354 1.03124,-0.0606 2.59314,0.0978 5.26427,-0.34287 7.85547,-0.0605 1.88693,0.20559 3.75884,0.53294 5.63477,0.82226 2.08025,0.32089 1.00379,0.38458 2.38086,0.20313 5.39618,0.0451 10.78625,-0.386 16.18164,-0.25391 4.86527,-0.13446 9.68602,0.39901 14.52344,0.86524 4.30817,0.24321 8.61951,-0.12797 12.93554,-0.13477 5.40416,0.0773 10.80843,0.0582 16.21289,0.0469 5.64458,-0.006 11.28902,0.002 16.9336,0.002 2.84504,-0.30493 5.52058,0.77617 8.29687,1.01367 0.68629,0.0587 1.37767,-0.0339 2.06641,-0.043 1.74093,-0.0225 3.42526,-0.0585 5.15625,-0.17187 4.76874,-0.16426 9.5419,-0.0249 14.3125,-0.0254 4.02066,0.47352 8.04467,0.87187 12.09375,0.95703 0.61062,0.0129 1.22338,-0.0683 1.83203,-0.0176 2.88219,0.24037 4.07316,0.44446 6.41602,0.81055 1.61801,-0.57988 3.12064,1.04757 4.73242,1.00781 0.0729,-0.002 0.005,-0.1921 0.0762,-0.20117 0.71384,-0.0907 1.43716,-0.0579 2.15625,-0.084 4.35866,-0.15791 3.20814,-0.11383 7.89062,-0.22461 5.60988,-0.10163 11.21664,0.0508 16.82618,0.041 4.74973,-0.0166 9.50023,-0.0166 14.25,-0.01 3.94053,6e-4 7.87977,-0.002 11.82031,-0.002 5.70561,4.1e-4 11.41161,5e-5 17.11719,0 5.12579,-10e-6 10.25311,0 15.3789,0 h 17.58399 8.56054 c 3.94345,-0.0307 7.84865,-0.0775 11.76954,0.52539 1.77906,0.27357 3.52067,0.74857 5.28125,1.12305 0.73613,0.12064 1.46702,0.28434 2.20898,0.36133 0.2691,0.0279 1.81776,-0.29146 1.97461,-0.30469 3.12472,-0.26623 3.10692,-0.19242 6.86914,-0.27149 4.85601,0.0217 4.19037,0.003 8.4375,0.0723 1.04901,0.017 3.4549,0.0516 2.37305,0.041 2.90914,-0.0472 5.82095,-0.0188 8.73047,-0.0176 2.32441,-0.002 4.64824,-0.002 6.97265,-0.002 6.99742,3.6e-4 13.99477,2e-5 20.99219,0 5.00799,-1e-5 10.01541,2e-5 15.02344,0 h 17.13086 17.62304 A 209.3931,209.3931 0 0 0 870.2598,205.40021 209.3931,209.3931 0 0 0 660.86719,-3.9921875 Z M 458.11914,217.13477 c -0.22601,0.0164 -0.45084,0.0501 -0.67578,0.0762 1.20049,0.22525 2.42103,0.48463 3.67383,0.79297 0.15364,0.0378 0.60386,0.18509 0.46289,0.11328 -1.04769,-0.53318 -2.23649,-1.07155 -3.46094,-0.98242 z m 23.625,0.30859 c -0.16982,-0.0131 0.73229,0.11983 1.16211,0.18945 0.10295,-0.006 0.20558,-0.0139 0.30859,-0.0195 -0.57337,-0.0702 -1.24137,-0.15222 -1.4707,-0.16992 z m 1.95117,0.31836 c 0.0907,0.0133 0.003,0.003 0.10157,0.0176 0.22747,0.0333 0.9142,0.0828 0.68554,0.0586 -0.26213,-0.0276 -0.52479,-0.0493 -0.78711,-0.0762 z" />
            </g>
          </g>
        </g>
      </g>
      <rect
         style="fill:#ffccaa;stroke-width:1.165"
         id="rect11089"
         width="15.421154"
         height="24.559616"
         x="26.273077"
         y="75.392303" />
      <rect
         style="fill:#ffb380;stroke-width:1.165"
         id="rect11231"
         width="32.555771"
         height="51.403851"
         x="41.694229"
         y="99.95192" />
      <rect
         style="fill:#deaa87;stroke-width:1.165"
         id="rect11159"
         width="25.13077"
         height="35.982693"
         x="65.682693"
         y="75.392303" />
      <rect
         style="fill:#ffeeaa;stroke-width:1.165"
         id="rect11113"
         width="17.134615"
         height="27.415384"
         x="50.832691"
         y="109.09039" />
      <rect
         style="fill:#ffb380;stroke-width:1.165"
         id="rect11183"
         width="23.417309"
         height="34.26923"
         x="26.273077"
         y="127.93846" />
      <rect
         style="fill:#decd87;stroke-width:1.165"
         id="rect11207"
         width="24.559614"
         height="42.265369"
         x="67.967308"
         y="136.50578" />
      <rect
         style="fill:#e6e6e6;stroke-width:1.165"
         id="rect11257"
         width="21.703844"
         height="31.984613"
         x="41.694229"
         y="53.688461" />
    </g>
  </g>
</svg>
