<?xml version="1.0" encoding="UTF-8" standalone="no"?>
<!-- Created with Inkscape (http://www.inkscape.org/) -->

<svg
   width="114.989mm"
   height="113.461mm"
   viewBox="0 0 114.989 113.461"
   version="1.1"
   id="svg118609"
   inkscape:version="1.1.1 (3bf5ae0d25, 2021-09-20)"
   sodipodi:docname="crops.svg"
   xmlns:inkscape="http://www.inkscape.org/namespaces/inkscape"
   xmlns:sodipodi="http://sodipodi.sourceforge.net/DTD/sodipodi-0.dtd"
   xmlns="http://www.w3.org/2000/svg"
   xmlns:svg="http://www.w3.org/2000/svg">
  <sodipodi:namedview
     id="namedview118611"
     pagecolor="#505050"
     bordercolor="#eeeeee"
     borderopacity="1"
     inkscape:pageshadow="0"
     inkscape:pageopacity="0"
     inkscape:pagecheckerboard="0"
     inkscape:document-units="mm"
     showgrid="false"
     inkscape:snap-global="false"
     inkscape:zoom="1.3102506"
     inkscape:cx="213.31797"
     inkscape:cy="150.73452"
     inkscape:window-width="1366"
     inkscape:window-height="705"
     inkscape:window-x="-8"
     inkscape:window-y="-8"
     inkscape:window-maximized="1"
     inkscape:current-layer="layer1" />
  <defs
     id="defs118606" />
  <g
     inkscape:label="Warstwa 1"
     inkscape:groupmode="layer"
     id="layer1">
    <g
       id="g125160"
       transform="matrix(1.9949569,0,0,1.9949569,-61.40758,-133.02586)"
       inkscape:export-filename="E:\V-rok\magisterka\implementation\Animation\graphics\objects\crops.png"
       inkscape:export-xdpi="50"
       inkscape:export-ydpi="50">
      <path
         style="fill:#ffdb49;fill-opacity:1;stroke:none;stroke-width:0.206484px;stroke-linecap:butt;stroke-linejoin:miter;stroke-opacity:1"
         d="m 72.300085,88.872779 c 0.364939,-0.918741 2.262278,-0.80314 3.398164,-0.3929 1.525747,0.551035 3.291349,3.364953 3.291349,3.364953 0,0 -2.829554,0.741358 -4.146226,0.146874 -1.285166,-0.580253 -2.968989,-2.047139 -2.543287,-3.118927 z"
         id="path118715-47-2"
         sodipodi:nodetypes="sscss" />
      <path
         style="fill:#ffdb49;fill-opacity:1;stroke:none;stroke-width:0.206484px;stroke-linecap:butt;stroke-linejoin:miter;stroke-opacity:1"
         d="m 75.042685,87.581187 c 0.36495,-0.91875 2.262288,-0.803139 3.398166,-0.39291 1.525748,0.551025 3.291349,3.364953 3.291349,3.364953 0,0 -2.829554,0.741358 -4.146216,0.146875 -1.285166,-0.580253 -2.968988,-2.047149 -2.543299,-3.118918 z"
         id="path118715-7-2"
         sodipodi:nodetypes="sscss" />
      <path
         style="fill:#ffdb49;fill-opacity:1;stroke:none;stroke-width:0.206484px;stroke-linecap:butt;stroke-linejoin:miter;stroke-opacity:1"
         d="m 77.212639,87.316531 c 0.0064,-0.981848 1.828903,-1.612187 3.044694,-1.67766 1.633072,-0.08795 4.318751,1.800645 4.318751,1.800645 0,0 -2.383751,1.775764 -3.836536,1.742846 -1.418026,-0.03211 -3.534362,-0.720453 -3.526908,-1.865841 z"
         id="path118715-5-1"
         sodipodi:nodetypes="sscss" />
      <path
         style="fill:#ffdb49;fill-opacity:1;stroke:none;stroke-width:0.206484px;stroke-linecap:butt;stroke-linejoin:miter;stroke-opacity:1"
         d="m 78.616618,85.369005 c -0.265071,-0.9344 1.324297,-2.06723 2.482648,-2.485753 1.555945,-0.562161 4.676513,0.444442 4.676513,0.444442 0,0 -1.816005,2.385183 -3.23088,2.779729 -1.381013,0.385102 -3.619051,0.351626 -3.928285,-0.738389 z"
         id="path118715-5-9-3"
         sodipodi:nodetypes="sscss" />
      <path
         style="fill:#ffdb49;fill-opacity:1;stroke:none;stroke-width:0.234145px;stroke-linecap:butt;stroke-linejoin:miter;stroke-opacity:1"
         d="m 59.878933,94.998318 c 0.403639,-1.020186 2.589511,-0.857176 3.904192,-0.3785 1.76592,0.642975 3.848244,3.818973 3.848244,3.818973 0,0 -3.243528,0.778009 -4.769575,0.09021 -1.489504,-0.67139 -3.453723,-2.340571 -2.982861,-3.53068 z"
         id="path118715-0"
         sodipodi:nodetypes="sscss" />
      <path
         style="fill:#ffdb49;fill-opacity:1;stroke:none;stroke-width:0.234145px;stroke-linecap:butt;stroke-linejoin:miter;stroke-opacity:1"
         d="m 62.518805,93.22004 c 0.403636,-1.020186 2.589507,-0.857166 3.904189,-0.3785 1.765923,0.642976 3.848249,3.818963 3.848249,3.818963 0,0 -3.243521,0.778022 -4.769576,0.09022 -1.489544,-0.671305 -3.453723,-2.340582 -2.982862,-3.530681 z"
         id="path118715-4-38"
         sodipodi:nodetypes="sscss" />
      <path
         style="fill:#ffdb49;fill-opacity:1;stroke:none;stroke-width:0.234145px;stroke-linecap:butt;stroke-linejoin:miter;stroke-opacity:1"
         d="m 65.680063,91.507494 c 0.403635,-1.020187 2.589505,-0.857167 3.904184,-0.378491 1.765924,0.642966 3.848239,3.818962 3.848239,3.818962 0,0 -3.243521,0.778022 -4.769565,0.09022 -1.489547,-0.671295 -3.453721,-2.340581 -2.982858,-3.53069 z"
         id="path118715-2-39"
         sodipodi:nodetypes="sscss" />
      <path
         style="fill:#ffdb49;fill-opacity:1;stroke:none;stroke-width:0.234145px;stroke-linecap:butt;stroke-linejoin:miter;stroke-opacity:1"
         d="m 69.171886,90.047996 c 0.403632,-1.020187 2.589501,-0.857167 3.904182,-0.378501 1.765933,0.642977 3.848248,3.818973 3.848248,3.818973 0,0 -3.243522,0.778022 -4.769576,0.09022 -1.489545,-0.671305 -3.453718,-2.340591 -2.982854,-3.53069 z"
         id="path118715-23-8"
         sodipodi:nodetypes="sscss" />
      <path
         style="fill:#ffdb49;fill-opacity:1;stroke:none;stroke-width:0.206484px;stroke-linecap:butt;stroke-linejoin:miter;stroke-opacity:1"
         d="m 72.736771,89.962591 c 0.90181,0.289845 2.029292,-1.327595 2.456043,-2.513661 0.573208,-1.593151 -0.347616,-4.826494 -0.347616,-4.826494 0,0 -2.346576,1.828552 -2.754656,3.279362 -0.398334,1.416076 -0.405397,3.722743 0.646229,4.060793 z"
         id="path118715-47-7-3"
         sodipodi:nodetypes="sscss" />
      <path
         style="fill:#ffdb49;fill-opacity:1;stroke:none;stroke-width:0.206484px;stroke-linecap:butt;stroke-linejoin:miter;stroke-opacity:1"
         d="m 75.428351,88.55616 c 0.901819,0.289846 2.029303,-1.327604 2.456051,-2.513649 0.57322,-1.593171 -0.347624,-4.826506 -0.347624,-4.826506 0,0 -2.346566,1.828553 -2.754636,3.279365 -0.398305,1.416079 -0.405397,3.722733 0.646209,4.06079 z"
         id="path118715-7-5-5"
         sodipodi:nodetypes="sscss" />
      <path
         style="fill:#ffdb49;fill-opacity:1;stroke:none;stroke-width:0.206484px;stroke-linecap:butt;stroke-linejoin:miter;stroke-opacity:1"
         d="m 76.72763,86.928977 c 0.747179,0.585746 2.32164,-0.569472 3.103193,-1.553862 1.049789,-1.322263 1.236911,-4.720916 1.236911,-4.720916 0,0 -2.779517,0.938248 -3.62928,2.181443 -0.829446,1.213433 -1.582446,3.410036 -0.710824,4.093335 z"
         id="path118715-5-8-73"
         sodipodi:nodetypes="sscss" />
      <path
         style="fill:#ffdb49;fill-opacity:1;stroke:none;stroke-width:0.234145px;stroke-linecap:butt;stroke-linejoin:miter;stroke-opacity:1"
         d="m 60.207571,95.812604 c 1.04314,0.339956 2.311997,-1.44739 2.782028,-2.765191 0.631358,-1.770105 -0.486138,-5.39973 -0.486138,-5.39973 0,0 -2.668256,2.001554 -3.112066,3.61552 -0.433238,1.57535 -0.400702,4.15283 0.816176,4.549401 z"
         id="path118715-9-40"
         sodipodi:nodetypes="sscss" />
      <path
         style="fill:#ffdb49;fill-opacity:1;stroke:none;stroke-width:0.234145px;stroke-linecap:butt;stroke-linejoin:miter;stroke-opacity:1"
         d="m 63.261056,94.914019 c 1.04313,0.339955 2.311996,-1.44739 2.782027,-2.765191 0.631356,-1.770095 -0.486148,-5.399731 -0.486148,-5.399731 0,0 -2.668254,2.001554 -3.112065,3.61552 -0.433143,1.57537 -0.400692,4.152831 0.816186,4.549402 z"
         id="path118715-4-3-4"
         sodipodi:nodetypes="sscss" />
      <path
         style="fill:#ffdb49;fill-opacity:1;stroke:none;stroke-width:0.234145px;stroke-linecap:butt;stroke-linejoin:miter;stroke-opacity:1"
         d="m 66.596501,93.571988 c 1.043149,0.339947 2.312002,-1.44739 2.782037,-2.76519 0.631352,-1.770106 -0.486148,-5.399731 -0.486148,-5.399731 0,0 -2.668248,2.001534 -3.112063,3.615521 -0.433233,1.57533 -0.400701,4.15282 0.816174,4.5494 z"
         id="path118715-2-4-8"
         sodipodi:nodetypes="sscss" />
      <path
         style="fill:#ffdb49;fill-opacity:1;stroke:none;stroke-width:0.234145px;stroke-linecap:butt;stroke-linejoin:miter;stroke-opacity:1"
         d="m 69.94796,91.813952 c 1.043148,0.339957 2.312012,-1.447388 2.782027,-2.765191 0.631362,-1.770104 -0.486139,-5.39972 -0.486139,-5.39972 0,0 -2.668249,2.001535 -3.112056,3.615512 -0.433241,1.575339 -0.400672,4.152833 0.816168,4.549399 z"
         id="path118715-23-9-1"
         sodipodi:nodetypes="sscss" />
      <path
         style="fill:#000000;fill-opacity:0;stroke:#ffdd55;stroke-width:1.265;stroke-linecap:butt;stroke-linejoin:miter;stroke-miterlimit:4;stroke-dasharray:none;stroke-opacity:1"
         d="M 81.184706,84.658427 31.073259,110.72168"
         id="path120456-66" />
      <path
         style="fill:#d4aa00;fill-opacity:1;stroke:none;stroke-width:0.232294px;stroke-linecap:butt;stroke-linejoin:miter;stroke-opacity:1"
         d="m 74.551607,80.382712 c 0.21953,-1.08455 2.35436,-1.33843 3.70166,-1.11506 1.80975,0.30004 4.34595,3.04261 4.34595,3.04261 0,0 -2.99816,1.38435 -4.58406,0.9945 -1.54795,-0.38052 -3.71961,-1.65686 -3.46355,-2.92205 z"
         id="path118715-47-1"
         sodipodi:nodetypes="sscss" />
      <path
         style="fill:#d4aa00;fill-opacity:1;stroke:none;stroke-width:0.232294px;stroke-linecap:butt;stroke-linejoin:miter;stroke-opacity:1"
         d="m 77.341257,78.410162 c 0.21953,-1.08455 2.35435,-1.3384 3.70166,-1.11505 1.80975,0.30003 4.34595,3.04259 4.34595,3.04259 0,0 -2.99815,1.38437 -4.58406,0.99451 -1.54795,-0.38051 -3.7196,-1.65686 -3.46355,-2.92205 z"
         id="path118715-7-9"
         sodipodi:nodetypes="sscss" />
      <path
         style="fill:#d4aa00;fill-opacity:1;stroke:none;stroke-width:0.232294px;stroke-linecap:butt;stroke-linejoin:miter;stroke-opacity:1"
         d="m 79.702217,77.683012 c -0.19227,-1.08199 1.70779,-2.14189 3.0474,-2.45817 1.79942,-0.42483 5.17157,1.11442 5.17157,1.11442 0,0 -2.292,2.43337 -3.91534,2.68897 -1.58448,0.24948 -4.07932,-0.083 -4.30363,-1.34524 z"
         id="path118715-5-5"
         sodipodi:nodetypes="sscss" />
      <path
         style="fill:#d4aa00;fill-opacity:1;stroke:none;stroke-width:0.232294px;stroke-linecap:butt;stroke-linejoin:miter;stroke-opacity:1"
         d="m 80.869057,75.257382 c -0.48475,-0.97522 1.05386,-2.54136 2.25786,-3.23469 1.61727,-0.9313 5.29425,-0.45022 5.29425,-0.45022 0,0 -1.53645,2.9901 -3.0308,3.70857 -1.45857,0.70126 -3.95585,1.11398 -4.52131,-0.0237 z"
         id="path118715-5-9-7"
         sodipodi:nodetypes="sscss" />
      <path
         style="fill:#d4aa00;fill-opacity:1;stroke:none;stroke-width:0.263412px;stroke-linecap:butt;stroke-linejoin:miter;stroke-opacity:1"
         d="m 61.973437,89.619962 c 0.24195,-1.20397 2.7075,-1.46361 4.26767,-1.20083 2.09568,0.35298 5.05787,3.43045 5.05787,3.43045 0,0 -3.45138,1.50785 -5.28923,1.05735 -1.79385,-0.43979 -4.3186,-1.88246 -4.03631,-3.28697 z"
         id="path118715-79"
         sodipodi:nodetypes="sscss" />
      <path
         style="fill:#d4aa00;fill-opacity:1;stroke:none;stroke-width:0.263412px;stroke-linecap:butt;stroke-linejoin:miter;stroke-opacity:1"
         d="m 64.549927,87.132382 c 0.24195,-1.20397 2.70751,-1.4636 4.26769,-1.20082 2.09567,0.35298 5.05785,3.43044 5.05785,3.43044 0,0 -3.45138,1.50786 -5.28922,1.05735 -1.79388,-0.43967 -4.31861,-1.88246 -4.03632,-3.28697 z"
         id="path118715-4-6"
         sodipodi:nodetypes="sscss" />
      <path
         style="fill:#d4aa00;fill-opacity:1;stroke:none;stroke-width:0.263412px;stroke-linecap:butt;stroke-linejoin:miter;stroke-opacity:1"
         d="m 67.719957,84.612432 c 0.24195,-1.20397 2.70751,-1.46362 4.2677,-1.20083 2.09567,0.35299 5.05784,3.43044 5.05784,3.43044 0,0 -3.45137,1.50787 -5.28921,1.05736 -1.79388,-0.43967 -4.31861,-1.88247 -4.03633,-3.28697 z"
         id="path118715-2-3"
         sodipodi:nodetypes="sscss" />
      <path
         style="fill:#d4aa00;fill-opacity:1;stroke:none;stroke-width:0.263412px;stroke-linecap:butt;stroke-linejoin:miter;stroke-opacity:1"
         d="m 71.309237,82.304592 c 0.24195,-1.20396 2.70751,-1.4636 4.26768,-1.20083 2.09568,0.35299 5.05786,3.43045 5.05786,3.43045 0,0 -3.45137,1.50786 -5.28922,1.05735 -1.79386,-0.43978 -4.31861,-1.88246 -4.03632,-3.28697 z"
         id="path118715-23-4"
         sodipodi:nodetypes="sscss" />
      <path
         style="fill:#d4aa00;fill-opacity:1;stroke:none;stroke-width:0.232294px;stroke-linecap:butt;stroke-linejoin:miter;stroke-opacity:1"
         d="m 75.258867,81.494522 c 1.06239,0.13788 1.98857,-1.86888 2.22259,-3.26006 0.31433,-1.86869 -1.36699,-5.24259 -1.36699,-5.24259 0,0 -2.23991,2.484 -2.39938,4.16284 -0.15571,1.63865 0.30443,4.17899 1.54378,4.33981 z"
         id="path118715-47-7-7"
         sodipodi:nodetypes="sscss" />
      <path
         style="fill:#d4aa00;fill-opacity:1;stroke:none;stroke-width:0.232294px;stroke-linecap:butt;stroke-linejoin:miter;stroke-opacity:1"
         d="m 77.968427,79.405832 c 1.0624,0.13788 1.98859,-1.86888 2.22259,-3.26007 0.31435,-1.86868 -1.36699,-5.24259 -1.36699,-5.24259 0,0 -2.23992,2.48401 -2.39938,4.16285 -0.15565,1.63865 0.30444,4.179 1.54378,4.33981 z"
         id="path118715-7-5-2"
         sodipodi:nodetypes="sscss" />
      <path
         style="fill:#d4aa00;fill-opacity:1;stroke:none;stroke-width:0.232294px;stroke-linecap:butt;stroke-linejoin:miter;stroke-opacity:1"
         d="m 79.083797,77.353852 c 0.95041,0.49463 2.46787,-1.09316 3.13765,-2.33364 0.89967,-1.66624 0.41771,-5.44465 0.41771,-5.44465 0,0 -2.9025,1.59102 -3.59563,3.13007 -0.67658,1.50219 -1.06843,4.07121 0.0403,4.64822 z"
         id="path118715-5-8-7"
         sodipodi:nodetypes="sscss" />
      <path
         style="fill:#d4aa00;fill-opacity:1;stroke:none;stroke-width:0.263412px;stroke-linecap:butt;stroke-linejoin:miter;stroke-opacity:1"
         d="m 62.504497,90.450222 c 1.22984,0.16463 2.27884,-2.05751 2.53427,-3.60241 0.34308,-2.07512 -1.63756,-5.8457 -1.63756,-5.8457 0,0 -2.56274,2.73904 -2.72884,4.60464 -0.16218,1.82096 0.39746,4.6514 1.83213,4.84347 z"
         id="path118715-9-4"
         sodipodi:nodetypes="sscss" />
      <path
         style="fill:#d4aa00;fill-opacity:1;stroke:none;stroke-width:0.263412px;stroke-linecap:butt;stroke-linejoin:miter;stroke-opacity:1"
         d="m 65.719907,88.847822 c 1.22983,0.16463 2.27884,-2.05751 2.53426,-3.6024 0.34309,-2.07514 -1.63756,-5.84571 -1.63756,-5.84571 0,0 -2.56273,2.73904 -2.72884,4.60464 -0.16208,1.82097 0.39748,4.6514 1.83214,4.84347 z"
         id="path118715-4-3-2"
         sodipodi:nodetypes="sscss" />
      <path
         style="fill:#d4aa00;fill-opacity:1;stroke:none;stroke-width:0.263412px;stroke-linecap:butt;stroke-linejoin:miter;stroke-opacity:1"
         d="m 69.159027,86.700672 c 1.22984,0.16465 2.27884,-2.05751 2.53426,-3.60239 0.34311,-2.07514 -1.63756,-5.84571 -1.63756,-5.84571 0,0 -2.56273,2.73903 -2.72883,4.60465 -0.16217,1.82095 0.39746,4.65139 1.83213,4.84345 z"
         id="path118715-2-4-1"
         sodipodi:nodetypes="sscss" />
      <path
         style="fill:#d4aa00;fill-opacity:1;stroke:none;stroke-width:0.263412px;stroke-linecap:butt;stroke-linejoin:miter;stroke-opacity:1"
         d="m 72.531487,84.092462 c 1.22984,0.16464 2.27885,-2.05752 2.53425,-3.60241 0.3431,-2.07513 -1.63755,-5.84571 -1.63755,-5.84571 0,0 -2.56272,2.73904 -2.72884,4.60464 -0.16217,1.82097 0.39746,4.65141 1.83214,4.84348 z"
         id="path118715-23-9-3"
         sodipodi:nodetypes="sscss" />
      <path
         style="fill:#aa8800;fill-opacity:0;stroke:#d4aa00;stroke-width:1.42312;stroke-linecap:butt;stroke-linejoin:miter;stroke-miterlimit:4;stroke-dasharray:none;stroke-opacity:1"
         d="M 83.582487,73.959422 33.111808,112.71248"
         id="path120456-2" />
      <path
         style="fill:#ffdb49;fill-opacity:1;stroke:none;stroke-width:0.206484px;stroke-linecap:butt;stroke-linejoin:miter;stroke-opacity:1"
         d="m 65.811603,78.678414 c -0.02992,-0.988119 1.757336,-1.635458 2.962721,-1.710021 1.619112,-0.100155 4.356947,1.781271 4.356947,1.781271 0,0 -2.302497,1.804022 -3.746972,1.781269 -1.409906,-0.02221 -3.537788,-0.699822 -3.572696,-1.852519 z"
         id="path118715-47"
         sodipodi:nodetypes="sscss" />
      <path
         style="fill:#ffdb49;fill-opacity:1;stroke:none;stroke-width:0.206484px;stroke-linecap:butt;stroke-linejoin:miter;stroke-opacity:1"
         d="m 67.815798,76.403918 c -0.02992,-0.988119 1.757337,-1.635458 2.962722,-1.710021 1.619112,-0.100155 4.356947,1.781271 4.356947,1.781271 0,0 -2.302497,1.804022 -3.746973,1.78127 -1.409906,-0.02221 -3.537787,-0.699823 -3.572696,-1.85252 z"
         id="path118715-7"
         sodipodi:nodetypes="sscss" />
      <path
         style="fill:#ffdb49;fill-opacity:1;stroke:none;stroke-width:0.206484px;stroke-linecap:butt;stroke-linejoin:miter;stroke-opacity:1"
         d="m 69.702233,75.299341 c -0.384022,-0.903655 1.038319,-2.205891 2.128132,-2.748771 1.463872,-0.729216 4.678685,-0.06238 4.678685,-0.06238 0,0 -1.482589,2.576341 -2.828991,3.123047 -1.314182,0.533618 -3.529841,0.742275 -3.977826,-0.311893 z"
         id="path118715-5"
         sodipodi:nodetypes="sscss" />
      <path
         style="fill:#ffdb49;fill-opacity:1;stroke:none;stroke-width:0.206484px;stroke-linecap:butt;stroke-linejoin:miter;stroke-opacity:1"
         d="m 70.217397,72.954418 c -0.614332,-0.752293 0.394513,-2.423124 1.291426,-3.267216 1.204761,-1.13381 4.468454,-1.449192 4.468454,-1.449192 0,0 -0.719517,2.910205 -1.861379,3.83416 -1.114538,0.90184 -3.181845,1.759843 -3.898501,0.882248 z"
         id="path118715-5-9"
         sodipodi:nodetypes="sscss" />
      <path
         style="fill:#ffdb49;fill-opacity:1;stroke:none;stroke-width:0.234145px;stroke-linecap:butt;stroke-linejoin:miter;stroke-opacity:1"
         d="m 56.844247,89.232728 c -0.03467,-1.096585 2.036202,-1.814983 3.432865,-1.897731 1.876043,-0.111149 5.048335,1.976802 5.048335,1.976802 0,0 -2.667872,2.00205 -4.341566,1.9768 -1.633639,-0.02465 -4.099186,-0.776642 -4.139634,-2.055871 z"
         id="path118715"
         sodipodi:nodetypes="sscss" />
      <path
         style="fill:#ffdb49;fill-opacity:1;stroke:none;stroke-width:0.234145px;stroke-linecap:butt;stroke-linejoin:miter;stroke-opacity:1"
         d="m 58.560896,86.552373 c -0.03467,-1.096585 2.036202,-1.814983 3.432865,-1.897731 1.876043,-0.111148 5.048335,1.976803 5.048335,1.976803 0,0 -2.667872,2.00205 -4.341566,1.9768 -1.633639,-0.02465 -4.099186,-0.776642 -4.139634,-2.055872 z"
         id="path118715-4"
         sodipodi:nodetypes="sscss" />
      <path
         style="fill:#ffdb49;fill-opacity:1;stroke:none;stroke-width:0.234145px;stroke-linecap:butt;stroke-linejoin:miter;stroke-opacity:1"
         d="m 60.782163,83.725306 c -0.03467,-1.096585 2.036202,-1.814983 3.432865,-1.897731 1.876043,-0.111149 5.048335,1.976802 5.048335,1.976802 0,0 -2.667872,2.00205 -4.341566,1.9768 -1.633639,-0.02465 -4.099186,-0.776642 -4.139634,-2.055871 z"
         id="path118715-2"
         sodipodi:nodetypes="sscss" />
      <path
         style="fill:#ffdb49;fill-opacity:1;stroke:none;stroke-width:0.234145px;stroke-linecap:butt;stroke-linejoin:miter;stroke-opacity:1"
         d="m 63.407297,80.999206 c -0.03467,-1.096585 2.036202,-1.814983 3.432865,-1.897731 1.876043,-0.111149 5.048335,1.976802 5.048335,1.976802 0,0 -2.667872,2.00205 -4.341566,1.9768 -1.633639,-0.02465 -4.099186,-0.776642 -4.139634,-2.055871 z"
         id="path118715-23"
         sodipodi:nodetypes="sscss" />
      <path
         style="fill:#ffdb49;fill-opacity:1;stroke:none;stroke-width:0.206484px;stroke-linecap:butt;stroke-linejoin:miter;stroke-opacity:1"
         d="m 66.645144,79.505207 c 0.942757,-0.09212 1.335248,-2.024273 1.255917,-3.282272 -0.106559,-1.689784 -2.235644,-4.291598 -2.235644,-4.291598 0,0 -1.427511,2.61003 -1.225909,4.103587 0.196737,1.457818 1.105855,3.577744 2.205636,3.470283 z"
         id="path118715-47-7"
         sodipodi:nodetypes="sscss" />
      <path
         style="fill:#ffdb49;fill-opacity:1;stroke:none;stroke-width:0.206484px;stroke-linecap:butt;stroke-linejoin:miter;stroke-opacity:1"
         d="m 68.556923,77.145579 c 0.942756,-0.09212 1.335247,-2.024273 1.255916,-3.282271 -0.106559,-1.689785 -2.235645,-4.291599 -2.235645,-4.291599 0,0 -1.427509,2.61003 -1.225908,4.103588 0.19678,1.457812 1.105857,3.577743 2.205637,3.470282 z"
         id="path118715-7-5"
         sodipodi:nodetypes="sscss" />
      <path
         style="fill:#ffdb49;fill-opacity:1;stroke:none;stroke-width:0.206484px;stroke-linecap:butt;stroke-linejoin:miter;stroke-opacity:1"
         d="m 69.103198,75.136252 c 0.918342,0.240871 1.904611,-1.444585 2.230989,-2.658381 0.438403,-1.63041 -0.739465,-4.823915 -0.739465,-4.823915 0,0 -2.178408,1.964844 -2.464615,3.443263 -0.279388,1.443031 -0.0982,3.758037 0.973091,4.039033 z"
         id="path118715-5-8"
         sodipodi:nodetypes="sscss" />
      <path
         style="fill:#ffdb49;fill-opacity:1;stroke:none;stroke-width:0.234145px;stroke-linecap:butt;stroke-linejoin:miter;stroke-opacity:1"
         d="m 57.469218,89.849562 c 1.092364,-0.102233 1.547129,-2.246478 1.455212,-3.642567 -0.123468,-1.875273 -2.590409,-4.762689 -2.590409,-4.762689 0,0 -1.654037,2.896534 -1.420444,4.554039 0.227957,1.617843 1.28134,3.970474 2.555641,3.851217 z"
         id="path118715-9"
         sodipodi:nodetypes="sscss" />
      <path
         style="fill:#ffdb49;fill-opacity:1;stroke:none;stroke-width:0.234145px;stroke-linecap:butt;stroke-linejoin:miter;stroke-opacity:1"
         d="m 59.914799,87.812322 c 1.092354,-0.102232 1.547129,-2.246478 1.455212,-3.642567 -0.123468,-1.875273 -2.590419,-4.762688 -2.590419,-4.762688 0,0 -1.654036,2.896534 -1.420444,4.554039 0.228056,1.617831 1.28135,3.970473 2.555651,3.851216 z"
         id="path118715-4-3"
         sodipodi:nodetypes="sscss" />
      <path
         style="fill:#ffdb49;fill-opacity:1;stroke:none;stroke-width:0.234145px;stroke-linecap:butt;stroke-linejoin:miter;stroke-opacity:1"
         d="m 62.443062,85.256118 c 1.092365,-0.102233 1.547139,-2.246479 1.455212,-3.642568 -0.123467,-1.875272 -2.590409,-4.762688 -2.590409,-4.762688 0,0 -1.654036,2.896534 -1.420443,4.554039 0.227957,1.617843 1.281339,3.970474 2.55564,3.851217 z"
         id="path118715-2-4"
         sodipodi:nodetypes="sscss" />
      <path
         style="fill:#ffdb49;fill-opacity:1;stroke:none;stroke-width:0.234145px;stroke-linecap:butt;stroke-linejoin:miter;stroke-opacity:1"
         d="m 64.820831,82.311773 c 1.092365,-0.102233 1.547139,-2.246479 1.455212,-3.642567 -0.123468,-1.875273 -2.590409,-4.762689 -2.590409,-4.762689 0,0 -1.654036,2.896534 -1.420443,4.554039 0.227957,1.617844 1.281339,3.970475 2.55564,3.851217 z"
         id="path118715-23-9"
         sodipodi:nodetypes="sscss" />
      <path
         style="fill:#000000;fill-opacity:0;stroke:#ffdd55;stroke-width:1.265;stroke-linecap:butt;stroke-linejoin:miter;stroke-miterlimit:4;stroke-dasharray:none;stroke-opacity:1"
         d="M 72.292148,71.282482 36.650908,115.10202"
         id="path120456" />
      <path
         style="fill:#ffe680;fill-opacity:1;stroke:none;stroke-width:0.206484px;stroke-linecap:butt;stroke-linejoin:miter;stroke-opacity:1"
         d="m 56.774122,79.729683 c -0.330607,-0.931652 1.173132,-2.09445 2.297995,-2.53399 1.51095,-0.590411 4.692926,0.363817 4.692926,0.363817 0,0 -1.640648,2.421623 -3.022908,2.841605 -1.349174,0.409946 -3.582338,0.415383 -3.968013,-0.671432 z"
         id="path118715-47-4"
         sodipodi:nodetypes="sscss" />
      <path
         style="fill:#ffe680;fill-opacity:1;stroke:none;stroke-width:0.206484px;stroke-linecap:butt;stroke-linejoin:miter;stroke-opacity:1"
         d="m 57.986903,76.951318 c -0.330608,-0.931652 1.173133,-2.09445 2.297996,-2.53399 1.51095,-0.590411 4.692925,0.363817 4.692925,0.363817 0,0 -1.640648,2.421623 -3.022905,2.841615 -1.349174,0.409946 -3.582337,0.415383 -3.968016,-0.671442 z"
         id="path118715-7-8"
         sodipodi:nodetypes="sscss" />
      <path
         style="fill:#ffe680;fill-opacity:1;stroke:none;stroke-width:0.206484px;stroke-linecap:butt;stroke-linejoin:miter;stroke-opacity:1"
         d="m 59.44527,75.322852 c -0.641926,-0.742959 0.314137,-2.417721 1.185773,-3.267816 1.17081,-1.141872 4.435547,-1.489934 4.435547,-1.489934 0,0 -0.623865,2.906267 -1.738631,3.838462 -1.088091,0.909881 -3.133849,1.785983 -3.882692,0.919279 z"
         id="path118715-5-53"
         sodipodi:nodetypes="sscss" />
      <path
         style="fill:#ffe680;fill-opacity:1;stroke:none;stroke-width:0.206484px;stroke-linecap:butt;stroke-linejoin:miter;stroke-opacity:1"
         d="m 59.218796,72.932716 c -0.814927,-0.52843 -0.365256,-2.427703 0.230619,-3.505614 0.8004,-1.447872 3.811369,-2.746032 3.811369,-2.746032 0,0 0.204746,2.990837 -0.599933,4.219667 -0.785423,1.199425 -2.49139,2.648431 -3.442055,2.031979 z"
         id="path118715-5-9-0"
         sodipodi:nodetypes="sscss" />
      <path
         style="fill:#ffe680;fill-opacity:1;stroke:none;stroke-width:0.234145px;stroke-linecap:butt;stroke-linejoin:miter;stroke-opacity:1"
         d="m 51.463216,92.520353 c -0.368295,-1.03348 1.383755,-2.35064 2.688232,-2.85646 1.752216,-0.67943 5.410987,0.33859 5.410987,0.33859 0,0 -1.927977,2.72188 -3.52924,3.20958 -1.562957,0.47597 -4.140339,0.51389 -4.569979,-0.69171 z"
         id="path118715-1"
         sodipodi:nodetypes="sscss" />
      <path
         style="fill:#ffe680;fill-opacity:1;stroke:none;stroke-width:0.234145px;stroke-linecap:butt;stroke-linejoin:miter;stroke-opacity:1"
         d="m 52.278128,89.443483 c -0.368292,-1.03347 1.383755,-2.35064 2.688232,-2.85646 1.752219,-0.67943 5.41099,0.3386 5.41099,0.3386 0,0 -1.927977,2.72188 -3.52924,3.20958 -1.562957,0.47597 -4.140339,0.51389 -4.569982,-0.69172 z"
         id="path118715-4-1"
         sodipodi:nodetypes="sscss" />
      <path
         style="fill:#ffe680;fill-opacity:1;stroke:none;stroke-width:0.234145px;stroke-linecap:butt;stroke-linejoin:miter;stroke-opacity:1"
         d="m 53.528639,86.072643 c -0.368296,-1.03347 1.383751,-2.350644 2.688231,-2.856456 1.752217,-0.679433 5.410987,0.338589 5.410987,0.338589 0,0 -1.927977,2.721887 -3.529239,3.209577 -1.562958,0.47598 -4.14034,0.51389 -4.569979,-0.69171 z"
         id="path118715-2-8"
         sodipodi:nodetypes="sscss" />
      <path
         style="fill:#ffe680;fill-opacity:1;stroke:none;stroke-width:0.234145px;stroke-linecap:butt;stroke-linejoin:miter;stroke-opacity:1"
         d="m 55.194544,82.674453 c -0.368294,-1.033472 1.383752,-2.350644 2.688232,-2.856455 1.752217,-0.679433 5.410987,0.338586 5.410987,0.338586 0,0 -1.927978,2.721884 -3.52924,3.20958 -1.562958,0.475973 -4.14034,0.513891 -4.569979,-0.691711 z"
         id="path118715-23-2"
         sodipodi:nodetypes="sscss" />
      <path
         style="fill:#ffe680;fill-opacity:1;stroke:none;stroke-width:0.206484px;stroke-linecap:butt;stroke-linejoin:miter;stroke-opacity:1"
         d="m 57.820539,80.262021 c 0.86945,-0.37594 0.652378,-2.335586 0.192209,-3.509085 -0.618115,-1.576287 -3.440751,-3.402525 -3.440751,-3.402525 0,0 -0.561124,2.921504 0.08748,4.281898 0.633045,1.327844 2.146801,3.068287 3.161058,2.629712 z"
         id="path118715-47-7-1"
         sodipodi:nodetypes="sscss" />
      <path
         style="fill:#ffe680;fill-opacity:1;stroke:none;stroke-width:0.206484px;stroke-linecap:butt;stroke-linejoin:miter;stroke-opacity:1"
         d="m 58.919301,77.430859 c 0.869448,-0.375939 0.652376,-2.335585 0.192207,-3.509085 -0.618111,-1.576277 -3.440751,-3.402523 -3.440751,-3.402523 0,0 -0.561123,2.921503 0.08748,4.281897 0.633087,1.327831 2.146804,3.068286 3.16106,2.629711 z"
         id="path118715-7-5-4"
         sodipodi:nodetypes="sscss" />
      <path
         style="fill:#ffe680;fill-opacity:1;stroke:none;stroke-width:0.206484px;stroke-linecap:butt;stroke-linejoin:miter;stroke-opacity:1"
         d="m 58.825057,75.350729 c 0.948013,-0.05144 1.371716,-1.957741 1.311341,-3.213204 -0.0811,-1.686374 -2.178978,-4.366803 -2.178978,-4.366803 0,0 -1.47333,2.5368 -1.293799,4.031928 0.175202,1.459349 1.055534,3.608096 2.161436,3.548079 z"
         id="path118715-5-8-9"
         sodipodi:nodetypes="sscss" />
      <path
         style="fill:#ffe680;fill-opacity:1;stroke:none;stroke-width:0.234145px;stroke-linecap:butt;stroke-linejoin:miter;stroke-opacity:1"
         d="m 52.246856,92.916553 c 1.008794,-0.43133 0.786173,-2.61193 0.271799,-3.91306 -0.690928,-1.74772 -3.922563,-3.74258 -3.922563,-3.74258 0,0 -0.689204,3.26354 0.03999,4.77026 0.7117,1.47066 2.433961,3.38855 3.610774,2.88538 z"
         id="path118715-9-3"
         sodipodi:nodetypes="sscss" />
      <path
         style="fill:#ffe680;fill-opacity:1;stroke:none;stroke-width:0.234145px;stroke-linecap:butt;stroke-linejoin:miter;stroke-opacity:1"
         d="m 53.952428,90.229133 c 1.008785,-0.43133 0.786173,-2.61193 0.271799,-3.91306 -0.690928,-1.74772 -3.922572,-3.742576 -3.922572,-3.742576 0,0 -0.689204,3.263546 0.03999,4.770256 0.711791,1.47062 2.433971,3.38855 3.610783,2.88538 z"
         id="path118715-4-3-1"
         sodipodi:nodetypes="sscss" />
      <path
         style="fill:#ffe680;fill-opacity:1;stroke:none;stroke-width:0.234145px;stroke-linecap:butt;stroke-linejoin:miter;stroke-opacity:1"
         d="m 55.578048,87.022323 c 1.008796,-0.43133 0.78618,-2.61194 0.271797,-3.913068 -0.690923,-1.747711 -3.922563,-3.74258 -3.922563,-3.74258 0,0 -0.689199,3.263553 0.03999,4.770248 0.711703,1.47068 2.433963,3.38857 3.610774,2.8854 z"
         id="path118715-2-4-7"
         sodipodi:nodetypes="sscss" />
      <path
         style="fill:#ffe680;fill-opacity:1;stroke:none;stroke-width:0.234145px;stroke-linecap:butt;stroke-linejoin:miter;stroke-opacity:1"
         d="m 56.941704,83.491964 c 1.008796,-0.431329 0.786184,-2.611929 0.271801,-3.913054 -0.690928,-1.747724 -3.922564,-3.742584 -3.922564,-3.742584 0,0 -0.689203,3.263545 0.03999,4.770256 0.711699,1.470665 2.433959,3.388552 3.61077,2.885382 z"
         id="path118715-23-9-9"
         sodipodi:nodetypes="sscss" />
      <path
         style="fill:#ffe680;fill-opacity:0;stroke:#ffe680;stroke-width:1.265;stroke-linecap:butt;stroke-linejoin:miter;stroke-miterlimit:4;stroke-dasharray:none;stroke-opacity:1"
         d="M 60.682989,70.706482 40.146532,123.32495"
         id="path120456-6" />
    </g>
  </g>
</svg>
