<?xml version="1.0" encoding="UTF-8" standalone="no"?>
<!-- Created with Inkscape (http://www.inkscape.org/) -->

<svg
   width="43.274mm"
   height="53.393mm"
   viewBox="0 0 43.274 53.393"
   version="1.1"
   id="svg2518"
   inkscape:version="1.1.1 (3bf5ae0d25, 2021-09-20)"
   sodipodi:docname="documents.svg"
   inkscape:export-filename="E:\V-rok\magisterka\implementation\Animation\graphics\objects\documents.png"
   inkscape:export-xdpi="80"
   inkscape:export-ydpi="80"
   xmlns:inkscape="http://www.inkscape.org/namespaces/inkscape"
   xmlns:sodipodi="http://sodipodi.sourceforge.net/DTD/sodipodi-0.dtd"
   xmlns="http://www.w3.org/2000/svg"
   xmlns:svg="http://www.w3.org/2000/svg">
  <sodipodi:namedview
     id="namedview2520"
     pagecolor="#505050"
     bordercolor="#eeeeee"
     borderopacity="1"
     inkscape:pageshadow="0"
     inkscape:pageopacity="0"
     inkscape:pagecheckerboard="0"
     inkscape:document-units="mm"
     showgrid="false"
     inkscape:snap-global="false"
     inkscape:zoom="1.8529742"
     inkscape:cx="97.141126"
     inkscape:cy="129.25166"
     inkscape:window-width="1366"
     inkscape:window-height="705"
     inkscape:window-x="-8"
     inkscape:window-y="-8"
     inkscape:window-maximized="1"
     inkscape:current-layer="layer1" />
  <defs
     id="defs2515" />
  <g
     inkscape:label="Warstwa 1"
     inkscape:groupmode="layer"
     id="layer1">
    <g
       id="g17308"
       transform="matrix(1.49987,0,0,1.4998487,-38.906675,-13.764781)"
       inkscape:export-filename="E:\V-rok\magisterka\implementation\Animation\graphics\objects\documents.png"
       inkscape:export-xdpi="50"
       inkscape:export-ydpi="50">
      <rect
         style="fill:#ffe6d5;stroke-width:1.065"
         id="rect2629"
         width="22.417789"
         height="32.555771"
         x="26.211628"
         y="16.223276"
         transform="rotate(-7.789088)" />
      <rect
         style="fill:#f2f2f2;stroke-width:1.065"
         id="rect2627"
         width="22.275002"
         height="32.127403"
         x="28.392712"
         y="13.734415"
         transform="rotate(-3.4795712)" />
      <rect
         style="fill:#ececec;stroke-width:0.976659"
         id="rect2625"
         width="20.372866"
         height="28.903206"
         x="21.329529"
         y="20.396658"
         transform="matrix(0.9676676,-0.25222889,0.25985314,0.96564815,0,0)" />
      <rect
         style="fill:#f9f9f9;stroke-width:1.0319"
         id="rect2601"
         width="20.070221"
         height="29.10676"
         x="26.341675"
         y="18.293266"
         transform="matrix(0.98942863,-0.14502063,0.14968536,0.98873368,0,0)" />
      <text
         xml:space="preserve"
         style="font-style:normal;font-weight:normal;font-size:2.11667px;line-height:1.25;font-family:sans-serif;letter-spacing:0px;word-spacing:0px;fill:#000000;fill-opacity:1;stroke:none;stroke-width:0.264583"
         x="30.434902"
         y="20.428036"
         id="text11683"
         transform="rotate(-6.7358778)"><tspan
           sodipodi:role="line"
           id="tspan11681"
           style="font-style:italic;font-variant:normal;font-weight:bold;font-stretch:normal;font-size:2.11667px;font-family:sans-serif;-inkscape-font-specification:'sans-serif Bold Italic';stroke-width:0.264583"
           x="30.434902"
           y="20.428036">Documents</tspan></text>
      <circle
         id="path17175"
         style="fill:#000000;stroke:#000000;stroke-width:0.264583"
         cx="33.874325"
         cy="21.051556"
         r="0.00033833634" />
      <circle
         id="path17177"
         style="fill:#000000;stroke:#000000;stroke-width:0.264583"
         cx="33.874325"
         cy="21.051556"
         r="0.00033833634" />
      <path
         style="fill:#000000;stroke-width:1.065"
         id="path17179"
         d="m 32.174926,22.310877 c 0.277021,-0.121953 0.491937,-0.300918 0.673499,-0.540178 0.139634,-0.19425 0.202409,-0.420088 0.230251,-0.654093 -0.01061,-0.125336 -0.0027,-0.271861 -0.06822,-0.385569 -0.0086,-0.01496 -0.01855,-0.03956 -0.0357,-0.03752 -0.03087,0.0037 -0.05205,0.03402 -0.07808,0.05103 -0.0096,0.0339 -0.02262,0.06701 -0.02868,0.101713 -0.02045,0.117044 -0.02069,0.238276 -0.02053,0.356403 2.64e-4,0.216596 0.01135,0.433413 0.01902,0.649825 0.0049,0.392752 0.03829,0.80395 -0.07688,1.185183 -0.158414,-0.03766 -0.224242,-0.454795 -0.246581,-0.584863 -0.003,-0.08178 -0.0195,-0.221276 0.09862,-0.23857 0.02231,-0.0033 0.04268,0.01501 0.06481,0.01931 0.53317,0.103793 -0.302611,-0.07807 0.310005,0.05834 0.162375,0.01938 0.349311,0.113945 0.515554,0.09304 0.193148,-0.02429 0.309861,-0.172895 0.415903,-0.314618 0.0245,-0.04084 0.04518,-0.08422 0.07348,-0.122524 0.0821,-0.111101 0.04176,-0.03486 0.05061,0.0041 0.009,0.03987 0.0709,0.09814 -0.0034,0.135072 -0.02564,0.01273 -0.05713,-0.0034 -0.0857,-0.0051 -0.16873,0.0044 -0.32783,-0.02006 -0.459754,-0.134181 -0.03622,-0.03133 -0.07214,-0.06619 -0.09358,-0.10901 -0.01611,-0.03222 -0.02695,-0.07325 -0.01458,-0.107097 0.01254,-0.03437 0.05389,-0.04952 0.08083,-0.07427 0.282715,0.01894 0.547243,0.127454 0.809262,0.226361 0.06791,0.02563 0.133544,0.05827 0.20361,0.07725 0.06081,0.01647 0.124561,0.01899 0.186841,0.02849 0.05202,-0.0058 0.105468,-0.004 0.156062,-0.01745 0.08598,-0.02281 0.191365,-0.09822 0.252963,-0.155786 0.004,-0.0038 0.07819,-0.09656 0.08024,-0.120206 5.29e-4,-0.0065 -0.01275,0.0023 -0.01913,0.0034 -0.09061,0.05272 -0.120148,0.160382 -0.197962,0.225223 -0.06245,0.05204 -0.173341,-0.02021 -0.223221,-0.04769 -0.01154,-0.02105 -0.177088,-0.118201 -0.13131,-0.169546 0.0047,-0.0053 6.4e-5,0.01726 0.0065,0.02012 0.02612,0.01161 0.05565,0.01294 0.08337,0.01984 0.04066,0.01012 0.08118,0.0208 0.121764,0.0312 0.277665,0.0708 0.514501,-0.09893 0.766768,-0.181835 0.181901,-0.05978 0.182197,-0.04487 0.365665,-0.04107 0.05246,0.0092 0.105053,0.0177 0.157366,0.02771 0.111472,0.02133 0.174077,0.04881 0.288716,0.02879 0.550405,-0.09613 -0.239842,0.0047 0.264189,-0.107125 0.03612,-0.008 0.07382,0.005 0.110739,0.0074 0.03267,0.02541 0.06926,0.04646 0.09802,0.07624 0.07001,0.07251 0.177945,0.221865 0.155572,0.332748 -0.0181,0.08974 -0.07358,0.09908 -0.142002,0.134657 -0.286155,0.03096 -0.563586,-0.04551 -0.833924,-0.130321 -0.02281,-0.0072 -0.344784,-0.147112 -0.414354,-0.115369 0.01252,0.02287 0.0163,0.05353 0.03757,0.0686 0.03749,0.02657 0.08547,0.03382 0.128749,0.04925 0.156628,0.05581 0.324879,0.12654 0.48341,0.02344 0.08697,-0.05656 0.152723,-0.140456 0.229084,-0.210684 0.05732,-0.123624 0.12596,-0.242604 0.171958,-0.370872 0.110286,-0.307546 0.203557,-0.761838 0.255344,-1.078685 0.07189,-0.439855 0.110924,-0.883665 0.119803,-1.328806 -0.01884,0.03482 -0.05114,0.06524 -0.05648,0.104464 -0.02042,0.150188 -0.01437,0.302809 -0.01953,0.454292 -0.0085,0.251568 -0.01606,0.503177 -0.02146,0.754831 -0.01781,0.830339 -0.02178,1.660889 -0.03798,2.491265 -0.01511,0.175032 -0.02267,0.48036 -0.08862,0.670731 -0.01074,0.03097 -0.02712,0.06781 -0.05769,0.07963 -0.01691,0.0065 -0.0046,-0.03617 -0.01035,-0.05334 -0.08772,-0.26176 -0.0046,0.06535 -0.08032,-0.267801 -0.03531,-0.222123 -0.02019,-0.111377 -0.04555,-0.332215 0,0 -0.04126,0.02162 -0.04126,0.02162 v 0 c 0.02559,0.221081 0.01042,0.110175 0.04571,0.332694 0.01177,0.05277 0.02003,0.106468 0.03536,0.158321 0.01159,0.03917 0.01429,0.08718 0.04518,0.113925 0.07306,0.06327 0.132398,-0.01969 0.149492,-0.07247 0.06186,-0.190984 0.06666,-0.491848 0.07996,-0.667296 0.01188,-0.830157 0.01476,-1.660601 0.03675,-2.490583 0.0067,-0.252591 0.01588,-0.505124 0.02703,-0.757558 0.0067,-0.152502 0.02647,-0.304526 0.02663,-0.457177 2.7e-5,-0.02286 -0.01738,-0.04229 -0.02609,-0.06344 -0.0038,0.444915 -0.04263,0.88585 -0.114802,1.325497 -0.05228,0.31844 -0.146394,0.770975 -0.258972,1.079323 -0.04687,0.128374 -0.116832,0.247096 -0.175247,0.370644 -0.05049,0.05515 -0.08949,0.123641 -0.151481,0.165446 -0.156343,0.105426 -0.325493,0.03421 -0.480759,-0.02151 -0.04292,-0.01541 -0.08332,-0.03843 -0.127587,-0.04939 -0.03783,-0.0094 -0.07759,-0.0073 -0.116388,-0.011 0.05992,-0.04128 0.02265,-0.02278 0.168291,0.02212 0.08385,0.02585 0.164767,0.06058 0.248497,0.08681 0.270168,0.08463 0.547333,0.161827 0.833421,0.135082 0.08273,-0.04652 0.200216,-0.07449 0.220829,-0.186391 0.02066,-0.112167 -0.08705,-0.261879 -0.157702,-0.335749 -0.0292,-0.03054 -0.06624,-0.05248 -0.09935,-0.07873 -0.03755,-0.003 -0.07582,-0.01706 -0.112649,-0.0091 -0.09275,0.02 -0.160906,0.111663 -0.263025,0.108824 -0.114943,0.02101 -0.176585,-0.0064 -0.288507,-0.02784 -0.05256,-0.01008 -0.105386,-0.01872 -0.158078,-0.02807 -0.183726,-0.0046 -0.185285,-0.01968 -0.36745,0.04003 -0.251259,0.08236 -0.486871,0.253548 -0.763471,0.183135 -0.04037,-0.01057 -0.08074,-0.02117 -0.121121,-0.0317 -0.02791,-0.0073 -0.05496,-0.02329 -0.08376,-0.02171 -0.134548,0.0074 -0.09854,0.0688 -0.03619,0.132671 0.02535,0.02598 0.05441,0.04807 0.08162,0.07211 0.05418,0.03059 0.115014,0.08029 0.185266,0.06413 0.09935,-0.02284 0.130633,-0.06535 0.186907,-0.136604 0.05844,-0.074 0.05502,-0.04524 0.05046,-0.100005 0.01175,-0.01296 0.0456,-0.0528 -0.009,0.02796 -0.06057,0.08964 -0.11874,0.155086 -0.228968,0.185545 -0.05044,0.01394 -0.103915,0.01255 -0.155874,0.01882 -0.06226,-0.0091 -0.125987,-0.01112 -0.18678,-0.02735 -0.07022,-0.01875 -0.13598,-0.05139 -0.204007,-0.077 -0.13761,-0.05179 -0.322834,-0.124178 -0.463794,-0.164287 -0.07231,-0.02057 -0.144663,-0.04739 -0.21977,-0.05069 -0.06981,-0.0031 -0.138126,0.02128 -0.207188,0.03192 -0.0263,0.02613 -0.06722,0.04321 -0.07893,0.0784 -0.01161,0.03489 -8.7e-5,0.07628 0.01654,0.109078 0.02185,0.04312 0.05798,0.07833 0.09451,0.109992 0.132305,0.114677 0.291656,0.140504 0.461209,0.137342 0.05592,-0.01445 0.117327,-0.01518 0.167746,-0.04334 0.04632,-0.02587 0.03764,-0.115178 5.29e-4,-0.141266 -0.106378,-0.07495 -0.176747,0.115101 -0.20824,0.163064 -0.03458,0.04569 -0.124175,0.178147 -0.185169,0.21386 -0.209965,0.122929 -0.449559,0.0022 -0.665303,-0.03719 -0.157001,-0.03558 -0.298066,-0.08419 -0.458105,-0.03385 -0.0258,0.0081 -0.05265,0.02094 -0.0693,0.04227 -0.04139,0.05303 -0.02664,0.144771 -0.02574,0.20104 0.03102,0.177516 0.06085,0.389832 0.175263,0.537071 0.01707,0.02196 0.03534,0.0536 0.06313,0.05455 0.03499,0.0012 0.06185,-0.03281 0.09278,-0.04922 0.111213,-0.382332 0.07869,-0.792488 0.0742,-1.185542 -0.0034,-0.09697 -0.01238,-0.344268 -0.01479,-0.442103 -0.0046,-0.185926 -0.0159,-0.379781 0.01916,-0.563851 0.0065,-0.03416 0.02064,-0.06642 0.03095,-0.09963 -0.02898,-0.02245 0.01651,0.01215 0.02604,0.02842 0.01341,0.02287 0.02151,0.04862 0.02902,0.07405 0.02959,0.100137 0.03601,0.205532 0.03853,0.309204 -0.02811,0.233211 -0.09089,0.45815 -0.230572,0.651464 -0.15744,0.206367 -0.35053,0.386964 -0.591886,0.490879 0,0 -0.03839,0.03071 -0.03839,0.03071 z" />
      <path
         style="fill:#000000;stroke-width:1.065"
         id="path17181"
         d="m 38.217657,21.681819 c 0.02434,-0.05201 0.142023,-0.304205 0.160764,-0.340248 0.02169,-0.04173 0.06855,-0.200873 0.16475,-0.19304 0.09284,0.0076 0.157777,0.0742 0.226238,0.126172 0.03392,0.03189 0.06197,0.07148 0.101748,0.09567 0.152334,0.09264 0.28407,-0.0227 0.397052,-0.117488 0.09866,-0.08277 0.124801,-0.151062 0.102674,-0.09587 -0.0113,0.01811 -0.01945,0.03862 -0.03387,0.05434 -0.09821,0.106967 -0.347576,0.300562 -0.490287,0.324105 -0.03887,0.0064 -0.07873,0.0029 -0.118099,0.0043 -0.06171,-0.01808 -0.109635,-0.02297 -0.15785,-0.06755 -0.0095,-0.0088 -0.0058,-0.02846 -0.01701,-0.03497 -0.0064,-0.0037 -0.02225,0.01418 -0.01516,0.01631 0.02373,0.0071 0.04953,1.84e-4 0.07426,0.0013 0.04634,0.0022 0.09259,0.0057 0.138891,0.0086 0.31487,-0.0033 0.574018,-0.180307 0.891563,-0.143247 0.179716,0.02097 0.263491,0.07024 0.425866,0.139635 0.05555,0.02885 0.108955,0.06227 0.166648,0.08656 0.0434,0.01827 0.08829,0.03817 0.135321,0.04056 0.07532,0.0038 0.241003,-0.123917 0.205626,-0.206804 -0.01204,-0.02823 -0.05184,-0.03287 -0.07776,-0.0493 -0.22026,0.04282 -0.414356,0.156359 -0.606859,0.265642 -0.01849,0.01049 -0.239612,0.162973 -0.311488,0.1523 -0.01828,-0.0027 -0.0241,-0.02804 -0.03616,-0.04207 0.02011,-0.04307 0.0355,-0.08869 0.06034,-0.129221 0.114377,-0.186614 0.288166,-0.411897 0.484833,-0.515547 0.11852,-0.06247 0.308041,-0.07448 0.431927,-0.09129 0,0 0.03597,-0.02687 0.03597,-0.02687 v 0 c -0.228386,0.03016 -0.295,0.01938 -0.509728,0.134765 -0.190428,0.102329 -0.37578,0.335113 -0.485762,0.518488 -0.02527,0.04213 -0.03957,0.08993 -0.05936,0.134897 0.078,0.08779 0.03127,0.06422 0.209894,-0.02294 0.05011,-0.02445 0.09601,-0.05673 0.144505,-0.08424 0.191273,-0.108489 0.3839,-0.220739 0.601435,-0.267787 0.02492,0.01468 0.06355,0.01737 0.07476,0.04403 0.01116,0.02654 -0.01397,0.05586 -0.02104,0.08377 -0.0037,0.0146 7.94e-4,0.03479 -0.0113,0.04375 -0.02582,0.0191 -0.05884,0.03291 -0.09095,0.03186 -0.04704,-0.0015 -0.09216,-0.02124 -0.135628,-0.03928 -0.058,-0.02407 -0.111588,-0.05765 -0.167381,-0.08648 -0.162102,-0.06947 -0.247687,-0.119495 -0.427032,-0.141068 -0.07517,-0.009 -0.152078,-0.01005 -0.227121,-5.5e-5 -0.07721,0.01029 -0.150318,0.04092 -0.22574,0.06039 -0.277413,0.07161 -0.168942,0.04988 -0.43705,0.0821 -0.04597,-0.0032 -0.09192,-0.0067 -0.137906,-0.0095 -0.02492,-0.0015 -0.05058,-0.0097 -0.07481,-0.0037 -0.119603,0.0297 -0.04562,0.08895 0.01797,0.116501 0.03031,0.01313 0.06328,0.01897 0.09492,0.02846 0.03986,-0.0011 0.08108,0.007 0.119575,-0.0034 0.159914,-0.04318 0.464982,-0.24247 0.571508,-0.37304 0.0149,-0.01826 0.01873,-0.04323 0.02811,-0.06485 -0.02625,0.01347 -0.05547,0.0223 -0.07875,0.04043 -0.06741,0.05249 -0.110813,0.13547 -0.185616,0.176748 -0.139168,0.0768 -0.241178,0.01167 -0.335835,-0.09415 -0.04318,-0.03317 -0.158412,-0.138583 -0.228881,-0.130594 -0.05531,0.0063 -0.109688,0.03579 -0.149212,0.07499 -0.04529,0.04492 -0.06488,0.109925 -0.09431,0.166523 -0.006,0.0116 -0.148233,0.30994 -0.163285,0.341495 0,0 0.04411,-0.02015 0.04411,-0.02015 z" />
      <path
         style="fill:#000000;stroke-width:1.065"
         id="path17183"
         d="m 42.459994,21.279153 c 0.215794,-0.08347 0.319024,-0.313438 0.435219,-0.496992 0.09753,-0.154062 0.0861,-0.08489 0.09268,-0.182944 -0.17952,0.07036 -0.328557,0.168317 -0.530071,0.174629 -0.157348,0.0049 -0.335876,-0.04363 -0.47616,-0.112367 -0.05221,-0.02558 -0.09585,-0.06584 -0.143778,-0.09875 0.0064,-0.0067 0.01082,-0.02386 0.01921,-0.02 0.04804,0.0221 0.08747,0.05947 0.131199,0.0892 0.08727,0.03418 0.174371,0.06878 0.261805,0.102527 0.136118,0.05254 0.445977,0.174071 0.586526,0.207972 0.09898,0.02387 0.201282,0.03084 0.301921,0.04627 0.08879,-0.0032 0.177681,-0.0045 0.266377,-0.0097 0.199113,-0.0117 0.212254,-0.04668 0.394105,0.0262 0.04686,0.01878 0.212524,0.116035 0.23967,0.176828 0.007,0.01556 -0.03323,0.0076 -0.04984,0.01138 -0.293807,-0.01762 -0.589386,-0.06694 -0.871308,-0.153162 -0.06311,-0.0193 -0.136249,-0.02796 -0.183689,-0.07384 -0.02006,-0.0194 0.0036,-0.06162 0.02455,-0.08002 0.04756,-0.04172 0.111855,-0.05915 0.167783,-0.08872 0.361688,-0.177091 0.729774,-0.340571 1.096447,-0.506927 0.168018,-0.07623 0.539242,-0.240979 0.710311,-0.336366 0.09513,-0.05304 0.184181,-0.116319 0.27627,-0.174478 0.0074,-0.06244 0.03711,-0.126208 0.02233,-0.187333 -0.02429,-0.100473 -0.204517,-0.31634 -0.287768,-0.363613 -0.05185,-0.02944 -0.127643,-0.06133 -0.17675,-0.02751 -0.197199,0.135793 -0.192283,0.482413 -0.21881,0.66589 -0.03821,0.550915 0.0011,1.142547 -0.260009,1.649269 -0.02138,0.0415 -0.05046,0.07857 -0.0757,0.117854 0.0052,0.01373 0.0011,0.04059 0.01572,0.04118 0.08847,0.0036 0.405416,-0.107931 0.443719,-0.121043 0.132133,-0.04523 0.442114,-0.158771 0.572723,-0.21964 0.07906,-0.03685 0.153651,-0.08263 0.230476,-0.123945 0.06703,-0.06023 0.145018,-0.110148 0.201086,-0.180698 0.06393,-0.08045 0.220265,-0.464129 0.07325,-0.540437 -0.01752,-0.0091 -0.03938,-0.0021 -0.05907,-0.0032 -0.01527,0.0073 -0.03246,0.01146 -0.04582,0.02184 -0.0213,0.01656 -0.05006,0.03163 -0.05669,0.05779 -0.0033,0.01321 0.02665,0.0076 0.04027,0.007 0.02249,-9.78e-4 0.04428,-0.0082 0.06651,-0.01174 0.09904,-0.0158 0.07117,-0.01158 0.173292,-0.01712 0,0 0.03881,-0.02851 0.03881,-0.02851 v 0 c -0.09528,0.0047 -0.0809,0.0013 -0.173297,0.01635 -0.03266,0.0053 -0.06678,0.01666 -0.100756,0.01357 -0.009,-8.2e-4 -0.03098,0.001 -0.02635,-0.0068 0.0086,-0.01448 0.02965,-0.0159 0.04448,-0.02385 0.01902,-6.4e-5 0.03984,-0.0082 0.05708,-1.94e-4 0.06386,0.02982 0.06152,0.114154 0.05636,0.169668 -0.01831,0.196914 -0.109824,0.366182 -0.254408,0.498279 -0.07691,0.04159 -0.151543,0.08771 -0.230738,0.124767 -0.13131,0.06145 -0.439081,0.174243 -0.572331,0.219765 -0.01527,0.0052 -0.362479,0.123428 -0.435689,0.124089 -0.01312,1.18e-4 -0.01032,-0.02413 -0.01548,-0.03619 0.02474,-0.03933 0.05322,-0.07652 0.07418,-0.117977 0.256773,-0.50803 0.21549,-1.097975 0.255675,-1.648467 0.02069,-0.13549 0.03116,-0.272937 0.06206,-0.406469 0.01725,-0.07451 0.02005,-0.169065 0.08161,-0.214443 0.04775,-0.0352 0.124502,-0.0046 0.176281,0.02436 0.08275,0.04625 0.260678,0.260851 0.284734,0.360551 0.01439,0.05969 -0.01474,0.121921 -0.02209,0.182881 -0.06731,0.04398 -0.131672,0.09285 -0.20194,0.131935 -0.177676,0.09883 -0.535668,0.257792 -0.711637,0.337614 -0.365397,0.165751 -0.732316,0.328346 -1.093179,0.503894 -0.08215,0.04594 -0.174318,0.07736 -0.246454,0.137816 -0.0222,0.01861 -0.0402,0.06488 -0.01916,0.0848 0.04836,0.04577 0.122193,0.05376 0.18592,0.07306 0.281917,0.08537 0.576445,0.134818 0.869561,0.158172 0.04256,-0.02197 0.118843,-0.01884 0.127696,-0.06591 0.0083,-0.04435 -0.06135,-0.06697 -0.09767,-0.09375 -0.09356,-0.06898 -0.204856,-0.122409 -0.32317,-0.130253 -0.07255,-0.0048 -0.144687,0.01489 -0.217252,0.01943 -0.08874,0.0056 -0.177692,0.0072 -0.266536,0.01087 -0.357878,-0.05402 -0.254818,-0.02119 -0.601856,-0.144519 -0.09604,-0.03413 -0.190653,-0.07216 -0.285612,-0.109191 -0.181734,-0.07087 -0.283303,-0.13187 -0.475062,-0.147424 -0.0094,-7.67e-4 -0.0087,0.01686 -0.01297,0.02529 0.04851,0.03299 0.09284,0.07319 0.145534,0.09896 0.227436,0.111244 0.47311,0.146097 0.717257,0.07037 0.01627,-0.0051 0.231177,-0.110658 0.282387,-0.135718 -0.0037,0.09436 0.0054,0.02734 -0.09062,0.179306 -0.103076,0.163064 -0.111717,0.182862 -0.222747,0.338273 -0.01955,0.02735 -0.03612,0.05786 -0.06142,0.07999 -0.01894,0.01657 -0.04526,0.02207 -0.06789,0.0331 0,0 -0.0413,0.02718 -0.0413,0.02718 z" />
      <path
         style="fill:#000000;stroke-width:1.065"
         id="path17185"
         d="m 32.764063,25.802413 c 0.236664,-0.02607 0.464145,-0.132515 0.641178,-0.291835 0.04244,-0.03819 0.07244,-0.08825 0.108662,-0.132378 0.174061,-0.237266 0.241323,-0.522026 0.287919,-0.806978 0.0033,-0.01148 0.02141,-0.03795 0.01,-0.03443 -0.108447,0.03338 -0.09559,0.06033 -0.110405,0.151746 -0.0082,0.05072 -0.0159,0.101549 -0.02241,0.152523 -0.01974,0.155036 -0.02774,0.2571 -0.04225,0.414095 -0.03286,0.290431 -0.05944,0.615212 -0.267081,0.842506 -0.03121,0.03416 -0.06968,0.06091 -0.104521,0.09136 -0.106614,0.07122 -0.268562,0.199927 -0.403362,0.124694 -0.02394,-0.01336 -0.04142,-0.03593 -0.06213,-0.05389 -0.111054,-0.184618 -0.176665,-0.358305 0.08142,-0.454224 0.211161,-0.08625 0.424037,-0.109859 0.648965,-0.08202 0.05318,0.0066 0.10519,0.02351 0.158747,0.02538 0.0542,0.0019 0.108048,-0.0095 0.162073,-0.01421 0.197483,-0.07464 0.36793,-0.200496 0.496869,-0.36734 0.07104,-0.09192 0.1142,-0.19848 0.195165,-0.281539 -0.02545,0.0195 -0.05616,0.0336 -0.07636,0.0585 -0.01209,0.01491 -0.0091,0.03743 -0.01601,0.05533 -0.0099,0.02546 -0.0209,0.05059 -0.03428,0.0744 -0.04241,0.07554 -0.09631,0.129096 -0.164436,0.180573 -0.0075,0.01573 -0.02508,0.02996 -0.02244,0.04718 0.01794,0.117138 0.219504,0.28046 0.335915,0.274932 0.04587,-0.0022 0.08766,-0.02744 0.131488,-0.04115 0.0703,-0.04868 0.148732,-0.08733 0.210899,-0.146049 0.196741,-0.185814 0.278233,-0.579171 0.3674,-0.830822 0,0 -0.08709,0.04075 -0.08709,0.04075 v 0 c -0.105894,0.307404 -0.176056,0.638829 -0.415388,0.877224 -0.04266,0.01505 -0.08288,0.04158 -0.127979,0.04516 -0.109492,0.0087 -0.312952,-0.151333 -0.325448,-0.260571 -0.0019,-0.01623 0.01572,-0.02865 0.02358,-0.04297 0.08755,-0.06967 0.160149,-0.152731 0.196326,-0.261145 0.0069,-0.02063 0.03306,-0.05617 0.01278,-0.064 -0.03236,-0.01249 -0.06632,0.02035 -0.09948,0.03053 -0.07926,0.08818 -0.01299,0.0084 -0.105145,0.15203 -0.09797,0.1527 -0.07596,0.115596 -0.201091,0.25686 -0.01995,0.02252 -0.03455,0.05113 -0.0596,0.06779 -0.04914,0.03267 -0.106072,0.05175 -0.159108,0.07763 -0.05355,0.0054 -0.106846,0.01777 -0.160636,0.01615 -0.05376,-0.0016 -0.105939,-0.01893 -0.159287,-0.02578 -0.225676,-0.02894 -0.43888,-0.0076 -0.651695,0.07738 -0.07631,0.04089 -0.244766,0.11008 -0.308796,0.198737 -0.08393,0.116211 0.01204,0.263747 0.06982,0.366802 0.04695,0.04177 0.07623,0.08244 0.145862,0.08567 0.152831,0.0071 0.370748,-0.168028 0.491334,-0.244157 0.03448,-0.03105 0.0726,-0.05847 0.103434,-0.09314 0.204885,-0.230441 0.230282,-0.554892 0.263181,-0.846291 0.01799,-0.189805 0.035,-0.379419 0.06829,-0.567318 0.0055,-0.03101 0.04151,-0.07017 0.01929,-0.09248 -0.07321,-0.07347 -0.08836,0.03744 -0.09367,0.06035 -0.04466,0.283814 -0.113726,0.566317 -0.288068,0.801412 -0.03658,0.04363 -0.07383,0.08671 -0.109733,0.130893 -0.01368,0.01684 -0.02106,0.03992 -0.03899,0.05213 -0.124296,0.08459 -0.287534,0.123939 -0.433581,0.145823 0,0 -0.0801,0.05819 -0.0801,0.05819 z" />
      <path
         style="fill:#000000;stroke-width:1.065"
         id="path17187"
         d="m 36.053656,25.005674 c 0.165429,-0.267249 0.299162,-0.55241 0.446522,-0.829542 0.05643,-0.106131 0.100118,-0.220937 0.173582,-0.316076 0.03662,-0.04743 0.0946,-0.127133 0.148598,-0.101165 0.0568,0.02731 0.01961,0.124507 0.02941,0.186761 0.02848,0.0944 0.06262,0.187281 0.08546,0.283208 0.03736,0.156964 0.08754,0.488116 0.100636,0.650783 0.0089,0.110223 0.03401,0.317942 -0.03637,0.433789 -0.01042,0.01717 -0.0095,-0.03903 -0.01429,-0.05854 -0.04299,-0.03798 -0.08855,-0.07324 -0.128968,-0.113946 -0.06528,-0.06576 -0.141439,-0.216653 -0.220808,-0.168848 -0.191987,0.115633 -0.07793,0.296692 -0.01823,0.444664 0.03736,0.02648 0.06703,0.07126 0.112093,0.07946 0.15221,0.0277 0.410652,-0.200784 0.483722,-0.322499 0.01987,-0.0331 0.06325,-0.09383 0.02923,-0.112063 -0.06787,-0.03638 -0.153988,0.0026 -0.230981,0.0039 -0.240681,0.06491 -0.582372,0.147007 -0.807255,0.251146 -0.09609,0.0445 -0.453887,0.182865 -0.427762,0.397211 0.02021,0.165842 0.273939,0.260225 0.374565,0.316973 0.397502,0.140075 1.002697,0.381683 1.418871,0.185274 0.109294,-0.05158 0.203639,-0.130206 0.305458,-0.19531 0.229045,-0.249925 0.402736,-0.543617 0.534961,-0.854891 0.0373,-0.08781 0.068,-0.178424 0.09594,-0.269643 0.0127,-0.04143 0.06883,-0.131291 0.02566,-0.127429 -0.06646,0.0059 -0.09661,0.09207 -0.14491,0.138099 -0.08005,0.176046 -0.154493,0.354608 -0.234696,0.530584 -0.04962,0.108875 -0.131572,0.334653 -0.250618,0.416206 -0.01479,0.01014 -0.01646,-0.032 -0.02659,-0.04681 -0.02474,-0.03615 -0.05191,-0.07056 -0.07787,-0.10584 -0.0099,-0.05273 -0.03019,-0.104552 -0.02961,-0.158197 0.0026,-0.235246 0.173479,-0.437344 0.378931,-0.528523 0.0325,-0.01442 0.06932,-0.01589 0.103976,-0.02384 0.357918,-0.09976 0.730118,-0.11711 1.099418,-0.123652 0.114794,-0.01316 0.597484,0.03905 0.665847,-0.04098 0.03287,-0.03848 0.0351,-0.09493 0.05266,-0.142403 -0.185308,-0.156814 -0.40891,-0.257987 -0.656404,-0.255371 -0.0612,6.35e-4 -0.119835,0.02496 -0.179753,0.03743 0,0 -0.07534,0.05726 -0.07534,0.05726 v 0 c 0.0598,-0.01372 0.118065,-0.03967 0.1794,-0.04116 0.243885,-0.0059 0.464842,0.09396 0.646822,0.24863 0.03633,0.01196 0.103135,-0.0019 0.108982,0.03589 0.0053,0.03446 -0.06346,0.03057 -0.09761,0.03761 -0.184362,0.038 -0.381678,-0.01528 -0.567404,0.0068 -0.370216,0.0065 -0.743064,0.02452 -1.102432,0.121847 -0.265107,0.115363 -0.50814,0.188184 -0.609507,0.487362 -0.01828,0.05394 -0.03151,0.110958 -0.03162,0.167912 -1.06e-4,0.05507 0.02066,0.108184 0.03099,0.162276 0.0274,0.03795 0.03672,0.102766 0.0822,0.11386 0.254019,0.06197 0.370692,-0.31671 0.437992,-0.464078 0.0442,-0.0968 0.08672,-0.194367 0.130082,-0.29155 0.03684,-0.08017 0.07368,-0.160347 0.110524,-0.24052 -0.01,-0.01892 -0.01693,-0.07369 -0.03004,-0.05676 -0.02574,0.03324 -0.01011,0.08387 -0.02215,0.124154 -0.02713,0.09084 -0.05792,0.180835 -0.095,0.26809 -0.07939,0.186785 -0.212511,0.435396 -0.329938,0.60016 -0.06315,0.08861 -0.13911,0.167348 -0.208664,0.251023 -0.04872,0.03512 -0.09122,0.08112 -0.146177,0.105356 -0.443709,0.195725 -0.993825,-0.03176 -1.415663,-0.178807 -0.09217,-0.05203 -0.347284,-0.148617 -0.365744,-0.306479 -0.01844,-0.157791 0.168801,-0.258284 0.273544,-0.30426 0.257289,-0.112936 0.530834,-0.176663 0.800598,-0.249377 0.07301,-0.0059 0.152802,-0.04884 0.219038,-0.01756 0.03349,0.01581 -0.0097,0.07571 -0.02922,0.107187 -0.04919,0.07933 -0.198022,0.250515 -0.315471,0.234085 -0.04378,-0.0061 -0.07324,-0.04953 -0.109857,-0.0743 -0.01971,-0.04916 -0.04459,-0.09656 -0.05915,-0.147485 -0.0141,-0.04934 -0.0058,-0.104689 -0.02641,-0.15167 -0.0098,-0.02242 -0.07694,-0.02639 -0.05929,-0.04336 0.06252,-0.06014 0.135512,0.07612 0.219993,0.163194 0.04119,0.04245 0.08697,0.08017 0.130453,0.120254 0.05983,-0.01292 0.133715,0.0019 0.179499,-0.03876 0.06923,-0.06144 0.03158,-0.422117 0.0305,-0.434907 -0.02672,-0.318339 -0.08361,-0.637158 -0.184996,-0.940348 -0.06629,-0.03451 -0.124138,-0.103408 -0.198874,-0.103526 -0.14432,-2.28e-4 -0.308356,0.407461 -0.314333,0.418699 -0.148516,0.279253 -0.284634,0.566383 -0.456846,0.832402 0,0 0.09069,-0.03908 0.09069,-0.03908 z" />
      <path
         style="fill:#000000;stroke-width:1.065"
         id="path17189"
         d="m 42.316743,24.88771 c -0.268509,-0.01712 -0.555715,0.04639 -0.815927,-0.04416 -0.04521,-0.01573 -0.0858,-0.04246 -0.128699,-0.06369 -0.02236,-0.0046 -0.234457,-0.170218 -0.100954,-0.206416 0.01521,-0.0041 0.01886,0.02863 0.03405,0.03277 0.0748,0.0204 0.153278,0.02375 0.229283,0.03905 0.09489,0.01911 0.188814,0.04276 0.283223,0.06414 0.213003,0.03659 0.383897,0.08161 0.602406,0.05734 0.284948,-0.03165 0.546475,-0.197388 0.754097,-0.385983 0.04732,-0.04299 0.0807,-0.09918 0.121057,-0.148766 7.94e-4,-0.03338 0.02794,-0.07895 0.0021,-0.100127 -0.03135,-0.02573 -0.08319,-0.01084 -0.121642,0.002 -0.128054,0.04287 -0.466088,0.267276 -0.540994,0.315196 -1.032068,0.660242 0.482036,-0.300146 -0.478515,0.308139 -0.107212,0.06269 -0.296878,0.215496 -0.445574,0.134067 -0.144468,-0.07911 -0.087,-0.27945 -0.05523,-0.393142 0.03867,-0.03011 0.07077,-0.07146 0.115998,-0.09032 0.02543,-0.0106 0.05474,0.0077 0.08229,0.0076 0.05932,-1.26e-4 0.118507,-0.0055 0.17776,-0.0082 0.06596,0.0029 0.131869,0.0078 0.19789,0.0088 0.318045,0.0052 0.264917,3.71e-4 0.598837,-0.03198 0.103476,-0.03102 0.210137,-0.05292 0.310427,-0.09307 0.310082,-0.124129 0.627677,-0.347029 0.796092,-0.642896 -0.199041,0.21515 -0.12813,0.101535 -0.245163,0.390383 -0.08872,0.218966 -0.152471,0.499489 -0.327141,0.668836 -0.03406,0.03302 -0.0796,0.05163 -0.119404,0.07744 0,0 0.08927,-0.03492 0.08927,-0.03492 v 0 c 0.226902,-0.155011 0.23118,-0.225792 0.336362,-0.485171 0.03571,-0.08805 0.06889,-0.177107 0.105154,-0.264923 0.03187,-0.07717 0.0808,-0.148547 0.09922,-0.229982 0.0063,-0.02798 -0.01926,-0.05403 -0.02888,-0.08105 -0.0291,0.05651 -0.02635,0.05389 -0.09517,0.135385 -0.252868,0.29945 -0.45637,0.411528 -0.847948,0.505981 -0.332303,0.03233 -0.279048,0.03751 -0.595172,0.03095 -0.276616,-0.0057 -0.519734,-0.04419 -0.736745,0.178207 -0.0318,0.121369 -0.08459,0.323152 0.06355,0.407393 0.185938,0.105737 0.452712,-0.148631 0.609401,-0.222819 0.216739,-0.137556 0.258495,-0.162638 0.47793,-0.307988 0.12886,-0.08535 0.230955,-0.166775 0.378053,-0.22465 0.03527,-0.01388 0.08167,-0.03729 0.112657,-0.01546 0.0254,0.0179 -0.0016,0.06214 -0.0024,0.09321 -0.02537,0.03082 -0.167738,0.211732 -0.217058,0.24638 -0.346782,0.243609 -0.700929,0.230098 -1.098376,0.141904 -0.01508,-0.0035 -0.462113,-0.111216 -0.510418,-0.108858 -0.07031,0.0034 -0.139107,0.03106 -0.201128,0.06435 -0.12082,0.06485 0.07869,0.196576 0.110691,0.219731 0.04348,0.02173 0.0846,0.04902 0.130445,0.0652 0.259701,0.09166 0.546404,0.02833 0.814691,0.04774 0,0 0.07949,-0.05775 0.07949,-0.05775 z" />
      <path
         style="fill:#000000;stroke-width:1.065"
         id="path17191"
         d="m 45.76542,23.319055 c 0.0232,-0.0056 0.04643,-0.01114 0.06965,-0.01671 0,0 0.07763,-0.05974 0.07763,-0.05974 v 0 c -0.02177,0.0072 -0.04354,0.01436 -0.06531,0.02154 0,0 -0.08196,0.05491 -0.08196,0.05491 z" />
      <path
         style="fill:#000000;stroke-width:1.065"
         id="path17193"
         d="m 46.219578,22.991148 c -0.140441,0.509639 -0.360299,1.016269 -0.718765,1.413188 -0.05789,0.0641 -0.128018,0.115986 -0.192026,0.173979 0.01035,0.142119 -0.430938,0.128602 -0.388327,0.0013 0.04071,-0.121633 0.138409,-0.102701 0.233244,-0.112916 0.405527,0.04873 0.315703,0.01909 0.735057,0.156167 0.347239,0.113505 0.72712,0.312256 1.099161,0.141954 0.135107,-0.06185 0.241607,-0.173036 0.362411,-0.259554 0.06236,-0.114695 0.143536,-0.221007 0.187073,-0.344084 0.08049,-0.227541 0.107326,-0.581199 0.08578,-0.821185 -0.0071,-0.07932 0.0019,-0.181838 -0.06061,-0.231108 -0.04444,-0.03499 -0.117448,0.01998 -0.159538,0.05776 -0.133543,0.119863 -0.236903,0.269592 -0.355351,0.404388 -0.553456,0.769247 -0.945629,1.657778 -1.588241,2.3609 0,0 0.08577,-0.03602 0.08577,-0.03602 v 0 c 0.635148,-0.7072 1.024102,-1.594667 1.582222,-2.359081 0.06698,-0.103771 0.11726,-0.220479 0.200953,-0.311313 0.03809,-0.04134 0.10667,-0.104874 0.152403,-0.07219 0.06385,0.04563 0.05628,0.148526 0.06373,0.226653 0.02276,0.238524 -0.0064,0.591937 -0.08798,0.817404 -0.04425,0.122271 -0.126283,0.227345 -0.189426,0.341018 -0.06917,0.05742 -0.125063,0.136426 -0.20751,0.172255 -0.381087,0.165608 -0.741505,-0.01956 -1.098198,-0.137455 -0.420965,-0.139139 -0.32689,-0.108532 -0.733711,-0.16345 -0.09992,0.03629 -0.206885,0.05714 -0.299751,0.108877 -0.160065,0.08917 -0.08252,0.241385 0.0664,0.2149 0.07957,-0.01415 0.153892,-0.0508 0.22688,-0.0855 0.06091,-0.02896 0.115422,-0.0698 0.17313,-0.104697 0.06323,-0.05825 0.132451,-0.110613 0.189683,-0.174766 0.358119,-0.401413 0.577297,-0.910849 0.723299,-1.422126 0,0 -0.08777,0.04472 -0.08777,0.04472 z" />
      <path
         style="fill:#000000;stroke-width:1.065"
         id="path17195"
         d="m 36.070344,28.545499 c -0.20878,0.02524 -0.579382,0.220506 -0.755724,0.07331 -0.03227,-0.02693 -0.04645,-0.07007 -0.06968,-0.105108 0.0026,-0.04183 -0.0049,-0.08555 0.0079,-0.125479 0.01691,-0.05302 0.12623,-0.208508 0.173058,-0.234757 0.02008,-0.01124 0.0442,0.01283 0.06635,0.0191 0.245443,0.06955 0.120375,0.02283 0.36068,0.136155 0.0082,0.06485 0.564819,0.04147 0.589833,0.06292 0.155268,0.133186 -0.01659,0.637289 -0.05612,0.785003 -0.0375,0.06132 -0.06705,0.128286 -0.112511,0.18397 -0.03548,0.04347 -0.281048,-0.07888 -0.259466,-0.17377 0.0065,-0.02876 0.03862,-0.0446 0.05793,-0.0669 0.02281,-0.0038 0.04613,-0.0055 0.06846,-0.01154 0.07217,-0.01958 0.143082,-0.04353 0.214622,-0.06529 0.08207,-0.0226 0.163918,-0.04603 0.246222,-0.06776 0.213328,-0.05632 0.42368,-0.098 0.63066,-0.174662 0.0645,-0.03973 0.128987,-0.07946 0.193482,-0.11919 0,0 -0.08955,0.03493 -0.08955,0.03493 v 0 c -0.0098,0.0087 -0.01961,0.01728 -0.02941,0.02593 -0.432618,0.164365 -0.912022,0.19299 -1.323973,0.415917 -0.01794,0.02527 -0.04896,0.04522 -0.05385,0.07584 -0.01402,0.08777 0.156345,0.203483 0.229066,0.189452 0.07376,-0.01423 0.146256,-0.05002 0.201491,-0.100938 0.05263,-0.04851 0.07255,-0.123412 0.108831,-0.185116 0.04224,-0.158866 0.214548,-0.658072 0.05125,-0.80105 -0.0273,-0.02389 -0.575072,0.007 -0.588447,-0.05964 -0.06366,-0.03046 -0.281521,-0.14605 -0.362934,-0.141893 -0.183409,0.0094 -0.350623,0.140263 -0.401648,0.316555 -0.01214,0.04193 -0.0033,0.08723 -0.0049,0.130845 0.02424,0.0365 0.0393,0.08114 0.07268,0.109508 0.131664,0.111895 0.294187,0.04706 0.436604,0.0083 0.196583,-0.05355 0.130033,-0.03683 0.321554,-0.07606 0,0 0.07761,-0.05855 0.07761,-0.05855 z" />
      <path
         style="fill:#000000;stroke-width:1.065"
         id="path17197"
         d="m 38.22424,28.308958 c 0.221543,0.02617 0.40812,-0.08682 0.592344,-0.194045 0.100629,-0.05857 0.189719,-0.139425 0.298008,-0.182203 0.05359,-0.02117 0.07808,0.08798 0.09913,0.141616 -0.01262,0.04818 -0.01638,0.09961 -0.03788,0.144531 -0.02471,0.05166 -0.06079,0.09767 -0.09859,0.140684 -0.0589,0.06702 -0.208902,0.01479 -0.266097,-0.02569 -0.0082,-0.0058 -0.003,-0.01984 -0.0046,-0.02975 0.02838,0.02074 0.05099,0.0539 0.08514,0.0622 0.09643,0.02344 0.197223,0.0226 0.296148,0.03046 0.332841,0.02648 0.669475,0.04292 0.999294,-0.02304 0.08575,-0.01714 0.168305,-0.04754 0.252458,-0.07131 0.194548,-0.07596 0.38617,-0.175329 0.518885,-0.34154 0.08647,-0.108297 0.118525,-0.187765 0.22306,-0.288632 0,0 -0.08951,0.03698 -0.08951,0.03698 v 0 c -0.204587,0.204282 -0.268253,0.450123 -0.579274,0.536858 -0.08425,0.0244 -0.166838,0.05551 -0.252748,0.0732 -0.230307,0.0474 -0.413719,0.05201 -0.649663,0.04604 -0.116192,-0.0029 -0.232212,-0.01164 -0.348023,-0.02146 -0.09804,-0.0083 -0.194937,-0.03427 -0.293314,-0.03296 -0.08426,0.0011 -0.166397,0.02679 -0.249595,0.04019 0.01921,0.06289 0.0076,0.05725 0.11244,0.08252 0.256114,0.06172 0.433673,-0.18492 0.46623,-0.406495 -0.0155,-0.03669 -0.0076,-0.101277 -0.04649,-0.110061 -0.146429,-0.03311 -0.25518,0.07636 -0.363302,0.14002 -0.152744,0.08993 -0.272974,0.165952 -0.448167,0.198691 -0.04455,0.0083 -0.09061,-0.0024 -0.135914,-0.0034 0,0 -0.07999,0.05661 -0.07999,0.05661 z" />
      <path
         style="fill:#000000;stroke-width:1.065"
         id="path17199"
         d="m 42.489239,27.69826 c 0.469122,0.311359 1.050377,0.293452 1.586986,0.230752 0.06571,-0.02773 0.138801,-0.04213 0.197117,-0.08318 0.08713,-0.06133 0.225124,-0.177289 0.03957,-0.23083 -0.210545,-0.06075 -0.527082,0.110828 -0.710261,0.18941 -0.218493,0.09922 -0.421952,0.230793 -0.651571,0.304845 -0.04299,0.01386 -0.26049,0.04203 -0.272619,0.119041 -0.0065,0.04157 0.0708,0.04552 0.106196,0.06828 0.08938,0.01868 0.177199,0.04791 0.26815,0.05605 0.517784,0.04635 1.242515,-0.0765 1.689383,-0.351092 0.106871,-0.06567 0.194546,-0.15839 0.291817,-0.237585 0.07171,-0.124566 0.150384,-0.18669 0.101992,-0.334912 -0.01289,-0.03943 -0.05115,-0.06531 -0.07672,-0.09796 0,0 -0.08281,0.04946 -0.08281,0.04946 v 0 c 0.02479,0.03073 0.06202,0.05468 0.07439,0.09218 0.04716,0.143013 -0.03223,0.206542 -0.101634,0.325824 -0.04596,0.04936 -0.08077,0.112191 -0.137874,0.148077 -0.44077,0.276984 -1.169403,0.400595 -1.682928,0.353446 -0.08916,-0.0082 -0.175133,-0.03731 -0.262697,-0.05596 -0.03203,-0.01746 -0.06133,-0.04129 -0.09608,-0.05242 -0.01214,-0.0039 -0.04939,0.01262 -0.03695,0.0098 0.286399,-0.06472 0.538195,-0.207367 0.798058,-0.340233 0.161007,-0.06963 0.337412,-0.157335 0.51258,-0.19013 0.156861,-0.02937 0.179988,-0.0314 0.273227,0.06645 0.01347,0.01413 0.04542,0.03774 0.03032,0.05011 -0.05569,0.04561 -0.131789,0.05798 -0.197684,0.08696 -0.102478,0.01249 -0.204364,0.03163 -0.307432,0.03748 -0.432306,0.02455 -0.903116,-0.01611 -1.269373,-0.265875 0,0 -0.08314,0.05199 -0.08314,0.05199 z" />
      <path
         style="fill:#000000;stroke-width:1.065"
         id="path17203"
         d="m 42.264181,38.187045 c 0.306594,-0.725988 0.549286,-1.498148 0.631005,-2.28537 0.01987,-0.191382 0.01535,-0.384514 0.02302,-0.576771 -0.0092,-0.125079 -0.02598,-0.702321 -0.122309,-0.851416 -0.02643,-0.04091 -0.11725,-0.03366 -0.146,0.0057 -0.116578,0.159414 -0.203427,0.345067 -0.250711,0.536816 -0.11866,0.481224 -0.183671,1.859545 -0.210971,2.272892 -0.104042,1.142029 0.03112,2.336377 -0.313309,3.450014 -0.01783,0.05765 -0.207888,0.693552 -0.498911,0.660413 -0.09096,-0.01035 -0.148598,-0.106987 -0.222899,-0.160481 -0.123277,-0.297505 -0.284506,-0.709739 0.0039,-0.982535 0.08177,-0.07734 0.199163,-0.109678 0.307986,-0.138414 0.365061,-0.09641 0.891606,-0.125899 1.259149,-0.158586 0.690264,-0.06115 1.415227,-0.0663 2.062118,-0.35074 0.274396,-0.120655 0.326122,-0.196842 0.552185,-0.393819 0.0099,-0.06755 0.03695,-0.134736 0.02989,-0.202652 -0.01236,-0.118856 -0.105162,-0.281874 -0.23345,-0.314047 -0.304033,-0.07625 -0.897424,0.268703 -1.153837,0.391316 -0.291336,0.145632 -0.666555,0.363902 -1.012979,0.342712 -0.06001,-0.0037 -0.124798,-0.05697 -0.07185,-0.121579 0.02344,-0.0286 0.0648,-0.03562 0.0972,-0.05343 0.02059,0.01384 0.03807,0.03412 0.06175,0.0415 0.05492,0.01709 0.113622,0.01836 0.169823,0.0306 0.118054,0.02574 0.287051,0.07832 0.401574,0.101005 0.249475,0.04942 0.460054,0.06959 0.714385,0.100425 0.03886,0.003 0.636664,0.04662 0.700037,0.0636 0.09559,0.02561 0.184619,0.0738 0.269264,0.125082 0.348774,0.211291 0.07892,0.103145 0.372795,0.330427 0.0349,0.02699 0.08051,0.03613 0.120759,0.0542 0.05642,-0.05022 0.139454,-0.08126 0.169272,-0.150667 0.03291,-0.07659 0.02191,-0.168905 0.0029,-0.250074 -0.09143,-0.39057 -0.425881,-0.794948 -0.816639,-0.914468 -0.163563,-0.05003 -0.341281,-0.02347 -0.511921,-0.03521 -0.594641,0.153916 -0.441413,0.08171 -0.981192,0.346199 -0.121613,0.05959 -0.234119,0.137808 -0.358973,0.190273 -0.06414,0.02695 -0.139817,0.07399 -0.203563,0.04611 -0.03907,-0.01709 -0.0027,-0.09029 0.02011,-0.126328 0.05836,-0.09228 0.143785,-0.164351 0.215677,-0.246528 0.102841,-0.09546 0.198216,-0.199668 0.308528,-0.286393 0.119359,-0.09383 0.243536,-0.183766 0.378347,-0.253606 0.13667,-0.07081 0.285821,-0.114602 0.431016,-0.165698 0.328441,-0.115583 0.832279,-0.244425 1.131938,-0.430816 0.205891,-0.128066 0.376902,-0.305146 0.565354,-0.457721 0.253664,-0.550116 0.313912,-0.558347 0.374795,-1.157343 0.01262,-0.124105 0.06359,-0.275317 -0.0127,-0.374023 -0.04514,-0.05841 -0.152053,0.04554 -0.194476,0.105961 -0.08654,0.123242 -0.116674,0.277677 -0.172977,0.417348 -0.0758,0.188042 -0.148886,0.377171 -0.223329,0.565759 -0.251019,0.635407 -0.572188,1.241348 -0.945521,1.813149 -0.179557,0.275014 -0.383595,0.55688 -0.611367,0.796309 -0.07715,0.0811 -0.165812,0.150416 -0.248719,0.225623 -0.02019,0.0083 -0.201716,0.1176 -0.231807,0.009 -0.01463,-0.05276 0.01852,-0.111475 0.04951,-0.15661 0.05266,-0.07669 0.112731,-0.156318 0.19508,-0.199609 0.151453,-0.07962 0.689023,-0.0739 0.785665,-0.07751 0.170569,0.0095 0.341156,0.01865 0.511704,0.02851 0.174101,0.01005 0.347871,0.03395 0.522242,0.0312 0.574913,-0.0091 1.089028,-0.14891 1.426192,-0.666711 0.11221,-0.172325 0.141134,-0.386302 0.211701,-0.579456 0.05673,-0.507394 0.110225,-0.722055 0.05566,-1.226216 -0.01421,-0.131268 -0.01378,-0.27794 -0.09002,-0.385734 -0.03804,-0.05379 -0.14351,-0.05852 -0.196667,-0.01961 -0.137351,0.100557 -0.233543,0.25133 -0.320072,0.39792 -0.102283,0.173278 -0.16093,0.36885 -0.241395,0.553273 -0.07739,0.210073 -0.155155,0.42001 -0.232186,0.630219 -0.186697,0.509494 -0.243422,0.693856 -0.455123,1.184177 -0.171243,0.396621 -0.37547,0.776001 -0.568311,1.162071 0.01394,0.05823 -0.01799,0.171415 0.0418,0.174691 0.39888,0.02185 1.152006,-0.623504 1.293619,-0.744987 0.589061,-0.50531 1.1591,-1.176171 1.628598,-1.788925 0.225327,-0.294082 0.427146,-0.605451 0.64072,-0.908177 0.355682,-0.578011 0.536546,-0.837467 0.824775,-1.420683 0.120769,-0.244364 0.255397,-0.551667 0.312912,-0.826992 0.01633,-0.07813 0.01299,-0.159102 0.01947,-0.238654 0,0 -0.08324,0.04161 -0.08324,0.04161 v 0 c -0.0057,0.07847 -0.0016,0.158258 -0.01712,0.235397 -0.05484,0.273624 -0.185573,0.577782 -0.304191,0.821053 -0.284184,0.582826 -0.461526,0.837525 -0.814637,1.415214 -0.212558,0.302109 -0.413038,0.613089 -0.637677,0.906324 -0.51235,0.668806 -1.003374,1.233813 -1.636959,1.790526 -0.161578,0.141973 -0.782264,0.682183 -1.14283,0.673184 -0.05741,-0.0013 -0.0286,-0.111244 -0.0429,-0.166867 0.189777,-0.385384 0.391221,-0.764019 0.560602,-1.159261 0.215217,-0.502198 0.261448,-0.661723 0.45336,-1.183635 0.07738,-0.210444 0.156113,-0.420394 0.23417,-0.630589 0.08225,-0.18465 0.159938,-0.371401 0.246758,-0.553948 0.04991,-0.104939 0.07425,-0.233294 0.163216,-0.308044 0.04991,-0.04193 0.156451,-0.04552 0.195427,0.0067 0.07833,0.104992 0.07937,0.251365 0.09421,0.38151 0.05685,0.498497 0.0011,0.721837 -0.05632,1.22305 -0.13702,0.36784 -0.179824,0.689219 -0.519406,0.927595 -0.550267,0.38627 -1.389179,0.185486 -2.008886,0.17359 -0.384067,0.01175 -0.5886,-0.02799 -0.93961,0.163426 -0.06101,0.03327 -0.280704,0.24553 -0.240165,0.374573 0.04069,0.129532 0.517375,-0.03931 0.395645,-0.09681 0.08176,-0.07514 0.169185,-0.144537 0.245269,-0.225415 0.225589,-0.239794 0.427133,-0.520554 0.6053,-0.795107 0.372007,-0.573254 0.693206,-1.179766 0.946119,-1.814928 0.07586,-0.189156 0.14891,-0.379463 0.22757,-0.56747 0.0585,-0.139825 0.119486,-0.278659 0.183854,-0.41588 0.0056,-0.01196 0.02381,-0.04352 0.02548,-0.0304 0.06917,0.544727 -0.08726,1.050467 -0.358031,1.520965 -0.141941,0.125474 -0.265417,0.275622 -0.425823,0.376423 -0.338199,0.212532 -0.763712,0.290804 -1.130234,0.429681 -0.51757,0.196109 -0.887664,0.390477 -1.267145,0.792898 -0.07285,0.08469 -0.162788,0.157265 -0.218543,0.254066 -0.02342,0.04065 -0.05129,0.120795 -0.0087,0.140457 0.06504,0.03003 0.143526,-0.01992 0.20955,-0.04774 0.125666,-0.05292 0.23868,-0.132115 0.360944,-0.19248 0.539179,-0.2662 0.385517,-0.193436 0.978726,-0.349649 0.169569,0.01082 0.34608,-0.01678 0.508704,0.03246 0.387762,0.11739 0.721137,0.520528 0.806264,0.909595 0.02178,0.09953 -0.01476,0.204161 -0.0094,0.305493 -0.04043,-0.01651 -0.0864,-0.02326 -0.121285,-0.04953 -0.333629,-0.25129 0.01834,-0.0926 -0.37616,-0.33216 -0.08545,-0.0519 -0.175118,-0.101158 -0.271669,-0.127095 -0.0605,-0.01625 -0.665208,-0.05967 -0.701366,-0.06246 -0.261331,-0.03222 -0.454961,-0.05042 -0.709951,-0.102137 -0.130368,-0.02643 -0.444569,-0.140554 -0.570921,-0.135138 -0.07814,0.0034 -0.152865,0.03323 -0.229295,0.04985 -0.03143,0.02069 -0.07358,0.03068 -0.09428,0.06211 -0.04782,0.07258 0.01712,0.129363 0.08442,0.133599 0.341839,0.02151 0.735171,-0.199578 1.020995,-0.345051 0.248039,-0.118785 0.846225,-0.464066 1.141032,-0.394443 0.126452,0.02987 0.216974,0.189132 0.228512,0.305432 0.0065,0.06596 -0.02045,0.130974 -0.0307,0.196461 -0.03666,0.04643 -0.06303,0.103304 -0.109988,0.139279 -0.188317,0.144259 -0.44818,0.236813 -0.670674,0.298987 -0.549158,0.153459 -1.118314,0.18069 -1.683652,0.223155 -0.482333,0.04174 -1.324895,0.04213 -1.714066,0.382056 -0.290552,0.253786 -0.115342,0.714727 7.94e-4,0.994571 0.07669,0.0559 0.135311,0.172752 0.230082,0.167699 0.382494,-0.0204 0.551793,-0.471401 0.634648,-0.748607 0.333227,-1.11487 0.196469,-2.305291 0.303808,-3.446251 0.08222,-1.145955 0.05905,-1.228437 0.231928,-2.280811 0.02455,-0.149461 0.02702,-0.309563 0.09692,-0.443937 0.02246,-0.04317 0.117168,-0.06054 0.144566,-0.02032 0.09785,0.143634 0.117157,0.727565 0.126431,0.84659 -0.0074,0.191728 -0.0024,0.384339 -0.02212,0.57518 -0.08203,0.790247 -0.328899,1.566043 -0.646801,2.290451 0,0 0.08914,-0.04096 0.08914,-0.04096 z" />
      <path
         style="fill:#000000;stroke-width:1.065"
         id="path17205"
         d="m 50.056623,38.964396 c -0.04161,0.01754 -0.01603,0.206592 0.04091,0.171333 0.04111,-0.02545 0.07544,-0.0605 0.113165,-0.09075 0.01757,-0.0013 0.07469,-0.247097 -0.0054,-0.205304 -0.03917,0.02043 -0.07396,0.04835 -0.11094,0.07253 -0.05662,0.14092 0.105378,0.08518 0.158314,-0.0031 0.04796,-0.112067 -0.0053,-0.219811 -0.08319,-0.301443 -0.03381,-0.02326 -0.05358,-0.05399 -0.09769,-0.02601 -0.04438,0.02815 -0.09079,0.05745 -0.122296,0.09952 -0.0398,0.05315 -0.02787,0.236567 -0.02466,0.300054 0.0078,0.06985 0.07631,0.277341 0.190757,0.221503 0.04184,-0.0204 0.07891,-0.0494 0.118374,-0.0741 0.07318,-0.111093 0.05325,-0.235744 -0.03496,-0.330174 -0.05441,-0.06673 -0.270108,0.02893 -0.160356,0.09145 0.101676,-0.07524 0.09915,-0.03038 0.07643,-0.111035 0,0 -0.08676,0.04704 -0.08676,0.04704 v 0 c 0.01701,0.07069 -0.0033,0.04689 0.09341,0.0091 -0.0092,-0.0034 -0.02183,-0.0061 -0.02511,-0.01797 -0.0013,-0.0047 0.0097,-0.01524 0.0051,-0.01365 -0.139044,0.04734 -0.02432,0.02066 0.01331,0.0462 0.08631,0.0893 0.103818,0.212921 0.02722,0.315759 0.01746,-0.0073 0.03912,-0.0084 0.05234,-0.02193 0.0082,-0.0084 -0.02919,0.02846 -0.08423,-0.0075 -0.06797,-0.04442 -0.08499,-0.12546 -0.09933,-0.199162 -0.0043,-0.094 -0.01019,-0.112594 0.0061,-0.207158 0.0051,-0.02959 0.03028,-0.05823 0.02246,-0.08722 -0.004,-0.01487 -0.04343,0.01439 -0.04617,-7.94e-4 -0.0056,-0.03077 0.116646,-0.01249 0.09224,0.01709 0.07558,0.07861 0.127289,0.182943 0.07632,0.29006 -0.02418,0.03308 -0.05379,0.06419 0.04234,-0.0024 0.0031,-0.0021 -0.02674,0.0131 -0.03525,-0.01376 -0.0076,-0.02394 0.0063,-0.03882 0.01678,-0.05808 -0.02,0.0083 -0.03983,0.01693 -0.05998,0.02479 -0.0066,0.0026 0.01254,-0.01093 0.01934,-0.0089 0.02035,0.0059 0.01622,0.04077 0.01442,0.06188 -0.0051,0.06066 -0.01659,0.07661 -0.0393,0.132049 0.019,-0.0026 0.03782,-0.007 0.05696,-0.0076 0.0082,-2.65e-4 -0.01622,0.0099 -0.02365,0.0065 -0.009,-0.0042 -0.01267,-0.01569 -0.01638,-0.02492 -0.01855,-0.04598 -0.0086,-0.0905 0.0094,-0.134734 0,0 -0.09009,0.04076 -0.09009,0.04076 z" />
    </g>
  </g>
</svg>
