<?xml version="1.0" encoding="UTF-8" standalone="no"?>
<!-- Created with Inkscape (http://www.inkscape.org/) -->

<svg
   width="39.641mm"
   height="51.693mm"
   viewBox="0 0 39.641 51.693"
   version="1.1"
   id="svg2518"
   inkscape:version="1.1.1 (3bf5ae0d25, 2021-09-20)"
   sodipodi:docname="file.svg"
   inkscape:export-filename="E:\V-rok\magisterka\implementation\Animation\graphics\objects\documents.png"
   inkscape:export-xdpi="80"
   inkscape:export-ydpi="80"
   xmlns:inkscape="http://www.inkscape.org/namespaces/inkscape"
   xmlns:sodipodi="http://sodipodi.sourceforge.net/DTD/sodipodi-0.dtd"
   xmlns="http://www.w3.org/2000/svg"
   xmlns:svg="http://www.w3.org/2000/svg">
  <sodipodi:namedview
     id="namedview2520"
     pagecolor="#505050"
     bordercolor="#eeeeee"
     borderopacity="1"
     inkscape:pageshadow="0"
     inkscape:pageopacity="0"
     inkscape:pagecheckerboard="0"
     inkscape:document-units="mm"
     showgrid="false"
     inkscape:snap-global="false"
     inkscape:zoom="1.3102506"
     inkscape:cx="-21.751564"
     inkscape:cy="78.229308"
     inkscape:window-width="1366"
     inkscape:window-height="705"
     inkscape:window-x="-8"
     inkscape:window-y="-8"
     inkscape:window-maximized="1"
     inkscape:current-layer="layer1" />
  <defs
     id="defs2515" />
  <g
     inkscape:label="Warstwa 1"
     inkscape:groupmode="layer"
     id="layer1">
    <g
       id="g25257"
       transform="translate(-3.958585,-1.7218672)"
       inkscape:export-filename="E:\V-rok\magisterka\implementation\Animation\graphics\objects\file.png"
       inkscape:export-xdpi="50"
       inkscape:export-ydpi="50">
      <rect
         style="fill:#fff9eb;fill-opacity:1;stroke-width:1.68583"
         id="rect2629"
         width="35.486164"
         height="51.533344"
         x="3.9500411"
         y="1.8999162"
         transform="matrix(0.99998981,-0.00451437,0.00451819,0.99998979,0,0)" />
      <ellipse
         id="path17175"
         style="fill:#000000;stroke:#000000;stroke-width:0.396837"
         cx="11.900409"
         cy="17.809368"
         rx="0.0005074605"
         ry="0.00050745334" />
      <ellipse
         id="path17177"
         style="fill:#000000;stroke:#000000;stroke-width:0.396837"
         cx="11.900409"
         cy="17.809368"
         rx="0.0005074605"
         ry="0.00050745334" />
      <path
         style="fill:#000000;stroke-width:1.59735"
         id="path17191"
         d="m 29.735505,21.210273 c 0.0348,-0.0084 0.06964,-0.01671 0.104466,-0.02506 0,0 0.116435,-0.0896 0.116435,-0.0896 v 0 c -0.03265,0.0108 -0.0653,0.02154 -0.09796,0.03231 0,0 -0.12293,0.08236 -0.12293,0.08236 z" />
      <rect
         style="opacity:0.25387;fill:none;fill-opacity:1;stroke:#626262;stroke-width:0.565;stroke-linecap:round;stroke-linejoin:round;stroke-miterlimit:4;stroke-dasharray:none;stroke-opacity:1"
         id="rect19441"
         width="25.701923"
         height="11.423077"
         x="8.9956732"
         y="6.7110577" />
      <path
         style="fill:none;stroke:#a1a1a1;stroke-width:0.264583px;stroke-linecap:butt;stroke-linejoin:round;stroke-opacity:1"
         d="M 12.015036,9.8947352 H 31.299673"
         id="path20834" />
      <path
         style="fill:none;stroke:#a1a1a1;stroke-width:0.264583px;stroke-linecap:butt;stroke-linejoin:round;stroke-opacity:1"
         d="M 12.065519,12.418903 H 31.350156"
         id="path20834-7" />
      <path
         style="fill:none;stroke:#a1a1a1;stroke-width:0.264583px;stroke-linecap:butt;stroke-linejoin:round;stroke-opacity:1"
         d="M 11.964553,15.24597 H 31.24919"
         id="path20834-5" />
      <path
         style="fill:none;stroke:#daa17a;stroke-width:0.465;stroke-linecap:round;stroke-linejoin:round;stroke-miterlimit:4;stroke-dasharray:none;stroke-opacity:0.830116"
         d="m 35.64124,28.068738 2.473685,0.151452 c 0.910854,0.05577 1.269071,1.4817 1.464015,1.009664 0,0 0.158839,-2.624541 1.009669,-3.483349 0.494594,-0.499231 1.384832,-0.907901 2.019332,-0.6058 0.558659,0.265992 0.890172,1.12549 0.706768,1.716434 -0.428875,1.381873 -3.634801,2.372715 -3.634801,2.372715 0,0 -0.987965,1.874807 -0.9087,2.877553 0.0593,0.750221 0.295724,1.781353 1.009666,2.019334 0.713943,0.237981 1.779495,-0.296348 2.019334,-1.009668 0.460497,-1.369594 -1.918368,-3.887219 -1.918368,-3.887219 l 0.706769,7.118154 -0.807734,-7.118154 -0.9087,6.209454"
         id="path23105"
         sodipodi:nodetypes="cscssscssscccc" />
    </g>
  </g>
</svg>
