<?xml version="1.0" encoding="UTF-8" standalone="no"?>
<!-- Created with Inkscape (http://www.inkscape.org/) -->

<svg
   width="39.124mm"
   height="47.994mm"
   viewBox="0 0 39.124 47.994"
   version="1.1"
   id="svg125776"
   inkscape:version="1.1.1 (3bf5ae0d25, 2021-09-20)"
   sodipodi:docname="letter.svg"
   xmlns:inkscape="http://www.inkscape.org/namespaces/inkscape"
   xmlns:sodipodi="http://sodipodi.sourceforge.net/DTD/sodipodi-0.dtd"
   xmlns="http://www.w3.org/2000/svg"
   xmlns:svg="http://www.w3.org/2000/svg">
  <sodipodi:namedview
     id="namedview125778"
     pagecolor="#505050"
     bordercolor="#eeeeee"
     borderopacity="1"
     inkscape:pageshadow="0"
     inkscape:pageopacity="0"
     inkscape:pagecheckerboard="0"
     inkscape:document-units="mm"
     showgrid="false"
     inkscape:snap-global="false"
     inkscape:zoom="1.8529742"
     inkscape:cx="138.96578"
     inkscape:cy="133.56905"
     inkscape:window-width="1366"
     inkscape:window-height="705"
     inkscape:window-x="-8"
     inkscape:window-y="-8"
     inkscape:window-maximized="1"
     inkscape:current-layer="layer1" />
  <defs
     id="defs125773" />
  <g
     inkscape:label="Warstwa 1"
     inkscape:groupmode="layer"
     id="layer1">
    <g
       id="g127587"
       transform="matrix(0.85093168,0,0,0.85093168,-5.7106516,-1.4580387)"
       inkscape:export-filename="E:\V-rok\magisterka\implementation\Animation\graphics\objects\letter.png"
       inkscape:export-xdpi="50"
       inkscape:export-ydpi="50">
      <rect
         style="fill:#fffefa;fill-opacity:1;fill-rule:evenodd;stroke:none;stroke-width:1.265;stroke-linejoin:bevel"
         id="rect126370"
         width="44.835579"
         height="45.835098"
         x="7.2822113"
         y="1.7134615" />
      <path
         style="fill:#fff7d1;fill-opacity:1;stroke:none;stroke-width:0.264583px;stroke-linecap:butt;stroke-linejoin:miter;stroke-opacity:1"
         d="M 6.7110577,31.699038 V 58.114903 H 52.688942 V 32.127404 L 29.523758,45.501829 Z"
         id="path125870" />
      <path
         style="fill:#000000;fill-opacity:1;fill-rule:evenodd;stroke:none;stroke-width:1.265;stroke-linejoin:bevel"
         id="path127385"
         d="m 16.840658,12.601078 c -0.07126,-0.619934 -0.116037,-1.245741 -0.05205,-1.867611 0.06498,-0.03963 0.119749,-0.107033 0.194928,-0.118894 0.4445,-0.07013 1.310326,0.66701 1.632971,0.930406 0.456678,0.405347 0.892233,0.605596 1.493333,0.638829 0.535565,0.109558 1.092071,0.08886 1.622409,0.208604 0.485864,0.09668 1.060242,0.47567 1.560861,0.43929 0.128306,-0.0093 0.251264,-0.05536 0.376895,-0.08304 0.445916,-0.194191 0.337537,-0.127903 0.764815,-0.395185 0.114132,-0.0714 0.206808,-0.189023 0.337297,-0.222132 0.481994,-0.122298 0.987305,0.374721 1.30186,0.642125 0.340838,0.383909 0.714864,0.774215 0.886814,1.27111 0.0324,0.09361 0.129561,0.408343 -0.03872,0.497844 -0.08263,0.04395 -0.187153,0.0038 -0.280728,0.0056 -0.495401,-0.08896 -0.945163,-0.316443 -1.392926,-0.534852 -0.03077,-0.01501 -0.558998,-0.256414 -0.592602,-0.335295 -0.01563,-0.03669 0.06851,-0.04083 0.102769,-0.06124 0.123363,-0.0039 0.246671,-0.01057 0.370091,-0.01185 0.589239,-0.0061 0.582176,0.02384 1.204945,-0.03507 0.626623,-0.05927 1.246981,-0.18535 1.86469,-0.301599 0.805776,-0.176169 1.628879,-0.26306 2.429381,-0.463128 0.520747,-0.166463 0.633343,-0.117299 1.005194,0.244243 0.200496,0.221457 0.452281,0.35448 0.714685,0.48409 0.04097,0.02024 0.129354,0.02108 0.120237,0.06586 -0.01201,0.05904 -0.102121,0.06397 -0.153181,0.09596 -0.442441,0.159892 -0.696685,0.260434 -1.17186,0.388295 -0.253588,0.06824 -0.504659,0.173887 -0.767215,0.179004 -0.560861,0.01093 -1.114944,-0.232778 -1.573342,-0.527453 -0.214345,-0.137787 -0.394505,-0.322615 -0.591757,-0.483923 -0.101462,-0.159408 -0.350266,-0.29492 -0.304385,-0.478223 0.03862,-0.154306 0.298998,-0.14391 0.457796,-0.134678 0.378042,0.02198 0.747498,0.128209 1.113329,0.226014 1.728428,0.462095 3.383865,1.176472 5.041228,1.838497 1.224021,0.462256 2.408187,1.060208 3.680415,1.390201 0.217813,0.0565 0.442907,0.07979 0.664361,0.119687 0,0 0.01476,-0.01034 0.01476,-0.01034 v 0 c -0.22166,-0.03966 -0.446956,-0.06267 -0.664977,-0.11899 -1.273014,-0.328862 -2.457945,-0.926518 -3.682455,-1.388681 -1.657131,-0.661881 -3.312102,-1.375898 -5.039651,-1.839912 -0.365522,-0.09818 -0.734253,-0.210689 -1.112343,-0.227828 -0.17063,-0.0077 -0.440899,-0.0088 -0.488326,0.155268 -0.05252,0.181717 0.203452,0.318944 0.305176,0.478416 0.197385,0.161376 0.377703,0.346237 0.592153,0.484126 0.458291,0.294674 1.013101,0.539156 1.573925,0.528545 0.262509,-0.005 0.513553,-0.110624 0.767111,-0.178765 0.52817,-0.141939 0.716765,-0.224057 1.204188,-0.406327 0.05048,-0.0332 0.140338,-0.04021 0.15145,-0.09961 0.0084,-0.04499 -0.07944,-0.04561 -0.120496,-0.06585 -0.262332,-0.129343 -0.513969,-0.262161 -0.714283,-0.483563 -0.371991,-0.36201 -0.485039,-0.412747 -1.006499,-0.245728 -0.800674,0.200576 -1.624086,0.287444 -2.430105,0.463816 -0.61768,0.116272 -1.238041,0.242567 -1.864644,0.301858 -0.825193,0.07808 -0.444523,0.01277 -1.204314,0.03461 -0.134859,0.0039 -0.269081,0.02008 -0.403622,0.03012 -0.150921,0.09665 -0.159404,0.05818 0.08493,0.196124 0.56316,0.317935 1.170799,0.591553 1.800736,0.739496 0.104595,-0.0083 0.221443,0.02486 0.313785,-0.02496 0.167452,-0.09035 0.06997,-0.405377 0.03743,-0.499101 -0.172569,-0.496901 -0.546756,-0.887311 -0.887623,-1.271546 -0.352817,-0.300257 -0.802862,-0.767058 -1.334923,-0.625587 -0.198392,0.05275 -0.810321,0.627471 -1.069555,0.599046 -0.125459,0.0278 -0.24822,0.07397 -0.376375,0.08341 -0.500226,0.03685 -1.075319,-0.342142 -1.560683,-0.439135 -0.530183,-0.120531 -1.086931,-0.09865 -1.622437,-0.208979 -0.600936,-0.03295 -1.036446,-0.232196 -1.493126,-0.637524 -0.355609,-0.290292 -1.171238,-1.005992 -1.666904,-0.913459 -0.07482,0.01397 -0.129346,0.08028 -0.194019,0.120419 -0.06357,0.62213 -0.01873,1.2481 0.05177,1.868337 0,0 0.0174,-0.0092 0.0174,-0.0092 z" />
      <path
         style="fill:#000000;fill-opacity:1;fill-rule:evenodd;stroke:none;stroke-width:1.265;stroke-linejoin:bevel"
         id="path127387"
         d="m 40.491674,13.654297 c -0.515609,0.729346 -1.265452,1.253861 -2.005396,1.734495 -0.243652,0.158265 -0.485002,0.322795 -0.745069,0.452332 -0.214006,0.106595 -0.447419,0.16871 -0.671129,0.253065 -0.550513,0.06964 -1.087808,0.04472 -1.487985,-0.394852 -0.363665,-0.39947 -0.472803,-0.926093 -0.566502,-1.434532 -0.0054,-0.157643 -0.06979,-0.600559 0.0783,-0.768335 0.234939,-0.266178 1.376987,0.309702 1.598232,0.401964 1.135136,0.506171 2.347661,0.641145 3.562429,0.364842 0.252836,-0.05751 0.497671,-0.145785 0.746503,-0.218677 0.653939,-0.262214 1.72601,-0.674443 1.965529,-1.426126 -0.03032,-0.019 -0.05549,-0.05232 -0.09097,-0.05701 -0.272335,-0.036 -0.639588,0.30014 -0.818705,0.434492 -0.151424,0.11358 -0.297702,0.233866 -0.446553,0.350799 -0.168215,0.124219 -0.336429,0.248438 -0.504643,0.372658 -0.505637,0.305813 -1.115303,0.859846 -1.719524,0.958682 -0.289843,0.04741 -0.513385,-0.02662 -0.793084,-0.0845 -0.337499,-0.04005 -0.605091,-0.382463 -0.922824,-0.465348 -0.01582,-0.0041 -0.04271,0.0178 -0.03642,0.0329 0.01466,0.03523 0.04904,0.06139 0.08296,0.07887 0.03743,0.01929 0.08221,0.01828 0.123319,0.02742 0.04855,-0.0663 0.109014,-0.125338 0.145643,-0.198895 0.05146,-0.103346 0.08077,-0.216406 0.115916,-0.326375 0.146754,-0.459143 0.239374,-0.931032 0.349623,-1.399417 0.01458,-0.0074 0.03201,-0.0337 0.04374,-0.02229 0.152834,0.148629 0.201755,0.473326 0.258226,0.664181 0,0 0.01683,-0.0092 0.01683,-0.0092 v 0 c -0.03506,-0.118576 -0.14714,-0.593143 -0.259625,-0.667414 -0.02442,-0.01612 -0.051,0.0287 -0.07649,0.04305 -0.13408,0.572303 -0.222599,1.185677 -0.46592,1.725188 -0.02903,0.06438 -0.07453,0.119979 -0.111795,0.179969 -0.0409,-0.0089 -0.08534,-0.0077 -0.122708,-0.02656 -0.03591,-0.01811 -0.116745,-0.105921 -0.07949,-0.09077 0.320656,0.130401 0.582538,0.375807 0.923594,0.465409 0.27935,0.05801 0.504039,0.13241 0.793652,0.08531 0.613603,-0.09978 1.236131,-0.666205 1.751275,-0.976937 1.717963,-1.268677 -0.620287,0.46573 0.951709,-0.723627 0.181631,-0.137419 0.516212,-0.449206 0.784762,-0.416945 0.03481,0.0042 0.05992,0.03643 0.08988,0.05464 -0.238297,0.744359 -1.286171,1.148833 -1.933855,1.406992 -0.248825,0.07297 -0.493641,0.161338 -0.746472,0.21892 -1.21434,0.276564 -2.426578,0.141758 -3.561326,-0.364394 -0.256855,-0.107254 -1.360461,-0.678155 -1.630632,-0.383679 -0.147585,0.160861 -0.0825,0.621491 -0.07739,0.768877 0.0939,0.508797 0.203274,1.035938 0.567095,1.435771 0.400547,0.440198 0.938421,0.465421 1.489654,0.395937 0.233823,-0.09012 0.477306,-0.15836 0.701469,-0.270373 0.259868,-0.129855 0.501308,-0.294106 0.744913,-0.452382 0.740608,-0.481194 1.490911,-1.006319 2.007285,-1.736139 0,0 -0.01802,0.008 -0.01802,0.008 z" />
      <path
         style="fill:#000000;fill-opacity:1;fill-rule:evenodd;stroke:none;stroke-width:1.265;stroke-linejoin:bevel"
         id="path127389"
         d="m 13.698893,17.08171 c 0.126767,0.431044 0.261549,0.909549 0.562696,1.258052 0.058,0.06712 0.135514,0.114515 0.203271,0.171773 0.470405,-0.240796 0.232327,-0.08031 0.687945,-0.518313 0,0 -0.01715,0.0071 -0.01715,0.0071 v 0 c -0.422058,0.420434 -0.196751,0.263189 -0.654488,0.501048 -0.06769,-0.05708 -0.145143,-0.104269 -0.203072,-0.171234 -0.301084,-0.348043 -0.435829,-0.826477 -0.561603,-1.257375 0,0 -0.0176,0.009 -0.0176,0.009 z" />
      <path
         style="fill:#000000;fill-opacity:1;fill-rule:evenodd;stroke:none;stroke-width:1.265;stroke-linejoin:bevel"
         id="path127391"
         d="m 17.120149,15.790815 c 0.324968,0.48447 0.728108,1.59851 1.342519,1.750936 0.111616,0.02769 0.229526,-0.01473 0.344289,-0.02209 0.398632,-0.202097 0.306557,-0.135432 0.669972,-0.400229 0.04487,-0.03269 0.17384,-0.134027 0.122561,-0.112761 -0.263352,0.10921 -0.0013,0.07975 -0.469477,0.01685 -0.164758,-0.07175 -0.334842,-0.132333 -0.494273,-0.215245 -0.397265,-0.206597 -0.701155,-0.4237 -1.050917,-0.701116 -0.128829,-0.102181 -0.259101,-0.204059 -0.373863,-0.32182 -0.01207,-0.01239 -0.0055,-0.05652 0.01078,-0.05075 0.113642,0.04022 0.213533,0.111951 0.3203,0.167926 0.649982,0.323653 1.268966,0.706155 1.919967,1.027841 0.451322,0.223016 0.72448,0.379653 1.224346,0.403405 0.153024,0.0073 0.304106,-0.03737 0.456159,-0.05605 0.245844,-0.105933 0.675455,-0.312088 0.764554,-0.604591 0.0095,-0.03107 -0.03396,-0.07394 -0.06633,-0.07136 -0.172128,0.01375 -0.507948,0.280228 -0.597714,0.341417 -0.42824,0.332669 -0.82785,0.701023 -1.258746,1.030356 -0.20912,0.15983 -0.446294,0.343376 -0.702296,0.429967 -0.09916,0.03354 -0.206317,0.03562 -0.309476,0.05342 -0.08467,-0.0099 -0.170835,-0.01091 -0.254007,-0.02957 -0.06216,-0.01395 -0.125584,-0.03251 -0.178788,-0.06755 -0.08969,-0.05907 -0.103013,-0.139747 0.02976,-0.148087 0.232111,-0.01458 0.705241,0.112257 0.872488,0.148403 0.223256,0.05128 0.446512,0.102558 0.669768,0.153837 0,0 0.01479,-0.01024 0.01479,-0.01024 v 0 c -0.22317,-0.05135 -0.44634,-0.102697 -0.66951,-0.154045 -0.101829,-0.02214 -0.676042,-0.171058 -0.872278,-0.150277 -0.146456,0.01551 -0.173722,0.09697 -0.06115,0.171265 0.05331,0.03519 0.116902,0.05379 0.179213,0.06783 0.08332,0.01878 0.169645,0.01994 0.254468,0.02991 0.103328,-0.01771 0.211008,-0.01856 0.309983,-0.05312 0.269112,-0.09395 0.512122,-0.27884 0.734196,-0.448647 0.430884,-0.329472 0.830518,-0.697912 1.259065,-1.030328 0.09863,-0.06827 0.396115,-0.308457 0.563389,-0.324297 0.03152,-0.003 0.07493,0.03852 0.06553,0.06875 -0.08823,0.283954 -0.492776,0.484965 -0.731955,0.585788 -0.152036,0.0189 -0.303065,0.06379 -0.456108,0.05671 -0.500038,-0.02314 -0.773103,-0.179563 -1.224584,-0.402581 -0.6509,-0.321526 -1.269562,-0.704209 -1.918965,-1.028606 -0.117975,-0.0496 -0.230287,-0.115764 -0.353925,-0.148814 -0.01694,-0.0045 -0.02095,0.03935 -0.0087,0.05188 0.11506,0.117584 0.245352,0.21952 0.37427,0.321719 0.472302,0.374413 0.974629,0.711032 1.54502,0.9176 0.114057,0.01574 0.227108,0.0514 0.34217,0.04722 0.04873,-0.0018 0.169399,-0.09348 0.132847,-0.06121 -0.22862,0.201813 -0.486622,0.367847 -0.767265,0.487907 -0.114575,0.0077 -0.232213,0.05047 -0.343724,0.02306 -0.614283,-0.151024 -1.017908,-1.266147 -1.341742,-1.750307 0,0 -0.01663,0.0097 -0.01663,0.0097 z" />
      <path
         style="fill:#000000;fill-opacity:1;fill-rule:evenodd;stroke:none;stroke-width:1.265;stroke-linejoin:bevel"
         id="path127393"
         d="m 26.201375,16.802729 c -0.439352,0.220006 -0.885942,0.425946 -1.335189,0.624906 -0.28183,0.124814 -0.531715,0.252033 -0.839157,0.298201 -0.09975,0.01498 -0.201735,-8.73e-4 -0.302602,-0.0013 0.03095,0.07471 -0.267054,-0.122388 -0.195049,-0.169764 0.06757,-0.04446 0.512503,0.116947 0.555648,0.133329 0.684554,0.259923 1.355484,0.5544 2.033224,0.831605 1.220225,0.486028 2.439343,0.990431 3.699064,1.368574 0.51844,0.155625 1.423299,0.402712 1.995537,0.399527 0.24946,-0.0014 0.491496,-0.08581 0.737243,-0.12871 0.139372,-0.161941 0.318395,-0.296867 0.418121,-0.485825 0.403945,-0.765394 0.01045,-1.87453 -0.555741,-2.454437 -0.157898,-0.161722 -0.360884,-0.272224 -0.541327,-0.408336 -0.244864,-0.07812 -0.481121,-0.191794 -0.734597,-0.234363 -1.220491,-0.204972 -2.738115,0.281207 -3.889137,0.682931 -0.251052,0.09541 -1.220823,0.529501 -1.457167,0.187694 -0.02165,-0.0313 -0.0043,-0.07599 -0.0065,-0.113993 0.04727,-0.03258 0.08497,-0.08972 0.141825,-0.09775 0.428432,-0.06051 1.494865,0.483804 1.812283,0.619364 1.398333,0.59719 0.992949,0.424816 2.439863,1.014659 1.497732,0.563186 3.112627,1.38907 4.763341,0.997311 0.187299,-0.04445 0.360805,-0.134335 0.541208,-0.201503 0.137941,-0.08605 0.288002,-0.155197 0.413824,-0.258162 0.177321,-0.145109 0.536713,-0.542677 0.390578,-0.818604 -0.127579,-0.240891 -0.359738,-0.22337 -0.587923,-0.270575 -0.949621,0.0011 -1.821968,0.418139 -2.72421,0.653578 -0.232122,0.06057 -0.465201,0.127567 -0.704168,0.148629 -0.224525,0.01979 -0.450429,-0.01801 -0.675642,-0.02701 -0.448197,-0.123889 -0.95005,-0.261527 -1.304473,-0.587597 -0.01995,-0.01835 0.05223,0.01479 0.07744,0.02475 0.120353,0.04756 0.239289,0.09864 0.359021,0.147746 0.160877,0.06597 0.321873,0.131659 0.482809,0.197488 0.24212,0.02069 0.483568,0.07222 0.726358,0.06208 0.638355,-0.02667 1.435621,-0.231802 2.038921,-0.398321 0.99409,-0.274381 1.969712,-0.618865 2.946088,-0.949229 0.732753,-0.249096 1.456521,-0.242622 2.207546,-0.10304 0.481528,0.08949 0.715147,0.205829 1.203936,0.259253 0.210317,0.02299 0.422939,0.01306 0.634407,0.01959 0,0 0.01471,-0.01062 0.01471,-0.01062 v 0 c -0.211397,-0.0065 -0.423944,0.0036 -0.63419,-0.01939 -0.487162,-0.05315 -0.72426,-0.169963 -1.204193,-0.259185 -0.751353,-0.139679 -1.47538,-0.146592 -2.208493,0.102717 -0.976487,0.330603 -1.952226,0.675262 -2.946487,0.949719 -0.602999,0.166452 -1.399649,0.37144 -2.037702,0.398125 -0.242517,0.01014 -0.483698,-0.04131 -0.725546,-0.06197 -0.280553,-0.114958 -0.552627,-0.252898 -0.841068,-0.346318 -0.03482,-0.01128 -0.131291,-0.03268 -0.109768,-0.0031 0.05287,0.07272 0.142566,0.110517 0.220488,0.155373 0.529373,0.304733 0.475166,0.24847 1.085567,0.432445 0.225335,0.0091 0.451356,0.04704 0.676008,0.0273 0.239038,-0.021 0.472186,-0.088 0.704371,-0.148577 0.901798,-0.235274 1.77365,-0.652182 2.722764,-0.653661 0.226832,0.0466 0.4593,0.02897 0.586295,0.268658 0.146394,0.276311 -0.214977,0.670549 -0.390816,0.816471 -0.115747,0.09605 -0.254688,0.160091 -0.382032,0.240137 -0.180417,0.06735 -0.353914,0.157436 -0.541255,0.202051 -1.650744,0.393115 -3.266416,-0.432426 -4.7644,-0.995482 -1.437796,-0.58636 -1.049594,-0.420714 -2.438903,-1.01526 -0.382532,-0.163702 -1.358168,-0.686662 -1.844701,-0.602712 -0.05675,0.0098 -0.0941,0.06643 -0.14115,0.09964 0.0025,0.03851 -0.01448,0.08379 0.0075,0.115519 0.237651,0.343292 1.206772,-0.091 1.459227,-0.187045 1.150861,-0.402093 2.668291,-0.88882 3.888846,-0.684154 0.253278,0.04247 0.48936,0.156005 0.734041,0.234008 0.180311,0.135972 0.383138,0.246355 0.54093,0.407915 0.148511,0.152056 0.263308,0.335921 0.366853,0.52154 0.327946,0.587878 0.512342,1.292857 0.18778,1.930786 -0.09181,0.18045 -0.258103,0.312005 -0.387154,0.468007 -0.245787,0.04315 -0.487818,0.127879 -0.737359,0.129451 -0.57241,0.0036 -1.477481,-0.243196 -1.996117,-0.398727 -1.259811,-0.377795 -2.478953,-0.882145 -3.699038,-1.368463 -0.677171,-0.277475 -1.347492,-0.572241 -2.031223,-0.833133 -0.02345,-0.0089 -0.466208,-0.194299 -0.588369,-0.113085 -0.07242,0.04815 0.227417,0.24505 0.196739,0.171345 0.10105,5.29e-4 0.20321,0.0165 0.303149,0.0016 0.307822,-0.04603 0.557454,-0.173222 0.839617,-0.298175 0.449009,-0.198839 0.895393,-0.404592 1.334554,-0.624385 0,0 0.0151,-0.012 0.0151,-0.012 z" />
      <path
         style="fill:#000000;fill-opacity:1;fill-rule:evenodd;stroke:none;stroke-width:1.265;stroke-linejoin:bevel"
         id="path127395"
         d="m 44.169716,16.448795 c -0.05286,0.01574 -0.105725,0.03149 -0.158589,0.04723 0,0 -0.01545,0.01193 -0.01545,0.01193 v 0 c 0.05283,-0.01569 0.105664,-0.03139 0.158496,-0.04708 0,0 0.01556,-0.01207 0.01556,-0.01207 z" />
      <path
         style="fill:#000000;fill-opacity:1;fill-rule:evenodd;stroke:none;stroke-width:1.265;stroke-linejoin:bevel"
         id="path127397"
         d="m 40.902876,17.414387 c -1.702215,0.209072 -3.421642,0.271443 -5.135755,0.269643 -0.223065,4.77e-4 -0.447696,-0.02494 -0.669195,0.0014 -0.639858,0.0762 -0.474372,0.493739 -0.137123,0.857579 0.424516,0.457986 1.057487,0.850049 1.557483,1.197061 0.933336,0.449662 1.481788,0.755014 2.478675,1.067237 0.443854,0.139014 0.902943,0.223639 1.354418,0.335459 0,0 0.0131,-0.009 0.0131,-0.009 v 0 c -0.451414,-0.11178 -0.91045,-0.196354 -1.354244,-0.335339 -0.998278,-0.312636 -1.543375,-0.616782 -2.477754,-1.067366 -0.532302,-0.369767 -1.589145,-0.968375 -1.829908,-1.635005 -0.114935,-0.318238 0.119742,-0.368582 0.380748,-0.399968 0.221605,-0.02665 0.446403,-0.0012 0.669605,-0.0017 1.713487,0.0013 3.432207,-0.06107 5.133964,-0.268338 0,0 0.01598,-0.01161 0.01598,-0.01161 z" />
      <path
         style="fill:#000000;fill-opacity:1;fill-rule:evenodd;stroke:none;stroke-width:1.265;stroke-linejoin:bevel"
         id="path127399"
         d="m 12.459564,20.1022 c -0.171797,-0.13368 -0.356203,-0.260442 -0.493546,-0.432102 -0.117397,-0.146731 -0.139196,-0.21145 -0.224357,-0.3792 -0.02587,-0.07801 -0.107024,-0.234366 -0.04611,-0.329976 0.0661,-0.103745 0.339469,-0.01599 0.367796,-0.0097 0.260814,0.05807 0.440128,0.130503 0.693245,0.21994 0.792689,0.292367 1.522134,0.722018 2.282713,1.084398 0.156913,0.06911 0.42696,0.192301 0.59637,0.252175 0.06918,0.02445 0.138028,0.05848 0.211339,0.0616 0.113334,0.0048 0.223119,-0.07377 0.265858,-0.175966 0.02184,-0.05224 0.01052,-0.112753 0.01578,-0.169129 -0.02636,-0.09085 -0.05958,-0.262045 -0.14436,-0.327029 -0.319574,-0.24495 -0.955312,0.0679 -1.223593,0.18657 -0.273709,0.121074 -0.53761,0.263205 -0.806414,0.394807 -1.152861,0.6176 -0.466698,0.243478 -1.55651,0.851814 -0.201608,0.112539 -0.39661,0.238001 -0.605386,0.336608 -0.115168,0.05439 -0.236202,0.104718 -0.362578,0.120571 -0.04227,0.0053 -0.104043,-0.01921 -0.112297,-0.061 -0.01129,-0.05714 0.04567,-0.107165 0.0685,-0.160747 0.06435,-0.06421 0.114636,-0.146634 0.193039,-0.192643 0.403945,-0.237045 0.949697,-0.06691 1.358213,0.04035 0.23998,0.06301 0.47563,0.141505 0.713934,0.210581 0.254442,0.07375 0.509527,0.14527 0.76429,0.217904 0.713931,0.145579 1.453176,0.259283 2.175048,0.08476 0.331586,-0.08017 0.661288,-0.251512 0.941278,-0.443577 0.103345,-0.07089 0.193842,-0.158897 0.290763,-0.238346 -0.0059,-0.0015 0.287268,-0.324187 0.223712,-0.363744 -0.01229,-0.0076 -0.02682,0.0109 -0.04023,0.01634 0,0 -0.01546,0.01229 -0.01546,0.01229 v 0 c 0.01268,-0.0066 0.02547,-0.02647 0.03805,-0.0197 0.07025,0.03776 -0.24346,0.35891 -0.222596,0.361469 -0.09679,0.0793 -0.187426,0.166774 -0.290368,0.237907 -0.270494,0.18691 -0.592223,0.350039 -0.912197,0.427685 -0.721883,0.175174 -1.461258,0.06186 -2.175331,-0.08376 -0.254679,-0.07269 -0.509707,-0.144163 -0.764037,-0.218058 -0.238111,-0.06918 -0.473512,-0.14793 -0.713268,-0.211173 -0.438687,-0.115717 -0.961602,-0.275002 -1.388811,-0.02388 -0.0786,0.0462 -0.128846,0.129023 -0.193269,0.193535 -0.02246,0.05445 -0.07944,0.105691 -0.06738,0.16334 0.0089,0.04235 0.07145,0.06676 0.114381,0.06137 0.126973,-0.01594 0.248495,-0.06676 0.364191,-0.121449 0.209018,-0.0988 0.404246,-0.224458 0.606097,-0.337175 1.08695,-0.606972 0.407324,-0.236298 1.556677,-0.852055 0.268402,-0.131344 0.531922,-0.273173 0.805205,-0.394032 0.266242,-0.117746 0.901946,-0.430344 1.219955,-0.187043 0.08472,0.06482 0.117518,0.235268 0.143725,0.325984 -0.0098,0.100902 0.007,0.211231 -0.09301,0.279064 -0.045,0.03051 -0.101844,0.04909 -0.156164,0.04699 -0.07337,-0.0028 -0.142323,-0.03685 -0.211585,-0.06121 -0.169589,-0.05965 -0.439839,-0.18268 -0.596898,-0.251689 -0.760776,-0.362034 -1.489998,-0.792122 -2.282648,-1.084663 -0.254873,-0.09022 -0.430582,-0.161376 -0.692892,-0.220596 -0.09637,-0.02176 -0.309431,-0.09665 -0.400058,0.02881 -0.06306,0.08729 0.02502,0.264536 0.04705,0.330721 0.08509,0.167679 0.107215,0.233014 0.224478,0.379752 0.13731,0.171824 0.321792,0.298528 0.493108,0.433001 0,0 0.01655,-0.01071 0.01655,-0.01071 z" />
      <path
         style="fill:#000000;fill-opacity:1;fill-rule:evenodd;stroke:none;stroke-width:1.265;stroke-linejoin:bevel"
         id="path127401"
         d="m 18.713775,21.171745 c 0.137335,0.250187 0.424202,0.354706 0.700127,0.312126 0.0646,-0.01 0.125757,-0.0357 0.188636,-0.05354 0.04505,-0.02735 0.273844,-0.136066 0.269676,-0.236665 -0.0067,-0.161913 -0.378038,-0.257524 -0.424565,-0.272836 -0.297323,-0.09785 -0.508216,-0.127318 -0.813856,-0.18491 -0.0586,0.0055 -0.144822,-0.03342 -0.17581,0.01662 -0.02674,0.04319 0.0448,0.09853 0.08887,0.123802 0.168086,0.0964 0.352216,0.162178 0.532704,0.232677 0.486595,0.190065 1.164007,0.414041 1.660592,0.554651 0.284578,0.08058 0.573279,0.145817 0.859918,0.218726 0.700642,0.140996 1.410664,0.18328 2.109493,0.0077 0.302502,-0.07599 0.61741,-0.215337 0.886202,-0.375354 0.09788,-0.05827 0.186446,-0.130934 0.279669,-0.196401 0,0 -0.01684,0.0066 -0.01684,0.0066 v 0 c -0.08307,0.05961 -0.161406,0.12643 -0.249202,0.178824 -0.667448,0.398318 -1.433277,0.54098 -2.205143,0.484014 -0.265982,-0.01963 -0.527981,-0.07592 -0.791972,-0.113876 -0.286673,-0.07285 -0.575429,-0.137953 -0.860019,-0.218562 -0.497887,-0.141024 -1.171466,-0.364144 -1.658863,-0.555606 -0.179732,-0.0706 -0.358634,-0.144792 -0.530211,-0.233392 -0.04685,-0.0242 -0.142722,-0.0548 -0.120424,-0.102588 0.02502,-0.05362 0.117748,-0.0119 0.176622,-0.01785 0.306927,0.05773 0.514792,0.08645 0.81331,0.184843 0.04218,0.0139 0.416159,0.110828 0.422046,0.270383 0.0034,0.09307 -0.185459,0.185631 -0.237248,0.217608 -0.06281,0.01798 -0.123874,0.04383 -0.188415,0.05395 -0.27507,0.04309 -0.561881,-0.0606 -0.698102,-0.310809 0,0 -0.01719,0.0098 -0.01719,0.0098 z" />
      <path
         style="fill:#000000;fill-opacity:1;fill-rule:evenodd;stroke:none;stroke-width:1.265;stroke-linejoin:bevel"
         id="path127403"
         d="m 22.525748,21.849215 c -0.02251,0.0039 -0.04502,0.0079 -0.06753,0.01185 0,0 -0.01565,0.01179 -0.01565,0.01179 v 0 c 0.02248,-0.0039 0.04496,-0.0078 0.06744,-0.01173 0,0 0.01574,-0.01192 0.01574,-0.01192 z" />
      <path
         style="fill:#000000;fill-opacity:1;fill-rule:evenodd;stroke:none;stroke-width:1.265;stroke-linejoin:bevel"
         id="path127405"
         d="m 23.314679,21.760421 c 0.665773,0.28857 1.388887,0.325443 2.102458,0.380912 0.249812,0.0058 0.499707,0.02616 0.749435,0.01746 0.821616,-0.02861 1.860531,-0.218045 2.582955,-0.636902 0.121721,-0.07057 0.226385,-0.167142 0.339577,-0.250713 0.03899,-0.09175 0.114593,-0.175584 0.116969,-0.275244 0.0113,-0.473932 -0.752033,-0.652657 -1.095494,-0.700453 -0.102899,-0.01432 -0.207282,-0.01436 -0.310925,-0.02153 -0.11248,6.61e-4 -0.495924,0.0019 -0.516038,0.196577 -0.01918,0.185814 0.456978,0.33817 0.548137,0.375198 0.646081,0.264214 1.368116,0.233339 2.012133,0.497588 0,0 0.01572,-0.01051 0.01572,-0.01051 v 0 c -0.644562,-0.263163 -1.366578,-0.232723 -2.012794,-0.497151 -0.157617,-0.06416 -0.355764,-0.119665 -0.482441,-0.248617 -0.156025,-0.158828 0.02159,-0.260199 0.168621,-0.287753 0.08266,-0.01549 0.167921,-0.0098 0.251881,-0.01474 0.103677,0.0071 0.208092,0.007 0.311031,0.02117 0.342154,0.04727 1.105252,0.225161 1.093584,0.697854 -0.0024,0.09929 -0.07785,0.182752 -0.116771,0.274128 -0.10331,0.07789 -0.198033,0.168708 -0.309931,0.233654 -0.722897,0.419573 -1.761106,0.609712 -2.583549,0.638294 -0.249607,0.0087 -0.499378,-0.01175 -0.749067,-0.01762 -0.712504,-0.0561 -1.434838,-0.09369 -2.099479,-0.382269 0,0 -0.01601,0.01067 -0.01601,0.01067 z" />
      <path
         style="fill:#000000;fill-opacity:1;fill-rule:evenodd;stroke:none;stroke-width:1.265;stroke-linejoin:bevel"
         id="path127407"
         d="m 35.035066,21.960256 c 0.266756,-0.131034 0.539253,-0.249845 0.804839,-0.383531 0.253153,-0.127429 0.205041,-0.0359 0.244607,-0.221927 -0.285332,-0.09299 -0.590992,-0.09182 -0.887973,-0.08622 -0.0985,0.0019 -0.197168,0.0052 -0.295156,0.01541 -0.05204,0.0054 -0.116285,-0.0051 -0.153784,0.03137 -0.02077,0.02021 0.04869,0.03146 0.07303,0.04719 0,0 0.01617,-0.01081 0.01617,-0.01081 v 0 c -0.0348,-0.0083 -0.127968,0.0021 -0.104397,-0.02485 0.03461,-0.03951 0.102037,-0.02653 0.154266,-0.03207 0.09801,-0.0104 0.196733,-0.01375 0.29528,-0.01564 0.295947,-0.0057 0.600329,-0.006 0.885198,0.08434 0.01789,0.167828 0.03524,0.07682 -0.21291,0.20179 -0.276754,0.139377 -0.562195,0.260232 -0.837547,0.402059 0,0 0.01839,-0.0071 0.01839,-0.0071 z" />
      <path
         style="fill:#000000;fill-opacity:1;fill-rule:evenodd;stroke:none;stroke-width:1.265;stroke-linejoin:bevel"
         id="path127409"
         d="m 37.596333,21.671907 c 0.233379,0.16904 0.501404,0.259485 0.773105,0.344719 0,0 0.01527,-0.01041 0.01527,-0.01041 v 0 c -0.271372,-0.08512 -0.539215,-0.175291 -0.771842,-0.344902 0,0 -0.01654,0.01059 -0.01654,0.01059 z" />
      <path
         style="fill:#000000;fill-opacity:1;fill-rule:evenodd;stroke:none;stroke-width:1.265;stroke-linejoin:bevel"
         id="path127411"
         d="m 41.951306,20.189527 c 0.217419,0.116604 0.09564,0.05952 0.369023,0.163156 0,0 0.01545,-0.01039 0.01545,-0.01039 v 0 c -0.272658,-0.103602 -0.151307,-0.04655 -0.367781,-0.162992 0,0 -0.01669,0.01023 -0.01669,0.01023 z" />
      <path
         style="fill:#000000;fill-opacity:1;fill-rule:evenodd;stroke:none;stroke-width:1.265;stroke-linejoin:bevel"
         id="path127413"
         d="m 42.213424,23.39694 c -0.683594,0.273459 -1.404517,0.411487 -2.139239,0.441696 -0.253545,0.01042 -0.507449,-0.0083 -0.761174,-0.01239 0,0 -0.01259,0.0091 -0.01259,0.0091 v 0 c 0.253854,0.0041 0.507889,0.0227 0.761563,0.01231 0.733827,-0.03005 1.454034,-0.167217 2.13718,-0.439389 0,0 0.01426,-0.01136 0.01426,-0.01136 z" />
      <path
         style="fill:#000000;fill-opacity:1;fill-rule:evenodd;stroke:none;stroke-width:1.265;stroke-linejoin:bevel"
         id="path127415"
         d="m 39.184249,22.137606 c 1.403728,0.0052 2.805387,0.09491 4.208782,0.117613 0.426958,0.0069 0.85402,0.0032 1.281031,0.0048 0,0 0.01013,-0.0074 0.01013,-0.0074 v 0 c -0.427109,-0.0015 -0.854273,0.0024 -1.281329,-0.0045 -1.40177,-0.02276 -2.801705,-0.113181 -4.203766,-0.121298 0,0 -0.01484,0.01079 -0.01484,0.01079 z" />
      <path
         style="fill:#000000;fill-opacity:1;fill-rule:evenodd;stroke:none;stroke-width:1.265;stroke-linejoin:bevel"
         id="path127417"
         d="m 14.538272,23.625671 c -0.439755,0.0065 -0.879027,0.04139 -1.31827,0.06399 -0.29358,0.01127 -0.801407,0.03198 -1.094608,0.03833 -0.385061,0.0083 -0.783683,0.03278 -1.133955,-0.160929 -0.05294,-0.02928 -0.09448,-0.07558 -0.141716,-0.113368 0.0026,-0.03456 -0.01369,-0.07641 0.0077,-0.103682 0.07967,-0.10159 0.353749,0.0037 0.462227,0.03747 0.594237,0.184986 1.162026,0.462715 1.729143,0.715258 0.314933,0.116299 0.604852,0.294239 0.91948,0.411583 0.103965,0.03878 0.213677,0.05992 0.320515,0.08988 0,0 0.01489,-0.01021 0.01489,-0.01021 v 0 c -0.106986,-0.02976 -0.216852,-0.05063 -0.320957,-0.08927 -0.314983,-0.116929 -0.605167,-0.294907 -0.920358,-0.410997 -0.567076,-0.252398 -1.134523,-0.529665 -1.72802,-0.716421 -0.09896,-0.03114 -0.372904,-0.158663 -0.494257,-0.0186 -0.02298,0.02652 -0.0043,0.07005 -0.0064,0.105071 0.04748,0.03784 0.08927,0.08422 0.14245,0.113518 0.351122,0.193469 0.749957,0.169024 1.135704,0.160616 0.279629,-0.0061 0.813908,-0.02736 1.094111,-0.03792 0.438579,-0.02226 0.877222,-0.05666 1.316302,-0.06267 0,0 0.01602,-0.01164 0.01602,-0.01164 z" />
      <path
         style="fill:#000000;fill-opacity:1;fill-rule:evenodd;stroke:none;stroke-width:1.265;stroke-linejoin:bevel"
         id="path127419"
         d="m 13.173171,24.303444 c -2.91e-4,0.01202 -6.08e-4,0.02403 -8.99e-4,0.03604 0,0 0.01767,-0.0089 0.01767,-0.0089 v 0 c 5.03e-4,-0.01156 10e-4,-0.02313 0.0015,-0.03469 0,0 -0.01828,0.0076 -0.01828,0.0076 z" />
      <path
         style="fill:#000000;fill-opacity:1;fill-rule:evenodd;stroke:none;stroke-width:1.265;stroke-linejoin:bevel"
         id="path127421"
         d="m 18.000107,24.821834 c 0.805632,0.142896 1.610772,0.289137 2.417648,0.4248 0,0 0.01431,-0.01004 0.01431,-0.01004 v 0 c -0.80665,-0.135301 -1.611715,-0.280469 -2.416685,-0.425437 0,0 -0.01527,0.01067 -0.01527,0.01067 z" />
      <path
         style="fill:#000000;fill-opacity:1;fill-rule:evenodd;stroke:none;stroke-width:1.265;stroke-linejoin:bevel"
         id="path127423"
         d="m 22.971476,25.526176 c -0.0068,0.01566 -0.0122,0.032 -0.02035,0.04699 -0.0021,0.0039 10e-5,-0.009 0.0019,-0.01302 0.01543,-0.0349 0.03185,-0.06939 0.04951,-0.10322 0.118236,-0.22646 0.253795,-0.344359 0.437952,-0.518565 0.296553,-0.232365 0.559906,-0.427713 0.956679,-0.410321 0.196327,0.0086 0.383104,0.07342 0.569706,0.126065 0.09123,0.02992 0.179158,0.07292 0.273676,0.08976 0.411848,0.07337 0.824789,-0.01535 1.226907,-0.09276 0,0 0.01381,-0.01045 0.01381,-0.01045 v 0 c -0.401589,0.07738 -0.814232,0.166186 -1.225572,0.09292 -0.09455,-0.01684 -0.182515,-0.05986 -0.273773,-0.08978 -0.185767,-0.05254 -0.37436,-0.117919 -0.569874,-0.126756 -0.387907,-0.01753 -0.699913,0.197748 -0.988616,0.428337 -0.177604,0.168146 -0.326133,0.299703 -0.438489,0.519572 -0.01775,0.03473 -0.04215,0.06806 -0.04827,0.106569 -0.0039,0.02481 0.110864,-0.05066 0.05268,-0.05388 0,0 -0.01785,0.0086 -0.01785,0.0086 z" />
      <path
         style="fill:#000000;fill-opacity:1;fill-rule:evenodd;stroke:none;stroke-width:1.265;stroke-linejoin:bevel"
         id="path127425"
         d="m 30.225447,23.330724 c 0.0186,0.03207 0.03719,0.06415 0.05579,0.09622 0,0 0.01675,-0.0097 0.01675,-0.0097 v 0 c -0.01855,-0.03216 -0.03707,-0.06432 -0.0556,-0.09648 0,0 -0.01693,0.0099 -0.01693,0.0099 z" />
      <path
         style="fill:#000000;fill-opacity:1;fill-rule:evenodd;stroke:none;stroke-width:1.265;stroke-linejoin:bevel"
         id="path127427"
         d="m 32.144496,24.964228 c 0.141348,0.233506 0.35528,0.207452 0.602559,0.216665 0,0 0.01474,-0.01063 0.01474,-0.01063 v 0 c -0.246063,-0.0091 -0.459968,0.01696 -0.60025,-0.215922 0,0 -0.01704,0.0099 -0.01704,0.0099 z" />
      <path
         style="fill:#000000;fill-opacity:1;fill-rule:evenodd;stroke:none;stroke-width:1.265;stroke-linejoin:bevel"
         id="path127429"
         d="m 37.390705,23.393863 c 0.365341,0.309694 0.734721,0.627651 1.163722,0.847946 0.17721,0.091 0.364556,0.160736 0.546835,0.241104 0.49076,0.16733 0.673674,0.265073 1.199118,0.301124 0.206053,0.01414 0.412906,-0.01178 0.619361,-0.01767 0,0 0.01323,-0.0097 0.01323,-0.0097 v 0 c -0.206401,0.006 -0.413195,0.032 -0.619202,0.01794 -0.525359,-0.03586 -0.708088,-0.133579 -1.198753,-0.300873 -0.182049,-0.08043 -0.369191,-0.150199 -0.54615,-0.241284 -0.428445,-0.220531 -0.797338,-0.538798 -1.161643,-0.849123 0,0 -0.01651,0.0105 -0.01651,0.0105 z" />
      <path
         style="fill:#000000;fill-opacity:1;fill-rule:evenodd;stroke:none;stroke-width:1.265;stroke-linejoin:bevel"
         id="path127431"
         d="m 43.576234,23.242436 c 0.0088,0.0064 0.127606,0.09038 0.1274,0.103694 -5.29e-4,0.03634 -0.03268,0.07121 -0.06524,0.08735 -0.156583,0.07758 -0.323636,0.132683 -0.489556,0.187527 -0.918837,0.303723 -1.169328,0.3387 -2.180722,0.582574 -1.269267,0.273264 -2.548655,0.49639 -3.831429,0.695469 -0.543935,0.08441 -1.0673,0.172961 -1.616583,0.19694 -0.171672,0.0075 -0.343625,-0.0056 -0.515437,-0.0084 -0.01183,0.07178 -0.70363,-0.118425 -0.57054,-0.283862 0.106112,-0.131904 0.665176,-0.219862 0.704943,-0.226294 0.255733,-0.04137 0.51448,-0.06126 0.771721,-0.09189 1.672354,-0.116527 3.367524,-0.2295 5.036833,-0.0062 0.268713,0.03595 0.534104,0.09345 0.801158,0.140174 0.646488,0.13168 1.272667,0.340319 1.907974,0.514216 0.244102,0.06682 0.611071,0.176799 0.877562,0.170444 0.111631,-0.0027 0.219133,-0.04307 0.3287,-0.06461 0.08993,-0.06342 0.196699,-0.107996 0.26979,-0.190261 0.275895,-0.310521 0.242988,-0.786838 0.09528,-1.145382 -0.138192,-0.335453 -0.300072,-0.462528 -0.540472,-0.719859 0,0 -0.01484,0.009 -0.01484,0.009 v 0 c 0.240292,0.257067 0.402026,0.383836 0.539985,0.719105 0.150133,0.364853 0.174884,0.826997 -0.09685,1.14378 -0.0639,0.0745 -0.158996,0.11513 -0.238495,0.172695 -0.109562,0.02176 -0.21702,0.06245 -0.328687,0.06529 -0.266827,0.0068 -0.633764,-0.102884 -0.878253,-0.169621 -0.635754,-0.173539 -1.262335,-0.382044 -1.909193,-0.513581 -0.26724,-0.04664 -0.532823,-0.104035 -0.801719,-0.139915 -1.669188,-0.222729 -3.364074,-0.10965 -5.036357,0.0054 -0.256847,0.03026 -0.515171,0.04988 -0.770538,0.09078 -0.108294,0.01734 -0.607198,0.09542 -0.735502,0.245772 -0.02714,0.0318 -2.15e-4,0.09163 0.02835,0.122149 0.128698,0.137481 0.394824,0.137982 0.545401,0.162544 0.172138,0.0026 0.344429,0.0156 0.516417,0.0079 0.54987,-0.02451 1.074285,-0.113627 1.618731,-0.198411 1.28293,-0.199784 2.562516,-0.423202 3.832167,-0.695903 0.930632,-0.223749 1.318818,-0.291859 2.177372,-0.579731 0.176888,-0.05931 0.354066,-0.121435 0.520568,-0.205608 0.03284,-0.01661 0.06381,-0.05314 0.06405,-0.08994 8.8e-5,-0.01344 -0.118054,-0.09702 -0.127164,-0.103715 0,0 -0.0168,0.0103 -0.0168,0.0103 z" />
      <path
         style="fill:#000000;fill-opacity:1;fill-rule:evenodd;stroke:none;stroke-width:1.265;stroke-linejoin:bevel"
         id="path127433"
         d="m 28.668683,24.76811 c -0.442669,-0.01824 -0.898117,0.04815 -1.334037,-0.05738 -0.06647,-0.01609 -0.129815,-0.04307 -0.194723,-0.06461 -0.0086,-0.005 -0.256513,-0.118518 -0.222477,-0.197601 0.04684,-0.108828 0.461761,-0.19529 0.491553,-0.199358 0.471205,-0.06434 0.835219,-0.02981 1.313363,-0.01393 1.606436,0.182961 3.169317,0.606545 4.735166,0.992089 0.141475,0.02482 0.282953,0.04964 0.424429,0.07447 0,0 0.01431,-0.01003 0.01431,-0.01003 v 0 c -0.141679,-0.02463 -0.283355,-0.04927 -0.425034,-0.0739 -1.566535,-0.383796 -3.129598,-0.807233 -4.736015,-0.991901 -0.544346,-0.01846 -1.146696,-0.09955 -1.666119,0.119232 -0.06227,0.02623 -0.142263,0.05068 -0.168248,0.113048 -0.03324,0.07979 0.213535,0.192694 0.223504,0.19845 0.06502,0.02157 0.128484,0.04859 0.195069,0.06472 0.435822,0.105524 0.891022,0.03899 1.333593,0.05809 0,0 0.01566,-0.01137 0.01566,-0.01137 z" />
      <path
         style="fill:#000000;fill-opacity:1;fill-rule:evenodd;stroke:none;stroke-width:1.265;stroke-linejoin:bevel"
         id="path127435"
         d="m 12.231264,27.594724 c 0.266033,-0.422955 0.121909,-0.188669 0.408214,-0.668266 0.07149,-0.119753 0.132383,-0.246523 0.214592,-0.359188 0.07183,-0.09844 0.219157,-0.312487 0.394962,-0.249846 0.08259,0.02943 0.136652,0.10989 0.204979,0.164835 0.218895,0.255561 0.36963,0.558985 0.563427,0.8318 0.06012,0.08463 0.197735,0.275304 0.318084,0.311822 0.05852,0.01775 0.122131,-0.0066 0.183197,-0.0099 0.261443,-0.111197 0.450774,-0.322924 0.663702,-0.501034 0.07092,-0.05932 0.135675,-0.130519 0.219434,-0.169682 0.176968,-0.08275 0.362539,-0.04903 0.546697,-0.03973 0.368353,0.08649 0.213521,0.04144 0.562665,0.156676 0.230717,0.07615 0.475676,0.178917 0.720173,0.08019 0.07607,-0.03072 0.138282,-0.08832 0.207422,-0.132472 0.194871,-0.151725 0.239871,-0.468244 0.48114,-0.56439 0.0279,-0.01112 0.05959,-0.0075 0.08939,-0.01131 0,0 0.01545,-0.01168 0.01545,-0.01168 v 0 c -0.04093,0.01 -0.08401,0.01349 -0.122791,0.02996 -0.239179,0.101587 -0.285654,0.410057 -0.480584,0.5642 -0.05837,0.03814 -0.110203,0.08894 -0.1751,0.11443 -0.247072,0.09706 -0.486451,-0.0021 -0.719924,-0.07923 -0.349569,-0.115359 -0.194237,-0.07012 -0.562962,-0.15706 -0.228776,-0.01188 -0.359584,-0.04659 -0.578644,0.05724 -0.08356,0.03961 -0.14844,0.110469 -0.219359,0.169805 -0.203916,0.170606 -0.380593,0.376661 -0.631455,0.482878 -0.06084,0.0037 -0.124133,0.02852 -0.182534,0.01106 -0.120318,-0.03597 -0.258331,-0.226563 -0.31833,-0.310848 -0.19418,-0.272775 -0.344953,-0.576392 -0.563459,-0.832467 -0.06853,-0.05545 -0.120903,-0.141871 -0.20559,-0.166344 -0.187489,-0.05418 -0.344879,0.156827 -0.426038,0.268286 -0.08208,0.112725 -0.142991,0.23944 -0.214505,0.35915 -0.28168,0.471512 -0.146543,0.252355 -0.409941,0.668703 0,0 0.01769,-0.0075 0.01769,-0.0075 z" />
      <path
         style="fill:#000000;fill-opacity:1;fill-rule:evenodd;stroke:none;stroke-width:1.265;stroke-linejoin:bevel"
         id="path127437"
         d="m 22.597282,27.310664 c -0.02903,0.01524 -0.05481,0.04 -0.08709,0.04573 -0.389629,0.06921 -0.838264,0.06849 -1.223195,0.06148 -0.565868,-0.01032 -1.148034,-0.05054 -1.709558,-0.123018 -0.252941,-0.03265 -0.503533,-0.08145 -0.755299,-0.122177 -0.455518,-0.111644 -0.669703,-0.149651 -1.092524,-0.301371 -0.05084,-0.01823 -0.381565,-0.136557 -0.449325,-0.234098 -0.01137,-0.01635 0.02078,-0.04222 0.04064,-0.04382 0.06545,-0.0053 0.130273,0.01654 0.19541,0.02482 1.364505,0.274714 2.732058,0.535286 4.093624,0.824537 0.721836,0.152871 1.431345,0.357767 2.156841,0.494067 0.169373,0.03182 0.338317,0.0688 0.509772,0.0862 0.157848,0.01603 0.317184,0.0092 0.475775,0.01384 0.136792,-0.01937 0.276389,-0.02445 0.410376,-0.05813 0.273615,-0.0688 0.829031,-0.300029 0.792288,-0.667713 -0.0056,-0.05598 -0.04334,-0.103828 -0.06501,-0.155742 -0.05224,-0.03859 -0.09746,-0.08918 -0.156713,-0.115784 -0.34456,-0.154718 -1.045591,-0.02641 -1.413634,0.03447 -0.43758,0.11067 -0.582322,0.220504 -0.481481,0.666814 0.02045,0.06857 0.161464,0.482057 0.113579,0.517877 -0.0387,0.02895 -0.09727,0.01167 -0.144948,0.0037 -0.118065,-0.01968 -0.232421,-0.05733 -0.348632,-0.086 -0.974707,-0.32139 -1.977894,-0.545026 -2.970372,-0.803072 -0.610664,-0.158773 -0.398237,-0.0806 -0.747683,-0.223438 0.607742,0.132726 1.218473,0.247034 1.829923,0.361408 0,0 0.01189,-0.0083 0.01189,-0.0083 v 0 c -0.30818,-0.05802 -0.616962,-0.112921 -0.92454,-0.174051 -0.220007,-0.04373 -0.437363,-0.100618 -0.658101,-0.140494 -0.09063,-0.01638 -0.183253,-0.01871 -0.274879,-0.02804 0.352652,0.140137 0.137889,0.06292 0.750679,0.221676 0.992172,0.257045 1.994849,0.481004 2.968344,0.804484 0.04576,0.01146 0.40936,0.148069 0.52561,0.0634 0.04683,-0.03411 -0.09327,-0.450334 -0.113987,-0.518239 -0.09485,-0.421836 0.03115,-0.546677 0.449924,-0.646703 0.367532,-0.06102 1.06804,-0.189365 1.412369,-0.03541 0.05899,0.02638 0.10404,0.07666 0.156059,0.114982 0.02153,0.05158 0.05909,0.09912 0.0646,0.154747 0.03563,0.359886 -0.493808,0.581308 -0.761201,0.648875 -0.134004,0.03386 -0.27366,0.03906 -0.41049,0.05858 -0.15861,-0.0045 -0.317962,0.0024 -0.475832,-0.01349 -0.171474,-0.01733 -0.340435,-0.0543 -0.509824,-0.08609 -0.725719,-0.136202 -1.435367,-0.341389 -2.157568,-0.493548 -1.361177,-0.28833 -2.728195,-0.548442 -4.091494,-0.826331 -0.07626,-0.0021 -0.153329,-0.01757 -0.228771,-0.0063 -0.01987,0.003 -0.05011,0.02992 -0.03854,0.04635 0.06852,0.09732 0.399789,0.215215 0.451187,0.233566 0.423793,0.151326 0.637502,0.189146 1.093959,0.30067 0.251913,0.04066 0.502661,0.08936 0.755741,0.121978 0.561644,0.07239 1.143273,0.112581 1.709239,0.123455 0.307174,0.0059 0.878903,0.0095 1.220737,-0.05854 0.0448,-0.0089 0.08019,-0.04377 0.120277,-0.06565 0,0 -0.01814,0.0078 -0.01814,0.0078 z" />
      <path
         style="fill:#000000;fill-opacity:1;fill-rule:evenodd;stroke:none;stroke-width:1.265;stroke-linejoin:bevel"
         id="path127439"
         d="m 28.671927,27.879619 c 0.202121,0.324329 0.467254,0.712983 0.909508,0.681921 0.325398,-0.02286 0.568812,-0.218686 0.834173,-0.378579 0.3326,-0.247398 0.578932,-0.47357 1.014076,-0.467738 0.305282,0.0041 0.595482,0.134845 0.87199,0.247375 0.390639,0.141001 0.606454,0.09082 0.938282,-0.143016 0.322077,-0.226962 0.0042,-0.04115 0.302871,-0.205988 0.05514,-0.01109 0.109185,-0.03314 0.165436,-0.03328 0.222205,-5.29e-4 0.60756,0.240856 0.80673,0.34416 0,0 0.01553,-0.01019 0.01553,-0.01019 v 0 c -0.19922,-0.103314 -0.585126,-0.345323 -0.807111,-0.345445 -0.05636,-2.9e-5 -0.110572,0.02191 -0.165857,0.03286 -0.05846,0.03264 -0.119766,0.06062 -0.175374,0.09791 -0.165806,0.111186 -0.151656,0.149641 -0.334187,0.239663 -0.247705,0.122163 -0.476469,0.113662 -0.731067,0.01312 -0.276768,-0.112559 -0.567272,-0.243528 -0.872763,-0.247954 -0.44319,-0.0064 -0.706551,0.234706 -1.044585,0.484714 -0.260131,0.157469 -0.484516,0.339241 -0.803392,0.362106 -0.44178,0.03168 -0.706736,-0.356621 -0.90747,-0.681202 0,0 -0.0168,0.0096 -0.0168,0.0096 z" />
      <path
         style="fill:#000000;fill-opacity:1;fill-rule:evenodd;stroke:none;stroke-width:1.265;stroke-linejoin:bevel"
         id="path127441"
         d="m 38.004966,28.84897 c 0.664385,-0.03007 1.325431,-0.113215 1.982336,-0.214839 0.255807,-0.05565 0.499755,7.4e-5 0.749958,0.04765 0.07951,0.01513 0.157991,0.04277 0.238927,0.04327 0.08634,5.29e-4 0.170595,-0.02682 0.255892,-0.04022 0,0 0.01479,-0.01111 0.01479,-0.01111 v 0 c -0.08515,0.01355 -0.16923,0.04112 -0.255453,0.04067 -0.08092,-5.29e-4 -0.159387,-0.02813 -0.238884,-0.04326 -0.25046,-0.04766 -0.494601,-0.103785 -0.750692,-0.04792 -0.656457,0.101904 -1.317127,0.185287 -1.981173,0.214341 0,0 -0.01569,0.0114 -0.01569,0.0114 z" />
      <path
         style="fill:#000000;fill-opacity:1;fill-rule:evenodd;stroke:none;stroke-width:1.265;stroke-linejoin:bevel"
         id="path127443"
         d="m 42.641668,26.649584 c -0.715936,0.410718 -1.441466,0.804006 -2.165218,1.20077 -0.477814,0.22489 -0.915723,0.549433 -1.416852,0.725659 -0.06702,0.02357 -0.137406,0.03621 -0.20611,0.05431 -0.06306,-0.0082 -0.128627,-0.0052 -0.189172,-0.02469 -0.253442,-0.08142 -0.441717,-0.406575 -0.337981,-0.665813 0.02738,-0.06842 0.08868,-0.117735 0.133019,-0.176602 0.08641,-0.02619 0.169188,-0.0718 0.259223,-0.07858 0.556395,-0.04188 1.191329,0.226501 1.690452,0.428019 0.54297,0.21922 1.075714,0.462968 1.613948,0.693565 1.112713,0.418838 2.266238,1.006499 3.472299,1.090629 0.128426,0.009 0.257447,-0.0039 0.386172,-0.0058 0.266631,-0.06118 0.556104,-0.164123 0.633802,-0.464886 0.02585,-0.100071 0.0099,-0.206473 0.0149,-0.309708 0,0 -0.01625,0.0082 -0.01625,0.0082 v 0 c -0.0052,0.103031 0.0105,0.209272 -0.01553,0.309094 -0.07628,0.292441 -0.342461,0.386977 -0.602559,0.446868 -0.128868,0.0021 -0.258019,0.01527 -0.386604,0.0065 -1.206609,-0.08245 -2.361031,-0.669949 -3.474,-1.088937 -0.537983,-0.230733 -1.070446,-0.474636 -1.613064,-0.694246 -0.465739,-0.188494 -1.166342,-0.480764 -1.689063,-0.430424 -0.101762,0.0098 -0.193921,0.0648 -0.290881,0.0972 -0.04422,0.05918 -0.10542,0.108871 -0.132646,0.177546 -0.103145,0.260173 0.08529,0.586192 0.339365,0.668367 0.0607,0.01963 0.126474,0.0168 0.189712,0.02519 0.06881,-0.01807 0.139303,-0.03063 0.206428,-0.0542 0.501562,-0.176128 0.939683,-0.501238 1.417838,-0.726234 0.723083,-0.396465 1.448033,-0.789305 2.163403,-1.199549 0,0 0.0154,-0.01217 0.0154,-0.01217 z" />
      <path
         style="fill:#000000;fill-opacity:1;fill-rule:evenodd;stroke:none;stroke-width:1.265;stroke-linejoin:bevel"
         id="path127445"
         d="m 14.441114,31.130539 c -0.09466,0.01696 -0.19156,0.04973 -0.288762,0.0296 -0.0095,-0.0019 -0.03345,-0.01913 -0.02434,-0.01585 0.02608,0.0094 0.05056,0.02273 0.07572,0.03434 0.120795,0.05581 0.241426,0.111963 0.362139,0.167947 0.671209,0.31357 1.388583,0.53272 2.11978,0.654081 0.28524,0.04734 0.572826,0.09248 0.861924,0.09755 0.758834,0.01333 1.000048,-0.09258 1.720932,-0.267272 0.539563,-0.208669 0.724207,-0.231447 1.162535,-0.556866 0.09701,-0.07202 0.192347,-0.152302 0.26043,-0.252116 0.06589,-0.0966 0.05561,-0.266689 -0.109958,-0.262996 -0.153174,0.0034 -0.298787,0.06798 -0.448181,0.101973 -0.749767,0.255823 -1.490385,0.536721 -2.232478,0.813586 -0.33961,0.126704 -0.804392,0.308364 -1.166951,0.397759 -0.134308,0.03312 -0.272784,0.04615 -0.409177,0.06922 -0.18704,-0.0048 -0.517852,0.028 -0.605821,-0.207899 -0.01543,-0.04139 -0.01907,-0.09377 0.0022,-0.132496 0.07366,-0.134189 0.27665,-0.171386 0.394477,-0.213773 0.56752,-0.168058 1.159882,-0.1325 1.742639,-0.09484 0.454187,0.02935 0.907762,0.06752 1.361758,0.09968 1.050995,0.06686 2.100016,0.160837 3.149248,0.250417 0,0 0.01303,-0.0093 0.01303,-0.0093 v 0 c -1.04937,-0.08892 -2.098478,-0.182684 -3.1495,-0.250264 -0.453705,-0.03237 -0.906985,-0.07074 -1.360877,-0.100346 -0.582456,-0.038 -1.174478,-0.07404 -1.741888,0.09338 -0.112104,0.04301 -0.351434,0.0953 -0.426028,0.233752 -0.02112,0.0392 -0.01712,0.09191 -0.0014,0.133575 0.08912,0.236624 0.419639,0.204068 0.60816,0.208682 0.136643,-0.02318 0.275377,-0.03628 0.409927,-0.06951 0.362855,-0.08961 0.828275,-0.271695 1.168168,-0.398579 0.741431,-0.276778 1.48146,-0.557387 2.230772,-0.812548 0.148653,-0.03405 0.293508,-0.09817 0.445959,-0.102159 0.163886,-0.0043 0.175121,0.163264 0.109426,0.259506 -0.06792,0.0995 -0.163245,0.17915 -0.259646,0.251399 -0.417826,0.313153 -0.614337,0.340051 -1.134837,0.541642 -0.720829,0.174972 -0.961905,0.281022 -1.720694,0.267751 -0.289016,-0.0051 -0.576522,-0.05018 -0.861678,-0.09753 -0.730638,-0.121324 -1.44738,-0.340484 -2.117473,-0.655214 -0.120288,-0.05641 -0.23698,-0.121224 -0.360863,-0.169225 -0.03393,-0.01315 -0.07208,-0.01429 -0.10842,-0.01259 -0.01001,5.29e-4 0.01534,0.01442 0.02515,0.01651 0.09715,0.02072 0.194272,-0.01228 0.288912,-0.02918 0,0 0.01573,-0.01177 0.01573,-0.01177 z" />
      <path
         style="fill:#000000;fill-opacity:1;fill-rule:evenodd;stroke:none;stroke-width:1.265;stroke-linejoin:bevel"
         id="path127447"
         d="m 24.334359,31.998816 c 0.04569,0.01521 0.09227,0.028 0.137079,0.04566 0.303588,0.119681 0.59323,0.260678 0.907139,0.355864 0.454885,0.137938 0.584151,0.147236 1.061907,0.23531 0.200494,0.01143 0.400815,0.04211 0.601477,0.03427 0.586508,-0.02291 1.447795,-0.24008 1.893256,-0.654169 0.07046,-0.0655 0.111389,-0.156893 0.167084,-0.235339 0.015,-0.07116 0.05717,-0.14178 0.04498,-0.213468 -0.03227,-0.189678 -0.234943,-0.198827 -0.380156,-0.185807 -0.486458,0.04362 -1.156727,0.364638 -1.605257,0.548294 -0.165219,0.07157 -0.724893,0.308411 -0.922431,0.411845 -0.05156,0.027 -0.162035,0.04279 -0.144346,0.09824 0.01736,0.05443 0.114921,-0.0032 0.170673,-0.01572 0.161208,-0.03609 0.318815,-0.08671 0.478354,-0.129577 0.254246,-0.06831 0.508666,-0.135983 0.762997,-0.203975 1.237242,-0.29877 2.483303,-0.594784 3.752467,-0.721641 0.250158,-0.025 0.501697,-0.03342 0.752546,-0.05013 0,0 0.01254,-0.0093 0.01254,-0.0093 v 0 c -0.251063,0.01683 -0.502817,0.02537 -0.753187,0.05049 -1.268986,0.127231 -2.514869,0.423151 -3.752164,0.721159 -0.253878,0.06764 -0.507844,0.134967 -0.761638,0.202928 -0.158977,0.04257 -0.316305,0.09168 -0.476671,0.128664 -0.05501,0.0127 -0.130015,0.06167 -0.16817,0.02005 -0.03122,-0.03404 0.07192,-0.059 0.112879,-0.08035 0.206659,-0.107727 0.745478,-0.335597 0.923427,-0.412731 0.449042,-0.183854 1.115951,-0.503219 1.602951,-0.547677 0.143529,-0.0131 0.346274,-0.0053 0.378309,0.18333 0.01212,0.07141 -0.02995,0.141737 -0.04492,0.212608 -0.05559,0.07818 -0.09727,0.168424 -0.166777,0.234538 -0.180362,0.171545 -0.512697,0.330692 -0.734089,0.409879 -0.557427,0.199382 -1.14299,0.271669 -1.730484,0.193979 -0.477688,-0.08818 -0.606353,-0.09732 -1.061028,-0.235587 -0.313574,-0.09536 -0.602848,-0.236324 -0.905827,-0.356791 -0.04477,-0.01781 -0.09129,-0.03082 -0.136936,-0.04623 0,0 -0.016,0.01132 -0.016,0.01132 z" />
      <path
         style="fill:#000000;fill-opacity:1;fill-rule:evenodd;stroke:none;stroke-width:1.265;stroke-linejoin:bevel"
         id="path127449"
         d="m 34.429147,32.594968 c 0.25097,0.307647 0.639921,0.460264 1.023445,0.524957 0.143595,0.02421 0.289991,0.027 0.434986,0.0405 0.414504,0.01151 0.825529,-0.02774 1.22342,-0.147354 0.15858,-0.04767 0.374425,-0.129932 0.515392,-0.227439 0.05651,-0.03908 0.101373,-0.09277 0.152059,-0.139152 -0.0088,-0.04846 0.0044,-0.106969 -0.02643,-0.145378 -0.133054,-0.165743 -0.482677,-0.218334 -0.639085,-0.248481 -0.202052,-0.03894 -0.405974,-0.06984 -0.610831,-0.0892 -0.583837,-0.05518 -1.31319,-0.05962 -1.889297,-0.07267 -1.444709,-0.01468 -2.889543,-0.0113 -4.334097,0.01304 0,0 -0.01198,0.0087 -0.01198,0.0087 v 0 c 1.444767,-0.02543 2.889837,-0.02931 4.334772,-0.0136 0.578823,0.01344 1.30126,0.01804 1.887201,0.07393 0.204568,0.01953 0.408199,0.05051 0.609947,0.08959 0.154516,0.02993 0.504213,0.08322 0.636476,0.247637 0.03048,0.03789 0.01722,0.09572 0.02585,0.143573 -0.04005,0.04012 -0.07376,0.08777 -0.120153,0.120349 -0.138073,0.09695 -0.360503,0.181435 -0.515654,0.228227 -0.397817,0.119975 -0.808826,0.159522 -1.22337,0.148053 -0.144851,-0.01349 -0.291111,-0.01622 -0.434557,-0.04046 -0.38264,-0.06464 -0.771501,-0.217157 -1.021104,-0.524952 0,0 -0.01699,0.01008 -0.01699,0.01008 z" />
      <path
         style="fill:#000000;fill-opacity:1;fill-rule:evenodd;stroke:none;stroke-width:1.265;stroke-linejoin:bevel"
         id="path127451"
         d="m 40.354805,31.977806 c 0.129609,0.272354 0.34336,0.518356 0.623197,0.643554 0.08179,0.03659 0.169733,0.05747 0.254601,0.0862 0.111844,0.0057 0.223755,0.02389 0.335536,0.01707 0.277376,-0.01696 0.574509,-0.100684 0.836867,-0.182427 0.204197,-0.06362 0.557416,-0.189466 0.756406,-0.289145 0.06751,-0.03382 0.127247,-0.08133 0.190871,-0.121999 -0.59672,0.375965 -1.241989,0.691171 -1.935348,0.840854 -0.163679,0.03533 -0.331494,0.04763 -0.497239,0.07144 -0.311261,0.0097 -0.641612,7.94e-4 -0.912096,-0.177749 -0.04732,-0.03124 -0.175675,-0.139584 -0.136588,-0.228899 0.02045,-0.04676 0.07668,-0.06739 0.115022,-0.10109 0.07366,-0.02463 0.14491,-0.05816 0.220962,-0.07389 0.315253,-0.0652 0.583176,-0.05546 0.910436,-0.04481 0.641263,0.02085 1.279403,0.09982 1.917285,0.163571 0.445553,0.02434 0.893794,0.119449 1.34203,0.104058 0.08193,-0.0028 0.166888,-0.0047 0.243641,-0.03354 0.04415,-0.01656 0.122415,-0.05356 0.103299,-0.09667 -0.03381,-0.07625 -0.138602,-0.09282 -0.207904,-0.139232 -0.221081,-0.07433 -0.437706,-0.163531 -0.663239,-0.222996 -0.380751,-0.100393 -0.767424,-0.177191 -1.153232,-0.255947 -2.013418,-0.411007 -4.050207,-0.644414 -6.091713,-0.861841 0,0 -0.0089,0.0063 -0.0089,0.0063 v 0 c 2.040964,0.217138 4.077361,0.4499 6.089843,0.862989 0.385058,0.07904 0.770927,0.156443 1.150826,0.257408 0.224782,0.05974 0.440531,0.149378 0.660797,0.224065 0.06857,0.04554 0.161891,0.06693 0.205714,0.136612 0.01871,0.02973 -0.03755,0.06637 -0.07062,0.07818 -0.07732,0.02761 -0.161875,0.03118 -0.24392,0.03414 -0.448619,0.01617 -0.897408,-0.07892 -1.34335,-0.102983 -0.637818,-0.06361 -1.275797,-0.142521 -1.916946,-0.164005 -0.290494,-0.0097 -0.61886,-0.02209 -0.909426,0.0433 -0.08768,0.01974 -0.168849,0.06166 -0.253272,0.09249 -0.03813,0.03432 -0.0943,0.05575 -0.11438,0.102957 -0.03831,0.09005 0.08989,0.198329 0.138086,0.230087 0.271174,0.178673 0.602076,0.187576 0.913985,0.177713 0.165923,-0.02387 0.333915,-0.03622 0.497774,-0.07158 0.664244,-0.143338 1.369385,-0.459618 1.930974,-0.844129 -0.05313,0.03471 -0.102558,0.07588 -0.159385,0.10414 -0.204213,0.101531 -0.546211,0.223978 -0.75661,0.289595 -0.262033,0.08172 -0.558943,0.16543 -0.835997,0.182488 -0.111572,0.0069 -0.223287,-0.01124 -0.334928,-0.01688 -0.08474,-0.02867 -0.172561,-0.04948 -0.25423,-0.086 -0.279426,-0.124944 -0.493088,-0.370668 -0.621718,-0.643024 0,0 -0.01712,0.0096 -0.01712,0.0096 z" />
      <path
         style="fill:#000000;fill-opacity:1;fill-rule:evenodd;stroke:none;stroke-width:1.265;stroke-linejoin:bevel"
         id="path127453"
         d="m 14.099374,34.7034 c 0.346781,-0.02601 0.737838,-0.133543 1.075649,0.0032 0.08448,0.03419 0.15797,0.09095 0.236955,0.136425 0.249548,0.180067 0.465349,0.399775 0.706444,0.590275 0.07157,0.05655 0.138247,0.122041 0.219625,0.16325 0.215591,0.109178 0.30701,0.07577 0.541256,0.06833 0.618663,-0.09913 1.11418,-0.613193 1.752278,-0.632164 0.125365,-0.0037 0.249384,0.02701 0.374075,0.04051 0.399698,0.10024 0.350596,0.07613 0.727918,0.215648 0.1,0.03698 0.19432,0.09027 0.297234,0.118102 0.07668,0.02074 0.181146,0.083 0.236834,0.02635 0.04855,-0.04939 -0.02011,-0.148042 -0.07066,-0.195384 -0.13131,-0.122981 -0.301558,-0.196287 -0.452338,-0.294431 -0.764232,-0.361008 -1.59189,-0.534218 -2.425206,-0.642041 -0.368796,-0.04772 -0.818555,-0.09268 -1.20017,-0.05164 -0.09302,0.01 -0.181567,0.04524 -0.27235,0.06787 0,0 -0.01458,0.01114 -0.01458,0.01114 v 0 c 0.09102,-0.02297 0.179752,-0.05862 0.273061,-0.06888 0.382728,-0.04207 0.831415,0.0024 1.201776,0.05012 0.83287,0.107336 1.660014,0.28058 2.423287,0.642527 0.150052,0.0982 0.313573,0.178387 0.450156,0.29459 0.05153,0.04384 0.147464,0.125074 0.102198,0.175352 -0.05316,0.05904 -0.160225,-0.0051 -0.236945,-0.02569 -0.103028,-0.0277 -0.197432,-0.08104 -0.297509,-0.118012 -0.37781,-0.139567 -0.328098,-0.115361 -0.728189,-0.215947 -0.124744,-0.01368 -0.248793,-0.04464 -0.374233,-0.04104 -0.638084,0.01831 -1.133558,0.532366 -1.751839,0.632172 -0.233501,0.0078 -0.325428,0.04129 -0.540505,-0.06735 -0.08141,-0.04112 -0.148122,-0.106564 -0.219712,-0.163074 -0.24126,-0.190441 -0.457065,-0.410239 -0.706471,-0.590629 -0.07903,-0.04567 -0.152514,-0.102661 -0.237077,-0.137012 -0.337375,-0.137043 -0.728462,-0.02985 -1.074983,-0.0042 0,0 -0.01598,0.01161 -0.01598,0.01161 z" />
      <path
         style="fill:#000000;fill-opacity:1;fill-rule:evenodd;stroke:none;stroke-width:1.265;stroke-linejoin:bevel"
         id="path127455"
         d="m 23.309464,35.471952 c 0.349736,-0.165743 0.710061,-0.373182 1.102593,-0.416497 0.373613,-0.04123 0.511853,0.02931 0.879616,0.119097 0.697628,0.253778 1.394784,0.51939 2.130915,0.640572 0.31319,0.05156 0.679577,0.07167 0.996884,0.09489 0.563444,0.02503 1.085766,0.213214 1.60968,0.401389 0.468236,0.168174 0.365091,0.130471 0.837568,0.275426 0.515138,0.153646 0.988901,0.259342 1.526582,0.151413 0.277508,-0.05571 0.461045,-0.139854 0.723083,-0.241509 0.311147,-0.117317 0.593751,-0.301922 0.902578,-0.423908 0.234992,-0.09282 0.363278,-0.112972 0.609396,-0.170286 0,0 0.01442,-0.01098 0.01442,-0.01098 v 0 c -0.244948,0.05691 -0.375584,0.07757 -0.609486,0.169871 -0.309018,0.121943 -0.591622,0.306975 -0.90292,0.424336 -0.261712,0.101658 -0.445632,0.18602 -0.722797,0.241847 -0.537641,0.108294 -1.011213,0.0028 -1.526439,-0.150608 -0.471159,-0.14446 -0.370657,-0.107548 -0.837496,-0.27536 -0.524068,-0.188381 -1.046427,-0.376955 -1.610172,-0.401635 -0.317773,-0.0231 -0.683345,-0.04297 -0.997048,-0.09448 -0.736132,-0.120875 -1.433264,-0.386278 -2.130586,-0.640739 -0.367501,-0.09016 -0.506106,-0.160961 -0.879649,-0.12012 -0.39191,0.04285 -0.752059,0.249658 -1.101209,0.415099 0,0 -0.01551,0.0122 -0.01551,0.0122 z" />
      <path
         style="fill:#000000;fill-opacity:1;fill-rule:evenodd;stroke:none;stroke-width:1.265;stroke-linejoin:bevel"
         id="path127457"
         d="m 39.824064,35.702758 c 0.394198,-0.01728 0.785823,-0.06787 1.177288,-0.114358 0,0 0.01381,-0.01029 0.01381,-0.01029 v 0 c -0.390877,0.04635 -0.781929,0.09675 -1.175565,0.113358 0,0 -0.01553,0.0113 -0.01553,0.0113 z" />
      <path
         style="fill:#000000;fill-opacity:1;fill-rule:evenodd;stroke:none;stroke-width:1.265;stroke-linejoin:bevel"
         id="path127459"
         d="m 39.149154,37.133188 c -1.198633,0.367824 -2.454724,0.474898 -3.697451,0.581247 0,0 -0.0113,0.0084 -0.0113,0.0084 v 0 c 1.241401,-0.106434 2.495958,-0.213415 3.694047,-0.577974 0,0 0.01471,-0.01164 0.01471,-0.01164 z" />
      <path
         style="fill:#000000;fill-opacity:1;fill-rule:evenodd;stroke:none;stroke-width:1.265;stroke-linejoin:bevel"
         id="path127461"
         d="m 26.244553,39.188858 c 0.04647,0.03322 0.08933,0.07217 0.139401,0.09965 0.426455,0.234074 0.919037,0.363667 1.405823,0.335677 0.139287,-0.008 0.276593,-0.03682 0.414891,-0.05523 0.463044,-0.09604 0.907579,-0.270833 1.327869,-0.485924 0.127246,-0.06512 0.248047,-0.142123 0.372071,-0.213188 0,0 0.0136,-0.01101 0.0136,-0.01101 v 0 c -0.124063,0.07116 -0.244893,0.14828 -0.372187,0.213481 -0.420068,0.215165 -0.864441,0.389996 -1.32729,0.48613 -0.138229,0.01847 -0.275463,0.04734 -0.414684,0.05541 -0.486352,0.02821 -0.978299,-0.100991 -1.404057,-0.335542 -0.04985,-0.02746 -0.09247,-0.06636 -0.1387,-0.09954 0,0 -0.01674,0.01008 -0.01674,0.01008 z" />
      <path
         style="fill:#000000;fill-opacity:1;fill-rule:evenodd;stroke:none;stroke-width:1.265;stroke-linejoin:bevel"
         id="path127463"
         d="m 33.845931,39.82897 c -0.595241,0.192058 -1.225074,0.229888 -1.842688,0.29234 0,0 -0.0123,0.0091 -0.0123,0.0091 v 0 c 0.61664,-0.06199 1.245391,-0.09945 1.840082,-0.289602 0,0 0.01492,-0.01188 0.01492,-0.01188 z" />
    </g>
  </g>
</svg>
