<?xml version="1.0" encoding="UTF-8" standalone="no"?>
<!-- Created with Inkscape (http://www.inkscape.org/) -->

<svg
   width="72.582mm"
   height="68.346mm"
   viewBox="0 0 72.582 68.436"
   version="1.1"
   id="svg66775"
   inkscape:version="1.1.1 (3bf5ae0d25, 2021-09-20)"
   sodipodi:docname="map.svg"
   xmlns:inkscape="http://www.inkscape.org/namespaces/inkscape"
   xmlns:sodipodi="http://sodipodi.sourceforge.net/DTD/sodipodi-0.dtd"
   xmlns:xlink="http://www.w3.org/1999/xlink"
   xmlns="http://www.w3.org/2000/svg"
   xmlns:svg="http://www.w3.org/2000/svg">
  <sodipodi:namedview
     id="namedview66777"
     pagecolor="#505050"
     bordercolor="#eeeeee"
     borderopacity="1"
     inkscape:pageshadow="0"
     inkscape:pageopacity="0"
     inkscape:pagecheckerboard="0"
     inkscape:document-units="mm"
     showgrid="false"
     inkscape:snap-global="false"
     inkscape:zoom="1.8529742"
     inkscape:cx="162.17171"
     inkscape:cy="138.96578"
     inkscape:window-width="1366"
     inkscape:window-height="705"
     inkscape:window-x="-8"
     inkscape:window-y="-8"
     inkscape:window-maximized="1"
     inkscape:current-layer="layer1" />
  <defs
     id="defs66772">
    <linearGradient
       inkscape:collect="always"
       id="linearGradient67369">
      <stop
         style="stop-color:#ddd7a7;stop-opacity:1"
         offset="0"
         id="stop67365" />
      <stop
         style="stop-color:#7c6321;stop-opacity:1"
         offset="1"
         id="stop67367" />
    </linearGradient>
    <radialGradient
       inkscape:collect="always"
       xlink:href="#linearGradient67369"
       id="radialGradient67373"
       cx="26.772715"
       cy="25.41931"
       fx="26.772715"
       fy="25.41931"
       r="21.979992"
       gradientTransform="matrix(1.6041553,-0.11693327,0.06854856,0.94038714,-17.917335,4.6459389)"
       gradientUnits="userSpaceOnUse" />
  </defs>
  <g
     inkscape:label="Warstwa 1"
     inkscape:groupmode="layer"
     id="layer1">
    <g
       id="g84822"
       transform="matrix(1.6510884,0,0,1.6510884,-7.9132092,-7.7514746)"
       inkscape:export-filename="E:\V-rok\magisterka\implementation\Animation\graphics\objects\map.png"
       inkscape:export-xdpi="50"
       inkscape:export-ydpi="50">
      <path
         style="fill:url(#radialGradient67373);fill-opacity:1;stroke:#000000;stroke-width:0.264583px;stroke-linecap:butt;stroke-linejoin:miter;stroke-opacity:1"
         d="M 13.279327,17.277404 6.9966344,15.992308 8.7100959,8.7100959 7.7105768,4.8548075 c 0,0 11.1087582,1.6407858 16.7062502,1.7134618 6.873234,0.08924 20.561537,-1.5706733 20.561537,-1.5706733 0,0 -1.744181,8.647922 -1.427884,12.99375 0.342742,4.709169 3.569713,13.707692 3.569713,13.707692 l -4.426445,0.856732 -9.995191,-2.998558 8.138943,3.569711 5.568749,0.142788 c 0,0 -0.419265,3.198339 0,4.71202 0.370411,1.337303 2.141826,3.56971 2.141826,3.56971 0,0 -7.027214,3.539436 -10.851922,4.140867 -5.367515,0.844035 -10.886799,-0.179372 -16.277884,-0.856731 -5.538411,-0.69587 -16.420673,-3.284136 -16.420673,-3.284136 0,0 3.3409771,-5.675601 3.8552884,-8.852884 0.7636199,-4.717448 -1.285096,-14.278846 -1.285096,-14.278846 z"
         id="path66869"
         sodipodi:nodetypes="ccccscscccccscsscscc" />
      <path
         style="opacity:0.167183;fill:none;stroke:#000000;stroke-width:0.665;stroke-linecap:butt;stroke-linejoin:miter;stroke-miterlimit:4;stroke-dasharray:none;stroke-opacity:1"
         d="m 16.563461,37.838943 c 0,0 3.766817,-0.386327 4.854808,-1.713463 1.70698,-2.082181 -0.240439,-5.685899 1.142308,-7.996152 1.031573,-1.723521 3.607552,-1.995222 4.854807,-3.569713 2.184834,-2.758057 1.205136,-7.770063 4.140867,-9.709615 1.906173,-1.259353 4.662775,-0.647054 6.853845,0 0.924287,0.272955 2.427404,1.570673 2.427404,1.570673"
         id="path67484"
         sodipodi:nodetypes="csssssc" />
      <path
         style="opacity:0.179567;fill:none;stroke:#000000;stroke-width:0.765;stroke-linecap:butt;stroke-linejoin:miter;stroke-miterlimit:4;stroke-dasharray:none;stroke-opacity:1"
         d="m 12.708173,31.127885 c 0,0 3.589731,-2.717604 5.711538,-3.284135 2.667142,-0.712137 5.549979,0.397887 8.281732,0 4.127833,-0.60123 7.858196,-4.11167 11.994229,-3.569712 1.715895,0.224839 4.426442,2.71298 4.426442,2.71298"
         id="path69517"
         sodipodi:nodetypes="csssc" />
      <path
         style="opacity:0.910217;fill:#7c6321;fill-opacity:1;stroke:#b71900;stroke-width:0;stroke-linecap:round;stroke-linejoin:round;stroke-miterlimit:4;stroke-dasharray:none;stroke-opacity:1"
         id="path70968"
         d="m 14.05064,9.5912357 c 0.231668,0.2048557 0.423463,0.4482103 0.635174,0.6723953 0.237843,0.232544 0.409562,0.516138 0.598557,0.786382 0.150611,0.228855 0.319712,0.445764 0.497862,0.653912 0.173555,0.248867 0.387065,0.465311 0.56266,0.712395 0.180016,0.230028 0.339091,0.476393 0.520425,0.705514 0.179686,0.232908 0.378118,0.452034 0.575173,0.67059 0.171895,0.185945 0.08481,0.09273 0.261288,0.279595 0,0 0.830918,-0.505751 0.830918,-0.505751 v 0 c -0.174668,-0.1861 -0.0886,-0.09323 -0.258252,-0.278559 -0.194195,-0.218637 -0.384893,-0.441313 -0.566711,-0.669852 -0.184585,-0.224128 -0.339881,-0.471265 -0.519111,-0.69927 -0.177178,-0.249819 -0.393914,-0.466684 -0.567692,-0.719198 -0.174418,-0.207621 -0.33989,-0.423682 -0.493936,-0.646506 C 15.93124,10.281889 15.759254,9.9926483 15.522054,9.7533173 15.305826,9.5335279 15.112759,9.2923967 14.895109,9.073744 c 0,0 -0.844469,0.5174917 -0.844469,0.5174917 z" />
      <path
         style="opacity:0.79257;fill:#7c6321;fill-opacity:1;stroke:#c60606;stroke-width:0;stroke-linecap:round;stroke-linejoin:round;stroke-miterlimit:4;stroke-dasharray:none;stroke-opacity:1"
         id="path70970"
         d="m 14.113077,13.417741 c 0.319997,-0.0465 0.619574,-0.163183 0.920523,-0.274805 0.33026,-0.125513 0.634675,-0.307506 0.945899,-0.472657 2.28998,-1.334562 0.524765,-0.307162 0.282041,-0.161514 -0.04839,0.02904 0.09938,-0.05352 0.149033,-0.08034 0.174245,-0.09412 0.349885,-0.18105 0.529199,-0.265144 0.537336,-0.250841 1.101578,-0.435739 1.650323,-0.658579 0.635762,-0.256755 1.240562,-0.597149 1.798835,-0.994892 0.293368,-0.247136 1.216293,-0.7639264 -0.219688,0.08377 0,0 0.765336,-0.611225 0.765336,-0.611225 v 0 c -0.499157,0.281061 -1.008071,0.532373 -1.458215,0.886443 -0.278567,0.187879 -0.833555,0.515498 0.466841,-0.241903 0.05483,-0.03193 -0.11324,0.05727 -0.1697,0.08621 -0.280115,0.14361 -0.114197,0.06744 -0.429169,0.196953 -0.542906,0.229805 -1.10571,0.409706 -1.644841,0.649293 -0.512002,0.233539 -2.77262,1.510804 -0.959645,0.500659 -0.311953,0.15944 -0.610526,0.345607 -0.934676,0.480407 -0.298058,0.104838 -0.585886,0.246247 -0.904181,0.280758 0,0 -0.787915,0.596565 -0.787915,0.596566 z" />
      <path
         style="opacity:0.28483;fill:#3d5f60;fill-opacity:1;stroke:#000000;stroke-width:0.264583px;stroke-linecap:butt;stroke-linejoin:miter;stroke-opacity:1"
         d="m 34.983173,40.266347 c -0.756859,-0.07567 -0.463007,-0.177432 -0.713943,-0.428366 -0.06731,-0.06731 -0.200433,0.04257 -0.285576,0 -0.415454,-0.207727 -0.571156,-1.452377 -0.571156,-1.85625 0,-0.98556 0.999522,-0.213548 0.999522,-1.14231 0,-0.210074 -0.05899,-0.974701 -0.14279,-1.142306 -0.241729,-0.483455 -1.050179,-1.326563 -0.713941,-1.999039 0.09118,-0.182369 0.286215,-0.143428 0.428365,-0.285578 0.848165,-0.848164 1.802466,0.918845 2.141826,1.427885 0.105013,0.15752 0.344022,0.259681 0.428366,0.428366 0.02127,0.04257 -0.04257,0.121504 0,0.14279 0.197609,0.0988 0.506878,0.05996 0.713941,0.142788 0.159337,0.06373 0.269031,0.221842 0.428366,0.285575 0.67092,0.26837 2.241476,-0.307147 2.855769,0 0.191244,0.09562 0.197853,0.340641 0.285578,0.428366 0.169212,0.169214 0.466651,0.323863 0.571154,0.428366 0.174209,0.174209 0.04913,1.289703 0.142787,1.570672 0.05427,0.162806 0.23131,0.265562 0.285578,0.428366 0.0301,0.09031 -0.04257,0.200435 0,0.285578 0.03483,0.06965 0.627251,0.341672 0.713942,0.428366 0.290343,0.290343 -0.206701,1.191254 -0.285576,1.427884 -0.09322,0.279649 -0.218837,0.6472 -0.428366,0.856729 -0.01709,0.01709 -3.306828,0.345625 -3.426923,0.285578 -0.202109,-0.101055 -0.341772,-0.170886 -0.571153,-0.285578 -0.270449,-0.135223 -0.625382,-0.169899 -0.856731,-0.285575 -0.197885,-0.09894 -0.348965,-0.348964 -0.428366,-0.428366 -0.07154,-0.07154 -0.477544,-0.04918 -0.571153,-0.142788 -0.03365,-0.03366 0.03366,-0.109132 0,-0.14279 -0.06731,-0.06731 -0.200436,0.04257 -0.285578,0 -0.222745,-0.111371 -0.491197,-0.316992 -0.713942,-0.428363 z"
         id="path74199" />
      <path
         style="opacity:0.371517;fill:#228617;fill-opacity:1;stroke:#000000;stroke-width:0.264583px;stroke-linecap:butt;stroke-linejoin:miter;stroke-opacity:1"
         d="m 14.564423,20.133173 c -1.646733,0.319402 -1.713462,0.289839 -1.713462,1.999038 0,0.135368 0.05929,0.452571 0,0.571154 -0.255648,0.511297 -0.951347,0.522982 -1.285096,0.856731 -0.03366,0.03365 0.03366,0.109133 0,0.142788 -0.06731,0.06731 -0.218266,-0.06731 -0.285577,0 -0.0378,0.0378 0,0.36957 0,0.428366 0,0.241734 -0.105772,0.787975 0,0.999519 0.0602,0.12041 0.225372,0.165167 0.285577,0.285577 0.04327,0.08654 0.08295,0.368531 0.142789,0.428365 0.295434,0.295435 -0.01155,-0.451463 0.285577,0.142789 0.10528,0.21056 -0.01218,0.844552 0.142788,0.999518 0.03366,0.03366 0.109133,-0.03365 0.142789,0 0.273408,0.27341 -0.448319,2.224757 -0.285577,2.712982 0.122459,0.367377 2.070917,0.356486 2.141827,0.285575 0.164928,-0.164928 0.292088,-0.43162 0.571153,-0.571153 0.07869,-0.03934 0.602204,-0.254527 0.713943,-0.142788 0.07154,0.07154 0.191967,0.334756 0.285577,0.428366 0.05757,0.05757 0.354326,0.09343 0.428365,0.142788 0.190405,0.126936 0.35861,0.464881 0.571154,0.571153 0.758633,0.379317 1.288648,0.498872 2.141827,0.285578 0.381812,-0.09545 0.692852,-0.182549 0.856731,-0.428366 0.213323,-0.319984 0.596774,-0.505227 0.713942,-0.856731 0.173043,-0.519128 0.324551,-1.596538 0.142788,-2.141826 -0.07565,-0.226954 -0.321996,-0.501205 -0.428365,-0.713944 -0.04327,-0.08654 -0.08295,-0.368529 -0.142789,-0.428364 -0.295434,-0.295434 0.01155,0.451463 -0.285576,-0.142788 -0.08545,-0.170907 -0.05004,-0.385659 -0.142789,-0.571154 -0.118492,-0.236984 -0.103676,-1.648898 0,-1.85625 0.0602,-0.12041 0.225372,-0.165167 0.285577,-0.285577 0.127606,-0.255213 0.07815,-1.336213 0,-1.570673 -0.09486,-0.284566 -0.173934,-0.776233 -0.285577,-0.999519 -0.134084,-0.268169 -0.31033,-0.192295 -0.428365,-0.428366 -0.153217,-0.306432 -0.428366,-0.959001 -0.428366,-1.285096 0,-0.195923 0.07496,-0.462279 -0.142788,-0.571154 -0.503646,-0.251823 -1.638181,-0.251823 -2.141827,0 -0.594251,0.297126 0.152646,-0.0099 -0.142788,0.285577 -0.133376,0.133376 -0.580567,0.152201 -0.713943,0.285577 -0.03366,0.03366 0.03366,0.109133 0,0.142789 -0.07526,0.07526 -0.210321,0.06753 -0.285577,0.142788 -0.262579,0.262579 -0.396967,0.539756 -0.713942,0.856731 z"
         id="path76975" />
      <path
         style="opacity:0.297214;fill:#6d8617;fill-opacity:1;stroke:#000000;stroke-width:0.264583px;stroke-linecap:butt;stroke-linejoin:miter;stroke-opacity:1"
         d="m 31.270673,20.41875 c 0.0038,-0.673426 0.158903,-2.062375 -0.571154,-2.427404 -0.377298,-0.188649 -2.370121,0.20007 -2.570191,0 -0.268254,-0.268252 -0.25377,-1.666096 -0.142791,-1.999038 0.09196,-0.275867 0.754169,-0.509817 0.999519,-0.571154 0.295799,-0.07395 1.643388,0.07271 1.713463,0.142788 0.07526,0.07526 0.06753,0.210321 0.142788,0.285577 0.440105,0.440105 2.128708,-0.720502 2.427404,-0.571154 0.169931,0.08497 1.226666,1.025449 1.285097,1.142308 0.02127,0.04257 -0.03366,0.109133 0,0.142788 0.07525,0.07526 0.21032,0.06753 0.285575,0.142789 0.121349,0.121347 0.164232,0.307018 0.285578,0.428365 0.06731,0.06731 0.218266,-0.06731 0.285578,0 0.03366,0.03366 -0.03366,0.109133 0,0.142789 0.164134,0.164134 1.830427,-0.1557 2.141826,0 0.246859,0.123429 0.566576,0.355826 0.856731,0.428365 0.254223,0.06356 0.670886,0.199463 0.856729,0.571154 0.07774,0.15547 0.07774,1.129626 0,1.285096 -0.0602,0.12041 -0.243004,0.157863 -0.285575,0.285577 -0.07024,0.210716 -0.119319,0.833262 -0.285578,0.999519 -0.03366,0.03366 -0.109133,-0.03365 -0.142788,0 -0.108889,0.10889 -0.02082,1.755099 -0.142788,1.999039 -0.103335,0.206672 -0.825989,1.055542 -0.999519,1.142307 -0.231608,0.115804 -2.182704,0.265139 -2.427404,0.142789 -0.561911,-0.280955 -1.025276,-0.908244 -1.285097,-1.427885 -0.04257,-0.08514 0.06731,-0.218266 0,-0.285577 -0.07525,-0.07526 -0.21032,-0.06753 -0.285578,-0.142788 -0.06731,-0.06731 0.06731,-0.218266 0,-0.285577 -0.03365,-0.03366 -0.109132,0.03366 -0.142787,0 -0.218289,-0.21829 -0.443159,-1.029105 -0.571154,-1.285096 -0.121639,-0.243277 -0.185962,-0.08635 -0.285578,-0.285577 -0.09533,-0.190656 -1.089191,-0.587708 -1.142306,-0.428366 -0.04515,0.135461 0,0.285577 0,0.428366 z"
         id="path80805" />
      <path
         style="opacity:0.380805;fill:none;stroke:#000000;stroke-width:0.565;stroke-linecap:butt;stroke-linejoin:round;stroke-miterlimit:4;stroke-dasharray:2.26, 0.565;stroke-dashoffset:0;stroke-opacity:1"
         d="m 17.420192,12.279808 c 0,0 4.12864,0.651535 5.56875,1.999038 1.478597,1.383515 2.38451,3.544269 2.427404,5.56875 0.04756,2.244602 -2.58644,4.043226 -2.427404,6.282692 0.193211,2.720702 3.845459,4.416142 3.998076,7.139423 0.164709,2.939048 -4.488106,5.393215 -3.426922,8.138943 0.529689,1.370529 3.998076,1.85625 3.998076,1.85625 v 0"
         id="path82985"
         sodipodi:nodetypes="cssssscc" />
    </g>
  </g>
</svg>
