<?xml version="1.0" encoding="UTF-8" standalone="no"?>
<!-- Created with Inkscape (http://www.inkscape.org/) -->

<svg
   width="79.958mm"
   height="52.568mm"
   viewBox="0 0 79.958 52.568"
   version="1.1"
   id="svg3264"
   inkscape:version="1.1.1 (3bf5ae0d25, 2021-09-20)"
   sodipodi:docname="mutton_chop.svg"
   xmlns:inkscape="http://www.inkscape.org/namespaces/inkscape"
   xmlns:sodipodi="http://sodipodi.sourceforge.net/DTD/sodipodi-0.dtd"
   xmlns="http://www.w3.org/2000/svg"
   xmlns:svg="http://www.w3.org/2000/svg">
  <sodipodi:namedview
     id="namedview3266"
     pagecolor="#505050"
     bordercolor="#eeeeee"
     borderopacity="1"
     inkscape:pageshadow="0"
     inkscape:pageopacity="0"
     inkscape:pagecheckerboard="0"
     inkscape:document-units="mm"
     showgrid="false"
     inkscape:snap-global="false"
     inkscape:zoom="1.3102506"
     inkscape:cx="247.66254"
     inkscape:cy="89.677501"
     inkscape:window-width="1366"
     inkscape:window-height="705"
     inkscape:window-x="-8"
     inkscape:window-y="-8"
     inkscape:window-maximized="1"
     inkscape:current-layer="layer1" />
  <defs
     id="defs3261" />
  <g
     inkscape:label="Warstwa 1"
     inkscape:groupmode="layer"
     id="layer1">
    <g
       id="g5291"
       transform="translate(-15.421154,-3.0446942)"
       inkscape:export-filename="E:\V-rok\magisterka\implementation\Animation\graphics\objects\mutton_chop.png"
       inkscape:export-xdpi="50"
       inkscape:export-ydpi="50">
      <path
         style="fill:#ffccaa;stroke:none;stroke-width:0.264583px;stroke-linecap:butt;stroke-linejoin:miter;stroke-opacity:1"
         d="M 66.824999,18.276923 68.53846,22.275 79.104807,17.134615 76.534615,12.565384 Z"
         id="path3732" />
      <path
         style="fill:#ef6780;fill-opacity:1;stroke:none;stroke-width:0.264583px;stroke-linecap:butt;stroke-linejoin:miter;stroke-opacity:1"
         d="m 19.704807,19.133654 2.570192,25.416347 c 0,0 23.417308,0.571153 29.700001,-4.854811 6.282692,-5.425961 17.420191,-16.56346 17.420191,-16.56346 l -2.570192,-5.140384 c 0,0 -6.56827,2.855769 -11.423075,1.142308 -4.854808,-1.713462 -17.829785,-5.297483 -21.41827,-5.711539 -7.425,-0.85673 -14.278847,5.711539 -14.278847,5.711539 z"
         id="path3448"
         sodipodi:nodetypes="ccsccssc" />
      <ellipse
         style="fill:#ff5555;stroke-width:1.165"
         id="path3347"
         cx="24.845192"
         cy="30.699518"
         rx="9.4240379"
         ry="14.707211" />
      <ellipse
         style="fill:#ffccaa;stroke:none;stroke-width:1.165"
         id="path3822"
         cx="76.962975"
         cy="13.136539"
         rx="1.5706731"
         ry="2.5701921" />
      <ellipse
         style="fill:#ffccaa;stroke:none;stroke-width:1.165"
         id="path3824"
         cx="79.247589"
         cy="15.849519"
         rx="2.2846153"
         ry="1.5706731" />
      <ellipse
         style="fill:#ffccaa;stroke:none;stroke-width:1.165"
         id="path4049"
         cx="22.417789"
         cy="31.413462"
         rx="1.285096"
         ry="3.1413462" />
      <path
         style="fill:#ffccaa;stroke:none;stroke-width:0.264583px;stroke-linecap:butt;stroke-linejoin:miter;stroke-opacity:1"
         d="M 50.913939,14.102939 47.809799,17.150054 39.98924,8.3802209 44.102871,5.1303294 Z"
         id="path3732-2" />
      <path
         style="fill:#ff8080;stroke:none;stroke-width:0.264583px;stroke-linecap:butt;stroke-linejoin:miter;stroke-opacity:1"
         d="M 94.17431,32.80017 82.139178,55.333527 c 0,0 -21.877908,-8.369812 -25.627603,-15.776099 C 52.76188,32.151142 46.691788,17.616983 46.691788,17.616983 l 4.330665,-3.778201 c 0,0 4.990472,5.137384 10.132223,5.397174 5.141752,0.25979 18.505393,1.874831 21.982054,2.855386 7.193622,2.028886 11.03758,10.708828 11.03758,10.708828 z"
         id="path3448-6"
         sodipodi:nodetypes="ccsccssc" />
      <ellipse
         style="fill:#ff5555;stroke-width:1.165"
         id="path3347-8"
         cx="-94.433754"
         cy="6.1214223"
         rx="9.4240379"
         ry="14.707211"
         transform="matrix(-0.92499443,-0.37998065,-0.37998065,0.92499443,0,0)" />
      <ellipse
         style="fill:#ffccaa;stroke:none;stroke-width:1.165"
         id="path3822-9"
         cx="-42.315971"
         cy="-11.441554"
         rx="1.5706731"
         ry="2.5701921"
         transform="matrix(-0.92499443,-0.37998065,-0.37998065,0.92499443,0,0)" />
      <ellipse
         style="fill:#ffccaa;stroke:none;stroke-width:1.165"
         id="path3824-6"
         cx="-40.031364"
         cy="-8.7285757"
         rx="2.2846153"
         ry="1.5706731"
         transform="matrix(-0.92499443,-0.37998065,-0.37998065,0.92499443,0,0)" />
      <ellipse
         style="fill:#ffccaa;stroke:none;stroke-width:1.165"
         id="path4049-1"
         cx="-96.861153"
         cy="6.8353658"
         rx="1.285096"
         ry="3.1413462"
         transform="matrix(-0.92499443,-0.37998065,-0.37998065,0.92499443,0,0)" />
      <path
         style="fill:#ff5555;stroke:none;stroke-width:0.264583px;stroke-linecap:butt;stroke-linejoin:miter;stroke-opacity:1"
         d="m 37.125001,44.264422 0.285575,3.998077 c 0,0 4.854808,7.710577 9.709616,6.282692 4.854807,-1.427885 13.707691,-1.999038 16.277886,-1.142307 2.570191,0.856732 4.283651,-4.854807 4.283651,-4.854807 l -1.427884,-3.712501 c 0,0 -6.28269,-9.709616 -9.995191,-8.567306 -3.712501,1.142306 -13.707692,5.425961 -16.277884,3.998076 -2.570194,-1.427885 -2.855769,3.998076 -2.855769,3.998076 z"
         id="path4211" />
      <path
         style="fill:#ffffff;stroke:none;stroke-width:1.165"
         id="path4625"
         d="m 36.922654,44.998986 c 0.314349,0.143505 0.595955,0.348028 0.88429,0.536334 0.300546,0.194839 0.578679,0.420489 0.880274,0.613855 0.298842,0.201488 0.609397,0.383228 0.925455,0.556228 0.341958,0.20987 0.683754,0.414136 1.037045,0.604962 0.411488,0.216905 0.860226,0.340614 1.293349,0.503206 0.380307,0.151889 0.770443,0.274714 1.160383,0.398907 0.350285,0.110577 0.706874,0.198667 1.054357,0.317762 0.272743,0.08377 0.552103,0.145198 0.829688,0.211513 0.294061,0.06347 0.594664,0.07657 0.891239,0.124507 0.320558,0.05869 0.644779,0.08855 0.970055,0.101981 0.329369,0.01955 0.654761,-0.04887 0.980416,-0.08764 0.420433,-0.0208 0.823629,-0.132606 1.225875,-0.246771 0.533649,-0.137187 1.049782,-0.321233 1.565458,-0.512921 0.413877,-0.171519 0.823388,-0.350867 1.256789,-0.467151 0.42727,-0.131152 0.869519,-0.187952 1.313468,-0.222454 0.404654,-0.05336 0.807985,-0.11162 1.215219,-0.141727 0.383074,-0.02019 0.76505,-0.01773 1.14628,-0.06314 0.397399,-0.07105 0.793269,-0.07259 1.193425,-0.03587 0.412218,0.02717 0.821647,0.0692 1.228875,0.139065 0.579353,0.122867 1.163201,0.216464 1.74806,0.308629 0.586195,0.128169 1.178042,0.225718 1.774224,0.292507 0.394515,0.06535 0.791801,0.113488 1.186554,0.176654 0.407635,0.122582 0.818425,0.233231 1.228272,0.348293 0.39987,0.08975 0.779706,0.243382 1.166125,0.375639 0.295862,0.08378 0.596794,0.148881 0.891889,0.235789 0.263252,0.06446 0.508323,0.180819 0.767519,0.25723 0.04359,0.0055 0.08718,0.01103 0.13077,0.01656 0,0 0.798865,-0.572278 0.798865,-0.572278 v 0 c -0.03979,-6.8e-5 -0.07957,-1.34e-4 -0.119354,-2.03e-4 -0.262347,-0.06769 -0.50465,-0.189786 -0.768696,-0.252693 -0.292751,-0.09565 -0.595858,-0.156065 -0.893948,-0.232204 -0.39148,-0.125344 -0.771716,-0.286676 -1.1748,-0.374795 -0.410427,-0.11788 -0.824545,-0.220425 -1.228617,-0.36036 -0.396377,-0.07467 -0.801526,-0.100103 -1.198097,-0.176874 -0.598402,-0.05558 -1.193001,-0.144055 -1.778243,-0.28285 -0.581811,-0.09611 -1.165423,-0.177329 -1.740305,-0.31151 -0.405675,-0.07953 -0.813138,-0.129442 -1.22601,-0.151598 -0.404265,-0.03844 -0.804352,-0.05538 -1.206754,0.01926 -0.380352,0.05066 -0.760106,0.05548 -1.143384,0.0677 -0.408723,0.02712 -0.814509,0.07722 -1.218753,0.143857 -0.445195,0.03138 -0.892003,0.07564 -1.3209,0.206473 -0.44078,0.108558 -0.857867,0.28122 -1.271622,0.466378 -0.515043,0.186838 -1.023408,0.387107 -1.557525,0.516395 -0.396277,0.109376 -0.790599,0.237974 -1.205598,0.250794 -0.324051,0.03565 -0.646488,0.109929 -0.973106,0.100888 -0.32253,-0.0122 -0.645004,-0.03374 -0.963065,-0.09179 -0.294394,-0.05109 -0.589931,-0.07347 -0.884645,-0.121738 C 45.516699,48.121614 45.242019,48.05142 44.967395,47.981562 44.61701,47.863947 44.259523,47.772343 43.905513,47.666285 43.515668,47.545257 43.128795,47.416952 42.746736,47.273262 42.318447,47.107498 41.870029,46.994876 41.460724,46.780783 41.109098,46.587954 40.766465,46.386712 40.427457,46.172961 40.111473,46.004765 39.80534,45.81947 39.507855,45.620532 39.202346,45.43304 38.926542,45.204713 38.626883,45.008561 38.33528,44.822914 38.055108,44.617814 37.749562,44.45491 c 0,0 -0.826908,0.544076 -0.826908,0.544076 z" />
      <path
         style="fill:#ffffff;stroke:none;stroke-width:1.165"
         id="path4627"
         d="m 45.495651,42.706512 c 0.464119,0.173675 0.905926,0.400206 1.348706,0.621173 0.378198,0.204732 0.770191,0.382722 1.162926,0.557532 0.224925,0.104667 0.464867,0.153988 0.707847,0.193138 0,0 0.796698,-0.561049 0.796698,-0.561049 v 0 c -0.23776,-0.03237 -0.473446,-0.07317 -0.694979,-0.170611 -0.395255,-0.170775 -0.787929,-0.349978 -1.170567,-0.547336 -0.445844,-0.216723 -0.890135,-0.437004 -1.335103,-0.655367 0,0 -0.815528,0.56252 -0.815528,0.56252 z" />
      <path
         style="fill:#ffffff;stroke:none;stroke-width:1.165"
         id="path4629"
         d="m 55.20242,41.680984 c -0.201324,0.388411 -0.404056,0.778814 -0.637601,1.149091 -0.292767,0.456771 -0.627134,0.88679 -0.964819,1.311169 -0.27513,0.37139 -0.639657,0.641371 -1.028755,0.88084 -0.290542,0.1211 -1.071547,0.710396 0.129833,-0.08895 0.07069,-0.04704 -0.151307,0.07715 -0.227735,0.114149 -0.210412,0.101873 -0.198911,0.09343 -0.407696,0.178375 -0.32054,0.114712 -0.641604,0.221707 -0.977821,0.277971 -0.482809,0.05301 -0.969856,0.04946 -1.454959,0.04991 -0.201028,-2.65e-4 -0.402053,-0.0016 -0.603078,-0.0028 0,0 -0.78816,0.572376 -0.78816,0.572376 v 0 c 0.203386,-2.65e-4 0.406773,-7.94e-4 0.610159,-0.0019 0.484769,-0.0028 0.970251,-7.7e-5 1.454179,-0.03225 0.344995,-0.04311 0.669512,-0.150829 0.997116,-0.26433 0.765898,-0.294777 1.458675,-0.743365 2.167665,-1.151948 0.387631,-0.24879 0.742342,-0.533397 1.014447,-0.910598 0.335061,-0.428932 0.671317,-0.859774 0.960501,-1.321379 0.230646,-0.382725 0.444172,-0.77596 0.658561,-1.167969 0,0 -0.901837,0.408022 -0.901837,0.408022 z" />
      <path
         style="fill:#ffffff;stroke:none;stroke-width:1.165"
         id="path4631"
         d="m 52.213597,42.985004 c 0.497707,0.05953 0.960413,0.316974 1.409462,0.527386 0.524208,0.236548 1.021082,0.528212 1.542716,0.76976 0.446667,0.21625 0.916398,0.371039 1.391536,0.510752 0.595686,0.166166 1.199238,0.285022 1.813209,0.35641 0.727053,0.05901 1.45923,0.137382 2.187082,0.05819 0.235106,-0.0263 0.462574,-0.08928 0.667287,-0.21046 1.016035,-0.601411 0.76258,-0.29931 1.103834,-0.762413 0,0 -0.895204,0.381384 -0.895204,0.381384 v 0 c -0.300276,0.330181 -0.162574,0.148394 0.546491,-0.226272 0.06446,-0.03406 -0.123938,0.07733 -0.189576,0.109048 -0.209841,0.101396 -0.230757,0.08936 -0.464445,0.135395 -0.725426,0.106424 -1.45951,0.0268 -2.186797,-0.02965 -0.605432,-0.07269 -1.19671,-0.195535 -1.784553,-0.357386 -0.473292,-0.133877 -0.941084,-0.283358 -1.384549,-0.498658 -0.527468,-0.233339 -1.027179,-0.523833 -1.552697,-0.761688 -0.456525,-0.213521 -0.910574,-0.464169 -1.402043,-0.584308 0,0 -0.801753,0.582509 -0.801753,0.58251 z" />
      <path
         style="fill:#ffffff;stroke:none;stroke-width:1.165"
         id="path4633"
         d="m 57.876307,39.26115 c -0.591222,0.02082 -1.178192,0.132262 -1.756309,0.252714 -0.840923,0.145039 -1.677223,0.303697 -2.510317,0.488966 -0.863171,0.190569 -1.699831,0.479512 -2.541317,0.746466 0,0 -0.732145,0.567121 -0.732145,0.567121 v 0 c 0.836134,-0.265636 1.67028,-0.543665 2.524964,-0.744376 0.831699,-0.184441 1.663554,-0.357214 2.505908,-0.486656 0.559978,-0.12175 1.133597,-0.231986 1.707462,-0.241728 0,0 0.801754,-0.582507 0.801754,-0.582507 z" />
      <path
         style="fill:#ffffff;stroke:none;stroke-width:1.165"
         id="path4635"
         d="m 39.546336,44.457252 c 1.212869,0.595796 2.435588,1.170088 3.667213,1.726366 1.269515,0.528783 2.548411,1.034608 3.821475,1.555123 0,0 0.739637,-0.495284 0.739637,-0.495284 v 0 c -1.281144,-0.507624 -2.559574,-1.022604 -3.836358,-1.5407 -1.210908,-0.549844 -2.415019,-1.118569 -3.56956,-1.780101 0,0 -0.822407,0.534596 -0.822407,0.534596 z" />
      <path
         style="fill:#ffffff;stroke:none;stroke-width:1.165"
         id="path4637"
         d="m 62.162507,48.902813 c -2.424735,0.943207 -4.974138,1.510127 -7.512442,2.050295 -0.503478,0.09876 -1.006258,0.201134 -1.510432,0.296268 -1.111837,0.209796 -1.771915,0.328948 -2.901132,0.468767 -1.191885,0.147577 -1.768793,0.179631 -2.946953,0.271238 0,0 -0.638249,0.471612 -0.638249,0.471612 v 0 c 0.976069,-0.08156 1.986645,-0.157716 2.958618,-0.274048 1.225635,-0.14669 1.704377,-0.237768 2.909602,-0.469752 0.508352,-0.09785 1.015285,-0.202922 1.522928,-0.304382 2.478238,-0.52688 4.959715,-1.076555 7.357671,-1.906362 0,0 0.760389,-0.603636 0.760389,-0.603636 z" />
      <path
         style="fill:#ffffff;stroke:none;stroke-width:1.165"
         id="path4639"
         d="m 45.599307,51.006853 c -0.103894,0.603367 -0.181975,1.211236 -0.276442,1.816706 0,0 0.851636,-0.417346 0.851636,-0.417346 v 0 c 0.09767,-0.617627 0.198294,-1.234305 0.307813,-1.849273 0,0 -0.883007,0.449913 -0.883007,0.449913 z" />
      <path
         style="fill:#ffffff;stroke:none;stroke-width:1.165"
         id="path4641"
         d="m 41.935111,50.390104 c -0.179321,0.574728 -0.365982,1.144709 -0.594656,1.702044 0,0 0.868894,-0.401326 0.868894,-0.401326 v 0 c 0.22828,-0.568841 0.419164,-1.149686 0.619249,-1.728734 0,0 -0.893487,0.428016 -0.893487,0.428016 z" />
      <path
         style="fill:#ffffff;stroke:none;stroke-width:1.165"
         id="path4643"
         d="m 39.339371,48.583654 c 0.0172,0.680849 0.01545,1.361926 0.01304,2.042927 -5.29e-4,0.114887 -0.0011,0.229775 -0.0016,0.344662 0,0 0.860261,-0.438325 0.860261,-0.438325 v 0 c -5.29e-4,-0.114326 -0.0011,-0.22865 -0.0016,-0.342976 -0.0024,-0.685425 -0.004,-1.370923 0.01302,-2.056204 0,0 -0.883007,0.449916 -0.883007,0.449916 z" />
      <path
         style="fill:#ffffff;stroke:none;stroke-width:1.165"
         id="path4645"
         d="m 61.552041,50.602988 c 0.0092,0.339839 0.005,0.151223 0.01127,0.565875 0,0 0.860462,-0.438428 0.860462,-0.438428 v 0 c 0.0063,-0.421971 0.0021,-0.229526 0.01127,-0.577363 0,0 -0.88301,0.449916 -0.88301,0.449916 z" />
    </g>
  </g>
</svg>
