<?xml version="1.0" encoding="UTF-8" standalone="no"?>
<!-- Created with Inkscape (http://www.inkscape.org/) -->

<svg
   width="26.773mm"
   height="42.072mm"
   viewBox="0 0 26.773 42.072"
   version="1.1"
   id="svg117386"
   sodipodi:docname="safe_conduct.svg"
   inkscape:version="1.1.1 (3bf5ae0d25, 2021-09-20)"
   xmlns:inkscape="http://www.inkscape.org/namespaces/inkscape"
   xmlns:sodipodi="http://sodipodi.sourceforge.net/DTD/sodipodi-0.dtd"
   xmlns="http://www.w3.org/2000/svg"
   xmlns:svg="http://www.w3.org/2000/svg">
  <sodipodi:namedview
     id="namedview117388"
     pagecolor="#505050"
     bordercolor="#eeeeee"
     borderopacity="1"
     inkscape:pageshadow="0"
     inkscape:pageopacity="0"
     inkscape:pagecheckerboard="0"
     inkscape:document-units="mm"
     showgrid="false"
     inkscape:snap-global="false"
     inkscape:zoom="2.6205012"
     inkscape:cx="46.746782"
     inkscape:cy="149.78051"
     inkscape:window-width="1366"
     inkscape:window-height="705"
     inkscape:window-x="-8"
     inkscape:window-y="-8"
     inkscape:window-maximized="1"
     inkscape:current-layer="layer1" />
  <defs
     id="defs117383">
    <rect
       x="255.80497"
       y="460.88068"
       width="255.80497"
       height="115.49001"
       id="rect130366" />
  </defs>
  <g
     inkscape:label="Warstwa 1"
     inkscape:groupmode="layer"
     id="layer1">
    <circle
       id="path141344"
       style="fill:#000000;stroke:#3e351f;stroke-width:0.264583"
       cx="82.388817"
       cy="175.68204"
       r="0.00080057222" />
    <circle
       id="path141346"
       style="fill:#000000;stroke:#3e351f;stroke-width:0.264583"
       cx="82.388817"
       cy="175.68204"
       r="0.00080057222" />
    <g
       id="g141591"
       transform="matrix(0.39390847,0,0,0.39390847,-59.845308,-41.734223)"
       inkscape:export-filename="E:\V-rok\magisterka\implementation\Animation\graphics\objects\safe_conduct.png"
       inkscape:export-xdpi="50"
       inkscape:export-ydpi="50">
      <rect
         style="fill:#ccbf96;fill-opacity:1;stroke-width:0.365001;stroke-linecap:round;stroke-linejoin:round"
         id="rect117481"
         width="67.967308"
         height="106.80577"
         x="151.92693"
         y="105.94904" />
      <rect
         style="fill:#c97149;fill-opacity:1;stroke-width:0.333727;stroke-linecap:round;stroke-linejoin:round"
         id="rect120484"
         width="60.542301"
         height="100.23751"
         x="156.07324"
         y="106.979" />
      <rect
         style="fill:#caa071;fill-opacity:1;stroke:#c2b286;stroke-width:1.5;stroke-linecap:round;stroke-linejoin:round;stroke-miterlimit:4;stroke-dasharray:none;stroke-opacity:1"
         id="rect122421"
         width="47.120193"
         height="86.815376"
         x="163.34999"
         y="113.94518" />
      <text
         xml:space="preserve"
         transform="matrix(0.26458333,0,0,0.26458333,85.958654,9.4240385)"
         id="text130364"
         style="font-style:normal;font-weight:normal;font-size:26.6667px;line-height:1.25;font-family:sans-serif;letter-spacing:0px;word-spacing:0px;white-space:pre;shape-inside:url(#rect130366);fill:#000000;fill-opacity:1;stroke:none"
         x="99.882812"
         y="0"><tspan
           x="349.62496"
           y="485.2097"
           id="tspan141829"><tspan
             style="font-weight:bold;font-family:serif;-inkscape-font-specification:'serif Bold';text-align:center;text-anchor:middle"
             id="tspan141827">SAFE
</tspan></tspan><tspan
           x="316.29809"
           y="519.3162"
           id="tspan141833"><tspan
             style="font-weight:bold;font-family:serif;-inkscape-font-specification:'serif Bold';text-align:center;text-anchor:middle"
             id="tspan141831">CONDUCT</tspan></tspan></text>
      <path
         sodipodi:type="star"
         style="fill:#b07c42;fill-opacity:1;stroke:#3e351f;stroke-width:5.66929;stroke-linecap:round;stroke-linejoin:round;stroke-miterlimit:4;stroke-dasharray:none;stroke-opacity:1"
         id="path139448"
         inkscape:flatsided="false"
         sodipodi:sides="6"
         sodipodi:cx="640.05206"
         sodipodi:cy="449.00787"
         sodipodi:r1="44.182804"
         sodipodi:r2="30.189886"
         sodipodi:arg1="0.67138861"
         sodipodi:arg2="1.1949874"
         inkscape:rounded="0"
         inkscape:randomized="0"
         d="m 674.64537,476.49284 -23.51286,0.598 -17.58647,15.6182 -12.27431,-20.06374 -22.319,-7.42123 11.23855,-20.66173 -4.73252,-23.03943 23.51286,-0.598 17.58647,-15.6182 12.27431,20.06373 22.31899,7.42123 -11.23854,20.66174 z"
         transform="matrix(0.15610018,0,0,0.15610018,74.563516,53.152322)"
         inkscape:transform-center-x="2.8994141e-06"
         inkscape:transform-center-y="-1.9034741e-06" />
      <path
         sodipodi:type="star"
         style="fill:#b06142;fill-opacity:1;stroke:#3e351f;stroke-width:5.66929;stroke-linecap:round;stroke-linejoin:round;stroke-miterlimit:4;stroke-dasharray:none;stroke-opacity:1"
         id="path140703"
         inkscape:flatsided="false"
         sodipodi:sides="7"
         sodipodi:cx="716.6568"
         sodipodi:cy="442.66342"
         sodipodi:r1="27.948595"
         sodipodi:r2="39.3512"
         sodipodi:arg1="0.61072596"
         sodipodi:arg2="1.0619613"
         inkscape:rounded="0"
         inkscape:randomized="0"
         d="m 739.55318,458.69089 -3.72604,18.33843 -17.42546,-6.47182 -16.66071,8.52068 -5.80472,-17.65888 -17.04953,-7.71331 10.1871,-15.54845 -4.5997,-18.13903 18.50781,-1.7297 11.3138,-14.90569 12.89177,13.39153 18.70777,-0.44806 -2.43203,18.42868 12.01441,14.34697 z"
         transform="matrix(0.17771861,0,0,0.17771861,72.456555,43.880545)"
         inkscape:transform-center-x="-0.36141889"
         inkscape:transform-center-y="0.10692631" />
      <path
         style="fill:#000000;fill-opacity:1;stroke:none;stroke-width:1.5;stroke-linecap:round;stroke-linejoin:round;stroke-miterlimit:4;stroke-dasharray:none;stroke-opacity:1"
         id="path141385"
         d="m 171.68303,156.63663 c -0.0212,-0.59895 -0.007,-1.20163 0.0387,-1.79934 0.0178,-0.23508 0.0578,-0.84523 0.20628,-1.07505 0.0858,-0.13275 0.24259,-0.20266 0.36388,-0.30399 -0.0656,0.13481 -0.29977,0.29557 -0.1967,0.40443 0.18238,0.19264 0.5199,0.11271 0.77002,0.20113 0.27408,0.0969 0.53717,0.22357 0.79747,0.35299 0.66301,0.32966 1.28727,0.74386 1.91688,1.13174 0.87122,0.53631 1.15618,0.75236 2.12583,0.35247 0.44275,-0.20397 0.93112,-0.38783 1.42804,-0.37803 0.36659,0.007 0.73201,0.11536 1.08429,0.19983 0.73974,0.21195 1.46998,0.45541 2.22837,0.59252 0.6036,0.0614 1.20332,0.12391 1.79394,0.26743 0.11158,0.0304 0.22316,0.0608 0.33474,0.0913 0,0 0.81145,-0.55716 0.81145,-0.55716 v 0 c -0.11239,-0.0307 -0.22478,-0.0614 -0.33717,-0.092 -0.58766,-0.15219 -1.18527,-0.2329 -1.79007,-0.27947 -0.76624,-0.12186 -1.50569,-0.35338 -2.24965,-0.56902 -0.29345,-0.0741 -0.78837,-0.214 -1.09474,-0.23189 -0.49254,-0.0288 -0.99668,0.13677 -1.43435,0.34383 -0.98908,0.44641 -1.16433,0.28304 -2.09968,-0.25767 -0.8906,-0.52795 -1.77274,-1.12092 -2.74287,-1.49589 -0.25274,-0.0977 -0.50784,-0.27529 -0.77655,-0.24036 -0.51583,0.0671 -0.97803,0.35468 -1.46704,0.53202 -0.11332,0.11718 -0.26093,0.20897 -0.33995,0.35154 -0.13336,0.24063 -0.16501,0.84458 -0.18192,1.08684 -0.0423,0.60679 -0.0601,1.21592 -0.0763,1.82383 0,0 0.88705,-0.45198 0.88705,-0.45198 z" />
      <path
         style="fill:#000000;fill-opacity:1;stroke:none;stroke-width:1.5;stroke-linecap:round;stroke-linejoin:round;stroke-miterlimit:4;stroke-dasharray:none;stroke-opacity:1"
         id="path141387"
         d="m 191.13525,155.75572 c 0.70477,-0.28953 1.52701,-0.0876 2.25522,0.0148 0.77822,0.0977 1.55996,0.16479 2.34359,0.19649 0.0984,0.003 0.19678,0.006 0.29516,0.008 0,0 0.80225,-0.57983 0.80225,-0.57983 v 0 c -0.0987,-0.002 -0.19742,-0.004 -0.29613,-0.006 -0.78506,-0.0265 -1.56949,-0.0783 -2.34869,-0.18061 -0.72964,-0.1008 -1.54439,-0.30633 -2.26298,-0.0838 0,0 -0.78842,0.63066 -0.78842,0.63066 z" />
      <path
         style="fill:#000000;fill-opacity:1;stroke:none;stroke-width:1.5;stroke-linecap:round;stroke-linejoin:round;stroke-miterlimit:4;stroke-dasharray:none;stroke-opacity:1"
         id="path141389"
         d="m 178.06011,160.98006 c 0.94593,-0.22216 1.88405,0.2226 2.74696,0.56635 0.75636,0.27595 1.54986,0.40592 2.34906,0.46956 0.12125,-0.002 0.24364,0.0105 0.36373,-0.006 0.2712,-0.038 0.91328,-0.22223 1.15683,-0.28547 0.63059,-0.16374 1.26306,-0.30374 1.90181,-0.43114 0.93087,-0.16015 1.52085,0.0816 2.34819,0.41238 0.80378,0.27806 1.67349,0.29837 2.50858,0.18348 0,0 0.77946,-0.58421 0.77946,-0.58421 v 0 c -0.82014,0.13311 -1.67317,0.11728 -2.46763,-0.14939 -0.84468,-0.32996 -1.45478,-0.59683 -2.40546,-0.4401 -0.63995,0.12866 -1.27551,0.2664 -1.90803,0.42836 -0.0999,0.0256 -0.97059,0.26249 -1.11994,0.28614 -0.11719,0.0186 -0.23714,0.008 -0.35572,0.0127 -0.79593,-0.0544 -1.5885,-0.16699 -2.3433,-0.43774 -0.88095,-0.34155 -1.80347,-0.77146 -2.77056,-0.65172 0,0 -0.78398,0.62711 -0.78398,0.62711 z" />
      <path
         style="fill:#000000;fill-opacity:1;stroke:none;stroke-width:1.5;stroke-linecap:round;stroke-linejoin:round;stroke-miterlimit:4;stroke-dasharray:none;stroke-opacity:1"
         id="path141391"
         d="m 192.92079,165.72539 c 0.44045,0.38025 0.75218,0.87854 1.11816,1.32512 0.0647,0.0647 0.12933,0.1293 0.194,0.19395 0,0 0.84577,-0.51953 0.84577,-0.51953 v 0 c -0.0639,-0.0611 -0.1277,-0.12228 -0.19155,-0.18343 -0.37585,-0.4477 -0.69175,-0.9475 -1.11424,-1.35509 0,0 -0.85214,0.53898 -0.85214,0.53898 z" />
      <path
         style="fill:#000000;fill-opacity:1;stroke:none;stroke-width:1.5;stroke-linecap:round;stroke-linejoin:round;stroke-miterlimit:4;stroke-dasharray:none;stroke-opacity:1"
         id="path141393"
         d="m 184.02127,167.30913 c -0.35564,0.007 -0.71135,0.007 -1.06705,0.008 0,0 -0.7913,0.57492 -0.7913,0.57492 v 0 c 0.34824,7.9e-4 0.6965,10e-4 1.0447,0.008 0,0 0.81365,-0.59115 0.81365,-0.59115 z" />
      <path
         style="fill:#000000;fill-opacity:1;stroke:none;stroke-width:1.5;stroke-linecap:round;stroke-linejoin:round;stroke-miterlimit:4;stroke-dasharray:none;stroke-opacity:1"
         id="path141395"
         d="m 174.03179,166.68793 c 0.62215,-0.006 1.24296,-0.0597 1.86362,-0.0998 0,0 0.77785,-0.57293 0.77785,-0.57293 v 0 c -0.60887,0.0401 -1.2193,0.0965 -1.82988,0.0831 0,0 -0.81159,0.58966 -0.81159,0.58966 z" />
      <path
         style="fill:#000000;fill-opacity:1;stroke:none;stroke-width:1.5;stroke-linecap:round;stroke-linejoin:round;stroke-miterlimit:4;stroke-dasharray:none;stroke-opacity:1"
         id="path141397"
         d="m 186.55166,167.6976 c 0.56754,-0.01 0.25815,-0.005 0.9282,-0.0113 0,0 0.78047,-0.56704 0.78047,-0.56704 v 0 c -0.65082,-0.006 -0.35179,-0.002 -0.89707,-0.0113 0,0 -0.8116,0.58966 -0.8116,0.58966 z" />
      <path
         style="fill:#000000;fill-opacity:1;stroke:none;stroke-width:1.5;stroke-linecap:round;stroke-linejoin:round;stroke-miterlimit:4;stroke-dasharray:none;stroke-opacity:1"
         id="path141399"
         d="m 175.88573,172.08083 c 0.12398,-0.0511 0.24796,-0.10218 0.37195,-0.15328 0,0 0.76965,-0.6061 0.76965,-0.6061 v 0 c -0.11826,0.0478 -0.23651,0.0956 -0.35477,0.1434 0,0 -0.78683,0.61598 -0.78683,0.61598 z" />
      <path
         style="fill:#000000;fill-opacity:1;stroke:none;stroke-width:1.5;stroke-linecap:round;stroke-linejoin:round;stroke-miterlimit:4;stroke-dasharray:none;stroke-opacity:1"
         id="path141401"
         d="m 180.62004,171.13271 c 0.32611,0.0269 0.6232,0.17301 0.92082,0.29631 0,0 0.81415,-0.54269 0.81415,-0.54269 v 0 c -0.2987,-0.1315 -0.5957,-0.27946 -0.9172,-0.34777 0,0 -0.81777,0.59415 -0.81777,0.59415 z" />
      <path
         style="fill:#000000;fill-opacity:1;stroke:none;stroke-width:1.5;stroke-linecap:round;stroke-linejoin:round;stroke-miterlimit:4;stroke-dasharray:none;stroke-opacity:1"
         id="path141403"
         d="m 185.13812,172.14013 c 0.8158,-0.006 1.63163,-0.0102 2.44746,-0.0125 1.27964,0.0107 2.56028,-0.0347 3.83904,0.0228 0.91701,0.26927 1.23455,1.25565 1.92828,1.81315 0.57108,0.45894 0.75029,0.40355 1.44861,0.53634 1.11886,-0.0855 0.56774,0.006 1.65342,-0.27405 0,0 0.74008,-0.56781 0.74008,-0.56781 v 0 c -1.06879,0.29605 -0.52714,0.1954 -1.62468,0.30352 -0.6646,-0.10762 -0.86775,-0.0524 -1.4144,-0.48543 -0.71612,-0.56731 -1.01695,-1.59418 -1.9509,-1.88763 -1.27966,-0.0523 -2.56178,-0.007 -3.84228,-0.0255 -0.80435,-0.002 -1.60871,-0.006 -2.41303,-0.0125 0,0 -0.8116,0.58966 -0.8116,0.58966 z" />
      <path
         style="fill:#000000;fill-opacity:1;stroke:none;stroke-width:1.5;stroke-linecap:round;stroke-linejoin:round;stroke-miterlimit:4;stroke-dasharray:none;stroke-opacity:1"
         id="path141405"
         d="m 176.42934,176.3755 c 2.19372,-0.0483 4.40265,-0.10317 6.57154,0.27595 0.92644,0.25412 1.88429,0.30632 2.83438,0.40619 1.14125,0.11997 1.02369,0.11481 2.14852,0.28284 0,0 0.74246,-0.52276 0.74246,-0.52276 v 0 c -1.65051,-0.24742 -3.31916,-0.36509 -4.95338,-0.7079 -2.16617,-0.34366 -4.36024,-0.26415 -6.54633,-0.31351 0,0 -0.79719,0.57919 -0.79719,0.57919 z" />
      <path
         style="fill:#000000;fill-opacity:1;stroke:none;stroke-width:1.5;stroke-linecap:round;stroke-linejoin:round;stroke-miterlimit:4;stroke-dasharray:none;stroke-opacity:1"
         id="path141407"
         d="m 177.83011,183.61852 c 0.79261,-0.35901 1.60158,-0.67529 2.4344,-0.9273 0.81039,-0.10019 1.54578,0.33159 2.28235,0.60983 0.60466,0.20912 1.20682,0.008 1.80649,-0.11151 0.46609,-0.11714 0.89455,-0.32201 1.36495,-0.42334 0.85866,-0.004 1.67448,0.3283 2.51745,0.46054 0.43433,0.0163 0.22913,0.0278 0.61612,-0.0231 0,0 0.79282,-0.5963 0.79282,-0.5963 v 0 c -0.37989,0.0772 -0.17729,0.0543 -0.60913,0.0558 -0.85332,-0.11537 -1.66771,-0.43881 -2.5274,-0.49481 -0.47685,0.0864 -0.90396,0.27614 -1.36375,0.4226 -0.5892,0.11459 -1.18648,0.33941 -1.78415,0.16215 -0.75579,-0.27516 -1.49669,-0.71898 -2.32262,-0.65888 -0.82495,0.24651 -1.62778,0.55451 -2.41572,0.90163 0,0 -0.79181,0.62265 -0.79181,0.62265 z" />
      <path
         style="fill:#000000;fill-opacity:1;stroke:none;stroke-width:1.5;stroke-linecap:round;stroke-linejoin:round;stroke-miterlimit:4;stroke-dasharray:none;stroke-opacity:1"
         id="path141409"
         d="m 193.53675,192.55161 c 0.94938,0.16451 1.8921,0.3693 2.83823,0.55396 0.14208,0.0252 0.28417,0.0505 0.42625,0.0757 0,0 0.79851,-0.55983 0.79851,-0.55983 v 0 c -0.14363,-0.0234 -0.28727,-0.0468 -0.4309,-0.0702 -0.93691,-0.17242 -1.87065,-0.37058 -2.80027,-0.57337 0,0 -0.83182,0.57376 -0.83182,0.57376 z" />
    </g>
  </g>
</svg>
