<?xml version="1.0" encoding="UTF-8" standalone="no"?>
<!-- Created with Inkscape (http://www.inkscape.org/) -->

<svg
   width="79.924mm"
   height="20.272mm"
   viewBox="0 0 79.924 20.272"
   version="1.1"
   id="svg141838"
   inkscape:version="1.1.1 (3bf5ae0d25, 2021-09-20)"
   sodipodi:docname="saw.svg"
   xmlns:inkscape="http://www.inkscape.org/namespaces/inkscape"
   xmlns:sodipodi="http://sodipodi.sourceforge.net/DTD/sodipodi-0.dtd"
   xmlns:xlink="http://www.w3.org/1999/xlink"
   xmlns="http://www.w3.org/2000/svg"
   xmlns:svg="http://www.w3.org/2000/svg">
  <sodipodi:namedview
     id="namedview141840"
     pagecolor="#505050"
     bordercolor="#eeeeee"
     borderopacity="1"
     inkscape:pageshadow="0"
     inkscape:pageopacity="0"
     inkscape:pagecheckerboard="0"
     inkscape:document-units="mm"
     showgrid="false"
     inkscape:snap-global="false"
     inkscape:zoom="0.65512531"
     inkscape:cx="-61.057022"
     inkscape:cy="22.13317"
     inkscape:window-width="1366"
     inkscape:window-height="705"
     inkscape:window-x="-8"
     inkscape:window-y="-8"
     inkscape:window-maximized="1"
     inkscape:current-layer="layer1" />
  <defs
     id="defs141835">
    <linearGradient
       inkscape:collect="always"
       id="linearGradient142179">
      <stop
         style="stop-color:#000000;stop-opacity:1;"
         offset="0"
         id="stop142175" />
      <stop
         style="stop-color:#959595;stop-opacity:1"
         offset="1"
         id="stop142177" />
    </linearGradient>
    <linearGradient
       inkscape:collect="always"
       xlink:href="#linearGradient142179"
       id="linearGradient142181"
       x1="42.841178"
       y1="95.957836"
       x2="144.96219"
       y2="84.106392"
       gradientUnits="userSpaceOnUse" />
    <clipPath
       clipPathUnits="userSpaceOnUse"
       id="clipPath147739">
      <path
         id="path147741"
         style="fill:#ff0000;fill-opacity:1;fill-rule:nonzero;stroke:none;stroke-width:0.264583"
         d="M 42.841312,80.541336 V 111.37459 H 144.67644 v -10.8846 c -0.0214,-0.0356 -0.0418,-0.0709 -0.0677,-0.12351 -0.0162,-0.0329 -0.0312,-0.0664 -0.0465,-0.0997 -0.0437,-0.0531 -0.0645,-0.0803 -0.0879,-0.11162 -0.12011,-0.05 -0.21609,-0.15327 -0.32608,-0.225828 0.15165,0.105828 -0.0531,-0.03517 -0.30024,-0.307475 -0.0813,-0.08959 -0.23019,-0.383897 -0.25579,-0.439767 -0.0219,-0.04775 -0.0377,-0.09033 -0.0512,-0.132291 -0.0632,-0.05414 -0.12664,-0.108413 -0.18914,-0.163299 -0.053,-0.102925 -0.10561,-0.205613 -0.15865,-0.308509 -0.0317,-0.06842 -0.0494,-0.09679 -0.0848,-0.170532 -2.6e-4,-7.94e-4 -0.001,-0.0021 -0.002,-0.0031 -0.0741,-0.07926 -0.1221,-0.142248 -0.21859,-0.312126 -0.003,-0.0056 -0.009,-0.01812 -0.0134,-0.02532 -0.007,-0.0072 -0.0148,-0.01455 -0.0222,-0.02169 0.005,0.0092 0.0111,0.01804 0.016,0.02739 0.0106,0.01995 -0.0588,-0.06878 -0.0424,-0.05323 0.009,0.0084 0.0175,0.01736 0.0264,0.02585 -0.0357,-0.06388 -0.0748,-0.125831 -0.11369,-0.1881 -0.0828,-0.01133 -0.10874,-0.09946 -0.11473,-0.208775 -0.002,-0.0042 -0.003,-0.0087 -0.005,-0.01291 -0.0564,-0.07158 -0.1088,-0.145177 -0.13953,-0.22996 -0.0408,-0.112419 -0.0587,-0.230785 -0.0718,-0.350364 -0.0584,-0.139157 -0.0384,-0.09455 -0.0909,-0.569476 -0.001,-0.01392 -2.7e-4,-0.02786 0.002,-0.04186 -0.005,-0.01913 -0.011,-0.03808 -0.0155,-0.05736 -0.004,-0.01643 0.008,0.02432 0.017,0.04754 1.1e-4,-7.94e-4 5.3e-4,-0.0013 5.3e-4,-0.0021 -0.002,-0.0072 -0.003,-0.01392 -0.005,-0.02066 -0.004,-0.01381 -0.0105,-0.02725 -0.0155,-0.04082 -0.11823,-0.299048 -0.0973,-0.21632 -0.16433,-0.498678 -0.0697,-0.105431 -0.0768,-0.147114 -0.12557,-0.355018 -0.0135,-0.05131 -0.0208,-0.08099 -0.0243,-0.09922 -0.0139,-0.0191 -0.0279,-0.03822 -0.0403,-0.05839 -0.0174,-0.02844 -0.0408,-0.08615 -0.062,-0.14366 0.004,0.01461 0.008,0.02665 0.0134,0.04341 0.0145,0.0439 0.0192,0.05772 0.0424,0.129191 0.002,0.0067 -0.007,-0.01228 -0.009,-0.01913 -0.007,-0.02484 -0.0209,-0.0696 -0.0336,-0.110072 -0.011,-0.0334 -0.0258,-0.07833 -0.0325,-0.09819 0.006,0.01815 0.0114,0.03386 0.0191,0.05478 -0.013,-0.0442 -0.02,-0.07434 -0.004,-0.04651 0.0654,0.111093 0.12319,0.226501 0.17932,0.342614 0.0382,0.04512 0.078,0.08918 0.11472,0.135392 -0.13477,-0.353314 -0.27958,-0.703024 -0.40462,-1.059883 0.001,0.03921 0.003,0.07906 0.008,0.118856 0.0113,0.03323 0.0224,0.06922 0.0248,0.09043 0.001,0.01021 -7.9e-4,0.01064 -0.004,0.0062 0.006,0.01828 0.0128,0.03639 0.0186,0.05478 -0.009,-0.01971 -0.0158,-0.0405 -0.0217,-0.06149 -0.0117,-0.0241 -0.0353,-0.09607 -0.0429,-0.12764 -0.006,-0.0265 -0.0109,-0.05344 -0.0165,-0.0801 -0.001,0.06408 -0.0673,-0.329419 -0.0661,-0.334346 -2.4e-4,-5.29e-4 -2.7e-4,-0.0011 -5.3e-4,-0.0016 -0.0248,-0.05139 -0.0496,-0.102608 -0.0744,-0.153998 -0.023,-0.09431 -0.009,-0.03677 -0.0222,-0.0925 -0.0167,-0.02484 -0.0261,-0.04056 -0.0119,-0.02585 0.002,0.0026 0.005,0.0052 0.007,0.0078 -0.004,-0.01455 -0.004,-0.01566 -0.007,-0.02739 -0.10592,-0.159364 -0.1554,-0.229076 -0.19947,-0.435631 -0.003,-0.0061 -0.007,-0.01199 -0.01,-0.0181 -0.0296,-0.07046 -0.0675,-0.138292 -0.0858,-0.212391 -0.0143,-0.05821 0.0285,0.04513 0.0832,0.175183 -0.009,-0.04993 -0.0186,-0.106783 -0.0284,-0.174149 -0.002,-0.01167 -0.002,-0.01513 -0.002,-0.0186 -0.032,-0.05679 -0.0755,-0.129079 -0.12351,-0.20774 5.3e-4,0.0024 0.001,0.004 -0.002,-0.0026 -0.0187,-0.03063 -0.0307,-0.05197 -0.0522,-0.0863 -0.0221,-0.03525 0.003,0.03245 0.0264,0.09664 0.007,0.01775 0.009,0.02175 0.0176,0.04341 0.003,0.0086 0.0106,0.03511 0.008,0.02635 -0.005,-0.01585 -0.0159,-0.04415 -0.0253,-0.06976 -0.0816,-0.208791 -0.0793,-0.186563 -0.10594,-0.305925 -0.0584,-0.112749 -0.12828,-0.237749 -0.0646,-0.191204 0.008,0.006 0.0197,0.02612 0.0326,0.05168 -0.003,-0.01302 -0.003,-0.01519 -0.007,-0.02997 0.003,0.01114 0.006,0.02241 0.009,0.03359 0.0282,0.05724 0.0632,0.146643 0.0946,0.233061 -0.0149,-0.0444 -0.0513,-0.155869 -0.0734,-0.222724 -0.0434,-0.08289 -0.0834,-0.161676 -0.10697,-0.213423 -0.009,-0.02061 -0.0154,-0.04243 -0.0196,-0.0646 -0.0413,-0.0821 -0.085,-0.163123 -0.10491,-0.252182 -0.038,-0.170243 -0.0608,-0.279834 -0.0698,-0.376203 -0.005,-0.01056 -0.01,-0.02093 -0.0139,-0.03152 -0.015,-0.03627 -0.0235,-0.07546 -0.0295,-0.114208 -0.0117,-0.07129 -0.0557,-0.21332 -0.0734,-0.302305 -0.0407,-0.128831 -0.0479,-0.257281 -0.0372,-0.451654 -1.3e-4,-0.0013 -7.9e-4,-0.0053 -0.001,-0.0067 3e-5,-1.13e-4 -3e-5,-7.93e-4 0,-0.0011 v -5.29e-4 c -0.0331,-0.08723 -0.0656,-0.174395 -0.0909,-0.264067 -0.008,-0.02825 -0.0219,-0.07786 -0.0331,-0.123508 -0.0267,-0.06504 -0.0536,-0.130487 -0.0641,-0.198437 -0.006,-0.03658 -0.0101,-0.07331 -0.0139,-0.11007 0.0124,0.03145 0.0255,0.04776 0.0393,0.03617 -0.011,-0.0327 -0.0288,-0.06772 -0.0486,-0.103351 0.002,0.01918 0.005,0.03824 0.007,0.05736 -0.008,-0.02238 -0.0147,-0.05158 -0.0217,-0.08423 0.005,0.0084 0.0103,0.01685 0.015,0.02532 -0.0172,-0.157435 -0.0302,-0.315338 -0.0599,-0.470773 -0.0258,-0.134588 -5.3e-4,0.232651 0.0439,0.442868 -0.0497,-0.08478 -0.10887,-0.16882 -0.13539,-0.223242 -0.11506,-0.235993 -0.12158,-0.296066 -0.14676,-0.463537 -0.32315,-0.733063 -0.25864,-0.615344 -0.16743,-0.443902 -0.0508,-0.240948 -0.0912,-0.481544 -0.0832,-0.727604 7.9e-4,-0.07287 -1.3e-4,-0.147183 0.004,-0.220658 -0.0222,-0.113075 -0.0316,-0.224501 -0.0305,-0.33383 -0.10709,-0.218665 -0.12837,-0.321452 -0.12454,-0.65319 5.3e-4,-0.07425 0.006,-0.146968 5.3e-4,-0.220657 -0.0112,-0.218183 -0.004,-0.397719 0.0429,-0.614434 0.0107,-0.04886 0.0443,-0.193151 0.0444,-0.143145 1e-4,0.06439 -0.068,0.247277 -0.0439,0.187587 0.0641,-0.158633 0.10943,-0.323696 0.16434,-0.485759 0.0243,-0.03708 0.0451,-0.07722 0.0682,-0.115239 0.0408,-0.123902 0.0805,-0.249968 0.10128,-0.21394 0.0628,-0.109172 0.10987,-0.235241 0.21343,-0.302307 0.55762,-0.361151 0.6818,-0.409091 1.11983,-0.403593 h 0.37879 0.17363 c 0.0382,-0.06969 0.0516,-0.08831 0.004,-0.02066 0.0816,-0.132445 0.12815,-0.221549 0.21807,-0.322979 0.0379,-0.0582 0.36176,-0.374965 0.29042,-0.286804 -0.0713,0.08809 -0.14807,0.171628 -0.22686,0.253215 0.16178,-0.119092 0.30033,-0.268759 0.45166,-0.401527 -0.0363,0.01569 -0.0526,0.02204 0.009,-0.0078 -0.003,0.0026 -0.006,0.0052 -0.009,0.0078 0.0109,-0.0047 0.0173,-0.0071 0.0326,-0.01394 0.0251,-0.02013 0.0482,-0.03821 0.076,-0.05891 0.11701,-0.106881 0.22979,-0.143172 0.52194,-0.212389 0.17487,-0.112977 0.26529,-0.122812 0.64388,-0.147278 0.15267,-0.0413 0.30574,-0.05998 0.46044,-0.06149 0.0838,-7.93e-4 0.16835,0.0062 0.25322,0.01394 v -2.860109 z m 99.394448,3.741891 c -0.017,0.01254 -0.0341,0.0249 -0.0517,0.03669 -0.0512,0.05942 -0.10417,0.120904 -0.076,0.09354 0.0436,-0.04229 0.0854,-0.08649 0.12764,-0.130225 z m -0.0517,0.03669 c 0.0484,-0.05623 0.0952,-0.110863 0.0682,-0.08527 -0.0306,0.02906 -0.0567,0.05582 -0.0801,0.08216 -0.007,0.01087 -0.007,0.01593 0.0103,0.0041 5.3e-4,-2.65e-4 0.001,-7.94e-4 0.002,-0.0011 z m -1.79782,5.745903 h -5.3e-4 c 2.7e-4,5.29e-4 2.3e-4,0.0011 5.3e-4,0.0016 -5e-5,-5.29e-4 5e-5,-0.0011 0,-0.0016 z m 0.54054,2.301153 c 0.016,0.03178 0.0319,0.06353 0.0455,0.09612 -0.0143,-0.03832 -0.0334,-0.07545 -0.0481,-0.113689 7.9e-4,0.0058 0.002,0.01183 0.003,0.01757 z m -0.003,-0.01757 c -0.007,-0.04913 -0.009,-0.09993 -0.017,-0.148828 0.078,0.240667 0.10215,0.311028 0.14624,0.444418 0.11113,0.21205 0.24618,0.448542 0.19844,0.311091 -0.0258,-0.07441 -0.40876,-1.409782 -0.38602,-0.989086 0.0146,0.03792 0.0291,0.07585 0.0439,0.113686 0.005,0.01035 0.01,0.02061 0.0145,0.03101 10e-4,0.0026 -0.004,-0.0041 -0.005,-0.0067 -0.003,-0.0081 -0.006,-0.01622 -0.009,-0.02429 -0.0139,-0.03008 -0.0282,-0.05997 -0.0424,-0.08992 0.005,0.06439 0.0165,0.157917 0.0382,0.294556 0.004,0.02217 0.0106,0.04309 0.0186,0.06408 z m 0.64337,1.638144 c 0.002,0.0096 0.002,0.0071 0.005,0.0181 0.0202,0.03005 0.049,0.07074 0.0754,0.105937 -8e-4,-0.0069 -0.002,-0.01283 -0.003,-0.02016 -0.0123,-0.01987 -0.0255,-0.04194 -0.0367,-0.05943 -0.0136,-0.01482 -0.0269,-0.02992 -0.0408,-0.04444 z m 0.0775,0.103867 c 0.0131,0.02101 0.0248,0.03845 0.0393,0.06253 0.0133,0.02225 -0.009,-0.0056 -0.0367,-0.04237 0.003,0.0241 0.006,0.05341 0.01,0.07028 0.0105,0.05262 0.0307,0.102351 0.0532,0.151413 0.002,-0.02928 -0.004,-0.09777 -0.0196,-0.208256 -0.0161,-0.01876 -0.0326,-0.03734 -0.0491,-0.05581 7.9e-4,0.0085 0.002,0.01416 0.003,0.02222 z m 0.0243,0.162266 c 0.007,0.03392 0.0134,0.06777 0.0196,0.101801 0.004,0.0016 0.0174,0.02101 0.0212,-0.01757 -0.0136,-0.02812 -0.0273,-0.05611 -0.0408,-0.08423 z m 0.0661,0.334346 c 2.7e-4,-0.01405 -0.003,-0.04977 -0.0109,-0.120922 -0.0258,-0.07522 -0.0324,-0.09323 -0.0341,-0.101288 0.0137,0.07436 0.0293,0.14828 0.045,0.22221 z m 0.0594,0.207738 c 10e-4,0.0021 0.002,0.0054 0.003,0.0067 -0.003,-0.0084 -0.005,-0.01691 -0.008,-0.02532 0.002,0.0063 0.003,0.01241 0.005,0.0186 z m 0.26407,0.715719 c -0.0252,-0.02973 -0.0489,-0.06068 -0.0718,-0.09198 0.0109,0.04438 0.015,0.06403 0.0227,0.09715 0.005,0.02037 0.0111,0.04533 0.0155,0.05788 0.0176,0.05036 0.0419,0.09758 0.0692,0.143145 -0.0109,-0.03919 -0.0164,-0.06517 0,-0.03876 0.0525,0.08437 0.0884,0.145066 0.12299,0.204123 0.0139,0.01548 0.0278,0.03123 0.0424,0.04599 -0.069,-0.137991 -0.13383,-0.278559 -0.20102,-0.417547 z m 0.56533,2.13682 c 0.032,0.07248 0.0725,0.141065 0.11473,0.208775 0.0126,0.0019 0.0259,0.0021 0.0413,0 l -0.0506,-0.06563 c 0.0165,0.01765 0.0627,0.07351 0.0496,0.05323 -0.0459,-0.07094 -0.10248,-0.136131 -0.15554,-0.203089 1.1e-4,0.0024 2.6e-4,0.0044 5.3e-4,0.0067 z m 1.6583,-14.180529 c 0.0159,0.0044 0.0321,0.0084 0.0481,0.01138 0.0119,0.0021 -0.0232,-0.007 -0.0351,-0.0093 -0.007,-0.0013 -0.007,-0.0011 -0.0129,-0.0021 z m -1.01234,0.160197 c -0.0663,0.0298 -0.11279,0.06785 -0.21187,0.140044 0.0963,-0.06201 0.15412,-0.101788 0.21187,-0.140044 z m -0.32039,0.133324 c 0.002,-0.003 -0.0643,0.02331 -0.10491,0.04186 -0.004,0.0045 -0.009,0.009 -0.0129,0.01344 0.0411,-0.01886 0.0899,-0.04111 0.11059,-0.05116 0.005,-0.0024 0.007,-0.0037 0.007,-0.0041 z m 1.29087,1.827281 c -2.6e-4,1.7e-4 -7.9e-4,0.0024 -0.002,0.0041 5.3e-4,8e-6 0.001,-5.29e-4 0.002,-5.29e-4 1.8e-4,-0.0026 -4e-5,-0.0039 -5.3e-4,-0.0036 z m -4.29844,0.05271 c -0.003,0.0052 -0.008,0.01233 -0.01,0.01654 -0.0152,0.03085 -0.0508,0.127225 -0.0351,0.09664 0.014,-0.0273 0.0295,-0.06825 0.045,-0.113173 z m 0.43098,3.294375 c 0.0195,0.06635 0.011,0.04615 0,0 z m -0.32091,0.208256 c -0.009,-0.04617 0.0127,0.093 0.0196,0.139525 0.007,0.02305 0.004,0.01214 0.009,0.02739 -0.007,-0.04784 -0.0151,-0.09655 -0.0284,-0.166912 z m 0.51418,1.317746 c 0.002,0.02455 0.003,0.04924 0.005,0.0739 0.0177,0.115347 0.0234,0.148555 0.0357,0.171047 0.006,-0.04746 0.004,-0.03333 0.002,0.0036 0.005,0.0091 0.01,0.02058 0.0202,0.04444 -0.0124,-0.07351 -0.0244,-0.147111 -0.0367,-0.22066 -0.0212,-0.06105 -0.002,-0.004 -0.0253,-0.07235 z m 0.1726,1.06557 c 0.002,0.02858 0.005,0.05659 0.01,0.08371 5.3e-4,-0.01886 10e-4,-0.03854 0.003,-0.05839 -0.005,-0.0087 -0.009,-0.01693 -0.0129,-0.02532 z m 0.0372,0.07234 c 0.001,0.02342 0.003,0.04686 0.004,0.07028 0.0343,0.04108 0.0688,0.08202 0.10387,0.122473 -0.0351,-0.06205 -0.0806,-0.142409 -0.108,-0.192754 z m 0.30334,1.207162 c 2.6e-4,0.0011 7.9e-4,0.0021 0.001,0.0031 0.009,0.0272 0.0467,0.104447 0.0367,0.07751 -0.007,-0.02074 -0.0227,-0.05059 -0.0377,-0.08062 z m 0.24649,0.483176 c 0.0165,0.05416 0.0544,0.213403 0.0806,0.313675 0.0108,0.02471 0.0191,0.04532 0.03,0.06925 -0.008,-0.01654 -0.0164,-0.03315 -0.0248,-0.04961 0.002,0.0075 0.005,0.02215 0.007,0.02842 0.0181,0.03252 0.0596,0.109996 0.0579,0.103871 -0.0106,-0.02154 -0.021,-0.04164 -0.032,-0.06563 0.0119,0.02392 0.0243,0.04764 0.0357,0.07183 0.0204,0.04135 0.04,0.08083 0.0563,0.104902 -0.0417,-0.13009 -0.0973,-0.289829 -0.0682,-0.259413 -0.005,-0.03137 -0.0218,-0.101058 -0.14263,-0.317294 z m 0.19276,0.391708 c 0.0233,0.03577 0.0469,0.0715 0.0667,0.102836 -0.002,-0.01543 -0.002,-0.02748 -0.005,-0.04651 -0.028,-0.02529 -0.0467,-0.04218 -0.062,-0.05633 z m 0.108,0.07441 c -0.004,-0.0033 -0.004,0.04067 -0.002,0.09302 0.0101,0.0164 0.0189,0.03093 0.0279,0.04599 -0.007,-0.03955 -0.011,-0.06653 -0.0196,-0.113173 -0.003,-0.0164 -0.005,-0.02447 -0.007,-0.02582 z m -0.0599,0.213424 c 5.2e-4,5.29e-4 0.002,0.0056 0.002,0.0041 -1.2e-4,-5.29e-4 -2.6e-4,-0.0016 -5.3e-4,-0.0021 -5.3e-4,-7.93e-4 -0.001,-0.0013 -0.002,-0.0021 z m 0.14211,0.21859 c -0.009,-0.0051 0.0713,0.072 0.16898,0.168466 -0.001,-0.0048 -0.002,-0.0097 -0.004,-0.01447 -0.0334,-0.03983 -0.067,-0.07942 -0.10025,-0.119372 -0.0244,-0.0059 -0.0573,-0.02994 -0.0651,-0.03462 z m 0.0486,0.248563 c 0.004,0.01021 0.01,0.02016 0.0139,0.03049 0.002,0.0042 -0.003,-0.0083 -0.005,-0.01241 -0.003,-0.006 -0.006,-0.01204 -0.009,-0.0181 z m 0.38137,1.440223 c 0.003,0.0105 0.007,0.02154 0.006,0.01601 -5.3e-4,-0.0031 -0.003,-0.0089 -0.004,-0.01241 -8e-4,-0.0011 -0.001,-0.0024 -0.002,-0.0036 z m 0.16485,0.272335 c -0.008,-0.0065 -3e-5,0.0021 0.0501,0.05994 -0.0105,-0.01688 -0.0172,-0.02643 -0.0269,-0.04186 -0.01,-0.0069 -0.0188,-0.0145 -0.0233,-0.0181 z m 0.0496,0.424781 c 0.002,0.0081 0.003,0.01619 0.005,0.02429 10e-4,0.0043 -0.001,-0.0086 -0.002,-0.01291 -0.001,-0.0038 -0.002,-0.0076 -0.003,-0.01138 z m 0.0233,0.190169 c -5.3e-4,0.02119 -0.001,0.04236 -0.002,0.06356 0.007,0.03545 0.014,0.07086 0.0207,0.106452 -0.005,-0.05693 -0.0122,-0.113575 -0.0191,-0.170013 z m 0.0599,0.362768 c 0.001,0.0058 0.002,0.0118 0.004,0.01757 0.006,0.02506 0.033,0.08321 0.0413,0.0987 1.2e-4,-7.94e-4 2.6e-4,-0.0013 5.3e-4,-0.0021 0,0 0,-5.29e-4 0,-5.29e-4 -0.0217,-0.05695 -0.0312,-0.07887 -0.0455,-0.113688 z m 0.49248,0.992703 c 0.008,0.01545 0.0152,0.03115 0.0238,0.04599 0.019,0.03273 0.0558,0.0529 0.0956,0.0708 -0.0395,-0.03917 -0.0796,-0.07794 -0.11937,-0.11679 z m 0.66094,0.972034 c 0.005,0.009 0.01,0.0181 0.015,0.02687 0.0446,0.07317 0.10821,0.130906 0.17931,0.176734 0.0294,0.01897 0.11748,0.07572 0.092,0.05168 -0.0929,-0.0878 -0.18932,-0.171943 -0.28629,-0.255284 z m 1.02371,1.240751 c 0.0207,0.0322 0.0414,0.0644 0.062,0.0966 v -0.0139 c -0.0187,-0.0243 -0.0457,-0.0622 -0.062,-0.0827 z" />
    </clipPath>
    <clipPath
       clipPathUnits="userSpaceOnUse"
       id="clipPath147771">
      <path
         id="path147773"
         style="fill:#ff0000;fill-opacity:1;fill-rule:nonzero;stroke:none;stroke-width:0.264583"
         d="m 130.67936,79.25666 v 32.26108 H 169.277 V 79.25666 Z m 13.74283,4.131016 c 0.10344,-0.0011 0.2074,0.0055 0.31264,0.01707 -10e-4,-5.29e-4 -10e-4,-0.0011 5.3e-4,-0.0021 0.0157,-0.01061 0.28408,-0.0057 0.31058,-0.0057 0.14904,0.0011 0.29797,0.0011 0.447,0.0011 0.0306,-1.6e-5 0.062,-0.0071 0.092,-5.29e-4 0.20455,0.04502 0.40625,0.103044 0.60927,0.154514 0.027,0.02069 0.0246,0.01833 0.0486,0.03669 0.0464,0.01331 0.0843,0.024 0.18397,0.05426 0.0712,0.02162 0.13991,0.05065 0.20981,0.07596 0.072,0.01627 0.074,0.01775 0.11627,0.04082 0.0279,0.0078 0.0863,0.03083 0.11265,0.04186 0.17512,0.07305 0.24993,0.142891 0.28216,0.168466 -0.0477,-0.01191 -0.0873,-0.02236 -0.15193,-0.03721 0.0528,0.02815 0.1046,0.05843 0.15658,0.08837 0.002,-1.8e-5 0.001,-1e-5 0.003,0 0.21743,0.0011 0.53977,0.0665 0.73794,0.16278 0.0193,0.0094 0.0382,0.01945 0.0574,0.02894 0.13088,0.02585 0.26166,0.05389 0.39274,0.07855 -0.10742,-0.05609 -0.007,-0.0053 0.14986,0.06666 0.0662,0.02074 0.10696,0.03399 0.12661,0.04031 0.0971,0.05013 0.19437,0.100248 0.29145,0.150379 -0.0367,-0.02204 -0.14777,-0.08637 -0.11007,-0.06615 0.0667,0.03574 0.13449,0.06979 0.19689,0.112654 0.0217,0.01495 0.0421,0.03195 0.063,0.04806 8e-4,5.29e-4 0.003,0.0019 0.004,0.0026 0.0173,0.01021 0.0631,0.04345 0.0837,0.05633 0.22535,0.149593 0.40007,0.347258 0.56379,0.556554 0.2397,0.170968 0.40538,0.369234 0.5612,0.634587 0.19609,0.432779 0.068,0.118724 0.21963,0.588079 0.0158,0.0487 0.0336,0.09668 0.0527,0.144176 0.0143,0.03561 0.0373,0.06792 0.0475,0.104902 0.12236,0.441661 0.10771,0.406059 0.15451,0.768946 0.0218,0.189222 0.0435,0.351213 0.0553,0.540536 2.6e-4,0.0052 0.002,0.01669 0.002,0.02326 0.007,0.02339 0.0187,0.06178 0.0196,0.06511 0.0155,0.06233 0.0365,0.123587 0.0465,0.187071 0.0188,0.123235 0.0238,0.247851 0.0393,0.371551 0.001,0.0066 0.003,-0.0249 0.005,-0.0186 0.008,0.03092 0.009,0.06333 0.0165,0.09457 0.001,0.0057 0.001,-0.01127 0.002,-0.01704 l 0.0579,0.329179 c 0.01,0.06366 0.021,0.127363 0.03,0.191204 0.009,0.06336 0.0261,0.194233 0.0346,0.300239 0.0522,0.170561 0.091,0.344691 0.13126,0.518316 0.0157,0.06753 0.0466,0.175016 0.0537,0.239778 0.009,0.08129 0.013,0.16328 0.0176,0.244946 -0.001,-0.0218 -2.6e-4,-0.0361 0.005,-0.02066 0.0195,0.05222 0.0353,0.349269 0.0403,0.388607 0,0.0028 0.008,0.0043 0.008,0.0016 -0.002,-0.0741 -0.0266,-0.119206 0.003,-0.05374 0.23714,0.784797 -0.0784,-0.30345 0.15503,0.428398 0.0553,0.17335 0.0927,0.353414 0.13539,0.530198 0.0123,0.0606 0.0203,0.122293 0.0367,0.181901 0.005,0.01873 -0.0164,-0.07268 -0.003,-0.05839 0.0263,0.02858 0.0324,0.07065 0.0475,0.106452 0.0257,0.06075 0.0494,0.122622 0.0749,0.183452 0.0601,0.143534 0.0648,0.155247 0.0785,0.205674 0.0604,-0.0031 0.0586,0.106701 0.077,0.181382 0.009,0.02032 0.01,0.02275 0.0176,0.03928 5.3e-4,0.0013 0.001,0.0024 0.002,0.0036 0.0314,0.05979 0.0587,0.122221 0.0894,0.182419 0.03,0.0865 0.069,0.170294 0.0899,0.259416 0.0162,0.06882 0.0643,0.366271 0.0858,0.563272 0.056,0.140372 0.10695,0.280051 0.1602,0.422714 0.0245,0.06554 0.0742,-0.06688 0.0568,0.139009 -0.0242,0.285613 -0.0686,0.56905 -0.1111,0.85266 0.0102,7.9e-5 0.0208,5.29e-4 0.031,5.29e-4 0.0462,-0.178297 0.0928,-0.356555 0.13902,-0.534852 0.002,-0.0098 -0.005,-0.03435 0.004,-0.02946 0.0149,0.0082 0.0163,0.02914 0.0233,0.04444 0.0223,0.05153 0.0553,0.15082 0.0822,0.227377 0.007,0.01045 0.0154,0.02315 0.0196,0.03101 0.009,0.0164 0.0161,0.03341 0.0243,0.05013 -1.1e-4,-0.0011 1.4e-4,-7.94e-4 0,-0.0021 0.035,0.06556 0.0452,0.09057 0.0429,0.09353 0.0229,0.05288 0.0451,0.106368 0.0672,0.159682 -0.008,-0.02612 -0.014,-0.05082 -0.0134,-0.06873 0.002,-0.06609 0.0676,0.114181 0.10128,0.17105 0.0653,0.05911 0.0628,0.0531 0.13126,0.188619 0.007,0.01333 0.0129,0.02695 0.0196,0.04031 0.0608,0.05249 0.11884,0.112133 0.18914,0.185518 0.004,0.0041 0.01,0.0091 0.0124,0.01241 0.001,0.0011 0.002,0.0024 0.003,0.0036 0.0189,0.01977 0.0362,0.03762 0.0584,0.06046 0.006,0.0085 0.009,0.01588 -0.0176,-0.0067 0.11861,0.155049 0.22438,0.319747 0.34933,0.469742 0.0299,0.03585 -0.0395,-0.08439 -0.0594,-0.126609 0.0382,0.06644 0.0765,0.13303 0.11472,0.199472 0.38095,0.766477 -0.027,-0.04538 0.17261,0.323493 0.0547,0.100415 0.0708,0.152707 0.0718,0.146246 2.7e-4,-0.0021 -2.6e-4,-0.01082 -0.003,-0.02635 0.0327,0.05974 0.1433,0.209942 0.11575,0.19947 0.0231,0.03797 0.0456,0.07646 0.0677,0.114723 0.013,0.02241 0.0234,0.04607 0.0325,0.07028 0.0851,0.105775 0.15844,0.227377 0.22325,0.358119 0.26294,0.326321 0.23427,0.296595 0.3638,0.622699 0.0135,0.03385 -0.0246,-0.06901 -0.0367,-0.103351 0.038,0.07959 0.0781,0.158771 0.1142,0.239262 0.03,0.06672 0.0773,0.212543 0.0987,0.270783 0.0105,0.02842 0.015,0.0607 0.0341,0.08423 0.0167,0.02058 -0.0172,-0.04946 -0.0264,-0.07441 0.0403,0.09079 0.0802,0.181547 0.1204,0.272336 0.0256,0.07087 0.0339,0.09572 0.0408,0.116271 0.002,-1.37e-4 0.003,-5.29e-4 0.006,0 0.0687,0.01799 0.0707,0.123267 0.10077,0.187587 0.0135,0.02885 0.0255,0.05843 0.0377,0.08785 0.12159,0.175419 0.27071,0.399502 0.15865,0.273367 0.0413,0.07481 0.0759,0.149789 0.0977,0.222211 0.0328,0.0361 0.0643,0.218328 0.0951,0.290935 0.0519,0.122253 0.0744,0.252283 0.10852,0.379823 0.006,0.013 0.0148,0.029 0.0191,0.0393 0.0174,0.0418 0.0823,0.21679 0.11731,0.31109 0.0796,0.17847 0.11366,0.37432 0.18396,0.55552 0.0142,0.0368 -0.0204,-0.0763 -0.0331,-0.11369 0.14089,0.2717 0.23059,0.43909 0.27027,0.65681 0.0534,0.0991 0.10924,0.21297 0.12867,0.27078 0.014,0.0417 0.0255,0.0841 0.0367,0.12661 0.0916,0.23853 0.11542,0.48435 0.10439,0.73742 -0.002,0.0378 -0.007,0.0755 -0.0103,0.11318 -2.6e-4,0.004 -0.005,0.0123 -5.2e-4,0.0114 0.004,-0.001 0.002,-0.008 0.003,-0.0124 5.3e-4,0.0326 5.3e-4,0.0651 0.001,0.0977 0.003,0.0113 0.005,0.0167 0.008,0.03 0.07,0.24478 0.0606,0.49788 0.0351,0.74775 0,0.005 0.003,-0.011 0.003,-0.016 l 0.003,-0.0434 c 0.0308,0.45 -0.0981,0.76508 -0.36535,1.12706 -0.16369,0.1306 -0.34217,0.24484 -0.49144,0.39171 -0.0206,0.0256 -0.0354,0.0453 -0.0491,0.0636 -0.0999,0.0544 -0.22083,0.0924 -0.33227,0.12506 1.3e-4,7.9e-4 5.3e-4,7.9e-4 5.3e-4,0.002 0.005,0.041 -0.0769,0.0342 -0.11731,0.0444 -0.0688,0.0173 -0.10947,0.0264 -0.15451,0.0367 -0.0859,0.054 -0.17442,0.1048 -0.25839,0.15761 -0.0661,0.0415 -0.1487,0.1001 -0.2222,0.0739 -0.0443,-0.0158 0.0291,-0.0355 0.10128,-0.0553 0.0303,-0.0205 0.0987,-0.068 0.14935,-0.10283 -0.03,0.01 -0.0601,0.0185 -0.0904,0.0269 -0.0645,0.038 -0.1281,0.078 -0.1912,0.11885 -0.0141,0.0118 -0.0277,0.0237 -0.0424,0.0357 0.013,-0.008 0.0257,-0.0164 0.0388,-0.0243 0.0264,-0.016 -0.0431,0.0458 -0.0703,0.0605 -0.007,0.004 -0.0138,0.007 -0.0207,0.0103 0.009,-0.003 -2.7e-4,10e-4 -0.0134,0.007 -10e-4,5.3e-4 -0.003,0.001 -0.005,0.002 -0.0149,0.006 -0.0314,0.0127 -0.046,0.0181 -0.006,0.004 -0.0118,0.008 -0.0176,0.0114 0.0209,-0.009 0.0416,-0.0186 0.062,-0.0284 -0.0375,0.0291 -0.0757,0.0584 -0.11627,0.0873 -0.026,0.0185 -0.0778,0.0411 -0.12661,0.0594 -0.0288,0.019 -0.0573,0.0381 -0.0863,0.0568 -0.0311,0.007 -0.0624,0.0146 -0.0935,0.0217 -0.004,0.004 -0.008,0.008 -0.0114,0.0114 -0.003,0.002 -0.009,0.006 -0.0145,0.009 -0.0902,0.0764 -0.21351,0.17665 -0.23203,0.17467 -0.006,-5.3e-4 0.6189,-0.50418 -0.10284,0.0801 -0.11039,0.0523 -0.22259,0.10078 -0.33124,0.15657 -0.0488,0.0251 0.19941,-0.0912 0.15141,-0.0646 -0.25972,0.14381 -0.56597,0.19355 -0.86041,0.18345 -0.14167,5e-5 -0.28315,0.003 -0.42479,-0.001 -0.0131,-10e-4 -0.0266,-10e-4 -0.0398,-0.002 -0.0601,0.01 0.0848,-0.003 -0.28628,0.016 -0.47166,-0.091 -0.32994,-0.036 -0.58188,-0.15503 0.004,0.002 0.005,0.003 0.009,0.005 0.033,0.0171 -0.13508,-0.0631 -0.10128,-0.0476 0.0376,0.0173 0.0654,0.0301 0.0925,0.0429 -0.0686,-0.0355 -0.11555,-0.0593 -0.15193,-0.0775 -0.0741,-0.0247 -0.16105,-0.054 -0.22944,-0.0842 -0.0876,-0.0296 -0.19703,-0.0899 -0.40928,-0.19689 -0.0338,-0.01 -0.0673,-0.0201 -0.10077,-0.0305 0.0112,0.01 0.0225,0.0195 0.0336,0.0295 0.0263,0.0236 -0.0399,-0.0185 -0.0848,-0.0455 -0.0318,-0.0108 -0.0636,-0.0225 -0.0946,-0.0356 -0.0873,-0.0372 -0.32696,-0.0956 -0.24546,-0.14418 0.0845,-0.0503 0.17163,0.0982 0.26303,0.13436 0.0232,0.009 0.0612,0.0232 0.0997,0.0367 -0.008,-0.007 -0.0168,-0.0145 -0.0253,-0.0217 -0.0413,-0.0202 -0.0841,-0.0413 -0.13178,-0.0641 -0.0486,-0.0233 -0.15599,-0.14631 -0.11059,-0.1173 0.085,0.0543 0.16521,0.1161 0.24237,0.18138 0.0295,0.0145 0.0562,0.0276 0.0827,0.0408 0.0475,0.0144 0.0797,0.0202 0.0532,-0.002 -0.28411,-0.23897 -0.58227,-0.468 -0.91003,-0.64234 -0.10294,-0.0547 0.14506,0.18258 0.21756,0.27388 -0.1569,-0.15628 -0.35006,-0.34827 -0.4625,-0.53795 -0.0593,-0.10009 -0.10927,-0.20534 -0.1602,-0.31005 -0.0342,-0.0367 -0.10566,-0.20659 -0.0791,-0.15658 0.0275,0.0517 0.0534,0.1039 0.0791,0.15658 0.003,0.003 0.006,0.006 0.008,0.007 0.14227,0.047 0.27049,0.0749 0.38653,0.0873 -0.058,-0.0336 -0.14408,-0.0856 -0.21807,-0.13539 0.003,0.008 -0.0374,-0.0143 -0.0822,-0.0403 -0.0112,-0.004 -0.0117,-0.004 -0.0233,-0.008 -0.008,-0.006 -0.0242,-0.0176 -0.0382,-0.0274 -0.006,-0.003 -0.0157,-0.009 -0.0202,-0.0114 -0.14673,-0.0827 -0.2648,-0.16453 -0.38551,-0.27078 -0.005,-0.004 -0.01,-0.008 -0.015,-0.0114 -0.0156,-0.008 -0.0342,-0.017 -0.0455,-0.0217 -0.26752,-0.14763 -0.278,-0.172 -0.51211,-0.33228 -0.0128,-0.009 -0.0193,-0.0135 -0.0336,-0.0233 0.004,0.002 0.008,0.004 0.0124,0.007 -0.0735,-0.0546 -0.14526,-0.11142 -0.21653,-0.16898 0.0219,0.145 -0.0506,0.002 -0.10128,-0.0816 -0.003,-0.003 -0.006,-0.005 -0.009,-0.008 -0.0205,-0.0126 -0.0422,-0.0257 -0.0579,-0.0367 -0.0205,-0.0144 -0.002,-0.005 0.0258,0.0108 -0.29591,-0.18106 -0.22632,-0.11833 -0.43254,-0.32401 -0.0469,-0.0573 -0.0958,-0.11318 -0.14056,-0.17208 -0.0257,-0.0337 -0.0668,-0.0633 -0.0708,-0.10542 -7.9e-4,-0.008 0.003,-0.006 0.008,-5.3e-4 -0.0419,-0.0616 -0.0756,-0.11204 -0.0982,-0.14366 -0.10559,-0.0629 -0.0736,-0.0378 -0.33228,-0.43615 -0.0107,-0.0393 -0.0208,-0.0789 -0.031,-0.11834 0.0235,0.0535 0.0484,0.10579 0.0362,0.0729 -0.008,-0.0205 -0.0161,-0.0409 -0.0248,-0.061 -0.004,-0.006 -0.0101,-0.0181 -0.017,-0.0315 0.002,0.006 0.004,0.012 0.005,0.0181 -0.008,-0.0184 -0.0158,-0.0357 -0.0212,-0.0501 0.006,0.0123 0.0115,0.0231 0.016,0.032 -0.001,-0.006 -0.003,-0.0115 -0.004,-0.017 -0.003,-0.008 -0.007,-0.0152 -0.0103,-0.0227 l -0.006,-0.003 c 0.002,0.003 0.002,0.006 0.003,0.009 -0.002,-0.003 -0.003,-0.006 -0.004,-0.008 -0.20644,-0.10149 -0.30304,-0.16537 -0.0346,-0.0832 -0.0101,-0.0238 -0.0265,-0.0661 -0.0439,-0.10852 -0.0292,-0.0331 -0.0574,-0.0671 -0.0853,-0.10128 -0.0673,-0.0414 0.006,7.9e-4 -0.26769,-0.23875 0.009,0.0118 0.0177,0.0228 0.0264,0.0346 0.0145,0.0199 -0.0245,-0.0187 -0.0579,-0.0532 0.007,0.004 0.0148,0.008 0.0222,0.0114 -0.02,-0.0175 -0.0347,-0.0308 -0.0589,-0.0517 -0.0139,-0.012 0.008,0.0119 0.032,0.0372 -0.10532,-0.055 -0.19009,-0.1169 -0.30696,-0.19741 -0.0552,-0.0509 -0.22332,-0.16581 -0.21704,-0.17105 -0.073,-0.056 -0.14208,-0.1164 -0.21135,-0.19223 -0.0835,-0.0866 -0.082,-0.0836 -0.14573,-0.15452 -0.0318,-0.0357 -0.0381,-0.0444 -0.0341,-0.0424 0.0161,0.007 0.0564,0.0412 0.045,0.0279 -0.15356,-0.17803 -0.31486,-0.34891 -0.47232,-0.52349 -0.0124,-0.0265 -0.0254,-0.0545 -0.0388,-0.0832 -0.0763,-0.11697 -0.10901,-0.16027 -0.16898,-0.28215 -0.0162,-0.0329 -0.0313,-0.0664 -0.0465,-0.0997 -0.0399,-0.0485 -0.0669,-0.0807 -0.0894,-0.11008 -0.12062,-0.0498 -0.21681,-0.15357 -0.32711,-0.226342 0.15164,0.105832 -0.0531,-0.03517 -0.30024,-0.307475 -0.0813,-0.08959 -0.2302,-0.383894 -0.2558,-0.439766 -0.0219,-0.04775 -0.0377,-0.09033 -0.0512,-0.132292 -0.0632,-0.05414 -0.12664,-0.10841 -0.18914,-0.163295 -0.053,-0.102926 -0.1056,-0.205613 -0.15864,-0.30851 -0.0317,-0.06842 -0.0493,-0.09679 -0.0847,-0.170532 -2.6e-4,-7.94e-4 -0.001,-0.0021 -0.002,-0.0031 -0.0741,-0.07926 -0.12209,-0.142246 -0.21859,-0.312127 -0.003,-0.0056 -0.009,-0.01812 -0.0134,-0.02532 -0.007,-0.0072 -0.0148,-0.01455 -0.0222,-0.0217 0.005,0.0092 0.0111,0.01804 0.016,0.02739 0.0106,0.01995 -0.0588,-0.06878 -0.0424,-0.05323 0.009,0.0084 0.0175,0.01736 0.0264,0.02585 -0.0357,-0.06388 -0.0748,-0.125833 -0.11368,-0.188102 -0.0828,-0.01132 -0.10875,-0.09945 -0.11473,-0.208773 -0.002,-0.0042 -0.003,-0.0087 -0.005,-0.01291 -0.0564,-0.07157 -0.10879,-0.145177 -0.13952,-0.22996 -0.0407,-0.112419 -0.0587,-0.230788 -0.0718,-0.350367 -0.0584,-0.139157 -0.0384,-0.09455 -0.0909,-0.569473 -0.001,-0.01392 -2.1e-4,-0.02786 0.002,-0.04186 -0.005,-0.01913 -0.011,-0.03808 -0.0155,-0.05736 -0.004,-0.01643 0.008,0.02432 0.017,0.04754 1.1e-4,-7.94e-4 5.3e-4,-0.0013 5.3e-4,-0.0021 -0.002,-0.0072 -0.003,-0.01394 -0.005,-0.02066 -0.004,-0.01381 -0.0105,-0.02726 -0.0155,-0.04083 -0.11824,-0.299048 -0.0973,-0.216318 -0.16433,-0.498676 -0.0664,-0.100512 -0.0774,-0.150968 -0.1204,-0.334864 0.003,0.0136 0.007,0.02874 0.01,0.03669 0.0176,0.05036 0.042,0.09758 0.0693,0.143145 -0.0109,-0.03919 -0.0164,-0.06517 0,-0.03876 0.0525,0.08437 0.0884,0.145066 0.12299,0.204124 0.0139,0.01548 0.0278,0.03123 0.0424,0.04599 -0.0686,-0.137165 -0.13322,-0.276788 -0.19998,-0.414962 0.0378,0.04463 0.0774,0.08811 0.11369,0.133843 -0.13478,-0.353314 -0.27959,-0.703025 -0.40463,-1.059884 10e-4,0.03921 0.003,0.07906 0.008,0.118856 0.0113,0.03323 0.0224,0.06922 0.0248,0.09043 0.001,0.01021 -7.9e-4,0.01064 -0.004,0.0062 0.006,0.01828 0.0128,0.03639 0.0186,0.05478 -0.009,-0.01971 -0.0158,-0.04051 -0.0217,-0.0615 -0.0117,-0.0241 -0.0353,-0.09607 -0.0429,-0.12764 -0.006,-0.0265 -0.0109,-0.05344 -0.0165,-0.0801 -0.001,0.06408 -0.0673,-0.329419 -0.0661,-0.334346 0.007,0.03359 0.0135,0.06707 0.0196,0.100769 0.004,0.0016 0.0174,0.02101 0.0212,-0.01757 -0.0136,-0.02812 -0.0273,-0.05611 -0.0408,-0.08423 0,0 -5.3e-4,-5.29e-4 -5.3e-4,-5.29e-4 -0.0248,-0.05139 -0.0496,-0.102606 -0.0744,-0.153996 -0.023,-0.09431 -0.009,-0.03677 -0.0222,-0.0925 -0.0167,-0.02484 -0.0261,-0.04055 -0.0119,-0.02585 0.002,0.0026 0.005,0.0052 0.007,0.0078 0.002,0.008 0.002,0.0066 0.005,0.01707 0.0202,0.03005 0.049,0.07074 0.0755,0.105937 -7.9e-4,-0.0069 -0.002,-0.01283 -0.003,-0.02016 -0.0123,-0.01987 -0.0255,-0.04194 -0.0367,-0.05943 -0.0136,-0.01482 -0.0269,-0.02992 -0.0408,-0.04444 -0.004,-0.01315 -0.004,-0.01503 -0.007,-0.02635 -0.10591,-0.159364 -0.1554,-0.229079 -0.19947,-0.435634 -0.003,-0.0061 -0.007,-0.01199 -0.01,-0.0181 -0.0296,-0.07046 -0.0675,-0.138289 -0.0858,-0.212389 -0.0143,-0.05821 0.0285,0.04513 0.0832,0.175184 -0.009,-0.04993 -0.0186,-0.106786 -0.0284,-0.174152 -0.002,-0.01167 -0.002,-0.01513 -0.002,-0.0186 -0.032,-0.05679 -0.0755,-0.129077 -0.12351,-0.207738 5.3e-4,0.0024 0.001,0.004 -0.002,-0.0026 -0.0187,-0.03063 -0.0307,-0.05197 -0.0522,-0.0863 -0.0204,-0.03259 9e-5,0.02445 0.0217,0.08371 -0.0733,-0.186518 -0.0751,-0.177782 -0.10077,-0.293005 -0.0585,-0.11275 -0.12828,-0.23775 -0.0646,-0.191201 0.008,0.006 0.0197,0.02611 0.0326,0.05168 -0.003,-0.01302 -0.003,-0.01519 -0.007,-0.02997 0.003,0.01114 0.006,0.02241 0.009,0.03359 0.0282,0.05724 0.0632,0.146643 0.0946,0.233061 -0.0149,-0.0444 -0.0513,-0.155871 -0.0734,-0.222726 -0.0434,-0.08289 -0.0834,-0.161676 -0.10698,-0.213424 -0.009,-0.02061 -0.0154,-0.04243 -0.0196,-0.06459 -0.0413,-0.0821 -0.085,-0.163121 -0.1049,-0.25218 -0.038,-0.170243 -0.0608,-0.279836 -0.0698,-0.376205 -0.005,-0.01056 -0.0101,-0.02093 -0.0139,-0.03152 -0.015,-0.03627 -0.0235,-0.07546 -0.0294,-0.114205 -0.0117,-0.07129 -0.0562,-0.213323 -0.0739,-0.302307 -0.0407,-0.128831 -0.0474,-0.257278 -0.0367,-0.451652 -5.3e-4,-0.0041 -0.002,-0.01638 -0.003,-0.02066 -0.0316,-0.08346 -0.063,-0.166902 -0.0873,-0.252698 -0.008,-0.02825 -0.0219,-0.07786 -0.0331,-0.123508 -0.0267,-0.06504 -0.0536,-0.130487 -0.0641,-0.198437 -0.006,-0.03574 -0.0102,-0.07158 -0.0139,-0.107487 0.012,0.0293 0.025,0.04478 0.0382,0.03359 -0.011,-0.03271 -0.0288,-0.06772 -0.0486,-0.103352 0.002,0.01677 0.004,0.03342 0.006,0.05013 -0.007,-0.02085 -0.0136,-0.04534 -0.0196,-0.0739 0.004,0.0074 0.009,0.01474 0.0134,0.02223 -0.0172,-0.157435 -0.0302,-0.315341 -0.0599,-0.470773 -0.0257,-0.134099 -7.9e-4,0.229701 0.0434,0.440285 -0.0494,-0.08392 -0.10758,-0.166777 -0.13384,-0.22066 -0.11505,-0.235992 -0.12159,-0.296066 -0.14676,-0.463537 -0.32315,-0.733062 -0.25864,-0.615344 -0.16743,-0.443902 -0.0508,-0.24095 -0.0912,-0.481544 -0.0832,-0.727604 7.9e-4,-0.07287 5.3e-4,-0.147182 0.004,-0.220657 -0.0219,-0.111485 -0.0312,-0.221327 -0.0305,-0.329179 -0.10876,-0.221313 -0.12995,-0.323236 -0.1261,-0.656807 5.3e-4,-0.07425 0.006,-0.14697 5.3e-4,-0.220659 -0.0112,-0.218184 -0.004,-0.397717 0.0429,-0.614432 0.0107,-0.04886 0.0443,-0.193151 0.0444,-0.143145 1e-4,0.06439 -0.068,0.247277 -0.0439,0.187587 0.0641,-0.158633 0.10943,-0.323696 0.16433,-0.485759 0.0243,-0.03708 0.0451,-0.07722 0.0682,-0.115239 0.0408,-0.123902 0.0805,-0.249968 0.10129,-0.21394 0.0628,-0.109172 0.10986,-0.235241 0.21342,-0.302307 0.55762,-0.361151 0.6818,-0.409091 1.11983,-0.403593 h 0.37879 0.17363 c 0.0382,-0.06969 0.0517,-0.08832 0.004,-0.02066 0.0816,-0.132445 0.12815,-0.221546 0.21807,-0.322977 0.0379,-0.0582 0.36176,-0.374965 0.29042,-0.286803 -0.0713,0.08809 -0.14805,0.171627 -0.22685,0.253214 0.16177,-0.119091 0.30033,-0.268758 0.45165,-0.401526 -0.0363,0.01569 -0.0528,0.02209 0.009,-0.0078 l -0.009,0.0078 c 0.0109,-0.0047 0.0172,-0.0071 0.0326,-0.01394 0.0251,-0.02013 0.0482,-0.03821 0.076,-0.05891 0.117,-0.106881 0.22978,-0.143174 0.52193,-0.212391 0.17487,-0.112977 0.26529,-0.122812 0.64389,-0.147278 0.15266,-0.0413 0.30574,-0.05998 0.46043,-0.06149 z m -2.77761,10.703737 c 0.0131,0.02101 0.0248,0.03845 0.0393,0.06253 0.0133,0.02225 -0.009,-0.0056 -0.0367,-0.04237 0.003,0.0241 0.006,0.05341 0.0103,0.07028 0.0105,0.05262 0.0302,0.102351 0.0527,0.151413 0.002,-0.02928 -0.004,-0.09777 -0.0191,-0.208256 -0.0161,-0.01876 -0.0326,-0.03734 -0.0491,-0.05581 7.9e-4,0.0085 0.002,0.01416 0.003,0.02223 z m 8.69611,12.093317 c -0.0177,-0.005 -0.0375,-0.0122 -0.0574,-0.0191 0.006,0.005 0.0114,0.01 0.017,0.0145 0.0302,0.01 0.0603,0.0201 0.0904,0.03 -0.0157,-0.008 -0.0334,-0.017 -0.0501,-0.0253 z m 3.97444,-0.22221 c 0.003,-0.002 0.007,-0.004 0.0103,-0.007 -0.0101,0.004 -0.0198,0.008 -0.0305,0.0124 -0.002,0.002 0.008,-0.001 0.0202,-0.006 z m 0.0103,-0.007 c 0.0153,-0.006 0.0289,-0.0112 0.0408,-0.0155 0.0221,-0.0172 0.0442,-0.0342 0.0651,-0.0512 -0.0355,0.0219 -0.0709,0.044 -0.10594,0.0667 z M 144.28266,83.467773 c 0.0159,0.0044 0.0321,0.0084 0.0481,0.01138 0.0119,0.0021 -0.0232,-0.007 -0.0351,-0.0093 -0.007,-0.0013 -0.007,-0.0011 -0.0129,-0.0021 z m 1.99368,0.146244 c 0.679,0.517816 0.0801,0.03131 0.0351,0.01291 -0.004,-0.0016 -0.0247,-0.0091 -0.0351,-0.01291 z m -3.00602,0.01394 c -0.0663,0.02979 -0.11279,0.06785 -0.21187,0.140044 0.0963,-0.06201 0.15412,-0.101788 0.21187,-0.140044 z m -0.32039,0.133324 c 0.002,-0.003 -0.0642,0.02331 -0.1049,0.04186 -0.004,0.0045 -0.009,0.009 -0.0129,0.01344 0.0411,-0.01887 0.0899,-0.04111 0.11059,-0.05116 0.005,-0.0024 0.007,-0.0037 0.007,-0.0041 z m 4.2199,0.170016 c 0.25723,0.117991 0.24548,0.105806 -5.3e-4,0.04393 0.002,-0.0066 0.002,-0.01934 5.3e-4,-0.04393 z m -0.006,0.09664 c 0.26194,0.151387 0.51784,0.315719 0.80047,0.421161 0.11543,0.04306 -0.16686,-0.183951 -0.26768,-0.254765 -0.008,-0.0054 -0.0163,-0.0095 -0.0243,-0.01447 -0.0585,-0.0016 -0.11947,-0.0013 -0.18552,-0.0021 -0.004,0 0.007,-0.0021 0.0114,-0.0026 0.0459,-0.006 0.0916,-0.02336 0.13746,-0.01706 -0.0717,-0.0374 -0.15077,-0.0628 -0.22428,-0.09715 -0.0591,-0.0092 -0.1948,-0.02442 -0.24753,-0.03307 z m 0.81959,0.20102 c 0.0682,0.03406 0.13642,0.06821 0.20464,0.10232 -0.0722,-0.04826 -0.13905,-0.07986 -0.20464,-0.10232 z m -5.72316,5.29e-4 c 0.001,-0.0024 -10e-4,-0.0013 -0.008,0.0052 -0.0306,0.02906 -0.0567,0.05582 -0.0801,0.08216 -0.007,0.01087 -0.007,0.01595 0.0103,0.0041 2.7e-4,-1.33e-4 8e-4,-2.65e-4 0.001,-5.3e-4 -0.051,0.05922 -0.10352,0.120285 -0.0754,0.09302 0.0436,-0.04229 0.0854,-0.08649 0.12764,-0.130225 -0.0169,0.01246 -0.0342,0.02498 -0.0517,0.03669 0.0363,-0.04217 0.0719,-0.08323 0.076,-0.09043 z m 6.24303,0.133324 c 0.0215,0.0098 0.0295,0.01423 0.0532,0.02479 0.0114,0.0051 -0.0207,-0.01471 -0.0326,-0.0186 -0.005,-0.0016 -0.0152,-0.0045 -0.0207,-0.0062 z m -4.26279,1.225767 c 1.3e-4,-8.5e-5 -9e-5,7.93e-4 0,0.0011 1.1e-4,-2.65e-4 5.3e-4,-0.0011 5.3e-4,-0.0011 z m 0,0.0011 c -2.6e-4,7.94e-4 -1.5e-4,0.0019 -0.001,0.0031 5.3e-4,7e-6 5.3e-4,-5.3e-4 0.002,-5.3e-4 1.2e-4,-0.0019 -2.7e-4,-0.0021 -5.3e-4,-0.0026 z m -4.29793,0.05168 c -0.003,0.0052 -0.008,0.01233 -0.01,0.01654 -0.0152,0.03085 -0.0508,0.12722 -0.0351,0.09664 0.014,-0.0273 0.0295,-0.06825 0.045,-0.113173 z m 0.43098,3.294374 c 0.0195,0.06635 0.011,0.04615 0,0 z m -0.32194,0.207222 c -0.009,-0.04617 0.0127,0.093 0.0196,0.139525 0.007,0.02305 0.004,0.01215 0.009,0.02739 -0.007,-0.04784 -0.0151,-0.09655 -0.0284,-0.166915 z m 8.48992,0.628385 c -2.6e-4,0.01138 -5.3e-4,0.01492 -0.001,0.02687 0,0.0033 0.003,-0.0064 0.003,-0.0098 -5.3e-4,-0.0057 -0.002,-0.01138 -0.002,-0.01704 z m -8.15557,0.294556 c 2.5e-4,5.29e-4 2.1e-4,0.0011 5.2e-4,0.0016 -5e-5,-5.29e-4 5e-5,-0.0011 0,-0.0016 z m 0.17983,0.394808 c 0.002,0.02164 0.003,0.04339 0.004,0.06511 0.0194,0.126145 0.0246,0.157689 0.0372,0.180866 0.006,-0.04746 0.004,-0.03331 0.002,0.0036 0.005,0.0091 0.01,0.02058 0.0202,0.04444 -0.0122,-0.07248 -0.0241,-0.145042 -0.0362,-0.217559 -0.0131,-0.03778 -0.0129,-0.03613 -0.0269,-0.07648 z m 0.17363,1.066602 c 0.002,0.02858 0.005,0.05659 0.0104,0.08371 5.2e-4,-0.01887 0.001,-0.03854 0.003,-0.05839 -0.005,-0.0087 -0.009,-0.01693 -0.0129,-0.02532 z m 0.0372,0.07234 c 0.001,0.02342 0.003,0.04686 0.004,0.07028 0.0343,0.04108 0.0688,0.08202 0.10387,0.122473 -0.0351,-0.06205 -0.0806,-0.142406 -0.10801,-0.192754 z m 0.0982,0.28629 c -0.008,0.0036 -0.0121,0.02854 -0.009,0.08113 0.0138,0.03583 0.0274,0.07173 0.0413,0.107487 -0.013,-0.02796 -0.0261,-0.05586 -0.0393,-0.08372 0.005,0.06439 0.0165,0.157916 0.0382,0.294555 0.004,0.02109 0.0101,0.04102 0.0176,0.06098 -0.007,-0.04817 -0.009,-0.09785 -0.0165,-0.145728 0.078,0.240668 0.10215,0.311029 0.14624,0.444418 0.11113,0.212051 0.24618,0.448543 0.19844,0.311092 -0.0226,-0.06511 -0.3183,-1.095436 -0.37672,-1.070218 z m 0.0486,0.460436 c 1.4e-4,0.0011 2.6e-4,0.0021 5.3e-4,0.0031 h 5.3e-4 c -2.7e-4,-0.0011 -5.3e-4,-0.0021 -10e-4,-0.0031 z m 0.001,0.0031 c 7.9e-4,0.0058 0.002,0.01183 0.003,0.01757 h -5.3e-4 c 0.016,0.03178 0.0319,0.06353 0.0455,0.09612 -0.0143,-0.03832 -0.0334,-0.07545 -0.0481,-0.113688 z m -0.0119,-0.262517 c 0.004,0.0082 0.008,0.01651 0.0114,0.02479 10e-4,0.0026 -0.004,-0.0041 -0.005,-0.0067 -0.002,-0.006 -0.005,-0.01209 -0.007,-0.0181 z m 0.16743,0.719852 c 2.6e-4,0.0011 7.9e-4,0.0021 0.001,0.0031 0.009,0.0272 0.0467,0.104441 0.0367,0.07752 -0.007,-0.02074 -0.0227,-0.05059 -0.0377,-0.08062 z m 0.0915,0.283189 c 0.004,0.0089 0.006,0.01556 0.0124,0.031 0.003,0.0086 0.0108,0.03511 0.008,0.02635 -0.004,-0.01302 -0.0127,-0.03593 -0.0207,-0.05736 z m 0.15503,0.199988 c 0.0165,0.05416 0.0544,0.213402 0.0806,0.313674 0.0108,0.02471 0.0191,0.04532 0.03,0.06925 -0.008,-0.01654 -0.0164,-0.03315 -0.0248,-0.04961 0.002,0.0075 0.006,0.02215 0.007,0.02842 0.0181,0.03252 0.0596,0.109995 0.0579,0.10387 -0.0106,-0.02154 -0.021,-0.04164 -0.032,-0.06563 0.0119,0.02392 0.0243,0.04764 0.0357,0.07183 0.0204,0.04135 0.04,0.08083 0.0563,0.104902 -0.0417,-0.130088 -0.0973,-0.289833 -0.0682,-0.259413 -0.005,-0.03137 -0.0218,-0.101058 -0.14262,-0.317294 z m 0.19275,0.391708 c 0.0233,0.03577 0.0469,0.0715 0.0667,0.102835 -0.002,-0.01542 -0.002,-0.02748 -0.005,-0.04651 -0.028,-0.02529 -0.0467,-0.04218 -0.062,-0.05633 z m 8.11423,0.031 c -0.008,-0.01511 0.007,0.01532 0.0227,0.04599 -9e-5,-7.94e-4 8e-5,-0.0013 0,-0.0021 -0.006,-0.01257 -0.005,-0.01082 -0.0103,-0.02119 -0.007,-0.01228 -0.005,-0.0094 -0.0124,-0.02273 z m -8.00674,0.04341 c 1.2e-4,8.2e-5 2.6e-4,0.0013 5.3e-4,0.0016 6e-5,2.7e-5 -7e-5,-0.0016 0,-0.0016 z m 5.3e-4,0.0016 c -0.004,-0.0016 -0.004,0.03999 -0.002,0.09147 0.0101,0.0164 0.0184,0.03093 0.0274,0.04599 -0.007,-0.03954 -0.0105,-0.06653 -0.0191,-0.113173 -0.003,-0.0154 -0.005,-0.02225 -0.007,-0.02429 z m -0.0594,0.212905 c 5.3e-4,0.0016 0.002,0.0042 0.002,0.0031 -1.2e-4,-5.29e-4 -2.5e-4,-0.0016 -5.3e-4,-0.0021 -2.6e-4,-5.29e-4 -8e-4,-7.94e-4 -0.001,-0.0011 z m 0.14159,0.217559 c -0.009,-0.0052 0.0698,0.07042 0.17208,0.171566 -0.001,-0.0045 -0.002,-0.0089 -0.004,-0.01344 -0.0345,-0.04112 -0.069,-0.08223 -0.10335,-0.123505 -0.0244,-0.0059 -0.0573,-0.02994 -0.0651,-0.03462 z m -0.0191,0.177766 c 0.0137,0.07436 0.0293,0.14828 0.045,0.22221 2.7e-4,-0.01405 -0.003,-0.04977 -0.0108,-0.120923 -0.0258,-0.07522 -0.0324,-0.09323 -0.0341,-0.101287 z m 0.0682,0.0708 c 0.004,0.01021 0.01,0.02016 0.0139,0.03049 0.002,0.0042 -0.003,-0.0083 -0.005,-0.01241 -0.003,-0.006 -0.006,-0.01204 -0.009,-0.0181 z m 0.031,0.340548 c 0.002,0.0063 0.003,0.01241 0.005,0.0186 10e-4,0.0021 0.002,0.0054 0.003,0.0067 -0.003,-0.0084 -0.005,-0.01691 -0.008,-0.02532 z m 0.0822,0.381889 c 0.001,5.29e-4 0.004,0.0039 0.008,0.01085 0.0648,0.110095 0.12211,0.224454 0.17777,0.339513 -0.0246,-0.02912 -0.0479,-0.05931 -0.0703,-0.08992 0.008,0.03329 0.0121,0.05129 0.0171,0.07287 -0.008,-0.03049 -0.0155,-0.06032 -0.0181,-0.0739 -0.0139,-0.0191 -0.0279,-0.03822 -0.0403,-0.05839 -0.0174,-0.02844 -0.0408,-0.08615 -0.062,-0.143661 0.004,0.01461 0.008,0.02665 0.0134,0.04341 0.0145,0.0439 0.0192,0.05773 0.0424,0.12919 0.002,0.0067 -0.007,-0.01228 -0.009,-0.01913 -0.007,-0.02484 -0.0209,-0.0696 -0.0336,-0.110069 -0.011,-0.0334 -0.0257,-0.07834 -0.0326,-0.09818 0.006,0.01815 0.0114,0.03386 0.0191,0.05478 -0.01,-0.03315 -0.0161,-0.05855 -0.0119,-0.05736 z m 6.88795,0.348816 c -0.004,0.05439 -0.0129,0.112257 -0.0186,0.168465 0.0205,0.0021 0.0401,0.0034 0.0599,0.0052 -0.0121,-0.05846 -0.0236,-0.116893 -0.0413,-0.173633 z m -6.45387,0.642337 c -0.007,-0.0058 -5.3e-4,0.0021 0.0486,0.05891 -0.0105,-0.01688 -0.0172,-0.02643 -0.0269,-0.04186 -0.009,-0.0065 -0.017,-0.01323 -0.0217,-0.01707 z m 0.0481,0.423748 c 0.002,0.0081 0.003,0.01619 0.005,0.02429 10e-4,0.0043 -0.001,-0.0086 -0.002,-0.01291 -0.001,-0.0038 -0.002,-0.0076 -0.003,-0.01138 z m 0.0233,0.19017 c 1.4e-4,0.0013 2.6e-4,0.0024 5.3e-4,0.0036 3e-5,-0.0013 -3e-5,-0.0024 0,-0.0036 z m 5.3e-4,0.0036 c -5.3e-4,0.01998 -0.001,0.03995 -0.002,0.05994 0.007,0.03545 0.014,0.07086 0.0207,0.106453 -0.005,-0.05571 -0.0118,-0.111154 -0.0186,-0.166397 z m 0.0594,0.359151 c 0.001,0.0058 0.002,0.0118 0.004,0.01757 0.006,0.02506 0.033,0.08321 0.0413,0.0987 1.2e-4,-7.94e-4 2.5e-4,-0.0013 5.3e-4,-0.0021 v -5.29e-4 c -0.0217,-0.05695 -0.0312,-0.07887 -0.0455,-0.113689 z m 10.83965,0.05116 c -5.3e-4,0.0042 -5.3e-4,0.0093 -0.002,0.01344 0.0404,0.105309 0.0815,0.210553 0.12919,0.312642 0.0287,0.0614 -0.0317,-0.190137 -0.0445,-0.198437 0.0427,0.128746 0.0257,0.07354 -0.0832,-0.127641 z m -10.65309,0.463537 c 1.1e-4,0.0024 2.4e-4,0.0044 5.3e-4,0.0067 0.032,0.07248 0.0725,0.141063 0.11472,0.208775 0.0126,0.0019 0.0259,0.0021 0.0413,0 l -0.0506,-0.06563 c 0.0165,0.01765 0.0627,0.07351 0.0496,0.05323 -0.0459,-0.07094 -0.10249,-0.13613 -0.15555,-0.203089 z m 0.30644,0.478007 c 0.008,0.01545 0.0152,0.03115 0.0238,0.04599 0.019,0.03273 0.0558,0.0529 0.0956,0.0708 -0.0395,-0.03917 -0.0796,-0.07794 -0.11938,-0.116789 z m 12.1145,0.876432 c -10e-4,-7.94e-4 2.1e-4,0.0016 0.004,0.0083 0.004,0.0068 0.0101,0.01524 0.0145,0.02223 -0.005,-0.0087 -0.009,-0.01506 -0.0139,-0.02479 -0.002,-0.0019 -0.004,-0.0053 -0.005,-0.0057 z m 0.0382,0.05168 c 0.003,0.0067 0.005,0.01349 0.008,0.02016 0.001,0.0027 4e-5,0.0016 5.3e-4,0.0031 0.0298,0.04587 0.0606,0.09416 0.0946,0.145727 h 5.3e-4 c -0.007,-0.01733 -0.0145,-0.03443 -0.0217,-0.05168 -0.032,-0.04618 -0.0601,-0.08752 -0.0816,-0.117306 z m 0.10336,0.168982 c 0.0153,0.03799 0.0307,0.07591 0.0465,0.113689 0.0433,0.05375 0.069,0.08387 0.0904,0.108002 -0.0421,-0.07623 -0.0898,-0.150174 -0.13694,-0.221691 z m -11.59568,-0.125058 c 0.005,0.009 0.0105,0.0181 0.0155,0.02687 0.0446,0.07317 0.10821,0.130905 0.17931,0.176734 0.0294,0.01897 0.11748,0.07571 0.092,0.05168 -0.0929,-0.0878 -0.18932,-0.171942 -0.28629,-0.255283 z m 11.8923,0.849045 c 2.6e-4,7.94e-4 7.9e-4,0.0013 0.001,0.0021 -1.2e-4,-7.94e-4 -5.3e-4,-0.0013 -5.3e-4,-0.0021 z m 0.001,0.0021 c 0.009,0.0524 0.0174,0.105006 0.0279,0.157096 -0.004,-0.0382 -5.3e-4,-0.0778 -0.0108,-0.114723 -0.004,-0.01413 -0.0102,-0.02824 -0.0171,-0.04237 z M 144.614,100.33146 c 0.0407,0.0634 0.0818,0.12676 0.12247,0.19017 l 5.3e-4,5.3e-4 c 0.0219,0.0192 0.0801,0.0806 0.0636,0.0574 -0.0797,-0.11202 -0.13723,-0.18653 -0.18603,-0.24805 z m 1.27124,1.28674 c -0.002,-0.001 0.0138,0.0201 0.0315,0.0434 0.003,10e-4 0.006,0.002 0.0103,0.004 -0.009,-0.0101 -0.017,-0.0204 -0.0258,-0.0305 -0.01,-0.0111 -0.0148,-0.0162 -0.016,-0.0171 z m 0.30385,0.38189 c 0.003,0.002 0.004,0.004 0.007,0.007 -0.001,-0.002 -0.002,-0.003 -0.004,-0.005 -7.9e-4,-5.3e-4 -0.002,-7.9e-4 -0.003,-0.002 z m 0.4036,0.39068 c 0.007,0.0271 0.007,0.0325 0.0145,0.061 0.001,0.002 0.002,0.005 0.003,0.007 0.004,0.001 0.006,5.3e-4 0.0103,0.003 -0.005,-0.0205 -0.0119,-0.0406 -0.0176,-0.061 -0.003,-0.003 -0.007,-0.007 -0.01,-0.01 z m 8.18916,0.75499 c -2e-5,0.003 2e-5,0.007 0,0.0103 7.9e-4,-2e-4 5.3e-4,-2.5e-4 0.002,-5.2e-4 0.0213,-0.006 0.0157,-0.009 -0.002,-0.01 z m -7.5215,0.21704 c 0.01,0.009 0.12708,0.0764 0.16123,0.0915 -0.0583,-0.0355 -0.11651,-0.0716 -0.154,-0.0894 -0.007,-0.003 -0.009,-0.004 -0.007,-0.002 z m 0.53226,0.56792 c 5.3e-4,5.3e-4 8e-4,0.002 0.002,0.003 0,0 5.3e-4,5.3e-4 5.3e-4,5.3e-4 0.0334,0.0272 0.0673,0.054 0.10077,0.0811 -10e-4,-0.009 -10e-4,-0.0124 -0.003,-0.0238 0.14132,0.0731 0.008,0.005 -0.0997,-0.0605 z m 8.28115,1.08572 c 0.0162,0.003 -0.72069,0.72552 -0.48472,0.41031 0.0255,-0.0139 0.0502,-0.0292 0.0723,-0.0455 0.1435,-0.10555 0.25997,-0.24348 0.39843,-0.35553 0.008,-0.007 0.0129,-0.01 0.0139,-0.009 z m -0.59996,0.29094 c 0.003,-0.006 -0.0437,0.0193 -0.17828,0.1018 0.0235,-0.006 0.0473,-0.0115 0.0708,-0.0176 0.055,-0.0408 0.10465,-0.0779 0.10749,-0.0842 z m -5.08703,0.86403 c -0.004,0.002 0.046,0.0426 0.0878,0.0662 0.0226,0.007 0.0451,0.0148 0.0677,0.0222 -0.0485,-0.0291 -0.0969,-0.058 -0.14676,-0.0847 -0.005,-0.003 -0.008,-0.004 -0.009,-0.004 z m 0.15555,0.0884 c -0.02,-0.006 -0.0403,-0.0121 -0.0605,-0.0181 0.0106,0.006 0.0206,0.0101 0.0284,0.0119 0.0118,0.003 0.023,0.005 0.0346,0.007 -7.9e-4,-5.3e-4 -0.002,-5.3e-4 -0.003,-0.001 z m 3.32692,-0.0734 c -0.0884,0.0202 -0.17658,0.0406 -0.26406,0.0646 -0.0664,0.0182 0.13637,-0.0219 0.20257,-0.0408 0.0212,-0.006 0.0414,-0.0146 0.0615,-0.0238 z" />
    </clipPath>
    <clipPath
       clipPathUnits="userSpaceOnUse"
       id="clipPath147781">
      <path
         id="path147783"
         style="fill:#ff0000;fill-opacity:1;fill-rule:nonzero;stroke:none;stroke-width:0.264583"
         d="m 139.78423,83.672929 v 2.356961 c 0.0379,-0.111101 0.0729,-0.223017 0.11059,-0.334346 0.0243,-0.03708 0.0451,-0.07722 0.0682,-0.115239 0.0408,-0.123902 0.0805,-0.249968 0.10129,-0.21394 0.0627,-0.109172 0.10986,-0.235241 0.21342,-0.302307 0.55762,-0.361151 0.6818,-0.409091 1.11983,-0.403593 h 0.37879 0.17363 c 0.0382,-0.06969 0.0517,-0.08832 0.004,-0.02066 0.0816,-0.132445 0.12815,-0.221546 0.21807,-0.32298 0.0379,-0.0582 0.36175,-0.374965 0.29043,-0.286803 -0.0713,0.08809 -0.14807,0.171628 -0.22687,0.253214 0.16179,-0.119091 0.30034,-0.268758 0.45166,-0.401526 -0.0363,0.01569 -0.0528,0.02209 0.009,-0.0078 l -0.009,0.0078 c 0.0109,-0.0047 0.0172,-0.0071 0.0325,-0.01394 0.0251,-0.02013 0.0482,-0.03821 0.076,-0.05891 0.0684,-0.06248 0.14843,-0.100991 0.25063,-0.135908 z m 2.45153,0.610298 c -0.0169,0.01246 -0.0342,0.02498 -0.0517,0.03669 0.0484,-0.05623 0.0952,-0.110858 0.0682,-0.08527 -0.0306,0.02906 -0.0567,0.05582 -0.0801,0.08216 -0.007,0.01087 -0.007,0.01595 0.0103,0.0041 2.7e-4,-1.33e-4 8e-4,-2.65e-4 0.001,-5.3e-4 -0.051,0.05922 -0.10352,0.120285 -0.0755,0.09302 0.0436,-0.04229 0.0854,-0.08649 0.12764,-0.130225 z m 0.95705,-0.610298 c -0.0365,0.02405 -0.0763,0.05281 -0.13436,0.09509 0.0653,-0.04206 0.10175,-0.06702 0.14366,-0.09509 z m 3.16208,0 c 0.42312,0.319746 0.13915,0.08847 0.0165,0 z m 0.15451,0 c 0.0423,0.01558 0.0848,0.03066 0.12713,0.04599 0.0721,0.01627 0.074,0.01775 0.11627,0.04083 0.0279,0.0078 0.0863,0.03083 0.11265,0.04186 0.17511,0.07305 0.24992,0.14289 0.28216,0.168465 -0.0477,-0.01191 -0.0873,-0.02236 -0.15193,-0.03721 0.0528,0.02815 0.10459,0.05843 0.15658,0.08837 0.002,-1.9e-5 10e-4,-1.1e-5 0.003,0 0.21743,0.0011 0.53977,0.0665 0.73794,0.162779 0.0193,0.0094 0.0382,0.01945 0.0574,0.02894 0.13089,0.02585 0.26167,0.05389 0.39275,0.07855 -0.10744,-0.05609 -0.007,-0.0053 0.14986,0.06666 0.0662,0.02074 0.10696,0.03399 0.1266,0.04031 0.0971,0.05013 0.19438,0.100248 0.29146,0.150379 -0.0367,-0.02204 -0.14777,-0.08637 -0.11007,-0.06615 0.0667,0.03575 0.13449,0.06979 0.19689,0.112655 0.0217,0.01495 0.0421,0.03194 0.063,0.04806 7.9e-4,5.3e-4 0.003,0.0019 0.004,0.0026 0.0173,0.01021 0.0626,0.04346 0.0832,0.05633 0.22536,0.149593 0.40008,0.347258 0.56379,0.556554 0.2397,0.170969 0.40538,0.369234 0.5612,0.634587 0.19609,0.432779 0.0685,0.118727 0.22015,0.588079 0.0158,0.0487 0.0331,0.09668 0.0522,0.144177 0.0143,0.03561 0.0373,0.06792 0.0475,0.104902 0.12236,0.441661 0.10771,0.406059 0.15451,0.768945 0.0218,0.189222 0.0435,0.351213 0.0553,0.540536 2.6e-4,0.0052 0.002,0.01669 0.002,0.02326 0.007,0.02339 0.0187,0.06178 0.0196,0.06511 0.0155,0.06233 0.0365,0.12359 0.0465,0.187071 0.0188,0.123235 0.0238,0.247851 0.0393,0.371552 0.001,0.0066 0.003,-0.0249 0.005,-0.0186 0.008,0.03092 0.009,0.06333 0.0165,0.09457 0.001,0.0057 0.001,-0.01124 0.002,-0.01704 l 0.0579,0.329179 c 0.01,0.06366 0.021,0.127362 0.03,0.191203 0.009,0.06337 0.0261,0.194234 0.0346,0.300239 0.0522,0.170561 0.091,0.344691 0.13126,0.518316 0.0157,0.06753 0.0467,0.175017 0.0537,0.239779 0.009,0.08129 0.013,0.163277 0.0176,0.244946 -0.001,-0.0218 -7.9e-4,-0.0361 0.005,-0.02066 0.0195,0.05222 0.0353,0.349268 0.0403,0.388607 0,0.0028 0.008,0.0043 0.008,0.0016 -0.002,-0.0741 -0.0266,-0.119205 0.003,-0.05374 0.23714,0.784794 -0.0784,-0.303448 0.15503,0.428397 0.0553,0.17335 0.0927,0.353415 0.13539,0.530199 0.0123,0.0606 0.0203,0.122293 0.0367,0.181901 0.005,0.01873 -0.0164,-0.07268 -0.003,-0.05839 0.0263,0.02859 0.0324,0.07066 0.0475,0.106453 0.0257,0.06075 0.0494,0.122621 0.0749,0.183451 0.0601,0.143534 0.0648,0.15525 0.0785,0.205674 0.0604,-0.0031 0.0586,0.106701 0.077,0.181383 0.009,0.02032 0.01,0.02275 0.0176,0.03927 5.3e-4,0.0013 0.001,0.0024 0.002,0.0036 0.0314,0.05979 0.0587,0.122222 0.0894,0.18242 0.03,0.0865 0.069,0.170294 0.0899,0.259416 0.0162,0.06882 0.0643,0.36627 0.0858,0.563271 0.056,0.140372 0.10696,0.280051 0.1602,0.422714 0.0245,0.06554 0.0743,-0.06688 0.0568,0.13901 -0.0242,0.285612 -0.0691,0.56905 -0.11162,0.852659 0.0102,8.2e-5 0.0208,5.3e-4 0.031,5.3e-4 0.0462,-0.178298 0.0928,-0.356556 0.139,-0.534853 0.002,-0.0098 -0.005,-0.03435 0.004,-0.02946 0.0149,0.0082 0.0163,0.02914 0.0233,0.04444 0.0223,0.05153 0.0553,0.15082 0.0822,0.227378 0.007,0.01045 0.0154,0.02315 0.0196,0.03101 0.009,0.0164 0.0161,0.03342 0.0243,0.05012 -1.2e-4,-0.0011 1.4e-4,-7.93e-4 0,-0.0021 0.035,0.06556 0.0452,0.09056 0.0429,0.09353 0.0229,0.05288 0.0451,0.106367 0.0672,0.159681 -0.008,-0.02611 -0.014,-0.05082 -0.0135,-0.06873 0.002,-0.06609 0.0676,0.114181 0.10129,0.171051 0.0653,0.05911 0.0629,0.0531 0.13126,0.188618 0.007,0.01334 0.0129,0.02695 0.0196,0.04031 0.0608,0.05249 0.11884,0.112133 0.18914,0.185518 0.004,0.0041 0.01,0.0091 0.0124,0.01241 0.001,0.0011 0.002,0.0024 0.003,0.0036 0.0189,0.01976 0.0367,0.03762 0.0589,0.06046 0.006,0.0085 0.009,0.01585 -0.0176,-0.0067 0.1186,0.155048 0.22438,0.319746 0.34933,0.469741 0.0299,0.03585 -0.0395,-0.08439 -0.0594,-0.126608 0.0382,0.06644 0.0765,0.13303 0.11472,0.199472 0.38095,0.766477 -0.027,-0.04538 0.1726,0.323493 0.0547,0.100414 0.0708,0.152706 0.0718,0.146245 2.6e-4,-0.0021 -8e-4,-0.01082 -0.003,-0.02635 0.0327,0.05974 0.14331,0.209941 0.11576,0.199469 0.0231,0.03797 0.0456,0.07646 0.0677,0.114724 0.013,0.02241 0.0235,0.04607 0.0326,0.07028 0.0851,0.105775 0.15843,0.227378 0.22324,0.358119 0.26294,0.326324 0.23427,0.296595 0.3638,0.6227 0.0135,0.03385 -0.0246,-0.06901 -0.0367,-0.103352 0.038,0.07959 0.0781,0.158769 0.11421,0.239263 0.03,0.06671 0.0773,0.212542 0.0987,0.270782 0.0105,0.02842 0.015,0.0607 0.0341,0.08423 0.0167,0.02058 -0.0174,-0.04946 -0.0264,-0.07441 0.0403,0.09079 0.0802,0.181546 0.12041,0.272336 0.0255,0.07087 0.0339,0.09572 0.0408,0.116271 0.002,-1.38e-4 0.003,-5.29e-4 0.006,0 0.0687,0.01799 0.0707,0.123264 0.10077,0.187587 0.0135,0.02885 0.0255,0.05843 0.0377,0.08785 0.1216,0.175419 0.27071,0.399503 0.15865,0.273368 0.0413,0.07481 0.0759,0.149791 0.0977,0.22221 0.0328,0.0361 0.0643,0.218329 0.0951,0.290936 0.0519,0.122254 0.0744,0.252284 0.10852,0.379824 0.006,0.013 0.0148,0.029 0.0191,0.0393 0.0174,0.0418 0.0823,0.21678 0.11731,0.3111 0.0796,0.17845 0.11367,0.37432 0.18396,0.55552 0.0142,0.0368 -0.0204,-0.0763 -0.0331,-0.11369 0.1409,0.27169 0.23058,0.4391 0.27027,0.6568 0.0534,0.0991 0.10924,0.21298 0.12867,0.27079 0.014,0.0417 0.0255,0.0841 0.0367,0.12661 0.0916,0.23853 0.11541,0.48434 0.10439,0.73742 -0.002,0.0378 -0.007,0.0755 -0.0104,0.11317 -2.5e-4,0.004 -0.005,0.0124 -5.2e-4,0.0114 0.002,-5.3e-4 0.002,-0.002 0.003,-0.005 5.3e-4,0.03 5.3e-4,0.0599 0.001,0.0899 0.003,0.0112 0.005,0.0167 0.008,0.03 0.07,0.24478 0.0606,0.49789 0.0351,0.74776 1e-5,0.005 0.003,-0.011 0.003,-0.016 l 0.003,-0.0434 c 0.0308,0.45 -0.0981,0.76508 -0.36536,1.12706 -0.16369,0.1306 -0.34217,0.24484 -0.49144,0.39171 -0.0206,0.0255 -0.0354,0.0452 -0.0491,0.0636 -0.0999,0.0544 -0.22085,0.0924 -0.33228,0.12505 1.3e-4,8e-4 5.3e-4,8e-4 5.3e-4,0.002 0.005,0.041 -0.0769,0.0342 -0.11731,0.0444 -0.0683,0.0172 -0.10862,0.0264 -0.15348,0.0367 -0.086,0.0541 -0.17481,0.10473 -0.2589,0.15762 -0.0661,0.0415 -0.14871,0.10009 -0.22221,0.0739 -0.0443,-0.0158 0.0291,-0.0355 0.10129,-0.0553 0.0304,-0.0206 0.099,-0.0684 0.14986,-0.10335 -0.0303,0.01 -0.0603,0.019 -0.0909,0.0274 -0.0646,0.038 -0.1281,0.078 -0.1912,0.11886 -0.0141,0.0118 -0.0277,0.0237 -0.0424,0.0357 0.013,-0.008 0.0257,-0.0164 0.0388,-0.0243 0.0264,-0.016 -0.0431,0.0458 -0.0703,0.0605 -0.007,0.004 -0.0138,0.007 -0.0207,0.0104 0.009,-0.003 -2.7e-4,0.001 -0.0134,0.007 -0.001,5.3e-4 -0.003,10e-4 -0.005,0.002 -0.0149,0.006 -0.0314,0.0128 -0.046,0.0181 -0.006,0.004 -0.0118,0.008 -0.0176,0.0114 0.0209,-0.009 0.0416,-0.0186 0.062,-0.0284 -0.0375,0.0291 -0.0757,0.0584 -0.11627,0.0873 -0.026,0.0185 -0.0778,0.0411 -0.12661,0.0594 -0.0288,0.0189 -0.0573,0.0381 -0.0863,0.0568 -0.0311,0.007 -0.0624,0.0145 -0.0935,0.0217 -0.004,0.004 -0.008,0.008 -0.0114,0.0114 -0.003,0.002 -0.009,0.006 -0.0145,0.009 -0.0902,0.0764 -0.2135,0.17665 -0.23203,0.17466 -0.006,-5.3e-4 0.61891,-0.50417 -0.10283,0.0801 -0.11039,0.0523 -0.2226,0.10078 -0.33125,0.15658 -0.0488,0.0251 0.19941,-0.0912 0.15141,-0.0646 -0.10929,0.0605 -0.22686,0.10358 -0.34829,0.13333 h 3.48041 V 83.673167 Z m 7.80573,22.289591 c 0.003,-0.002 0.007,-0.004 0.0103,-0.007 -0.0101,0.004 -0.0198,0.008 -0.0305,0.0124 -0.002,0.002 0.008,-0.001 0.0202,-0.006 z m 0.0103,-0.007 c 0.0153,-0.006 0.0289,-0.0112 0.0408,-0.0155 0.0221,-0.0172 0.0442,-0.0342 0.0651,-0.0512 -0.0355,0.0219 -0.0709,0.044 -0.10594,0.0667 z m -7.15564,-22.02449 c 0.25724,0.117991 0.24549,0.105807 -5.3e-4,0.04393 0.002,-0.0066 0.002,-0.01934 5.3e-4,-0.04393 z m -0.006,0.09664 c 0.26194,0.151386 0.51783,0.315716 0.80047,0.421161 0.11543,0.04306 -0.16686,-0.183954 -0.26768,-0.254765 -0.008,-0.0054 -0.0163,-0.0095 -0.0243,-0.01447 -0.0585,-0.0016 -0.11948,-0.0013 -0.18552,-0.0021 -0.004,0 0.007,-0.0021 0.0114,-0.0026 0.0459,-0.006 0.0916,-0.02334 0.13746,-0.01707 -0.0717,-0.0374 -0.15077,-0.0628 -0.22428,-0.09715 -0.0591,-0.0092 -0.1948,-0.02442 -0.24753,-0.03307 z m 0.81959,0.201019 c 0.0682,0.03406 0.13642,0.06821 0.20464,0.10232 -0.0722,-0.04826 -0.13905,-0.07986 -0.20464,-0.10232 z m 0.51987,0.133843 c 0.0215,0.0098 0.0295,0.01423 0.0532,0.02479 0.0114,0.0051 -0.0207,-0.01471 -0.0326,-0.0186 -0.005,-0.0016 -0.0152,-0.0045 -0.0207,-0.0062 z m -4.26279,1.225767 c 1.4e-4,-8.5e-5 -9e-5,7.93e-4 0,0.0011 10e-5,-2.59e-4 5.3e-4,-0.0011 5.3e-4,-0.0011 z m 0,0.0011 c -2.6e-4,7.94e-4 -5.3e-4,0.0019 -0.002,0.0031 5.3e-4,7e-6 0.001,-5.3e-4 0.002,-5.3e-4 1.3e-4,-0.0019 -2.7e-4,-0.0021 -5.3e-4,-0.0026 z m -4.29793,0.05168 c -0.003,0.0052 -0.008,0.01233 -0.01,0.01654 -0.0152,0.03085 -0.0508,0.12722 -0.0351,0.09664 0.014,-0.0273 0.0295,-0.06825 0.045,-0.113173 z m -0.1602,1.928047 v 19.102194 h 11.65304 c -0.0676,-0.0134 -0.0937,-0.0266 -0.23203,-0.092 0.004,0.002 0.005,0.003 0.009,0.005 0.033,0.0171 -0.13509,-0.063 -0.10129,-0.0475 0.0376,0.0173 0.0654,0.0301 0.0925,0.0429 -0.0686,-0.0355 -0.11555,-0.0593 -0.15193,-0.0775 -0.0741,-0.0247 -0.16104,-0.054 -0.22944,-0.0842 -0.0876,-0.0296 -0.19703,-0.0899 -0.40928,-0.19689 -0.0337,-0.01 -0.0673,-0.0201 -0.10077,-0.0305 0.0112,0.01 0.0225,0.0195 0.0336,0.0294 0.0263,0.0236 -0.0399,-0.0185 -0.0847,-0.0455 -0.0318,-0.0108 -0.0636,-0.0225 -0.0946,-0.0357 -0.0873,-0.0372 -0.32696,-0.0956 -0.24546,-0.14418 0.0845,-0.0503 0.17163,0.0982 0.26303,0.13436 0.0232,0.009 0.0612,0.0232 0.0997,0.0367 -0.008,-0.007 -0.0168,-0.0145 -0.0253,-0.0217 -0.0413,-0.0202 -0.0841,-0.0413 -0.13178,-0.0641 -0.0486,-0.0233 -0.15599,-0.14631 -0.11059,-0.11731 0.085,0.0544 0.16521,0.11611 0.24237,0.18139 0.0295,0.0145 0.0562,0.0276 0.0827,0.0408 0.0475,0.0144 0.0797,0.0202 0.0532,-0.002 -0.28411,-0.23897 -0.58227,-0.468 -0.91002,-0.64233 -0.10295,-0.0547 0.14505,0.18258 0.21755,0.27388 -0.1569,-0.15628 -0.35006,-0.34827 -0.4625,-0.53795 -0.0593,-0.10009 -0.10927,-0.20534 -0.1602,-0.31006 -0.0342,-0.0367 -0.10566,-0.20659 -0.0791,-0.15658 0.0275,0.0517 0.0534,0.10391 0.0791,0.15658 0.003,0.003 0.006,0.006 0.008,0.007 0.14248,0.0471 0.27088,0.0749 0.38705,0.0873 -0.058,-0.0337 -0.14546,-0.0868 -0.21911,-0.13642 0.003,0.008 -0.0374,-0.0138 -0.0822,-0.0398 -0.0112,-0.004 -0.0118,-0.004 -0.0233,-0.008 -0.008,-0.006 -0.0241,-0.0176 -0.0382,-0.0274 -0.006,-0.003 -0.0157,-0.009 -0.0202,-0.0114 -0.14673,-0.0827 -0.2648,-0.16454 -0.38551,-0.27079 -0.005,-0.004 -0.01,-0.008 -0.015,-0.0114 -0.0156,-0.008 -0.0342,-0.017 -0.0455,-0.0217 -0.26752,-0.14763 -0.278,-0.17199 -0.51211,-0.33228 -0.0128,-0.009 -0.0193,-0.0135 -0.0336,-0.0233 0.004,0.002 0.008,0.004 0.0124,0.007 -0.0735,-0.0546 -0.14525,-0.11142 -0.21653,-0.16898 0.0219,0.145 -0.0506,0.002 -0.10128,-0.0816 -0.003,-0.003 -0.006,-0.005 -0.009,-0.008 -0.0205,-0.0126 -0.0422,-0.0257 -0.0579,-0.0367 -0.0205,-0.0144 -0.002,-0.005 0.0258,0.0108 -0.29591,-0.18105 -0.22633,-0.11833 -0.43254,-0.32401 -0.0469,-0.0573 -0.0958,-0.11318 -0.14056,-0.17208 -0.0257,-0.0337 -0.0668,-0.0633 -0.0708,-0.10542 -8e-4,-0.008 0.003,-0.006 0.008,-5.3e-4 -0.0419,-0.0617 -0.0756,-0.11204 -0.0982,-0.14366 -0.10559,-0.0629 -0.0736,-0.0378 -0.33228,-0.43615 -0.0107,-0.0393 -0.0208,-0.0789 -0.031,-0.11834 0.0237,0.0541 0.049,0.10667 0.0367,0.0734 -0.008,-0.0205 -0.0161,-0.0409 -0.0248,-0.061 -0.004,-0.006 -0.0101,-0.0181 -0.017,-0.0315 0.002,0.006 0.004,0.0124 0.005,0.0186 -0.008,-0.0188 -0.0162,-0.0365 -0.0217,-0.0512 0.006,0.0126 0.0119,0.0235 0.0165,0.0326 -0.001,-0.006 -0.003,-0.0115 -0.004,-0.017 -0.003,-0.006 -0.006,-0.0127 -0.009,-0.0191 l -0.006,-0.003 0.003,0.006 h -5.3e-4 l -0.003,-0.006 c -0.21282,-0.10414 -0.31058,-0.1694 -0.0362,-0.0853 -0.01,-0.0227 -0.0257,-0.0649 -0.0424,-0.10542 -0.0303,-0.0342 -0.0595,-0.0695 -0.0884,-0.1049 -0.0673,-0.0414 0.006,7.9e-4 -0.26768,-0.23875 0.009,0.0118 0.0178,0.0233 0.0264,0.0351 0.0147,0.0202 -0.0263,-0.0198 -0.0599,-0.0548 -0.10691,-0.0554 -0.19194,-0.11758 -0.31006,-0.19896 -0.0552,-0.0509 -0.22333,-0.16582 -0.21704,-0.17105 -0.073,-0.056 -0.14208,-0.11692 -0.21136,-0.19275 -0.0835,-0.0866 -0.082,-0.0836 -0.14573,-0.15451 -0.0318,-0.0357 -0.0381,-0.044 -0.0341,-0.0419 0.0161,0.007 0.0565,0.0412 0.045,0.0279 -0.15355,-0.17802 -0.31486,-0.34891 -0.47233,-0.52348 -0.0124,-0.0265 -0.0248,-0.0545 -0.0382,-0.0832 -0.0764,-0.11697 -0.109,-0.16027 -0.16898,-0.28215 -0.0162,-0.0329 -0.0312,-0.0664 -0.0465,-0.0997 -0.0414,-0.0502 -0.0686,-0.0836 -0.0915,-0.11368 -0.11911,-0.0504 -0.21469,-0.15267 -0.32402,-0.224798 0.15164,0.105828 -0.0531,-0.03517 -0.30024,-0.307475 -0.0813,-0.08959 -0.23021,-0.383897 -0.2558,-0.439766 -0.0219,-0.04775 -0.0377,-0.09033 -0.0512,-0.132292 -0.0632,-0.05414 -0.12663,-0.108413 -0.18913,-0.163298 -0.053,-0.102926 -0.10561,-0.20561 -0.15865,-0.308507 -0.0317,-0.06842 -0.0494,-0.09679 -0.0847,-0.170532 -2.6e-4,-7.94e-4 -0.001,-0.0021 -0.002,-0.0031 -0.0741,-0.07926 -0.1221,-0.142248 -0.21859,-0.312127 -0.003,-0.0056 -0.009,-0.01812 -0.0135,-0.02532 -0.007,-0.0072 -0.0148,-0.01455 -0.0222,-0.0217 0.005,0.0092 0.0111,0.01804 0.016,0.02739 0.0106,0.01995 -0.0588,-0.06878 -0.0424,-0.05323 0.009,0.0084 0.0175,0.01736 0.0264,0.02585 -0.0357,-0.06387 -0.0748,-0.125833 -0.11369,-0.188102 -0.0828,-0.01132 -0.10873,-0.09945 -0.11472,-0.208773 -0.002,-0.0042 -0.003,-0.0087 -0.005,-0.01291 -0.0564,-0.07157 -0.10879,-0.145177 -0.13952,-0.22996 -0.0408,-0.112419 -0.0587,-0.230788 -0.0718,-0.350367 -0.0584,-0.139157 -0.0384,-0.09455 -0.0909,-0.569473 -0.001,-0.01392 -2.1e-4,-0.02786 0.002,-0.04186 -0.005,-0.01913 -0.011,-0.03808 -0.0155,-0.05736 -0.004,-0.01643 0.008,0.02432 0.0165,0.04754 1.1e-4,-7.94e-4 0.001,-0.0013 0.001,-0.0021 -0.002,-0.0072 -0.003,-0.01394 -0.005,-0.02066 -0.004,-0.01381 -0.0105,-0.02725 -0.0155,-0.04082 -0.11823,-0.299048 -0.0973,-0.21632 -0.16433,-0.498678 -0.068,-0.102873 -0.0768,-0.14749 -0.12247,-0.342615 0.004,0.01675 0.008,0.03522 0.0119,0.04496 0.0176,0.05036 0.0419,0.09758 0.0692,0.143145 -0.0109,-0.03919 -0.0164,-0.06517 0,-0.03876 0.0525,0.08437 0.0884,0.145066 0.12299,0.204124 0.0139,0.01548 0.0278,0.03123 0.0424,0.04599 -0.0688,-0.137647 -0.1335,-0.277862 -0.20051,-0.416512 0.0381,0.04493 0.0776,0.08885 0.11421,0.134874 -0.13477,-0.353314 -0.27958,-0.703022 -0.40463,-1.059884 0.001,0.03921 0.003,0.07906 0.008,0.118856 0.0113,0.03323 0.0224,0.06923 0.0248,0.09043 0.001,0.01021 -0.001,0.01064 -0.004,0.0062 0.006,0.01828 0.0128,0.03639 0.0186,0.05478 -0.009,-0.01971 -0.0158,-0.0405 -0.0217,-0.06149 -0.0117,-0.0241 -0.0353,-0.09607 -0.0429,-0.127643 -0.006,-0.0265 -0.0109,-0.05344 -0.0165,-0.0801 -10e-4,0.06408 -0.0672,-0.329419 -0.0661,-0.334346 -2.3e-4,-5.29e-4 -2.5e-4,-0.0011 -5.3e-4,-0.0016 -0.0248,-0.05139 -0.0496,-0.102606 -0.0744,-0.153996 -0.023,-0.09431 -0.009,-0.03677 -0.0222,-0.0925 -0.0167,-0.02484 -0.0262,-0.04055 -0.0119,-0.02585 0.002,0.0026 0.005,0.0052 0.007,0.0078 -0.004,-0.01455 -0.004,-0.01566 -0.007,-0.02739 -0.10592,-0.159364 -0.1554,-0.229076 -0.19947,-0.435631 -0.003,-0.0061 -0.007,-0.01199 -0.01,-0.0181 -0.0296,-0.07046 -0.0675,-0.138292 -0.0858,-0.212389 -0.0143,-0.05821 0.0285,0.04513 0.0832,0.175181 -0.009,-0.04993 -0.0186,-0.106783 -0.0284,-0.174149 -0.002,-0.01167 -0.002,-0.01513 -0.002,-0.0186 -0.032,-0.05679 -0.0755,-0.12908 -0.12351,-0.20774 5.3e-4,0.0024 10e-4,0.004 -0.002,-0.0026 -0.0187,-0.03063 -0.0307,-0.05197 -0.0522,-0.0863 -0.0207,-0.03303 8e-4,0.02561 0.0227,0.08578 -0.0746,-0.190068 -0.0759,-0.179165 -0.1018,-0.295071 -0.0585,-0.112749 -0.12828,-0.237747 -0.0646,-0.191204 0.008,0.006 0.0197,0.02612 0.0326,0.05168 -0.003,-0.01302 -0.003,-0.01519 -0.007,-0.02998 0.003,0.01114 0.006,0.02241 0.009,0.03359 0.0282,0.05724 0.0632,0.14664 0.0946,0.23306 -0.0149,-0.0444 -0.0513,-0.155871 -0.0734,-0.222726 -0.0434,-0.08289 -0.0834,-0.161676 -0.10697,-0.213423 -0.009,-0.02061 -0.0154,-0.04244 -0.0196,-0.0646 -0.0414,-0.0821 -0.085,-0.163123 -0.1049,-0.252182 -0.038,-0.170244 -0.0608,-0.279834 -0.0698,-0.376203 -0.005,-0.01056 -0.0101,-0.02093 -0.014,-0.03152 -0.015,-0.03627 -0.0236,-0.07546 -0.0294,-0.114204 -0.0117,-0.0713 -0.0557,-0.213323 -0.0734,-0.302308 -0.0407,-0.128831 -0.0479,-0.257278 -0.0372,-0.451652 -2.6e-4,-0.0031 -0.002,-0.0123 -0.002,-0.0155 -0.032,-0.08448 -0.0634,-0.16895 -0.0879,-0.255797 -0.008,-0.02825 -0.0219,-0.07786 -0.0331,-0.123507 -0.0267,-0.06504 -0.0536,-0.130487 -0.0641,-0.198438 -0.006,-0.03745 -0.01,-0.07502 -0.0145,-0.112654 0.0127,0.03306 0.0262,0.0496 0.0403,0.03772 -0.0111,-0.03285 -0.0287,-0.06807 -0.0486,-0.10387 0.002,0.02143 0.006,0.04268 0.008,0.06408 -0.009,-0.02209 -0.0155,-0.05322 -0.0227,-0.08682 0.004,0.0072 0.009,0.01442 0.0129,0.0217 -0.0172,-0.157435 -0.0301,-0.315336 -0.0599,-0.470771 -0.0257,-0.134194 -7.9e-4,0.230283 0.0434,0.440799 -0.0493,-0.0837 -0.10713,-0.166394 -0.13333,-0.220142 -0.11505,-0.235992 -0.12159,-0.296063 -0.14676,-0.463536 -0.32317,-0.73306 -0.25866,-0.615344 -0.16743,-0.443902 -0.0508,-0.240951 -0.0912,-0.481545 -0.0832,-0.727605 8e-4,-0.07287 5.3e-4,-0.147182 0.004,-0.220657 -0.0221,-0.112863 -0.0325,-0.224181 -0.0315,-0.333314 -0.01,-0.01971 -0.0192,-0.03998 -0.0274,-0.05788 z m 8.01192,16.364374 c 0,0 5.3e-4,0 5.3e-4,0 0.0334,0.0273 0.0673,0.054 0.10077,0.0811 -10e-4,-0.009 -10e-4,-0.0124 -0.003,-0.0238 0.14132,0.0731 0.008,0.005 -0.0997,-0.0605 5.3e-4,5.3e-4 7.9e-4,0.002 0.002,0.003 0,0 0,5.3e-4 0,5.3e-4 z m 2.54661,2.25103 c -0.0176,-0.005 -0.0375,-0.0121 -0.0574,-0.0191 0.006,0.005 0.0114,0.01 0.017,0.0145 0.0302,0.01 0.0603,0.0201 0.0904,0.03 -0.0157,-0.008 -0.0334,-0.017 -0.0501,-0.0253 z m -9.96735,-17.249077 c 0.0195,0.06635 0.011,0.04615 0,0 z m -0.32091,0.208257 c -0.009,-0.04617 0.0127,0.093 0.0196,0.139525 0.007,0.02304 0.004,0.01214 0.009,0.02739 -0.007,-0.04784 -0.0151,-0.09655 -0.0284,-0.166912 z m 8.48889,0.62735 c -2.6e-4,0.01138 -5.3e-4,0.01492 -0.001,0.02687 0,0.0033 0.003,-0.0064 0.003,-0.0098 -5.3e-4,-0.0057 -0.002,-0.01138 -0.002,-0.01704 z m -8.15557,0.294556 c 1.8e-4,2.64e-4 2.4e-4,7.94e-4 5.2e-4,0.0011 -2e-5,-2.64e-4 3e-5,-7.94e-4 0,-0.0011 z m 0.18086,0.39584 c 0.002,0.02455 0.003,0.04924 0.005,0.0739 0.0177,0.115348 0.0234,0.148556 0.0357,0.171048 0.006,-0.04746 0.004,-0.03331 0.002,0.0036 0.005,0.0091 0.01,0.02058 0.0202,0.04444 -0.0124,-0.07371 -0.0249,-0.147431 -0.0372,-0.221176 -0.0123,-0.03558 -0.0117,-0.034 -0.0248,-0.07183 z m 0.1726,1.06557 c 0.002,0.02858 0.005,0.05659 0.0104,0.08371 5.2e-4,-0.01887 5.2e-4,-0.03854 0.003,-0.05839 -0.005,-0.0087 -0.009,-0.01693 -0.0129,-0.02532 z m 0.0372,0.07234 c 0.001,0.02342 0.003,0.04686 0.004,0.07028 0.0343,0.04108 0.0688,0.08202 0.10387,0.122473 -0.0351,-0.06205 -0.0806,-0.142406 -0.10801,-0.192754 z m 0.0982,0.28629 c -0.008,0.0036 -0.0121,0.02854 -0.009,0.08113 0.0138,0.03583 0.0274,0.07173 0.0413,0.107487 -0.013,-0.02796 -0.0261,-0.05586 -0.0393,-0.08372 0.005,0.06439 0.0165,0.157916 0.0382,0.294555 0.004,0.02109 0.0101,0.04102 0.0176,0.06098 -0.007,-0.04817 -0.009,-0.09785 -0.0165,-0.145728 0.078,0.240668 0.10215,0.311029 0.14624,0.444418 0.11113,0.212051 0.24618,0.448543 0.19844,0.311092 -0.0226,-0.06511 -0.3183,-1.095436 -0.37672,-1.070218 z m 0.0486,0.460436 c 1.4e-4,0.0011 2.6e-4,0.0021 5.3e-4,0.0031 h 5.3e-4 c -2.7e-4,-0.0011 -5.3e-4,-0.0021 -0.001,-0.0031 z m 0.001,0.0031 c 7.9e-4,0.0058 0.002,0.01183 0.003,0.01757 h -5.3e-4 c 0.016,0.03178 0.0319,0.06353 0.0455,0.09612 -0.0143,-0.03832 -0.0334,-0.07545 -0.0481,-0.113688 z m -0.0119,-0.262517 c 0.004,0.0082 0.008,0.01651 0.0114,0.02479 0.001,0.0026 -0.004,-0.0041 -0.005,-0.0067 -0.002,-0.006 -0.005,-0.01209 -0.007,-0.0181 z m 0.16743,0.719852 c 2.6e-4,0.0011 7.9e-4,0.0021 10e-4,0.0031 0.009,0.0272 0.0467,0.104452 0.0367,0.07752 -0.007,-0.02074 -0.0227,-0.05059 -0.0377,-0.08062 z m 0.0909,0.28267 c 0.004,0.0089 0.006,0.01556 0.0124,0.03101 0.003,0.0086 0.0109,0.03511 0.008,0.02635 -0.004,-0.01302 -0.0127,-0.03593 -0.0207,-0.05736 z m 0.15555,0.200507 c 0.0165,0.05416 0.0544,0.213402 0.0806,0.313674 0.0108,0.02471 0.0191,0.04531 0.03,0.06925 -0.008,-0.01654 -0.0164,-0.03315 -0.0248,-0.04961 0.002,0.0075 0.005,0.02215 0.007,0.02842 0.0181,0.03252 0.0596,0.109995 0.0579,0.10387 -0.0106,-0.02154 -0.021,-0.04164 -0.032,-0.06563 0.0119,0.02392 0.0243,0.04764 0.0357,0.07183 0.0204,0.04135 0.04,0.08083 0.0563,0.104902 -0.0417,-0.13009 -0.0973,-0.28983 -0.0682,-0.259413 -0.005,-0.03137 -0.0218,-0.101058 -0.14262,-0.317294 z m 0.19275,0.391708 c 0.0233,0.03577 0.0469,0.0715 0.0667,0.102835 -0.002,-0.01542 -0.002,-0.02748 -0.005,-0.04651 -0.028,-0.02529 -0.0467,-0.04218 -0.062,-0.05633 z m 8.11423,0.031 c -0.008,-0.01511 0.007,0.01532 0.0227,0.04599 -9e-5,-7.94e-4 8e-5,-0.0013 0,-0.0021 -0.006,-0.01257 -0.005,-0.01082 -0.0103,-0.02119 -0.007,-0.01228 -0.005,-0.0094 -0.0124,-0.02273 z m -8.00674,0.04341 c 1.2e-4,8.2e-5 2.6e-4,0.0013 5.3e-4,0.0016 1.1e-4,1.6e-5 -1.2e-4,-0.0016 0,-0.0016 z m 5.3e-4,0.0016 c -0.004,-5.29e-4 -0.004,0.04066 -0.002,0.09147 0.0101,0.0164 0.0189,0.03093 0.0279,0.04599 -0.007,-0.03955 -0.011,-0.06653 -0.0196,-0.113173 -0.003,-0.0154 -0.004,-0.02225 -0.006,-0.02429 z m -0.0594,0.212905 c 5.3e-4,0.0016 0.002,0.0042 0.002,0.0031 -1.2e-4,-5.29e-4 -2.5e-4,-0.0016 -5.3e-4,-0.0021 -2.7e-4,-5.29e-4 -8e-4,-7.94e-4 -0.001,-0.0011 z m -5.3e-4,0.01707 c 0.002,0.0096 0.002,0.0071 0.005,0.0181 0.0202,0.03005 0.049,0.07074 0.0754,0.105937 -8e-4,-0.0069 -0.002,-0.01283 -0.003,-0.02016 -0.0123,-0.01987 -0.0255,-0.04194 -0.0367,-0.05943 -0.0136,-0.01482 -0.0269,-0.02992 -0.0408,-0.04444 z m 0.0775,0.103867 c 0.0131,0.02101 0.0248,0.03845 0.0393,0.06253 0.0133,0.02225 -0.009,-0.0056 -0.0367,-0.04237 0.003,0.0241 0.006,0.05341 0.0103,0.07028 0.0105,0.05262 0.0302,0.102351 0.0527,0.151413 0.002,-0.02928 -0.004,-0.09777 -0.0191,-0.208256 -0.0161,-0.01876 -0.0326,-0.03734 -0.0491,-0.05581 8e-4,0.0085 0.002,0.01416 0.003,0.02223 z m 0.0646,0.09664 c -0.009,-0.0052 0.0702,0.07136 0.17053,0.170531 -0.001,-0.0046 -0.002,-0.0093 -0.003,-0.01394 -0.0341,-0.04066 -0.0688,-0.08116 -0.10284,-0.121954 -0.0244,-0.0059 -0.0567,-0.02994 -0.0646,-0.03462 z m -0.0403,0.06563 c 0.007,0.03392 0.0134,0.06777 0.0196,0.101802 0.004,0.0016 0.0174,0.02101 0.0212,-0.01757 -0.0136,-0.02812 -0.0273,-0.05611 -0.0408,-0.08423 z m 0.0212,0.112136 c 0.0137,0.07436 0.0293,0.148281 0.045,0.222211 2.6e-4,-0.01405 -0.003,-0.04977 -0.0109,-0.120923 -0.0258,-0.07522 -0.0324,-0.09323 -0.0341,-0.101288 z m 0.0677,0.0708 c 0.004,0.01021 0.0101,0.02016 0.0139,0.03049 0.002,0.0042 -0.003,-0.0083 -0.005,-0.01241 -0.003,-0.006 -0.006,-0.01204 -0.009,-0.0181 z m 0.0315,0.340548 c 0.002,0.0063 0.003,0.01241 0.005,0.0186 0.001,0.0021 0.002,0.0054 0.003,0.0067 -0.003,-0.0084 -0.005,-0.01691 -0.008,-0.02532 z m 0.0817,0.381373 c 10e-4,5.29e-4 0.004,0.0039 0.008,0.01085 0.0651,0.11063 0.12289,0.225444 0.1788,0.341067 -0.0249,-0.02947 -0.0486,-0.05995 -0.0713,-0.09095 0.007,0.02788 0.0104,0.04315 0.0145,0.06098 -0.006,-0.02315 -0.0133,-0.05103 -0.0155,-0.06253 -0.0139,-0.0191 -0.0279,-0.03822 -0.0403,-0.0584 -0.0174,-0.02844 -0.0408,-0.08615 -0.062,-0.143661 0.004,0.01461 0.008,0.02665 0.0134,0.04341 0.0145,0.0439 0.0192,0.05772 0.0424,0.129191 0.002,0.0067 -0.007,-0.01228 -0.009,-0.01913 -0.007,-0.02484 -0.0209,-0.0696 -0.0336,-0.110069 -0.011,-0.0334 -0.0257,-0.07833 -0.0326,-0.09819 0.006,0.01815 0.0114,0.03386 0.0191,0.05478 -0.01,-0.03315 -0.0161,-0.05855 -0.0119,-0.05736 z m 6.88795,0.349332 c -0.004,0.05456 -0.0123,0.112599 -0.0181,0.168982 0.0204,0.0021 0.0407,0.004 0.0605,0.0057 -0.0121,-0.05884 -0.0245,-0.11757 -0.0424,-0.174667 z m -6.61975,0.36897 c 0.003,0.0105 0.007,0.02154 0.006,0.01601 -5.3e-4,-0.0031 -0.003,-0.0089 -0.004,-0.01241 -7.9e-4,-0.0011 -0.001,-0.0024 -0.002,-0.0036 z m 0.16484,0.272335 c -0.008,-0.0065 0,0.0021 0.0501,0.05994 -0.0105,-0.01688 -0.0172,-0.02643 -0.0269,-0.04186 -0.01,-0.0069 -0.0188,-0.0145 -0.0233,-0.0181 z m 0.0496,0.424781 c 0.002,0.0081 0.003,0.01619 0.005,0.02429 10e-4,0.0043 -0.001,-0.0086 -0.002,-0.01291 -0.001,-0.0038 -0.002,-0.0076 -0.003,-0.01138 z m 0.0233,0.190169 c -5.3e-4,0.02119 -5.3e-4,0.04236 -0.002,0.06356 0.007,0.03545 0.014,0.07086 0.0207,0.106453 -0.005,-0.05693 -0.0122,-0.113575 -0.0191,-0.170014 z m 0.0599,0.362768 c 0.001,0.0058 0.002,0.0118 0.004,0.01757 0.006,0.02506 0.033,0.08321 0.0413,0.0987 1.2e-4,-7.93e-4 2.5e-4,-0.0013 5.3e-4,-0.0021 v -5.3e-4 c -0.0217,-0.05695 -0.0312,-0.07887 -0.0455,-0.113688 z m 10.83965,0.05116 c -5.3e-4,0.0042 -0.001,0.0093 -0.002,0.01344 0.0404,0.10531 0.0815,0.210553 0.12919,0.312643 0.0287,0.0614 -0.0312,-0.190138 -0.0439,-0.198438 0.0427,0.128746 0.0257,0.07354 -0.0832,-0.12764 z m -10.65309,0.463536 c 1.1e-4,0.0024 2.4e-4,0.0044 5.3e-4,0.0067 0.032,0.07248 0.0725,0.141062 0.11472,0.208775 0.0126,0.0019 0.0259,0.0021 0.0413,0 l -0.0506,-0.06563 c 0.0165,0.01765 0.0627,0.07351 0.0496,0.05323 -0.0459,-0.07094 -0.10249,-0.136131 -0.15555,-0.203089 z m 0.30592,0.478007 c 0.008,0.01545 0.0152,0.03115 0.0238,0.04599 0.019,0.03273 0.0558,0.0529 0.0956,0.0708 -0.0395,-0.03917 -0.0796,-0.07794 -0.11937,-0.11679 z m 12.11502,0.876433 c -0.001,-7.94e-4 2.1e-4,0.0016 0.004,0.0083 0.004,0.0068 0.0101,0.01524 0.0145,0.02223 -0.005,-0.0087 -0.009,-0.01506 -0.0139,-0.02479 -0.002,-0.0019 -0.004,-0.0053 -0.005,-0.0057 z m 0.0382,0.05168 c 0.003,0.0067 0.005,0.01349 0.008,0.02016 0.001,0.0027 4e-5,0.0016 5.2e-4,0.0031 0.0298,0.04587 0.0606,0.09416 0.0946,0.145727 h 5.3e-4 c -0.007,-0.01733 -0.0145,-0.03443 -0.0217,-0.05168 -0.032,-0.04618 -0.0602,-0.08752 -0.0817,-0.117305 z m 0.10336,0.168981 c 0.0153,0.03799 0.0307,0.07591 0.0465,0.113689 0.0433,0.05375 0.069,0.08387 0.0904,0.108003 -0.0421,-0.07623 -0.0898,-0.150175 -0.13694,-0.221692 z m -11.59568,-0.125058 c 0.005,0.009 0.01,0.0181 0.015,0.02687 0.0446,0.07317 0.10821,0.130905 0.17931,0.176733 0.0294,0.01897 0.11747,0.07572 0.092,0.05168 -0.0929,-0.0878 -0.18932,-0.171942 -0.28629,-0.255284 z m 11.8923,0.849046 c 0.009,0.05309 0.0183,0.106369 0.0289,0.159159 -0.004,-0.0382 -5.3e-4,-0.0778 -0.0109,-0.11472 -0.004,-0.01484 -0.0109,-0.02959 -0.0181,-0.04444 z m -10.86911,0.390669 c 0.0407,0.0634 0.0813,0.12676 0.12196,0.19017 l 5.3e-4,5.3e-4 c 0.0219,0.0192 0.0801,0.0807 0.0636,0.0574 -0.0797,-0.112 -0.13723,-0.18653 -0.18603,-0.24804 z m 1.27073,1.28675 c -0.002,-10e-4 0.0138,0.0201 0.0315,0.0434 0.003,0.001 0.006,0.002 0.0103,0.004 -0.009,-0.0101 -0.0171,-0.0205 -0.0258,-0.0305 -0.01,-0.0111 -0.0143,-0.0162 -0.0155,-0.0171 z m 0.23978,0.32659 c 0.002,0.004 0.018,0.0211 0.0367,0.0408 0.008,0.004 0.017,0.009 0.0258,0.0129 -0.0203,-0.0177 -0.0345,-0.0306 -0.0589,-0.0517 -0.003,-0.002 -0.002,-0.002 -0.003,-0.002 z m 0.063,0.0537 c 0.003,0.002 0.005,0.004 0.008,0.007 -0.001,-0.002 -0.002,-0.003 -0.004,-0.005 -0.001,-8e-4 -0.003,-0.001 -0.004,-0.002 z m 0.40566,0.39584 c 0.007,0.0258 0.007,0.0306 0.0139,0.0574 0.001,0.003 0.003,0.006 0.004,0.009 l 0.009,0.003 c -0.005,-0.0199 -0.0115,-0.0396 -0.017,-0.0594 z m 8.1871,0.75138 c -3e-5,0.004 -5.3e-4,0.007 -5.3e-4,0.0109 0.001,-2.6e-4 0.003,-5.3e-4 0.004,-0.001 0.0214,-0.006 0.0144,-0.009 -0.004,-0.01 z m -7.51944,0.21704 c 0.0105,0.008 0.12716,0.0764 0.16123,0.0915 -0.0583,-0.0355 -0.11702,-0.0716 -0.15451,-0.0894 -0.007,-0.003 -0.009,-0.004 -0.007,-0.002 z m 8.8129,1.65365 c 0.0161,0.003 -0.72068,0.7255 -0.48472,0.41031 0.0255,-0.0139 0.0502,-0.0292 0.0723,-0.0455 0.1435,-0.10555 0.25997,-0.24347 0.39843,-0.35553 0.008,-0.007 0.0129,-0.01 0.0139,-0.009 z m -0.59996,0.29093 c 0.003,-0.006 -0.0437,0.0193 -0.17829,0.1018 0.0236,-0.006 0.0473,-0.0115 0.0708,-0.0176 0.055,-0.0408 0.10466,-0.0779 0.10749,-0.0842 z m -5.08651,0.86403 c -0.004,0.002 0.046,0.0426 0.0879,0.0661 0.0226,0.007 0.0451,0.0148 0.0677,0.0222 -0.0485,-0.0291 -0.0969,-0.058 -0.14676,-0.0847 -0.005,-0.003 -0.008,-0.004 -0.009,-0.004 z m 0.15554,0.0884 c -0.02,-0.006 -0.0403,-0.0121 -0.0605,-0.0181 0.0106,0.006 0.0206,0.0101 0.0284,0.0119 0.0118,0.003 0.023,0.005 0.0346,0.007 -8e-4,-5.3e-4 -0.002,-5.3e-4 -0.003,-0.001 z m 3.32693,-0.0734 c -0.0885,0.0202 -0.17659,0.0406 -0.26406,0.0646 -0.0664,0.0182 0.13637,-0.0219 0.20257,-0.0408 0.0212,-0.006 0.0414,-0.0146 0.0615,-0.0238 z" />
    </clipPath>
  </defs>
  <g
     inkscape:label="Warstwa 1"
     inkscape:groupmode="layer"
     id="layer1">
    <g
       id="g148076"
       transform="matrix(0.84796259,0,0,0.84796259,-0.11413233,-9.7861411)"
       inkscape:export-filename="E:\V-rok\magisterka\implementation\Animation\graphics\objects\saw.png"
       inkscape:export-xdpi="50"
       inkscape:export-ydpi="50">
      <path
         style="fill:url(#linearGradient142181);fill-opacity:1;stroke:none;stroke-width:0.264583px;stroke-linecap:butt;stroke-linejoin:miter;stroke-opacity:1"
         d="m 42.979326,90.956248 0.999519,-8.995672 87.529325,-1.285097 -0.28558,15.278367 13.27933,12.708174 -1.85625,2.57019 -1.2494,-0.17848 -0.85673,-1.35649 -1.28509,0.85672 -1.21371,-1.24939 -0.85673,0.89242 -0.85673,-1.178 -0.82103,0.82103 -0.92813,-1.35649 -1.178,0.78534 -0.89243,-1.2494 -1.03521,0.85673 -0.92813,-1.10661 -1.07091,0.74964 -0.89243,-1.2137 -1.17801,0.64255 -0.99952,-1.14231 -1.2137,0.74964 -0.74964,-0.99952 -1.03521,0.67824 -0.96383,-1.10661 -1.57067,0.85673 -0.92812,-1.53497 -1.03522,0.96382 -0.53546,-1.03522 -1.39218,0.74964 -0.78534,-1.35649 -1.35649,0.74964 -0.71394,-1.10661 -1.2137,0.78534 -0.64255,-1.17801 -1.42789,0.85673 -0.60685,-1.35649 -1.35649,0.85673 -0.82103,-1.28509 -1.17801,0.64255 -0.78534,-1.03522 -1.1423,0.99952 -0.82104,-1.39219 -1.46358,0.67825 -0.92812,-1.17801 -1.17801,0.82104 -0.856728,-1.21371 -1.070914,0.78534 -0.749639,-1.07091 -1.178004,0.82103 -1.035217,-1.39219 -1.35649,0.85673 -0.535458,-1.03521 -1.213702,0.71394 -0.928124,-1.320793 -1.35649,0.642553 -0.856731,-1.178011 -1.35649,0.892431 -0.642548,-1.178007 -1.142307,0.856732 -0.642548,-1.427885 -1.570673,0.928124 -0.856731,-1.463583 -0.963822,0.749642 -0.821034,-0.963824 -0.856731,1.070914 -0.928127,-1.427885 -1.356489,0.678246 -0.999519,-1.178004 -0.99952,0.642546 -0.642548,-0.749639 -1.142307,0.785336 -1.178004,-1.213702 -1.427885,0.428366 -0.963821,-1.070914 -1.070915,0.749641 -0.606851,-0.892429 -0.999519,0.642549 -0.892429,-1.106612 -1.356489,0.606851 -0.928124,-1.142307 -1.2494,0.856731 -0.499761,-0.999519 -1.499277,0.749639 -0.821034,-1.035217 -0.821034,0.642549 -1.285097,-1.392187 -1.106609,0.856731 -0.678246,-0.963824 -1.320792,0.571156 -0.535459,-1.178007 -1.60637,0.713944 -0.749638,-1.178005 -1.142307,0.785337 -0.963824,-1.213702 -1.213702,0.678246 -1.035214,-1.106612 -1.178007,0.713941 -0.963822,-1.070912 -0.856731,0.713941 -0.963822,-0.821033 -1.178004,0.642548 z"
         id="path142173"
         clip-path="url(#clipPath147739)"
         transform="matrix(0.74746186,0,0,0.74746186,-31.990811,-47.800515)" />
      <path
         style="fill:#9f6334;fill-opacity:1;stroke:none;stroke-width:0.264583px;stroke-linecap:butt;stroke-linejoin:miter;stroke-opacity:1"
         d="M 130.81155,80.389904 V 97.23894 l 16.27789,14.13606 21.13269,-4.42644 0.85673,-1.2851 c 0,0 -3.42545,-1.48153 -4.28365,-2.99856 -0.24356,-0.43054 -4.82162,-19.031419 -4.71202,-20.275958 0.0829,-0.941113 2.14182,-1.856251 2.14182,-1.856251 l -1.28509,-1.142306 z"
         id="path142235"
         sodipodi:nodetypes="cccccssccc"
         clip-path="url(#clipPath147771)"
         transform="matrix(0.74746186,0,0,0.74746186,-31.990811,-47.800515)" />
    </g>
  </g>
</svg>
