<?xml version="1.0" encoding="UTF-8" standalone="no"?>
<!-- Created with Inkscape (http://www.inkscape.org/) -->

<svg
   width="147.679mm"
   height="86.217mm"
   viewBox="0 0 147.679 86.217"
   version="1.1"
   id="svg17430"
   inkscape:version="1.1.1 (3bf5ae0d25, 2021-09-20)"
   sodipodi:docname="sheep_pelt.svg"
   inkscape:export-filename="E:\V-rok\magisterka\implementation\Animation\graphics\objects\sheep_pelt.png"
   inkscape:export-xdpi="80"
   inkscape:export-ydpi="80"
   xmlns:inkscape="http://www.inkscape.org/namespaces/inkscape"
   xmlns:sodipodi="http://sodipodi.sourceforge.net/DTD/sodipodi-0.dtd"
   xmlns="http://www.w3.org/2000/svg"
   xmlns:svg="http://www.w3.org/2000/svg">
  <sodipodi:namedview
     id="namedview17432"
     pagecolor="#505050"
     bordercolor="#eeeeee"
     borderopacity="1"
     inkscape:pageshadow="0"
     inkscape:pageopacity="0"
     inkscape:pagecheckerboard="0"
     inkscape:document-units="mm"
     showgrid="false"
     inkscape:zoom="0.9264871"
     inkscape:cx="246.63053"
     inkscape:cy="194.82192"
     inkscape:window-width="1366"
     inkscape:window-height="705"
     inkscape:window-x="-8"
     inkscape:window-y="-8"
     inkscape:window-maximized="1"
     inkscape:current-layer="layer1" />
  <defs
     id="defs17427" />
  <g
     inkscape:label="Warstwa 1"
     inkscape:groupmode="layer"
     id="layer1">
    <path
       style="fill:#ececec;stroke:none;stroke-width:0.541626px;stroke-linecap:butt;stroke-linejoin:miter;stroke-opacity:1"
       d="M 1.1875143,22.953753 0,35.27695 c 0,0 16.066764,-2.112047 21.457257,4.688066 5.390494,6.800106 -9.280115,18.598436 -9.280115,18.598436 l 14.775327,10.714045 c 0,0 7.27569,-12.187582 22.16945,-11.911962 14.893759,0.275615 2.55465,17.234143 16.245603,16.753216 13.690941,-0.480925 17.981767,-17.955536 26.98069,-8.88579 8.998928,9.069747 22.868718,27.454083 31.480948,18.664359 8.61224,-8.78973 -8.56871,-21.016872 -0.96594,-21.633405 7.60278,-0.616543 18.2312,6.923189 21.79845,-5.184059 2.56037,-8.689858 -20.4772,-4.49783 -15.99303,-13.042701 7.63238,-14.544013 26.05625,-13.10799 16.15539,-15.69469 -19.45031,-5.08159 -25.68886,7.567333 -34.07873,5.415733 C 91.613442,28.851803 95.28344,15.140252 85.062902,13.342487 70.580871,10.795138 66.168376,25.762018 54.124928,23.290893 45.818465,21.586541 39.230381,0 39.230381,0 l -15.45771,9.030192 c 0,0 9.793284,6.870114 6.860771,12.839282 -4.425004,9.007164 -29.4459277,1.084279 -29.4459277,1.084279 z"
       id="path19104"
       sodipodi:nodetypes="ccsccsssssssssssccsc"
       inkscape:export-filename="E:\V-rok\magisterka\implementation\Animation\graphics\objects\sheep_pelt.png"
       inkscape:export-xdpi="50"
       inkscape:export-ydpi="50" />
  </g>
</svg>
