<?xml version="1.0" encoding="UTF-8" standalone="no"?>
<!-- Created with Inkscape (http://www.inkscape.org/) -->

<svg
   width="114.945mm"
   height="102.808mm"
   viewBox="0 0 114.945 102.808"
   version="1.1"
   id="svg25290"
   inkscape:version="1.1.1 (3bf5ae0d25, 2021-09-20)"
   sodipodi:docname="treasure.svg"
   xmlns:inkscape="http://www.inkscape.org/namespaces/inkscape"
   xmlns:sodipodi="http://sodipodi.sourceforge.net/DTD/sodipodi-0.dtd"
   xmlns="http://www.w3.org/2000/svg"
   xmlns:svg="http://www.w3.org/2000/svg">
  <sodipodi:namedview
     id="namedview25292"
     pagecolor="#505050"
     bordercolor="#eeeeee"
     borderopacity="1"
     inkscape:pageshadow="0"
     inkscape:pageopacity="0"
     inkscape:pagecheckerboard="0"
     inkscape:document-units="mm"
     showgrid="false"
     inkscape:zoom="0.65512531"
     inkscape:cx="453.34838"
     inkscape:cy="148.82649"
     inkscape:window-width="1366"
     inkscape:window-height="705"
     inkscape:window-x="-8"
     inkscape:window-y="-8"
     inkscape:window-maximized="1"
     inkscape:current-layer="layer1" />
  <defs
     id="defs25287" />
  <g
     inkscape:label="Warstwa 1"
     inkscape:groupmode="layer"
     id="layer1">
    <g
       id="g23722"
       inkscape:export-filename="E:\V-rok\magisterka\implementation\Animation\graphics\objects\treasure.png"
       inkscape:export-xdpi="50"
       inkscape:export-ydpi="50">
      <rect
         style="fill:#431b00;fill-opacity:1;stroke:none;stroke-width:0.465;stroke-linecap:round;stroke-linejoin:round;stroke-opacity:0.830116"
         id="rect31966"
         width="114.51634"
         height="37.125004"
         x="0.14278789"
         y="-6.4627687e-07" />
      <path
         style="fill:#f5d205;fill-opacity:1;stroke:none;stroke-width:0.264583px;stroke-linecap:butt;stroke-linejoin:miter;stroke-opacity:1"
         d="m 0.1427878,37.125003 c 0,0 0.7968422,-4.791274 2.5964319,-6.044076 2.1573047,-1.501828 5.6606628,1.011894 7.8754023,-0.403868 1.217694,-0.778405 0.766498,-3.116251 2.019334,-3.836733 2.74495,-1.578569 6.748133,-1.178548 9.490868,0.403868 0.760182,0.438586 0.625446,1.835065 1.413533,2.221267 2.610294,1.279173 6.347414,0.922677 8.683136,-0.807734 1.2856,-0.952432 0.529541,-3.493157 1.817399,-4.442534 1.849298,-1.363257 5.848911,0.734951 7.875404,1.817401 2.099118,1.121242 0.344271,2.678487 2.423201,3.836732 2.237532,1.246607 5.416549,0.807292 7.673467,-0.403865 2.289416,-1.228597 2.359575,-2.680154 4.846399,-3.432869 2.669545,-0.80802 5.839414,-2.101333 7.67347,10e-7 1.493133,1.710728 2.061756,4.23798 3.836733,5.654134 3.525696,2.812954 7.365396,3.327375 11.106337,0.807734 1.576111,-1.06156 0.684281,-4.13281 2.221267,-5.250267 2.513822,-1.82766 6.593059,-2.354306 9.288936,-0.807734 1.227489,0.704186 0.628925,3.06853 1.817399,3.836734 2.9401,1.900418 7.495725,-1.594416 10.500535,0.201933 1.06059,0.634048 0.71029,2.682141 1.8174,3.230935 2.19194,1.086541 5.0991,-2.138433 7.2696,-1.009668 1.47173,0.765369 2.27009,4.428609 2.27009,4.428609 l -2.67395,4.658394 -108.6401602,0.605798 z"
         id="path26706"
         sodipodi:nodetypes="csssssssssssssssssssscccc" />
      <rect
         style="fill:#703610;fill-opacity:1;stroke:none;stroke-width:0.465;stroke-linecap:round;stroke-linejoin:round;stroke-opacity:0.830116"
         id="rect25373"
         width="114.51634"
         height="65.682693"
         x="0.14278789"
         y="37.125004" />
      <rect
         style="fill:#552200;fill-opacity:0.571429;stroke:none;stroke-width:0.465;stroke-linecap:round;stroke-linejoin:round;stroke-opacity:0.830116"
         id="rect30828"
         width="114.51634"
         height="11.994231"
         x="0.42836472"
         y="49.975964" />
      <rect
         style="fill:#552200;fill-opacity:0.571429;stroke:none;stroke-width:0.465;stroke-linecap:round;stroke-linejoin:round;stroke-opacity:0.830116"
         id="rect30828-3"
         width="114.51634"
         height="11.994231"
         x="-3.7521364e-08"
         y="75.963455" />
      <rect
         style="fill:#552200;fill-opacity:1;stroke:none;stroke-width:0.465;stroke-linecap:round;stroke-linejoin:round;stroke-opacity:0.830116"
         id="rect30680"
         width="6.8538446"
         height="65.682693"
         x="9.28125"
         y="37.125004" />
      <rect
         style="fill:#552200;fill-opacity:1;stroke:none;stroke-width:0.465;stroke-linecap:round;stroke-linejoin:round;stroke-opacity:0.830116"
         id="rect30680-0"
         width="6.8538446"
         height="65.682693"
         x="95.239906"
         y="37.125" />
      <path
         style="fill:#514425;fill-opacity:1;stroke:none;stroke-width:0.264583px;stroke-linecap:butt;stroke-linejoin:miter;stroke-opacity:1"
         d="m 54.116826,42.979328 c 0,0 -2.234231,2.050888 -2.712979,3.426923 -0.844561,2.427468 -0.840106,5.281561 0,7.710575 0.553987,1.601755 3.141345,3.998079 3.141345,3.998079 0,0 2.838209,-2.028884 3.426923,-3.569714 0.96889,-2.535858 0.822435,-5.660709 -0.285578,-8.13894 -0.673247,-1.505814 -3.569711,-3.426923 -3.569711,-3.426923 z"
         id="path20505"
         sodipodi:nodetypes="csscssc" />
      <circle
         style="opacity:1;fill:#000000;fill-opacity:1;stroke:none;stroke-width:0.411049;stroke-linecap:round;stroke-linejoin:round"
         id="path22718"
         cx="54.821846"
         cy="49.217396"
         r="0.77641225" />
      <path
         style="fill:#000000;fill-opacity:1;stroke:none;stroke-width:0.264583px;stroke-linecap:butt;stroke-linejoin:miter;stroke-opacity:1"
         d="m 54.616587,49.815325 -0.374819,1.981189 h 1.178004 l -0.464063,-1.999038 z"
         id="path23185" />
    </g>
  </g>
</svg>
