<?xml version="1.0" encoding="UTF-8" standalone="no"?>
<svg
   sodipodi:docname="common_man_head.svg"
   inkscape:version="1.1.1 (3bf5ae0d25, 2021-09-20)"
   id="svg8"
   version="1.1"
   viewBox="0 0 39.73363 48.634574"
   height="48.634575mm"
   width="39.733631mm"
   inkscape:export-filename="C:\Users\260862\Desktop\bartender.png"
   inkscape:export-xdpi="241.905"
   inkscape:export-ydpi="241.905"
   xmlns:inkscape="http://www.inkscape.org/namespaces/inkscape"
   xmlns:sodipodi="http://sodipodi.sourceforge.net/DTD/sodipodi-0.dtd"
   xmlns="http://www.w3.org/2000/svg"
   xmlns:svg="http://www.w3.org/2000/svg"
   xmlns:rdf="http://www.w3.org/1999/02/22-rdf-syntax-ns#"
   xmlns:cc="http://creativecommons.org/ns#"
   xmlns:dc="http://purl.org/dc/elements/1.1/">
  <defs
     id="defs2">
    <clipPath
       id="clipPath4045"
       clipPathUnits="userSpaceOnUse">
      <path
         sodipodi:nodetypes="cccccc"
         id="path4047"
         d="M 87.197134,57.598109 C 88.69643,71.309833 86.336415,84.020996 68.797741,92.79695 L 14.399527,175.72756 -18.399396,142.39532 27.465763,50.665004 Z"
         style="fill:none;stroke:#000000;stroke-width:0.264583px;stroke-linecap:butt;stroke-linejoin:miter;stroke-opacity:1" />
    </clipPath>
  </defs>
  <sodipodi:namedview
     inkscape:window-maximized="0"
     inkscape:window-y="0"
     inkscape:window-x="507"
     inkscape:window-height="696"
     inkscape:window-width="857"
     inkscape:snap-global="false"
     inkscape:object-nodes="true"
     inkscape:snap-others="true"
     showgrid="false"
     inkscape:document-rotation="0"
     inkscape:current-layer="layer3"
     inkscape:document-units="mm"
     inkscape:cy="65.504337"
     inkscape:cx="79.424009"
     inkscape:zoom="0.61064659"
     inkscape:pageshadow="2"
     inkscape:pageopacity="0.0"
     borderopacity="1.0"
     bordercolor="#666666"
     pagecolor="#ffffff"
     id="base"
     showguides="true"
     inkscape:guide-bbox="true"
     inkscape:pagecheckerboard="0" />
  <g
     inkscape:label="glowa"
     id="layer3"
     inkscape:groupmode="layer">
    <g
       id="g24"
       transform="translate(-91.319917,4.7964615)">
      <path
         sodipodi:nodetypes="cccccc"
         id="path899-9"
         d="m 95.140701,12.570488 c -2.013979,9.856076 -2.652934,18.727356 -1.891088,29.268097 2.278677,9.023361 7.953027,6.182352 14.209057,8.999528 8.97933,-3.245324 15.22215,-2.173159 17.10283,-9.739895 0.62892,-10.2982 1.09929,-17.620899 -0.85114,-27.731738 C 103.31246,2.0499891 107.39875,6.742778 95.140701,12.570488 Z"
         style="fill:#f8b68a;fill-opacity:1;stroke:none;stroke-width:0.290215px;stroke-linecap:butt;stroke-linejoin:miter;stroke-opacity:1" />
      <path
         sodipodi:nodetypes="ccccccc"
         d="m 120.28836,40.67666 -0.39238,-4.29105 c -2.96424,-0.1907 -6.86392,-2.495072 -11.36342,-2.831243 -6.30633,0.709706 -8.42775,2.371638 -11.728007,2.480331 l -0.06393,4.061307 c 2.871626,-1.396394 7.393447,-1.324334 11.749017,-3.928975 4.77446,2.746836 8.43604,2.710834 11.79872,4.50963 z"
         style="fill:#6a360b;fill-opacity:1;stroke:none;stroke-width:0.290215px;stroke-linecap:butt;stroke-linejoin:miter;stroke-opacity:1"
         id="path901-8" />
      <path
         sodipodi:nodetypes="cscsscccccccc"
         id="path906-1"
         d="m 92.569162,9.0568623 c -1.552235,2.0505407 -3.32833,4.7345317 -3.099131,9.6537277 0.232996,5.00067 2.390659,8.406561 2.553421,9.593304 3.293625,-3.679191 1.167531,-8.176895 8.933548,-15.403647 1.47542,-1.372964 18.37854,0.1049 18.37854,0.1049 3.07454,2.146595 1.08713,6.283015 6.09021,10.873852 0.1657,-0.6861 1.33334,1.959503 2.47962,4.235132 1.05056,-1.913713 1.5913,-7.047156 1.08791,-10.343216 -0.0622,-0.380575 -3.69696,-7.61403 -3.707,-8.0592214 -2.26311,-2.0891117 -5.1663,-5.9867965 -13.27993,-7.4369314 -2.63365,-0.3547155 -9.98041,0.730847 -9.98041,0.730847 L 95.441579,6.384453 Z"
         style="fill:#6a360b;fill-opacity:1;stroke:none;stroke-width:0.321006px;stroke-linecap:butt;stroke-linejoin:miter;stroke-opacity:1" />
    </g>
  </g>
  <metadata
     id="metadata5">
    <rdf:RDF>
      <cc:Work
         rdf:about="">
        <dc:format>image/svg+xml</dc:format>
        <dc:type
           rdf:resource="http://purl.org/dc/dcmitype/StillImage" />
        <dc:title />
      </cc:Work>
    </rdf:RDF>
  </metadata>
</svg>
