<?xml version="1.0" encoding="ISO-8859-1" standalone="no"?><svg xmlns="http://www.w3.org/2000/svg" xmlns:xlink="http://www.w3.org/1999/xlink" version="1.1" height="297mm" width="500mm" viewBox="0 0 210 297" id="svg17978"  >
<defs id="defs17975"  />
<g id="layer2" style="display:inline"  >
<g id="leg_right" transform="translate(50, 150) rotate(-15)"  >
<g id="g52468" transform="translate(-103.83956,-149.15215)"  >
<path d="m 132.21272,277.71468 9.89637,-2.19334 -9.56523,-120.26964 c -1.44011,-10.74448 -30.72785,-6.14838 -28.59308,4.89863 z" id="path3150-9" style="fill:#483e37;stroke:none;stroke-width:0.264583px;stroke-linecap:butt;stroke-linejoin:miter;stroke-opacity:1"  />
<path d="m 120.40988,240.06893 11.48849,39.4893 -5.46066,11.64956 c -1.21375,4.34643 -0.14125,6.46887 3.77609,6.89399 6.70434,-1.32011 8.23076,-2.47241 10.95535,-4.546 2.86599,-3.84234 4.75718,-7.80437 4.14736,-11.04414 l -3.61709,-41.99491 c -3.17621,1.73578 -15.1638,0.52828 -21.28954,-0.4478 z" id="path855-3-4" style="fill:#241c1c;stroke:none;stroke-width:0.264583px;stroke-linecap:butt;stroke-linejoin:miter;stroke-opacity:1"  />
</g>
</g>
<g id="arm_left" transform="translate(-30, 77) rotate(-10)"  >
<g id="g31247" transform="translate(-20.480936,-67.128329)"  >
<path d="m 30.940001,153.95057 c -9.243908,0.62011 -8.824377,2.16551 -8.824377,2.16551 0,0 -3.621602,-1.72002 -0.08369,-0.0433 3.537931,1.6766 9.023627,0.009 9.023627,0.009 z" style="fill:#ffb380;stroke:none;stroke-width:0.264583px;stroke-linecap:butt;stroke-linejoin:miter;stroke-opacity:1" id="path1660-9-5-5-3"  />
<path d="m 57.984794,119.94697 c -10.734551,11.08492 -18.681764,21.02659 -26.345286,30.8519 l -3.947998,3.91475 -6.359205,3.4518 c 1.53172,6.33963 4.850541,7.34481 7.845069,7.67547 l 6.128464,-6.74704 C 47.34736,149.36707 60.939664,139.15153 70.648221,128.28361 92.47571,95.264305 96.185291,87.205899 94.784842,74.701032 86.446263,70.959272 81.623853,63.302451 69.213189,92.462649 Z" id="path895-3-2-1-0" style="fill:#ffb380;stroke:none;stroke-width:0.264583px;stroke-linecap:butt;stroke-linejoin:miter;stroke-opacity:1"  />
<path d="m 32.81208,147.89861 c 4.370242,2.13206 5.699173,3.20943 7.347223,9.04044 6.736117,-5.45091 30.193051,-26.31136 29.98762,-26.28597 C 82.007706,122.54915 102.24543,80.83563 100.37523,78.875069 101.10895,66.22131 89.213291,65.251614 83.527148,69.1589 c -8.307596,4.053569 -19.643094,32.22856 -25.901927,51.09069 -13.49584,8.18245 -18.435503,20.49623 -24.813141,27.64902 z" style="fill:#cccccc;stroke:none;stroke-width:0.264583px;stroke-linecap:butt;stroke-linejoin:miter;stroke-opacity:1" id="path1844"  />
</g>
</g>
<g id="leg_left" transform="translate(30, 140) rotate(10)"  >
<g id="g48357" transform="translate(-75.852764,-147.14758)"  >
<path d="m 86.048509,275.32322 10.132982,0.26732 19.830759,-119.00849 C 117.2157,145.8085 87.686386,143.17876 87.083715,154.41399 Z" id="path3150" style="fill:#483e37;stroke:none;stroke-width:0.264583px;stroke-linecap:butt;stroke-linejoin:miter;stroke-opacity:1"  />
<path d="m 84.050214,234.68143 1.247052,42.35443 -8.118077,9.98138 c -2.229718,3.92338 -1.702857,6.24231 1.995091,7.60299 6.824508,0.34195 8.58446,-0.40661 11.72995,-1.75905 3.710806,-3.03436 6.504782,-6.4208 6.697289,-9.71184 l 6.655441,-41.62164 c -3.50192,0.91535 -14.499432,-4.41646 -20.206746,-6.84627 z" id="path855-3" style="fill:#241c1c;stroke:none;stroke-width:0.264583px;stroke-linecap:butt;stroke-linejoin:miter;stroke-opacity:1"  />
</g>
</g>
<g id="torso" transform="translate(2, 45)"  >
<g id="g20642" transform="translate(-52.531606,-45.914646)"  >
<path d="m 97.798289,58.028442 c 3.812421,-4.050854 3.636791,-7.056378 5.478921,-11.902358 l 11.92662,-0.211438 c 1.69817,3.383011 1.99416,8.286887 6.62528,11.570533 19.44342,21.24971 19.32678,13.033116 7.14703,94.474231 l -38.175594,0.37798 C 77.593446,78.106461 69.049729,76.07386 97.798289,58.028442 Z" id="path895-3" style="fill:#ffb380;stroke:none;stroke-width:0.264583px;stroke-linecap:butt;stroke-linejoin:miter;stroke-opacity:1"  />
<path d="m 87.651559,153.86138 45.358251,-0.56566 c -2.69638,-33.78593 17.5553,-85.375321 -7.35367,-95.786258 l -4.33676,-1.131334 c -3.61383,12.628015 -1.21016,15.102741 -10.55913,26.774898 -8.86628,-12.297321 -9.16061,-13.672909 -12.067562,-26.963453 l -3.393999,0.897026 c -31.074388,3.692407 -11.244828,75.992851 -7.64713,96.774781 z" style="fill:#483737;stroke:none;stroke-width:0.264583px;stroke-linecap:butt;stroke-linejoin:miter;stroke-opacity:1" id="path895"  />
<path d="m 87.197135,154.39493 c 11.748499,3.34202 31.201295,3.00553 45.598505,0.9333 2.10568,-20.08977 5.53739,-36.70754 5.86647,-53.99823 5.73548,-7.94967 8.29323,-17.986338 16.26614,-23.065906 l -25.3325,-19.932678 c -6.92742,4.434596 -8.28957,14.467243 -18.66773,14.60703 C 98.584194,73.104709 97.921804,65.657218 88.663754,58.998062 L 63.59791,82.397293 c 7.261317,5.215537 10.346188,10.803135 15.332829,23.999217 0.998285,15.84448 5.345317,32.79487 8.266396,47.99842 z" style="fill:#241c1c;stroke:none;stroke-width:0.264583px;stroke-linecap:butt;stroke-linejoin:miter;stroke-opacity:1" id="path4749"  />
<path d="M 80.130701,116.26284 C 102.94999,101.84502 117.70325,83.810917 135.46222,65.597845 l 14.93284,9.333026 C 129.02855,97.396644 109.15329,114.04107 83.197267,135.19556 81.96573,127.98293 80.047094,124.79062 80.130701,116.26284 Z" style="fill:#917c6f;stroke:none;stroke-width:0.264583px;stroke-linecap:butt;stroke-linejoin:miter;stroke-opacity:1" id="path4751"  />
<path d="m 92.996944,71.530984 c 2.573016,4.29374 22.782066,32.766906 29.332376,33.598906 17.368,-4.07628 28.16599,-24.130857 41.12216,-31.358443 l -24.85603,-13.973413 -9.73301,-1.199959 -2.53325,-3.599883 C 106.57914,65.180051 101.43241,57.197043 91.130339,53.93156 l -2.666579,4.533185 z" style="fill:#2b1100;stroke:none;stroke-width:0.264583px;stroke-linecap:butt;stroke-linejoin:miter;stroke-opacity:1" id="path4722"  />
<path d="M 78.797411,93.863583 C 94.796887,94.663556 92.263635,71.864306 92.263635,71.864306 88.983965,61.689982 87.605762,62.718799 85.063872,58.931396 70.547049,65.072087 61.962635,69.754403 52.531606,76.530819 c 7.140109,4.633622 19.842336,13.490999 26.265805,17.332764 z" style="fill:#2b1100;stroke:none;stroke-width:0.264583px;stroke-linecap:butt;stroke-linejoin:miter;stroke-opacity:1" id="path4724"  />
<ellipse cx="92.263641" cy="72.864273" rx="4.5331841" ry="3.3998883" style="opacity:0.99;fill:#554400;fill-opacity:1;stroke:none;stroke-width:0.264583;stroke-dasharray:0.264583, 0.529167" id="path4726"  />
<path d="m 85.597189,148.2618 1.333288,10.66632 c 14.694273,0.8092 30.474953,2.5664 45.865163,-0.79998 l 0.53331,-8.79971 c -14.23202,-1.02697 -29.94655,-1.46094 -47.731761,-1.06663 z" style="fill:#502d16;stroke:none;stroke-width:0.264583px;stroke-linecap:butt;stroke-linejoin:miter;stroke-opacity:1" id="path4753"  />
<ellipse cx="92.30809" cy="72.864273" rx="3.9109826" ry="2.9332368" id="path4726-9" style="display:inline;opacity:0.99;fill:#2b2200;fill-opacity:1;stroke:none;stroke-width:0.228268;stroke-dasharray:0.228268, 0.456536"  />
</g>
</g>
<g id="arm_right" transform="translate(70, 55) rotate(15)"  >
<g id="g47602" transform="translate(-120.51881,-60.591173)"  >
<path d="m 160.57779,163.3282 c -4.7347,7.96348 -3.22413,8.49495 -3.22413,8.49495 0,0 -3.47132,2.0061 -0.0832,0.0443 3.38809,-1.96185 5.1278,-7.42507 5.1278,-7.42507 z" id="path1660-9-5-5-3-6" style="fill:#ffb380;stroke:none;stroke-width:0.264583px;stroke-linecap:butt;stroke-linejoin:miter;stroke-opacity:1"  />
<path d="m 147.92468,121.76422 c 3.0364,15.12899 6.71305,27.31411 10.45485,39.19961 l 0.98326,5.47222 -0.76614,7.19496 c 6.08932,2.33607 8.80022,0.17366 10.77168,-2.10446 l -2.07815,-8.87479 c -1.17646,-15.43453 -1.8754,-32.42333 -5.31529,-46.58436 -14.80309,-36.709436 -19.3336,-44.336586 -30.42501,-50.279109 -7.81262,4.742948 -16.85379,4.369077 0.11505,31.134728 z" style="fill:#ffb380;stroke:none;stroke-width:0.264583px;stroke-linecap:butt;stroke-linejoin:miter;stroke-opacity:1" id="path895-3-2-1-0-4"  />
<path d="m 156.65676,158.35261 c 4.2354,-2.38874 5.87661,-2.87167 11.61314,-0.91999 -0.66609,-8.63969 -4.53273,-39.79149 -4.6284,-39.60793 0.0573,-14.36484 -22.80689,-54.69861 -25.48246,-54.271143 -10.00301,-7.784328 -17.55147,1.460551 -17.56065,8.359755 -1.37622,9.140766 15.39147,34.462068 27.37145,50.318718 -0.92041,15.75572 6.41606,26.81039 8.68692,36.12059 z" id="path1844-0" style="fill:#cccccc;stroke:none;stroke-width:0.264583px;stroke-linecap:butt;stroke-linejoin:miter;stroke-opacity:1"  />
</g>
</g>
<g id="head" transform="translate(40, 0)"  >
<g id="g19121" transform="translate(-91.319917,-6.2483336)"  >
<path d="m 94.6161,15.10442 c -2.03477,9.148197 -0.18765,19.684317 0.15416,29.682237 1.80727,8.4718 9.30606,11.51632 14.80649,14.29109 8.07363,-2.81756 13.50858,-7.44402 15.36852,-14.45948 0.81255,-9.59311 2.61846,-19.23562 1.1301,-28.714307 C 108.19341,4.8685886 102.52017,10.520832 94.6161,15.10442 Z" id="path899-9" style="fill:#ffb380;stroke:none;stroke-width:0.264583px;stroke-linecap:butt;stroke-linejoin:miter;stroke-opacity:1"  />
<path d="m 104.92792,19.683025 c -6.714986,2.631427 -10.515077,13.745586 -13.158549,19.776798 -0.100314,-4.755835 -1.231655,-8.36901 0.531744,-18.126611 0.148746,-0.823072 1.009073,-2.653397 1.166454,-3.427029 0.05388,-0.264878 -1.238554,-0.462086 -1.584394,-0.01174 4.981564,-9.0937564 17.761175,-15.2052193 26.093965,-9.3330294 0.13078,0.092161 0.51175,0.4020406 0.66793,0.437584 3.16382,0.7200432 5.86388,3.9441844 7.68885,8.0901764 0.5275,1.370633 1.62834,6.276619 1.77569,7.601099 0.11113,0.998993 -1.24178,-2.389833 -1.03559,-1.423952 1.08344,5.075229 -0.41334,11.341352 0.25513,16.999018 -5.63025,-2.403562 -8.37599,-7.739849 -11.59962,-13.760607 -0.32018,1.812198 -0.52704,3.133439 1.07611,7.175171 -5.14311,-4.609077 -5.51482,-13.641886 -11.87772,-13.996878 z" style="fill:#1a1a1a;stroke:none;stroke-width:0.26485px;stroke-linecap:butt;stroke-linejoin:miter;stroke-opacity:1" id="path4811"  />
</g>
</g>
</g>
<g id="g673" style="display:inline"  >
<g id="leg_right" transform="translate(-65, 145)"  >
<g id="g52468" transform="translate(-103.83956,-149.15215)"  >
<path d="m 132.21272,277.71468 9.89637,-2.19334 -9.56523,-120.26964 c -1.44011,-10.74448 -30.72785,-6.14838 -28.59308,4.89863 z" id="path3150-9" style="fill:#483e37;stroke:none;stroke-width:0.264583px;stroke-linecap:butt;stroke-linejoin:miter;stroke-opacity:1"  />
<path d="m 120.40988,240.06893 11.48849,39.4893 -5.46066,11.64956 c -1.21375,4.34643 -0.14125,6.46887 3.77609,6.89399 6.70434,-1.32011 8.23076,-2.47241 10.95535,-4.546 2.86599,-3.84234 4.75718,-7.80437 4.14736,-11.04414 l -3.61709,-41.99491 c -3.17621,1.73578 -15.1638,0.52828 -21.28954,-0.4478 z" id="path855-3-4" style="fill:#241c1c;stroke:none;stroke-width:0.264583px;stroke-linecap:butt;stroke-linejoin:miter;stroke-opacity:1"  />
</g>
</g>
<g id="arm_left" transform="translate(-150, 67)"  >
<g id="g31247" transform="translate(-20.480936,-67.128329)"  >
<path d="m 30.940001,153.95057 c -9.243908,0.62011 -8.824377,2.16551 -8.824377,2.16551 0,0 -3.621602,-1.72002 -0.08369,-0.0433 3.537931,1.6766 9.023627,0.009 9.023627,0.009 z" style="fill:#ffb380;stroke:none;stroke-width:0.264583px;stroke-linecap:butt;stroke-linejoin:miter;stroke-opacity:1" id="path1660-9-5-5-3"  />
<path d="m 57.984794,119.94697 c -10.734551,11.08492 -18.681764,21.02659 -26.345286,30.8519 l -3.947998,3.91475 -6.359205,3.4518 c 1.53172,6.33963 4.850541,7.34481 7.845069,7.67547 l 6.128464,-6.74704 C 47.34736,149.36707 60.939664,139.15153 70.648221,128.28361 92.47571,95.264305 96.185291,87.205899 94.784842,74.701032 86.446263,70.959272 81.623853,63.302451 69.213189,92.462649 Z" id="path895-3-2-1-0" style="fill:#ffb380;stroke:none;stroke-width:0.264583px;stroke-linecap:butt;stroke-linejoin:miter;stroke-opacity:1"  />
<path d="m 32.81208,147.89861 c 4.370242,2.13206 5.699173,3.20943 7.347223,9.04044 6.736117,-5.45091 30.193051,-26.31136 29.98762,-26.28597 C 82.007706,122.54915 102.24543,80.83563 100.37523,78.875069 101.10895,66.22131 89.213291,65.251614 83.527148,69.1589 c -8.307596,4.053569 -19.643094,32.22856 -25.901927,51.09069 -13.49584,8.18245 -18.435503,20.49623 -24.813141,27.64902 z" style="fill:#cccccc;stroke:none;stroke-width:0.264583px;stroke-linecap:butt;stroke-linejoin:miter;stroke-opacity:1" id="path1844"  />
</g>
</g>
<g id="arm_right" transform="translate(-50, 60)"  >
<g id="g47602" transform="translate(-120.51881,-60.591173)"  >
<path d="m 160.57779,163.3282 c -4.7347,7.96348 -3.22413,8.49495 -3.22413,8.49495 0,0 -3.47132,2.0061 -0.0832,0.0443 3.38809,-1.96185 5.1278,-7.42507 5.1278,-7.42507 z" id="path1660-9-5-5-3-6" style="fill:#ffb380;stroke:none;stroke-width:0.264583px;stroke-linecap:butt;stroke-linejoin:miter;stroke-opacity:1"  />
<path d="m 147.92468,121.76422 c 3.0364,15.12899 6.71305,27.31411 10.45485,39.19961 l 0.98326,5.47222 -0.76614,7.19496 c 6.08932,2.33607 8.80022,0.17366 10.77168,-2.10446 l -2.07815,-8.87479 c -1.17646,-15.43453 -1.8754,-32.42333 -5.31529,-46.58436 -14.80309,-36.709436 -19.3336,-44.336586 -30.42501,-50.279109 -7.81262,4.742948 -16.85379,4.369077 0.11505,31.134728 z" style="fill:#ffb380;stroke:none;stroke-width:0.264583px;stroke-linecap:butt;stroke-linejoin:miter;stroke-opacity:1" id="path895-3-2-1-0-4"  />
<path d="m 156.65676,158.35261 c 4.2354,-2.38874 5.87661,-2.87167 11.61314,-0.91999 -0.66609,-8.63969 -4.53273,-39.79149 -4.6284,-39.60793 0.0573,-14.36484 -22.80689,-54.69861 -25.48246,-54.271143 -10.00301,-7.784328 -17.55147,1.460551 -17.56065,8.359755 -1.37622,9.140766 15.39147,34.462068 27.37145,50.318718 -0.92041,15.75572 6.41606,26.81039 8.68692,36.12059 z" id="path1844-0" style="fill:#cccccc;stroke:none;stroke-width:0.264583px;stroke-linecap:butt;stroke-linejoin:miter;stroke-opacity:1"  />
</g>
</g>
<g id="leg_left" transform="translate(-95, 140)"  >
<g id="g48357" transform="translate(-75.852764,-147.14758)"  >
<path d="m 86.048509,275.32322 10.132982,0.26732 19.830759,-119.00849 C 117.2157,145.8085 87.686386,143.17876 87.083715,154.41399 Z" id="path3150" style="fill:#483e37;stroke:none;stroke-width:0.264583px;stroke-linecap:butt;stroke-linejoin:miter;stroke-opacity:1"  />
<path d="m 84.050214,234.68143 1.247052,42.35443 -8.118077,9.98138 c -2.229718,3.92338 -1.702857,6.24231 1.995091,7.60299 6.824508,0.34195 8.58446,-0.40661 11.72995,-1.75905 3.710806,-3.03436 6.504782,-6.4208 6.697289,-9.71184 l 6.655441,-41.62164 c -3.50192,0.91535 -14.499432,-4.41646 -20.206746,-6.84627 z" id="path855-3" style="fill:#241c1c;stroke:none;stroke-width:0.264583px;stroke-linecap:butt;stroke-linejoin:miter;stroke-opacity:1"  />
</g>
</g>
<g id="torso" transform="translate(-118, 45)"  >
<g id="g20642" transform="translate(-52.531606,-45.914646)"  >
<path d="m 97.798289,58.028442 c 3.812421,-4.050854 3.636791,-7.056378 5.478921,-11.902358 l 11.92662,-0.211438 c 1.69817,3.383011 1.99416,8.286887 6.62528,11.570533 19.44342,21.24971 19.32678,13.033116 7.14703,94.474231 l -38.175594,0.37798 C 77.593446,78.106461 69.049729,76.07386 97.798289,58.028442 Z" id="path895-3" style="fill:#ffb380;stroke:none;stroke-width:0.264583px;stroke-linecap:butt;stroke-linejoin:miter;stroke-opacity:1"  />
<path d="m 87.651559,153.86138 45.358251,-0.56566 c -2.69638,-33.78593 17.5553,-85.375321 -7.35367,-95.786258 l -4.33676,-1.131334 c -3.61383,12.628015 -1.21016,15.102741 -10.55913,26.774898 -8.86628,-12.297321 -9.16061,-13.672909 -12.067562,-26.963453 l -3.393999,0.897026 c -31.074388,3.692407 -11.244828,75.992851 -7.64713,96.774781 z" style="fill:#483737;stroke:none;stroke-width:0.264583px;stroke-linecap:butt;stroke-linejoin:miter;stroke-opacity:1" id="path895"  />
<path d="m 87.197135,154.39493 c 11.748499,3.34202 31.201295,3.00553 45.598505,0.9333 2.10568,-20.08977 5.53739,-36.70754 5.86647,-53.99823 5.73548,-7.94967 8.29323,-17.986338 16.26614,-23.065906 l -25.3325,-19.932678 c -6.92742,4.434596 -8.28957,14.467243 -18.66773,14.60703 C 98.584194,73.104709 97.921804,65.657218 88.663754,58.998062 L 63.59791,82.397293 c 7.261317,5.215537 10.346188,10.803135 15.332829,23.999217 0.998285,15.84448 5.345317,32.79487 8.266396,47.99842 z" style="fill:#241c1c;stroke:none;stroke-width:0.264583px;stroke-linecap:butt;stroke-linejoin:miter;stroke-opacity:1" id="path4749"  />
<path d="M 80.130701,116.26284 C 102.94999,101.84502 117.70325,83.810917 135.46222,65.597845 l 14.93284,9.333026 C 129.02855,97.396644 109.15329,114.04107 83.197267,135.19556 81.96573,127.98293 80.047094,124.79062 80.130701,116.26284 Z" style="fill:#917c6f;stroke:none;stroke-width:0.264583px;stroke-linecap:butt;stroke-linejoin:miter;stroke-opacity:1" id="path4751"  />
<path d="m 92.996944,71.530984 c 2.573016,4.29374 22.782066,32.766906 29.332376,33.598906 17.368,-4.07628 28.16599,-24.130857 41.12216,-31.358443 l -24.85603,-13.973413 -9.73301,-1.199959 -2.53325,-3.599883 C 106.57914,65.180051 101.43241,57.197043 91.130339,53.93156 l -2.666579,4.533185 z" style="fill:#2b1100;stroke:none;stroke-width:0.264583px;stroke-linecap:butt;stroke-linejoin:miter;stroke-opacity:1" id="path4722"  />
<path d="M 78.797411,93.863583 C 94.796887,94.663556 92.263635,71.864306 92.263635,71.864306 88.983965,61.689982 87.605762,62.718799 85.063872,58.931396 70.547049,65.072087 61.962635,69.754403 52.531606,76.530819 c 7.140109,4.633622 19.842336,13.490999 26.265805,17.332764 z" style="fill:#2b1100;stroke:none;stroke-width:0.264583px;stroke-linecap:butt;stroke-linejoin:miter;stroke-opacity:1" id="path4724"  />
<ellipse cx="92.263641" cy="72.864273" rx="4.5331841" ry="3.3998883" style="opacity:0.99;fill:#554400;fill-opacity:1;stroke:none;stroke-width:0.264583;stroke-dasharray:0.264583, 0.529167" id="path4726"  />
<path d="m 85.597189,148.2618 1.333288,10.66632 c 14.694273,0.8092 30.474953,2.5664 45.865163,-0.79998 l 0.53331,-8.79971 c -14.23202,-1.02697 -29.94655,-1.46094 -47.731761,-1.06663 z" style="fill:#502d16;stroke:none;stroke-width:0.264583px;stroke-linecap:butt;stroke-linejoin:miter;stroke-opacity:1" id="path4753"  />
<ellipse cx="92.30809" cy="72.864273" rx="3.9109826" ry="2.9332368" id="path4726-9" style="display:inline;opacity:0.99;fill:#2b2200;fill-opacity:1;stroke:none;stroke-width:0.228268;stroke-dasharray:0.228268, 0.456536"  />
</g>
</g>
<g id="head" transform="translate(-80, 0)"  >
<g id="g19121" transform="translate(-91.319917,-6.2483336)"  >
<path d="m 94.6161,15.10442 c -2.03477,9.148197 -0.18765,19.684317 0.15416,29.682237 1.80727,8.4718 9.30606,11.51632 14.80649,14.29109 8.07363,-2.81756 13.50858,-7.44402 15.36852,-14.45948 0.81255,-9.59311 2.61846,-19.23562 1.1301,-28.714307 C 108.19341,4.8685886 102.52017,10.520832 94.6161,15.10442 Z" id="path899-9" style="fill:#ffb380;stroke:none;stroke-width:0.264583px;stroke-linecap:butt;stroke-linejoin:miter;stroke-opacity:1"  />
<path d="m 104.92792,19.683025 c -6.714986,2.631427 -10.515077,13.745586 -13.158549,19.776798 -0.100314,-4.755835 -1.231655,-8.36901 0.531744,-18.126611 0.148746,-0.823072 1.009073,-2.653397 1.166454,-3.427029 0.05388,-0.264878 -1.238554,-0.462086 -1.584394,-0.01174 4.981564,-9.0937564 17.761175,-15.2052193 26.093965,-9.3330294 0.13078,0.092161 0.51175,0.4020406 0.66793,0.437584 3.16382,0.7200432 5.86388,3.9441844 7.68885,8.0901764 0.5275,1.370633 1.62834,6.276619 1.77569,7.601099 0.11113,0.998993 -1.24178,-2.389833 -1.03559,-1.423952 1.08344,5.075229 -0.41334,11.341352 0.25513,16.999018 -5.63025,-2.403562 -8.37599,-7.739849 -11.59962,-13.760607 -0.32018,1.812198 -0.52704,3.133439 1.07611,7.175171 -5.14311,-4.609077 -5.51482,-13.641886 -11.87772,-13.996878 z" style="fill:#1a1a1a;stroke:none;stroke-width:0.26485px;stroke-linecap:butt;stroke-linejoin:miter;stroke-opacity:1" id="path4811"  />
</g>
</g>
</g>
</svg>
