<?xml version="1.0" encoding="UTF-8" standalone="no"?>
<svg
   inkscape:export-ydpi="241.905"
   inkscape:export-xdpi="241.905"
   inkscape:export-filename="C:\Users\260862\Desktop\bartender.png"
   width="80.015366mm"
   height="98.712555mm"
   viewBox="0 0 80.015366 98.712553"
   version="1.1"
   id="svg8"
   inkscape:version="1.1.1 (3bf5ae0d25, 2021-09-20)"
   sodipodi:docname="main_hero_arm_left.svg"
   xmlns:inkscape="http://www.inkscape.org/namespaces/inkscape"
   xmlns:sodipodi="http://sodipodi.sourceforge.net/DTD/sodipodi-0.dtd"
   xmlns="http://www.w3.org/2000/svg"
   xmlns:svg="http://www.w3.org/2000/svg"
   xmlns:rdf="http://www.w3.org/1999/02/22-rdf-syntax-ns#"
   xmlns:cc="http://creativecommons.org/ns#"
   xmlns:dc="http://purl.org/dc/elements/1.1/">
  <defs
     id="defs2">
    <clipPath
       clipPathUnits="userSpaceOnUse"
       id="clipPath4045">
      <path
         style="fill:none;stroke:#000000;stroke-width:0.264583px;stroke-linecap:butt;stroke-linejoin:miter;stroke-opacity:1"
         d="M 87.197134,57.598109 C 88.69643,71.309833 86.336415,84.020996 68.797741,92.79695 L 14.399527,175.72756 -18.399396,142.39532 27.465763,50.665004 Z"
         id="path4047"
         sodipodi:nodetypes="cccccc" />
    </clipPath>
  </defs>
  <g
     inkscape:groupmode="layer"
     id="layer7"
     inkscape:label="left_arm"
     style="display:inline">
    <g
       id="g35"
       transform="translate(-20.480936,-67.128329)"
       inkscape:transform-center-x="21.762066"
       inkscape:transform-center-y="43.524132">
      <path
         style="fill:#ffb380;stroke:none;stroke-width:0.264583px;stroke-linecap:butt;stroke-linejoin:miter;stroke-opacity:1"
         d="m 30.940001,153.95057 c -9.243908,0.62011 -8.824377,2.16551 -8.824377,2.16551 0,0 -3.621602,-1.72002 -0.08369,-0.0433 3.537931,1.6766 9.023627,0.009 9.023627,0.009 z"
         id="path1660-9-5-5-3" />
      <path
         sodipodi:nodetypes="cccccccccc"
         id="path895-3-2-1-0"
         d="m 57.984794,119.94697 c -10.734551,11.08492 -18.681764,21.02659 -26.345286,30.8519 l -3.947998,3.91475 -6.359205,3.4518 c 1.53172,6.33963 4.850541,7.34481 7.845069,7.67547 l 6.128464,-6.74704 C 47.34736,149.36707 60.939664,139.15153 70.648221,128.28361 92.47571,95.264305 96.185291,87.205899 94.784842,74.701032 86.446263,70.959272 81.623853,63.302451 69.213189,92.462649 Z"
         style="fill:#ffb380;stroke:none;stroke-width:0.264583px;stroke-linecap:butt;stroke-linejoin:miter;stroke-opacity:1" />
      <path
         style="fill:#cccccc;stroke:none;stroke-width:0.264583px;stroke-linecap:butt;stroke-linejoin:miter;stroke-opacity:1"
         d="m 32.81208,147.89861 c 4.370242,2.13206 5.699173,3.20943 7.347223,9.04044 6.736117,-5.45091 30.193051,-26.31136 29.98762,-26.28597 C 82.007706,122.54915 102.24543,80.83563 100.37523,78.875069 101.10895,66.22131 89.213291,65.251614 83.527148,69.1589 c -8.307596,4.053569 -19.643094,32.22856 -25.901927,51.09069 -13.49584,8.18245 -18.435503,20.49623 -24.813141,27.64902 z"
         id="path1844"
         sodipodi:nodetypes="ccccccc" />
    </g>
  </g>
  <sodipodi:namedview
     inkscape:guide-bbox="true"
     showguides="true"
     id="base"
     pagecolor="#ffffff"
     bordercolor="#666666"
     borderopacity="1.0"
     inkscape:pageopacity="0.0"
     inkscape:pageshadow="2"
     inkscape:zoom="0.49611004"
     inkscape:cx="209.63091"
     inkscape:cy="284.21114"
     inkscape:document-units="mm"
     inkscape:current-layer="layer7"
     inkscape:document-rotation="0"
     showgrid="false"
     inkscape:snap-others="true"
     inkscape:object-nodes="true"
     inkscape:snap-global="false"
     inkscape:window-width="837"
     inkscape:window-height="696"
     inkscape:window-x="549"
     inkscape:window-y="0"
     inkscape:window-maximized="0"
     inkscape:pagecheckerboard="0" />
  <metadata
     id="metadata5">
    <rdf:RDF>
      <cc:Work
         rdf:about="">
        <dc:format>image/svg+xml</dc:format>
        <dc:type
           rdf:resource="http://purl.org/dc/dcmitype/StillImage" />
        <dc:title />
      </cc:Work>
    </rdf:RDF>
  </metadata>
</svg>
