<?xml version="1.0" encoding="UTF-8" standalone="no"?>
<svg
   inkscape:export-ydpi="241.905"
   inkscape:export-xdpi="241.905"
   inkscape:export-filename="C:\Users\260862\Desktop\bartender.png"
   width="48.849522mm"
   height="114.04628mm"
   viewBox="0 0 48.849522 114.04628"
   version="1.1"
   id="svg8"
   inkscape:version="1.1.1 (3bf5ae0d25, 2021-09-20)"
   sodipodi:docname="main_hero_arm_right.svg"
   xmlns:inkscape="http://www.inkscape.org/namespaces/inkscape"
   xmlns:sodipodi="http://sodipodi.sourceforge.net/DTD/sodipodi-0.dtd"
   xmlns="http://www.w3.org/2000/svg"
   xmlns:svg="http://www.w3.org/2000/svg"
   xmlns:rdf="http://www.w3.org/1999/02/22-rdf-syntax-ns#"
   xmlns:cc="http://creativecommons.org/ns#"
   xmlns:dc="http://purl.org/dc/elements/1.1/">
  <defs
     id="defs2">
    <clipPath
       clipPathUnits="userSpaceOnUse"
       id="clipPath4045">
      <path
         style="fill:none;stroke:#000000;stroke-width:0.264583px;stroke-linecap:butt;stroke-linejoin:miter;stroke-opacity:1"
         d="M 87.197134,57.598109 C 88.69643,71.309833 86.336415,84.020996 68.797741,92.79695 L 14.399527,175.72756 -18.399396,142.39532 27.465763,50.665004 Z"
         id="path4047"
         sodipodi:nodetypes="cccccc" />
    </clipPath>
  </defs>
  <g
     inkscape:groupmode="layer"
     id="layer8"
     inkscape:label="right_arm"
     style="display:inline">
    <g
       id="g35"
       transform="translate(-120.51881,-60.591173)"
       inkscape:transform-center-x="-15.68403"
       inkscape:transform-center-y="47.64394">
      <path
         id="path1660-9-5-5-3-6"
         d="m 160.57779,163.3282 c -4.7347,7.96348 -3.22413,8.49495 -3.22413,8.49495 0,0 -3.47132,2.0061 -0.0832,0.0443 3.38809,-1.96185 5.1278,-7.42507 5.1278,-7.42507 z"
         style="fill:#ffb380;stroke:none;stroke-width:0.264583px;stroke-linecap:butt;stroke-linejoin:miter;stroke-opacity:1" />
      <path
         style="fill:#ffb380;stroke:none;stroke-width:0.264583px;stroke-linecap:butt;stroke-linejoin:miter;stroke-opacity:1"
         d="m 147.92468,121.76422 c 3.0364,15.12899 6.71305,27.31411 10.45485,39.19961 l 0.98326,5.47222 -0.76614,7.19496 c 6.08932,2.33607 8.80022,0.17366 10.77168,-2.10446 l -2.07815,-8.87479 c -1.17646,-15.43453 -1.8754,-32.42333 -5.31529,-46.58436 -14.80309,-36.709436 -19.3336,-44.336586 -30.42501,-50.279109 -7.81262,4.742948 -16.85379,4.369077 0.11505,31.134728 z"
         id="path895-3-2-1-0-4"
         sodipodi:nodetypes="cccccccccc" />
      <path
         sodipodi:nodetypes="ccccccc"
         id="path1844-0"
         d="m 156.65676,158.35261 c 4.2354,-2.38874 5.87661,-2.87167 11.61314,-0.91999 -0.66609,-8.63969 -4.53273,-39.79149 -4.6284,-39.60793 0.0573,-14.36484 -22.80689,-54.69861 -25.48246,-54.271143 -10.00301,-7.784328 -17.55147,1.460551 -17.56065,8.359755 -1.37622,9.140766 15.39147,34.462068 27.37145,50.318718 -0.92041,15.75572 6.41606,26.81039 8.68692,36.12059 z"
         style="fill:#cccccc;stroke:none;stroke-width:0.264583px;stroke-linecap:butt;stroke-linejoin:miter;stroke-opacity:1" />
    </g>
  </g>
  <sodipodi:namedview
     inkscape:guide-bbox="true"
     showguides="true"
     id="base"
     pagecolor="#ffffff"
     bordercolor="#666666"
     borderopacity="1.0"
     inkscape:pageopacity="0.0"
     inkscape:pageshadow="2"
     inkscape:zoom="0.49611004"
     inkscape:cx="175.36432"
     inkscape:cy="78.611592"
     inkscape:document-units="mm"
     inkscape:current-layer="layer8"
     inkscape:document-rotation="0"
     showgrid="false"
     inkscape:snap-others="true"
     inkscape:object-nodes="true"
     inkscape:snap-global="false"
     inkscape:window-width="837"
     inkscape:window-height="696"
     inkscape:window-x="549"
     inkscape:window-y="0"
     inkscape:window-maximized="0"
     inkscape:pagecheckerboard="0" />
  <metadata
     id="metadata5">
    <rdf:RDF>
      <cc:Work
         rdf:about="">
        <dc:format>image/svg+xml</dc:format>
        <dc:type
           rdf:resource="http://purl.org/dc/dcmitype/StillImage" />
        <dc:title />
      </cc:Work>
    </rdf:RDF>
  </metadata>
</svg>
