<?xml version="1.0" encoding="UTF-8" standalone="no"?>
<!-- Created with Inkscape (http://www.inkscape.org/) -->

<svg
   width="210mm"
   height="297mm"
   viewBox="0 0 210 297"
   version="1.1"
   id="svg17978"
   inkscape:version="1.1.1 (3bf5ae0d25, 2021-09-20)"
   sodipodi:docname="my_hero_head.svg"
   xmlns:inkscape="http://www.inkscape.org/namespaces/inkscape"
   xmlns:sodipodi="http://sodipodi.sourceforge.net/DTD/sodipodi-0.dtd"
   xmlns="http://www.w3.org/2000/svg"
   xmlns:svg="http://www.w3.org/2000/svg">
  <sodipodi:namedview
     id="namedview17980"
     pagecolor="#505050"
     bordercolor="#eeeeee"
     borderopacity="1"
     inkscape:pageshadow="0"
     inkscape:pageopacity="0"
     inkscape:pagecheckerboard="0"
     inkscape:document-units="mm"
     showgrid="false"
     inkscape:zoom="0.48640572"
     inkscape:cx="312.49633"
     inkscape:cy="586.95856"
     inkscape:window-width="1366"
     inkscape:window-height="705"
     inkscape:window-x="-8"
     inkscape:window-y="-8"
     inkscape:window-maximized="1"
     inkscape:current-layer="layer1" />
  <defs
     id="defs17975" />
  <g
     inkscape:label="glowa"
     inkscape:groupmode="layer"
     id="layer1">
    <g
       id="g19121">
      <ellipse
         style="fill:#ffccaa;stroke:none;stroke-width:0.264583"
         id="path18004"
         cx="99.815933"
         cy="38.348904"
         rx="15.502747"
         ry="19.854397" />
      <path
         style="fill:#28170b;fill-opacity:1;stroke:none;stroke-width:0.264583px;stroke-linecap:butt;stroke-linejoin:miter;stroke-opacity:1"
         d="m 97.096153,25.565934 c -3.64635,0.703799 -14.142859,11.287087 -14.142859,11.287087 0,0 1.074157,-11.654951 5.439562,-14.278845 3.210595,-1.929778 -2.719779,0.543956 -2.719779,0.543956 0,0 8.89538,-8.30193 14.414833,-8.159341 5.90829,0.152634 12.11472,4.338258 14.95879,9.519231 2.0068,3.655735 1.49588,14.686813 1.49588,14.686813 0,0 -7.1177,-4.056175 -9.65522,-9.519231 -0.49649,-1.068893 0,3.535715 0,3.535715 0,0 -5.73144,-8.39898 -9.791207,-7.615385 z"
         id="path18140"
         sodipodi:nodetypes="scscsscscs" />
    </g>
  </g>
</svg>
