<?xml version="1.0" encoding="UTF-8" standalone="no"?>
<!-- Created with Inkscape (http://www.inkscape.org/) -->

<svg
   width="210mm"
   height="297mm"
   viewBox="0 0 210 297"
   version="1.1"
   id="svg17978"
   inkscape:version="1.1.1 (3bf5ae0d25, 2021-09-20)"
   sodipodi:docname="my_hero_arm_right.svg"
   xmlns:inkscape="http://www.inkscape.org/namespaces/inkscape"
   xmlns:sodipodi="http://sodipodi.sourceforge.net/DTD/sodipodi-0.dtd"
   xmlns="http://www.w3.org/2000/svg"
   xmlns:svg="http://www.w3.org/2000/svg">
  <sodipodi:namedview
     id="namedview17980"
     pagecolor="#505050"
     bordercolor="#eeeeee"
     borderopacity="1"
     inkscape:pageshadow="0"
     inkscape:pageopacity="0"
     inkscape:pagecheckerboard="0"
     inkscape:document-units="mm"
     showgrid="false"
     inkscape:zoom="0.48640572"
     inkscape:cx="312.49633"
     inkscape:cy="586.95856"
     inkscape:window-width="1366"
     inkscape:window-height="705"
     inkscape:window-x="-8"
     inkscape:window-y="-8"
     inkscape:window-maximized="1"
     inkscape:current-layer="layer8" />
  <defs
     id="defs17975" />
  <g
     inkscape:groupmode="layer"
     id="layer8"
     inkscape:label="rekaR"
     style="display:inline">
    <g
       id="g47602"
       inkscape:transform-center-x="-6.5387951"
       inkscape:transform-center-y="33.463246">
      <path
         style="fill:#ffccaa;fill-opacity:1;stroke:none;stroke-width:0.264583px;stroke-linecap:butt;stroke-linejoin:miter;stroke-opacity:1"
         d="m 131.78556,132.12212 -4.27906,9.8082 -6.92343,2.69244 c 0,0 1.08525,3.98956 3.22132,5.28873 1.97859,1.2034 6.58688,1.05775 6.58688,1.05775 l 2.30781,-5.96184 4.75985,-9.71204 z"
         id="path35602"
         sodipodi:nodetypes="cccscccc" />
      <path
         style="fill:#ac9393;fill-opacity:1;stroke:none;stroke-width:0.264583px;stroke-linecap:butt;stroke-linejoin:miter;stroke-opacity:1"
         d="m 127.69882,78.080904 c -2.58848,2.312787 -3.67521,5.42733 -3.07708,8.846608 1.71632,9.811398 14.80845,23.078098 14.80845,23.078098 -4.90634,4.36656 -10.38515,24.23201 -10.38515,24.23201 l 8.84661,5.00025 13.65454,-27.88603 -15.19309,-32.8863 c 0,0 -6.16664,-2.607318 -8.65428,-0.384636 z"
         id="path31283"
         sodipodi:nodetypes="sssccccs" />
      <path
         style="fill:#ffccaa;fill-opacity:1;stroke:none;stroke-width:0.264583px;stroke-linecap:butt;stroke-linejoin:miter;stroke-opacity:1"
         d="m 127.5065,141.93032 c -2.58003,-1.31588 -5.19257,-0.91351 -5.19257,-0.91351 l 2.25973,2.06741 c 0,0 3.8687,-0.67658 2.93284,-1.1539 z"
         id="path43508"
         sodipodi:nodetypes="sccs" />
    </g>
  </g>
</svg>
