<?xml version="1.0" encoding="UTF-8" standalone="no"?>
<!-- Created with Inkscape (http://www.inkscape.org/) -->

<svg
   width="210mm"
   height="297mm"
   viewBox="0 0 210 297"
   version="1.1"
   id="svg17978"
   inkscape:version="1.1.1 (3bf5ae0d25, 2021-09-20)"
   sodipodi:docname="my_hero_torso.svg"
   xmlns:inkscape="http://www.inkscape.org/namespaces/inkscape"
   xmlns:sodipodi="http://sodipodi.sourceforge.net/DTD/sodipodi-0.dtd"
   xmlns="http://www.w3.org/2000/svg"
   xmlns:svg="http://www.w3.org/2000/svg">
  <sodipodi:namedview
     id="namedview17980"
     pagecolor="#505050"
     bordercolor="#eeeeee"
     borderopacity="1"
     inkscape:pageshadow="0"
     inkscape:pageopacity="0"
     inkscape:pagecheckerboard="0"
     inkscape:document-units="mm"
     showgrid="false"
     inkscape:zoom="0.48640572"
     inkscape:cx="312.49633"
     inkscape:cy="586.95856"
     inkscape:window-width="1366"
     inkscape:window-height="705"
     inkscape:window-x="-8"
     inkscape:window-y="-8"
     inkscape:window-maximized="1"
     inkscape:current-layer="layer6" />
  <defs
     id="defs17975" />
  <g
     inkscape:groupmode="layer"
     id="layer6"
     inkscape:label="torso"
     style="display:inline">
    <g
       id="g20642">
      <path
         style="fill:#ffccaa;fill-opacity:1;stroke:none;stroke-width:0.264583px;stroke-linecap:butt;stroke-linejoin:miter;stroke-opacity:1"
         d="m 96.158751,55.195122 c 0,0 -1.134805,5.248053 -2.884762,7.115749 -2.920947,3.11747 -11.539051,5.577208 -11.539051,5.577208 0,0 10.297518,19.737189 19.616382,19.039432 8.18664,-0.612981 16.34699,-19.23175 16.34699,-19.23175 0,0 -7.4147,-2.532364 -10.57746,-4.807939 -2.22484,-1.600746 -1.53854,-8.077335 -1.53854,-8.077335 z"
         id="path19157"
         sodipodi:nodetypes="cscscscc" />
      <path
         style="fill:#162d50;stroke:none;stroke-width:0.264583px;stroke-linecap:butt;stroke-linejoin:miter;stroke-opacity:1"
         d="M 81.734937,67.888079 60.00306,75.773096 73.84992,101.92828 c 0,0 -1.823631,14.6474 -1.379219,21.58622 0.562643,8.78483 5.22557,24.95461 5.22557,24.95461 h 41.925219 c 0,0 3.95362,-16.7426 4.25031,-24.82262 0.25838,-7.03641 -1.9425,-19.41041 -1.9425,-19.41041 l 17.30857,-31.155428 -21.53956,-5.384893 c 0,0 -10.71078,5.45043 -17.35524,5.714858 -7.428741,0.295639 -18.608133,-5.522538 -18.608133,-5.522538 z"
         id="path19823"
         sodipodi:nodetypes="cccsccscccsc" />
      <path
         style="fill:#784421;stroke:none;stroke-width:0.264583px;stroke-linecap:butt;stroke-linejoin:miter;stroke-opacity:1"
         d="M 75.337912,138.98077 H 121.3022 l -1.68071,9.48834 H 77.696271 Z"
         id="path20223" />
      <path
         style="fill:#c8beb7;stroke:none;stroke-width:0.264583px;stroke-linecap:butt;stroke-linejoin:miter;stroke-opacity:1"
         d="M 123.20604,69.354395 72.890108,109.33516 72.618131,120.21429 133.81319,71.258241 Z"
         id="path20381"
         sodipodi:nodetypes="ccccc" />
    </g>
  </g>
</svg>
