<?xml version="1.0" encoding="UTF-8" standalone="no"?>
<!-- Created with Inkscape (http://www.inkscape.org/) -->

<svg
   width="210mm"
   height="297mm"
   viewBox="0 0 210 297"
   version="1.1"
   id="svg17978"
   inkscape:version="1.1.1 (3bf5ae0d25, 2021-09-20)"
   sodipodi:docname="my_hero_arm_left.svg"
   xmlns:inkscape="http://www.inkscape.org/namespaces/inkscape"
   xmlns:sodipodi="http://sodipodi.sourceforge.net/DTD/sodipodi-0.dtd"
   xmlns="http://www.w3.org/2000/svg"
   xmlns:svg="http://www.w3.org/2000/svg">
  <sodipodi:namedview
     id="namedview17980"
     pagecolor="#505050"
     bordercolor="#eeeeee"
     borderopacity="1"
     inkscape:pageshadow="0"
     inkscape:pageopacity="0"
     inkscape:pagecheckerboard="0"
     inkscape:document-units="mm"
     showgrid="false"
     inkscape:zoom="0.48640572"
     inkscape:cx="312.49633"
     inkscape:cy="586.95856"
     inkscape:window-width="1366"
     inkscape:window-height="705"
     inkscape:window-x="-8"
     inkscape:window-y="-8"
     inkscape:window-maximized="1"
     inkscape:current-layer="layer7" />
  <defs
     id="defs17975" />
  <g
     inkscape:groupmode="layer"
     id="layer7"
     inkscape:label="rekaL"
     style="display:inline">
    <g
       id="g31247"
       inkscape:transform-center-x="18.847115"
       inkscape:transform-center-y="26.539816">
      <path
         style="fill:#ffccaa;fill-opacity:1;stroke:none;stroke-width:0.264583px;stroke-linecap:butt;stroke-linejoin:miter;stroke-opacity:1"
         d="m 36.15569,124.4775 -5.769525,5.62529 -5.721445,1.20198 c 0,0 -0.203073,2.78292 0.480794,3.94251 0.790751,1.34083 3.605952,2.35589 3.605952,2.35589 l 4.711779,-4.56754 6.875352,-4.6637 z"
         id="path21235"
         sodipodi:nodetypes="cccscccc" />
      <path
         style="fill:#ac9393;stroke:none;stroke-width:0.264583px;stroke-linecap:butt;stroke-linejoin:miter;stroke-opacity:1"
         d="m 72.503699,78.657859 c -2.719333,-0.907933 -9.078927,-1.013501 -10.385145,1.538539 -3.867015,7.555231 -5.577208,26.924452 -5.577208,26.924452 -3.818878,-0.64207 -22.885783,17.88553 -22.885783,17.88553 l 5.384891,5.76951 26.73213,-18.46248 10.962099,-25.962851 c 0,0 -0.917747,-6.586474 -4.230984,-7.6927 z"
         id="path20678"
         sodipodi:nodetypes="sssccccs" />
      <path
         style="fill:#ffccaa;fill-opacity:1;stroke:none;stroke-width:0.264583px;stroke-linecap:butt;stroke-linejoin:miter;stroke-opacity:1"
         d="m 30.434244,130.10279 c -1.153103,-1.11719 -4.182904,-0.86543 -4.182904,-0.86543 l 1.778935,1.34622 c 0,0 3.038287,0.13377 2.403969,-0.48079 z"
         id="path28559"
         sodipodi:nodetypes="sccs" />
    </g>
  </g>
</svg>
