<?xml version="1.0" encoding="UTF-8" standalone="no"?>
<!-- Created with Inkscape (http://www.inkscape.org/) -->

<svg
   width="210mm"
   height="297mm"
   viewBox="0 0 210 297"
   version="1.1"
   id="svg17978"
   inkscape:version="1.1.1 (3bf5ae0d25, 2021-09-20)"
   sodipodi:docname="my_hero.svg"
   xmlns:inkscape="http://www.inkscape.org/namespaces/inkscape"
   xmlns:sodipodi="http://sodipodi.sourceforge.net/DTD/sodipodi-0.dtd"
   xmlns="http://www.w3.org/2000/svg"
   xmlns:svg="http://www.w3.org/2000/svg">
  <sodipodi:namedview
     id="namedview17980"
     pagecolor="#505050"
     bordercolor="#eeeeee"
     borderopacity="1"
     inkscape:pageshadow="0"
     inkscape:pageopacity="0"
     inkscape:pagecheckerboard="0"
     inkscape:document-units="mm"
     showgrid="false"
     inkscape:zoom="0.48640572"
     inkscape:cx="312.49633"
     inkscape:cy="586.95856"
     inkscape:window-width="1366"
     inkscape:window-height="705"
     inkscape:window-x="-8"
     inkscape:window-y="-8"
     inkscape:window-maximized="1"
     inkscape:current-layer="layer7" />
  <defs
     id="defs17975" />
  <g
     inkscape:groupmode="layer"
     id="layer10"
     inkscape:label="nogaR">
    <g
       id="g52468"
       inkscape:transform-center-x="0.00082198535"
       inkscape:transform-center-y="70.712984">
      <path
         style="fill:#501616;fill-opacity:1;stroke:#000000;stroke-width:0.264583px;stroke-linecap:butt;stroke-linejoin:miter;stroke-opacity:1"
         d="m 110.00561,142.31495 c -4.24424,-0.1383 -11.154415,6.15416 -11.154415,6.15416 l 7.308065,94.62021 14.2315,0.38464 -0.76927,-95.00485 c 0,0 -5.81236,-6.03022 -9.61588,-6.15416 z"
         id="path48393"
         sodipodi:nodetypes="sccccs" />
      <path
         style="fill:#2b0000;fill-opacity:1;stroke:#000000;stroke-width:0.264583px;stroke-linecap:butt;stroke-linejoin:miter;stroke-opacity:1"
         d="m 101.34566,236.62052 20.81296,3.45371 -0.58445,46.04663 -15.77472,9.38325 c 0,0 -6.836842,-0.49343 -8.29533,-2.71977 -1.458489,-2.22635 -0.576327,-5.14708 0.67995,-7.20743 1.793641,-2.94164 8.70329,-5.57553 8.70329,-5.57553 z"
         id="path50355"
         sodipodi:nodetypes="cccczscc" />
    </g>
  </g>
  <g
     inkscape:groupmode="layer"
     id="layer7"
     inkscape:label="rekaL">
    <g
       id="g31247"
       inkscape:transform-center-x="18.847115"
       inkscape:transform-center-y="26.539816">
      <path
         style="fill:#ffccaa;fill-opacity:1;stroke:none;stroke-width:0.264583px;stroke-linecap:butt;stroke-linejoin:miter;stroke-opacity:1"
         d="m 36.15569,124.4775 -5.769525,5.62529 -5.721445,1.20198 c 0,0 -0.203073,2.78292 0.480794,3.94251 0.790751,1.34083 3.605952,2.35589 3.605952,2.35589 l 4.711779,-4.56754 6.875352,-4.6637 z"
         id="path21235"
         sodipodi:nodetypes="cccscccc" />
      <path
         style="fill:#ac9393;stroke:none;stroke-width:0.264583px;stroke-linecap:butt;stroke-linejoin:miter;stroke-opacity:1"
         d="m 72.503699,78.657859 c -2.719333,-0.907933 -9.078927,-1.013501 -10.385145,1.538539 -3.867015,7.555231 -5.577208,26.924452 -5.577208,26.924452 -3.818878,-0.64207 -22.885783,17.88553 -22.885783,17.88553 l 5.384891,5.76951 26.73213,-18.46248 10.962099,-25.962851 c 0,0 -0.917747,-6.586474 -4.230984,-7.6927 z"
         id="path20678"
         sodipodi:nodetypes="sssccccs" />
      <path
         style="fill:#ffccaa;fill-opacity:1;stroke:none;stroke-width:0.264583px;stroke-linecap:butt;stroke-linejoin:miter;stroke-opacity:1"
         d="m 30.434244,130.10279 c -1.153103,-1.11719 -4.182904,-0.86543 -4.182904,-0.86543 l 1.778935,1.34622 c 0,0 3.038287,0.13377 2.403969,-0.48079 z"
         id="path28559"
         sodipodi:nodetypes="sccs" />
    </g>
  </g>
  <g
     inkscape:groupmode="layer"
     id="layer8"
     inkscape:label="rekaR">
    <g
       id="g47602"
       inkscape:transform-center-x="-6.5387951"
       inkscape:transform-center-y="33.463246">
      <path
         style="fill:#ffccaa;fill-opacity:1;stroke:none;stroke-width:0.264583px;stroke-linecap:butt;stroke-linejoin:miter;stroke-opacity:1"
         d="m 131.78556,132.12212 -4.27906,9.8082 -6.92343,2.69244 c 0,0 1.08525,3.98956 3.22132,5.28873 1.97859,1.2034 6.58688,1.05775 6.58688,1.05775 l 2.30781,-5.96184 4.75985,-9.71204 z"
         id="path35602"
         sodipodi:nodetypes="cccscccc" />
      <path
         style="fill:#ac9393;fill-opacity:1;stroke:none;stroke-width:0.264583px;stroke-linecap:butt;stroke-linejoin:miter;stroke-opacity:1"
         d="m 127.69882,78.080904 c -2.58848,2.312787 -3.67521,5.42733 -3.07708,8.846608 1.71632,9.811398 14.80845,23.078098 14.80845,23.078098 -4.90634,4.36656 -10.38515,24.23201 -10.38515,24.23201 l 8.84661,5.00025 13.65454,-27.88603 -15.19309,-32.8863 c 0,0 -6.16664,-2.607318 -8.65428,-0.384636 z"
         id="path31283"
         sodipodi:nodetypes="sssccccs" />
      <path
         style="fill:#ffccaa;fill-opacity:1;stroke:none;stroke-width:0.264583px;stroke-linecap:butt;stroke-linejoin:miter;stroke-opacity:1"
         d="m 127.5065,141.93032 c -2.58003,-1.31588 -5.19257,-0.91351 -5.19257,-0.91351 l 2.25973,2.06741 c 0,0 3.8687,-0.67658 2.93284,-1.1539 z"
         id="path43508"
         sodipodi:nodetypes="sccs" />
    </g>
  </g>
  <g
     inkscape:groupmode="layer"
     id="layer9"
     inkscape:label="nogaL">
    <g
       id="g48357"
       inkscape:transform-center-x="7.3090003"
       inkscape:transform-center-y="71.924882">
      <path
         style="fill:#501616;stroke:#000000;stroke-width:0.264583px;stroke-linecap:butt;stroke-linejoin:miter;stroke-opacity:1"
         d="m 88.466051,141.54568 c -3.582888,0.25869 -10.76978,6.92343 -10.76978,6.92343 l 1.538539,93.85094 15.770036,0.76927 3.846349,-94.62021 c 0,0 -5.810014,-7.25376 -10.385144,-6.92343 z"
         id="path47638"
         sodipodi:nodetypes="sccccs" />
      <path
         style="fill:#2b0000;stroke:#000000;stroke-width:0.264583px;stroke-linecap:butt;stroke-linejoin:miter;stroke-opacity:1"
         d="m 76.927,231.9349 21.154925,3.46172 -3.461714,53.07964 -21.924195,7.69268 c 0,0 -8.224351,-1.41143 -8.46197,-4.6156 -0.487381,-6.57208 15.770034,-11.92369 15.770034,-11.92369 z"
         id="path47727"
         sodipodi:nodetypes="ccccscc" />
    </g>
  </g>
  <g
     inkscape:groupmode="layer"
     id="layer6"
     inkscape:label="torso">
    <g
       id="g20642">
      <path
         style="fill:#ffccaa;fill-opacity:1;stroke:none;stroke-width:0.264583px;stroke-linecap:butt;stroke-linejoin:miter;stroke-opacity:1"
         d="m 96.158751,55.195122 c 0,0 -1.134805,5.248053 -2.884762,7.115749 -2.920947,3.11747 -11.539051,5.577208 -11.539051,5.577208 0,0 10.297518,19.737189 19.616382,19.039432 8.18664,-0.612981 16.34699,-19.23175 16.34699,-19.23175 0,0 -7.4147,-2.532364 -10.57746,-4.807939 -2.22484,-1.600746 -1.53854,-8.077335 -1.53854,-8.077335 z"
         id="path19157"
         sodipodi:nodetypes="cscscscc" />
      <path
         style="fill:#162d50;stroke:none;stroke-width:0.264583px;stroke-linecap:butt;stroke-linejoin:miter;stroke-opacity:1"
         d="M 81.734937,67.888079 60.00306,75.773096 73.84992,101.92828 c 0,0 -1.823631,14.6474 -1.379219,21.58622 0.562643,8.78483 5.22557,24.95461 5.22557,24.95461 h 41.925219 c 0,0 3.95362,-16.7426 4.25031,-24.82262 0.25838,-7.03641 -1.9425,-19.41041 -1.9425,-19.41041 l 17.30857,-31.155428 -21.53956,-5.384893 c 0,0 -10.71078,5.45043 -17.35524,5.714858 -7.428741,0.295639 -18.608133,-5.522538 -18.608133,-5.522538 z"
         id="path19823"
         sodipodi:nodetypes="cccsccscccsc" />
      <path
         style="fill:#784421;stroke:none;stroke-width:0.264583px;stroke-linecap:butt;stroke-linejoin:miter;stroke-opacity:1"
         d="M 75.337912,138.98077 H 121.3022 l -1.68071,9.48834 H 77.696271 Z"
         id="path20223" />
      <path
         style="fill:#c8beb7;stroke:none;stroke-width:0.264583px;stroke-linecap:butt;stroke-linejoin:miter;stroke-opacity:1"
         d="M 123.20604,69.354395 72.890108,109.33516 72.618131,120.21429 133.81319,71.258241 Z"
         id="path20381"
         sodipodi:nodetypes="ccccc" />
    </g>
  </g>
  <g
     inkscape:label="glowa"
     inkscape:groupmode="layer"
     id="layer1">
    <g
       id="g19121">
      <ellipse
         style="fill:#ffccaa;stroke:none;stroke-width:0.264583"
         id="path18004"
         cx="99.815933"
         cy="38.348904"
         rx="15.502747"
         ry="19.854397" />
      <path
         style="fill:#28170b;fill-opacity:1;stroke:none;stroke-width:0.264583px;stroke-linecap:butt;stroke-linejoin:miter;stroke-opacity:1"
         d="m 97.096153,25.565934 c -3.64635,0.703799 -14.142859,11.287087 -14.142859,11.287087 0,0 1.074157,-11.654951 5.439562,-14.278845 3.210595,-1.929778 -2.719779,0.543956 -2.719779,0.543956 0,0 8.89538,-8.30193 14.414833,-8.159341 5.90829,0.152634 12.11472,4.338258 14.95879,9.519231 2.0068,3.655735 1.49588,14.686813 1.49588,14.686813 0,0 -7.1177,-4.056175 -9.65522,-9.519231 -0.49649,-1.068893 0,3.535715 0,3.535715 0,0 -5.73144,-8.39898 -9.791207,-7.615385 z"
         id="path18140"
         sodipodi:nodetypes="scscsscscs" />
    </g>
  </g>
</svg>
