<?xml version="1.0" encoding="UTF-8" standalone="no"?>
<svg
   sodipodi:docname="bandit_leg_left.svg"
   inkscape:version="1.1.1 (3bf5ae0d25, 2021-09-20)"
   id="svg8"
   version="1.1"
   viewBox="0 0 40.195293 147.55505"
   height="147.55505mm"
   width="40.195293mm"
   inkscape:export-filename="C:\Users\260862\Desktop\bartender.png"
   inkscape:export-xdpi="241.905"
   inkscape:export-ydpi="241.905"
   xmlns:inkscape="http://www.inkscape.org/namespaces/inkscape"
   xmlns:sodipodi="http://sodipodi.sourceforge.net/DTD/sodipodi-0.dtd"
   xmlns="http://www.w3.org/2000/svg"
   xmlns:svg="http://www.w3.org/2000/svg"
   xmlns:rdf="http://www.w3.org/1999/02/22-rdf-syntax-ns#"
   xmlns:cc="http://creativecommons.org/ns#"
   xmlns:dc="http://purl.org/dc/elements/1.1/">
  <defs
     id="defs2">
    <clipPath
       id="clipPath4045"
       clipPathUnits="userSpaceOnUse">
      <path
         sodipodi:nodetypes="cccccc"
         id="path4047"
         d="M 87.197134,57.598109 C 88.69643,71.309833 86.336415,84.020996 68.797741,92.79695 L 14.399527,175.72756 -18.399396,142.39532 27.465763,50.665004 Z"
         style="fill:none;stroke:#000000;stroke-width:0.264583px;stroke-linecap:butt;stroke-linejoin:miter;stroke-opacity:1" />
    </clipPath>
  </defs>
  <sodipodi:namedview
     inkscape:window-maximized="0"
     inkscape:window-y="0"
     inkscape:window-x="507"
     inkscape:window-height="696"
     inkscape:window-width="850"
     inkscape:snap-global="false"
     inkscape:object-nodes="true"
     inkscape:snap-others="true"
     showgrid="false"
     inkscape:document-rotation="0"
     inkscape:current-layer="layer9"
     inkscape:document-units="mm"
     inkscape:cy="302.35228"
     inkscape:cx="147.14477"
     inkscape:zoom="0.49611004"
     inkscape:pageshadow="2"
     inkscape:pageopacity="0.0"
     borderopacity="1.0"
     bordercolor="#666666"
     pagecolor="#ffffff"
     id="base"
     showguides="false"
     inkscape:guide-bbox="true"
     inkscape:pagecheckerboard="0" />
  <g
     style="display:inline"
     inkscape:label="left_leg"
     id="layer9"
     inkscape:groupmode="layer">
    <g
       id="g43"
       transform="translate(-89.18566,-144.74766)"
       inkscape:transform-center-y="65.064529">
      <path
         sodipodi:nodetypes="ccccc"
         style="fill:#1a1a1a;stroke:none;stroke-width:0.264583px;stroke-linecap:butt;stroke-linejoin:miter;stroke-opacity:1"
         d="m 99.381406,272.9233 10.132984,0.26732 19.83076,-119.00849 c 1.20344,-10.77356 -28.32587,-13.40329 -28.92854,-2.16806 z"
         id="path3150"
         inkscape:transform-center-x="4.9162982"
         inkscape:transform-center-y="55.295672" />
      <path
         style="fill:#333333;stroke:none;stroke-width:0.264583px;stroke-linecap:butt;stroke-linejoin:miter;stroke-opacity:1"
         d="m 98.296312,216.58518 0.33385,58.05076 -8.118077,9.98138 c -2.229717,3.92338 -1.702857,6.24231 1.995091,7.60299 6.824508,0.34195 8.584464,-0.40661 11.729954,-1.75905 3.7108,-3.03437 6.50478,-6.4208 6.69729,-9.71184 l 8.19623,-60.67407 c -7.14874,-1.56759 -8.2211,-9.3348 -11.60714,-15.80658 -1.34512,1.18846 -8.937479,9.17508 -9.227198,12.31641 z"
         id="path855-3"
         sodipodi:nodetypes="ccccccccc" />
      <path
         id="path1857-2"
         d="m 98.371481,236.87716 v 4.14822 c 4.153569,1.44397 11.528299,2.73531 17.441399,2.16839 l 0.56566,-3.20545 c -5.14501,0.44892 -16.08365,-1.0708 -18.007059,-3.11116 z"
         style="display:inline;fill:#000000;stroke:none;stroke-width:0.264583px;stroke-linecap:butt;stroke-linejoin:miter;stroke-opacity:1"
         sodipodi:nodetypes="ccccc" />
      <path
         sodipodi:nodetypes="ccccc"
         style="display:inline;fill:#000000;stroke:none;stroke-width:0.264583px;stroke-linecap:butt;stroke-linejoin:miter;stroke-opacity:1"
         d="m 98.371482,227.58856 v 4.14822 c 4.153568,1.44397 12.848188,3.01814 18.761298,2.45122 l 0.47138,-3.0169 c -5.14501,0.44892 -17.30927,-1.54218 -19.232678,-3.58254 z"
         id="path1857-2-5" />
      <path
         sodipodi:nodetypes="ccccc"
         style="display:inline;fill:#000000;stroke:none;stroke-width:0.264583px;stroke-linecap:butt;stroke-linejoin:miter;stroke-opacity:1"
         d="m 98.270504,218.35536 v 4.14822 c 4.153576,1.44397 14.450906,3.30097 20.364026,2.73405 l 0.47137,-3.20545 c -5.14501,0.44892 -18.91199,-1.63646 -20.835396,-3.67682 z"
         id="path1857-2-8" />
    </g>
  </g>
  <metadata
     id="metadata5">
    <rdf:RDF>
      <cc:Work
         rdf:about="">
        <dc:format>image/svg+xml</dc:format>
        <dc:type
           rdf:resource="http://purl.org/dc/dcmitype/StillImage" />
        <dc:title />
      </cc:Work>
    </rdf:RDF>
  </metadata>
</svg>
