<?xml version="1.0" encoding="UTF-8" standalone="no"?>
<svg
   inkscape:export-ydpi="241.905"
   inkscape:export-xdpi="241.905"
   inkscape:export-filename="C:\Users\260862\Desktop\bartender.png"
   width="55.050404mm"
   height="58.081436mm"
   viewBox="0 0 55.050404 58.081436"
   version="1.1"
   id="svg8"
   inkscape:version="1.1.1 (3bf5ae0d25, 2021-09-20)"
   sodipodi:docname="merchant_head.svg"
   xmlns:inkscape="http://www.inkscape.org/namespaces/inkscape"
   xmlns:sodipodi="http://sodipodi.sourceforge.net/DTD/sodipodi-0.dtd"
   xmlns="http://www.w3.org/2000/svg"
   xmlns:svg="http://www.w3.org/2000/svg"
   xmlns:rdf="http://www.w3.org/1999/02/22-rdf-syntax-ns#"
   xmlns:cc="http://creativecommons.org/ns#"
   xmlns:dc="http://purl.org/dc/elements/1.1/">
  <defs
     id="defs2">
    <clipPath
       clipPathUnits="userSpaceOnUse"
       id="clipPath4045">
      <path
         style="fill:none;stroke:#000000;stroke-width:0.264583px;stroke-linecap:butt;stroke-linejoin:miter;stroke-opacity:1"
         d="M 87.197134,57.598109 C 88.69643,71.309833 86.336415,84.020996 68.797741,92.79695 L 14.399527,175.72756 -18.399396,142.39532 27.465763,50.665004 Z"
         id="path4047"
         sodipodi:nodetypes="cccccc" />
    </clipPath>
  </defs>
  <g
     inkscape:groupmode="layer"
     id="layer11"
     inkscape:label="head"
     style="display:inline">
    <g
        id="g47"
        transform="translate(-91.319917,-6.2483336)">
      <path
         style="fill:#411731;fill-opacity:1;stroke:none;stroke-width:0.254778px;stroke-linecap:butt;stroke-linejoin:miter;stroke-opacity:1"
         d="m 82.46365,20.596417 -2.668718,28.303781 c 0,0 -2.341718,-0.602116 5.836209,1.334495 8.177924,1.936565 19.314449,-17.08936 19.314449,-17.08936 -3.91184,-42.6777793 -8.313316,-5.585008 -22.48194,-12.548916 z"
         id="path1000"
         sodipodi:nodetypes="cczcc" />
      <path
         sodipodi:nodetypes="cccccc"
         id="path899-9"
         d="m 83.188568,18.233008 c -2.070359,9.106357 2.421663,17.062592 3.174206,28.430625 2.250157,8.421345 5.5391,9.048224 13.522005,10.900811 7.898121,-3.260858 7.541831,-2.45108 11.397591,-9.360549 1.42467,-17.760546 4.62414,-23.161023 2.63852,-32.611568 C 95.512523,5.446229 90.824133,13.205652 83.188568,18.233008 Z"
         style="fill:#ffb380;stroke:none;stroke-width:0.26523px;stroke-linecap:butt;stroke-linejoin:miter;stroke-opacity:1" />
      <path
         sodipodi:nodetypes="zzzczzzzzzzzzzzzzzzzz"
         d="m 105.23416,44.750445 c 0.77372,1.558917 0.76665,5.452347 1.07259,5.955333 0.30595,0.502986 -4.27294,4.688773 -4.75439,2.553379 -0.48146,-2.135393 -3.053275,-6.679403 -2.903303,-5.847129 -0.981644,1.695132 -0.531482,8.436292 -0.413076,9.098671 0.118406,0.662378 2.119409,0.882193 2.910089,0.285419 0.79069,-0.596775 5.22046,-2.352617 5.36857,-2.699115 0.1481,-0.346498 2.01519,-1.084641 2.22458,-2.270115 0.20939,-1.185473 0.76961,-3.383271 0.87977,-6.280429 0.11017,-2.897157 1.73093,-5.915848 -11.164799,-5.750317 -12.895725,0.165531 -10.234015,4.258661 -10.473581,6.066219 -0.239526,1.807563 1.473292,5.920838 1.799069,7.134328 0.325777,1.21349 3.433188,1.703305 3.597425,2.019705 0.164237,0.316401 5.423455,2.49726 5.501183,2.163951 0.07774,-0.333308 0.102364,-7.601702 -0.566,-8.425353 -0.668363,-0.82365 -1.37121,2.048873 -2.221101,4.11074 -0.849891,2.061867 -4.843931,-0.64403 -4.575665,-1.442192 0.268265,-0.798161 0.0886,-5.546133 0.570404,-6.004486 0.481804,-0.458353 1.021407,-0.887051 2.284902,-1.379757 1.263495,-0.492705 6.728153,-0.288025 8.224653,-0.275586 1.49649,0.01244 1.86496,-0.572181 2.63868,0.986734 z"
         style="fill:#552200;stroke:none;stroke-width:0.226545px;stroke-linecap:butt;stroke-linejoin:miter;stroke-opacity:1"
         id="path901-8" />
      <ellipse
         style="fill:#ffb380;stroke-width:0.310999"
         id="path128"
         cx="88.580269"
         cy="27.48982"
         rx="3.6250823"
         ry="2.4413819"
         transform="rotate(-1.2979727)" />
      <ellipse
         style="fill:none;stroke:#552200;stroke-width:1;stroke-miterlimit:4;stroke-dasharray:none;stroke-opacity:1"
         id="path132"
         ry="4.599597"
         rx="4.8215404"
         cy="32.57222"
         cx="91.169594"
         transform="rotate(-1.2979727)" />
      <ellipse
         id="path132-6"
         style="display:inline;fill:none;stroke:#552200;stroke-width:1;stroke-miterlimit:4;stroke-dasharray:none;stroke-opacity:1"
         ry="4.6356325"
         rx="4.8205857"
         cy="32.498241"
         cx="105.07809"
         transform="rotate(-1.2979727)" />
      <path
         style="fill:#8d634a;fill-opacity:1;stroke:#552200;stroke-width:0.82529;stroke-linecap:butt;stroke-linejoin:miter;stroke-miterlimit:4;stroke-dasharray:none;stroke-opacity:1"
         d="m 96.194434,28.04386 5.199796,-0.117815"
         id="path982" />
      <path
         style="fill:none;stroke:#552200;stroke-width:0.6;stroke-linecap:butt;stroke-linejoin:miter;stroke-miterlimit:4;stroke-dasharray:none;stroke-opacity:1"
         d="M 87.190514,28.753735 82.100042,25.133438"
         id="path994" />
      <path
         style="fill:#651e40;fill-opacity:1;stroke:none;stroke-width:0.272808px;stroke-linecap:butt;stroke-linejoin:miter;stroke-opacity:1"
         d="m 96.104428,19.569404 c 4.811252,-0.13657 13.529662,2.148388 13.666492,2.947407 0.13682,0.799018 0.88398,6.848823 2.13981,9.609964 1.25583,2.761142 3.97273,16.993497 3.97273,16.993497 0,0 3.31349,8.37996 3.47389,9.425901 0.16041,1.045941 3.98503,4.652414 3.98503,4.652414 1.93514,0.649417 -0.64139,-45.151271 -4.23503,-50.887265 0,0 -6.73054,-5.9782997 -8.54136,-6.74877 -1.04105,0.5440928 -5.10853,-1.1684828 -17.209567,-0.051985 -3.615702,3.2922473 -10.761774,6.5558001 -13.235455,14.7251841 -0.188405,0.622213 -1.715231,3.471145 -4.685386,10.614729 -3.542949,8.521222 -6.481437,18.290285 -6.481437,18.290285 l 12.091909,-0.03979 c 0,0 1.391289,-25.272931 3.073389,-27.520013 1.6821,-2.24708 7.173735,-1.874978 11.984985,-2.011551 z"
         id="path996"
         sodipodi:nodetypes="zzzczccccsscczzz" />
      <path
         style="fill:#6c3950;fill-opacity:1;stroke:#651e40;stroke-width:0.264583px;stroke-linecap:butt;stroke-linejoin:miter;stroke-opacity:1"
         d="m 82.951888,17.93622 c -0.410255,1.4893 -5.62284,12.844643 -6.278363,13.038058 -0.766942,4.284451 -2.096193,-2.672185 -2.096193,-2.672185 l 8.118582,-14.666964 28.188626,5.53834 2.0741,27.363377 9.05745,5.293421 -10.47429,-39.207302 -8.75541,5.884978 z"
         id="path1077"
         sodipodi:nodetypes="cccccccccc" />
      <path
         style="fill:#6c3950;fill-opacity:1;stroke:none;stroke-width:0.264583px;stroke-linecap:butt;stroke-linejoin:miter;stroke-opacity:1"
         d="m 101.43468,6.5025581 -9.66264,5.3992159 -1.848572,3.861689 6.299611,0.903786 -2.291365,-4.134169 7.932026,-5.5693088 6.58718,2.0484449 -3.22629,5.4103609 6.16452,-5.0583262 -5.46266,-3.2250975 z"
         id="path1079" />
    </g>
  </g>
  <sodipodi:namedview
     inkscape:guide-bbox="true"
     showguides="true"
     id="base"
     pagecolor="#ffffff"
     bordercolor="#666666"
     borderopacity="1.0"
     inkscape:pageopacity="0.0"
     inkscape:pageshadow="2"
     inkscape:zoom="0.63221632"
     inkscape:cx="-52.197324"
     inkscape:cy="239.63317"
     inkscape:document-units="mm"
     inkscape:current-layer="layer11"
     inkscape:document-rotation="0"
     showgrid="false"
     inkscape:snap-others="true"
     inkscape:object-nodes="true"
     inkscape:snap-global="false"
     inkscape:window-width="1366"
     inkscape:window-height="705"
     inkscape:window-x="-8"
     inkscape:window-y="-8"
     inkscape:window-maximized="1"
     inkscape:pagecheckerboard="0" />
  <metadata
     id="metadata5">
    <rdf:RDF>
      <cc:Work
         rdf:about="">
        <dc:format>image/svg+xml</dc:format>
        <dc:type
           rdf:resource="http://purl.org/dc/dcmitype/StillImage" />
        <dc:title />
      </cc:Work>
    </rdf:RDF>
  </metadata>
</svg>
