<?xml version="1.0" encoding="ISO-8859-1" standalone="no"?><svg xmlns="http://www.w3.org/2000/svg" xmlns:xlink="http://www.w3.org/1999/xlink" version="1.1" height="297mm" width="500mm" viewBox="0 0 210 297" id="svg17978"  >
<defs id="defs17975"  />
<g id="layer2" style="display:inline"  >
<g id="leg_right" transform="translate(50, 150) rotate(-15)"  >
<g id="g52468" transform="translate(-103.83956,-149.15215)"  >
<path d="M 119.57082,204.70599 109.43502,204.58538 94.172604,84.905223 C 93.382286,74.09352 113.521,77.330434 119.01997,79.406813 l 5.60208,8.939185 z" id="path3150-8" style="display:inline;fill:#5b1c1c;fill-opacity:1;stroke:none;stroke-width:0.264583px;stroke-linecap:butt;stroke-linejoin:miter;stroke-opacity:1"  />
<g transform="rotate(8.3319891,657.90302,228.16952)" id="g3230" style="display:inline"  >
<g id="g3222"  />
<g id="g81"  >
<path d="m 103.41379,260.88352 6.69645,18.22602 -5.50395,11.62918 c -1.22991,4.34187 -0.16532,6.46829 3.75041,6.90799 6.70921,-1.29516 8.23991,-2.44178 10.97221,-4.50522 2.88024,-3.83165 4.78617,-7.78662 4.18841,-11.02863 l -2.62068,-24.35204 c -3.18266,1.72395 -11.36079,4.12157 -17.48285,3.1227 z" id="path855-9-6" style="display:inline;fill:#2b1100;stroke:none;stroke-width:0.264583px;stroke-linecap:butt;stroke-linejoin:miter;stroke-opacity:1"  />
<path d="m 93.435525,215.45431 c 1.996079,2.96759 12.235725,0.66733 16.871955,-2.81423 l 0.0608,1.44154 c -3.05293,4.46245 -11.660459,5.80644 -16.144729,3.29998 z" style="display:inline;fill:#241c1c;stroke:none;stroke-width:0.356346px;stroke-linecap:butt;stroke-linejoin:miter;stroke-opacity:1" id="path1685-96-6"  />
<path d="m 109.55254,277.08503 c 3.70131,0.74267 8.1552,0.16108 12.98238,-2.53582 l -0.21688,-2.65894 c -6.38503,3.03193 -11.72166,3.04871 -13.9928,2.02482 z" id="path1614-3-2" style="fill:#000000;stroke:#000000;stroke-width:0.264583px;stroke-linecap:butt;stroke-linejoin:miter;stroke-opacity:1"  />
<path d="m 107.35128,271.34365 c 3.7013,0.74267 9.76152,-0.094 14.58868,-2.79095 l -0.33897,-2.94871 c -6.38502,3.03193 -13.20587,3.59361 -15.47703,2.56969 z" style="fill:#000000;stroke:#000000;stroke-width:0.264583px;stroke-linecap:butt;stroke-linejoin:miter;stroke-opacity:1" id="path1614-5-3-9"  />
</g>
</g>
</g>
</g>
<g id="arm_left" transform="translate(-30, 80) rotate(-10)"  >
<g id="g31247" transform="translate(-20.480936,-67.128329)"  >
<path d="m 113.95578,93.859389 -26.273164,36.356351 -1.519398,3.40084 1.510766,6.97522 -2.338369,-1.43531 -0.777899,3.15349 -1.543405,2.83966 c -6.074926,1.7577 -5.177258,-3.8653 -7.018226,-6.465 l 4.455306,-10.96341 21.094289,-39.083441 c 9.22763,-27.189859 9.19202,-31.424007 19.16091,-45.744509 10.04198,9.38616 14.30143,3.81434 4.97568,31.128329 z" style="display:inline;fill:#ffb380;stroke:none;stroke-width:0.2685px;stroke-linecap:butt;stroke-linejoin:miter;stroke-opacity:1" id="path895-3-2-1-1"  />
<path d="m 129.4758,66.916203 c -3.98808,3.019328 -4.41497,20.104691 -11.30975,27.734891 L 87.906514,136.06972 c -2.61388,-1.74119 -8.819548,-0.66232 -12.078249,-3.6481 L 101.92563,86.755424 c 5.68906,-15.307675 12.75835,-47.771878 24.77515,-48.874693 22.3332,9.408493 3.07371,27.442729 2.77502,29.035472 z" id="path1422-5-0-1-9" style="display:inline;fill:#3d492f;fill-opacity:1;stroke:none;stroke-width:0.283111px;stroke-linecap:butt;stroke-linejoin:miter;stroke-opacity:1"  />
</g>
</g>
<g id="leg_left" transform="translate(30, 140) rotate(10)"  >
<g id="g48357" transform="translate(-75.852764,-147.14758)"  >
<path d="m 94.19964,215.05209 10.61757,0.77372 26.41755,-115.58959 C 127.65899,90.114961 115.8172,91.863184 105.12851,96.821047 l -4.63259,6.430593 z" style="display:inline;fill:#5b1c1c;fill-opacity:1;stroke:none;stroke-width:0.268541px;stroke-linecap:butt;stroke-linejoin:miter;stroke-opacity:1" id="path3150"  />
<path d="m 92.082172,197.68296 1.353081,19.01408 -8.98724,9.36858 c -2.524193,3.73107 -2.080867,6.02951 1.734344,7.54935 7.143237,0.67971 9.024856,0.0352 12.38848,-1.13083 4.036023,-2.7853 7.126833,-5.96183 7.484023,-9.17629 l 4.56652,-23.61674 c -3.71692,0.71988 -12.666469,0.66059 -18.539208,-2.00815 z" style="display:inline;fill:#2b1100;stroke:none;stroke-width:0.268541px;stroke-linecap:butt;stroke-linejoin:miter;stroke-opacity:1" id="path855-3"  />
<path d="m 98.382566,148.97707 c 0.693101,3.45237 11.524854,5.41808 17.442364,4.11577 l -0.53991,1.31913 c -4.79761,2.80713 -13.65805,0.62498 -16.942603,-3.39294 z" id="path1685-96" style="display:inline;fill:#241c1c;stroke:none;stroke-width:0.361676px;stroke-linecap:butt;stroke-linejoin:miter;stroke-opacity:1"  />
<path d="m 93.677801,214.3512 c 3.509498,1.74385 8.169189,2.4564 13.830999,1.28739 l 0.56841,-2.55908 c -7.3306,1.04342 -12.712552,-0.44923 -14.697843,-2.05301 z" style="display:inline;fill:#000000;stroke:#000000;stroke-width:0.268541px;stroke-linecap:butt;stroke-linejoin:miter;stroke-opacity:1" id="path1614-0"  />
<path d="m 93.159051,208.33563 c 3.509498,1.74384 9.863159,2.67077 15.524989,1.50175 l 0.53112,-2.8658 c -7.3306,1.04342 -14.369252,-0.35687 -16.354542,-1.96068 z" id="path1614-5-7" style="display:inline;fill:#000000;stroke:#000000;stroke-width:0.268541px;stroke-linecap:butt;stroke-linejoin:miter;stroke-opacity:1"  />
</g>
</g>
<g id="torso" transform="translate(2, 45)"  >
<g id="g20642" transform="translate(-52.531606,-45.914646)"  >
<g id="g71" transform="matrix(0.99149525,0.00183866,-0.00179712,0.99549334,-6.847386,-6.5321321)"  >
<path d="m 96.087885,51.617551 c 3.81242,-4.050854 2.70741,-4.039488 4.549545,-8.885468 l 14.71867,0.0781 c 1.69817,3.383011 -0.43974,7.205007 10.60228,11.639161 18.00272,19.292759 5.3602,12.574054 7.27274,33.351786 l -6.89476,60.76428 -38.175595,0.37798 C 83.532941,76.804966 66.739159,85.33148 96.087885,51.617551 Z" id="path895-3" style="fill:#ffb380;stroke:none;stroke-width:0.264583px;stroke-linecap:butt;stroke-linejoin:miter;stroke-opacity:1"  />
<g transform="translate(-254.40024,-3.7398264)" id="g3248"  />
</g>
<path d="m 76.021818,59.655278 17.286166,78.355992 15.556946,1.90363 13.83636,-79.339827 -8.4766,-16.472075 -14.1212,7.264605 -10.365648,-4.393696 -3.934427,-4.173462 -1.87137,2.28792 z" style="display:inline;fill:#462b07;fill-opacity:1;stroke:none;stroke-width:0.262862px;stroke-linecap:butt;stroke-linejoin:miter;stroke-opacity:1" id="path1004"  />
<path d="m 85.76238,46.455723 c 2.977666,6.073732 9.670458,3.561666 13.508163,6.225029 -2.801495,5.572693 0.426913,10.005064 0.306623,10.64865 -0.371724,1.988721 -2.725342,5.657236 -0.06567,13.143719 -0.727626,3.265095 -1.359807,8.884407 -0.02746,13.0146 -0.204443,0.579823 -1.084004,8.204873 -0.106138,11.780249 -0.321033,2.83125 -0.160813,7.68471 0.286245,12.81357 0.12225,4.99341 -0.361009,6.58772 0.185118,10.41627 0.156049,3.82784 0.307429,6.51082 0.410949,6.92485 0.078,-0.036 0.0236,-3.25604 0.14846,-6.96442 0.12478,-3.70839 0.0944,-5.33087 -0.29623,-10.37359 0.51881,-4.63645 0.53969,-8.29558 0.0588,-12.86695 1.06685,-3.764516 0.38373,-10.893921 0.007,-11.585911 0.8817,-2.891725 1.33552,-8.164557 -0.14135,-13.141825 0.95245,-4.127246 2.6151,-8.789025 0.0337,-13.176238 -0.323548,-0.549888 2.75909,-4.248513 0.83696,-10.514649 2.60701,-1.769674 12.97359,-1.208915 13.17281,-6.983063 l 5.58697,1.871645 c 15.20869,5.284444 11.82525,17.09851 6.72857,87.086511 l 8.44921,31.76097 -31.23509,-0.40792 -37.774597,0.96976 6.023564,-33.26561 C 67.494351,81.642006 56.501336,47.783438 83.825793,47.150185 Z" style="display:inline;fill:#3d492f;fill-opacity:1;stroke:none;stroke-width:0.236534px;stroke-linecap:butt;stroke-linejoin:miter;stroke-opacity:1" id="path1422-5"  />
<path d="m 117.85119,126.86703 2.68473,7.9036 -6.76919,12.02343 1.74144,7.14958 6.33944,1.76701 10.57955,-1.78443 0.38233,-5.3914 -4.64292,-13.41703 4.78243,-8.73326 -6.86726,1.25001 -6.34171,-0.51326 -2.69717,-1.00799 z" style="fill:#b17910;fill-opacity:1;stroke:none;stroke-width:0.328939px;stroke-linecap:butt;stroke-linejoin:miter;stroke-opacity:1" id="path1073"  />
<path d="m 69.261756,131.02346 0.801477,4.49141 61.302517,0.25237 -0.7113,-3.51035 z" style="display:inline;fill:#2b1100;stroke:none;stroke-width:0.26883px;stroke-linecap:butt;stroke-linejoin:miter;stroke-opacity:1" id="path1656"  />
</g>
</g>
<g id="arm_right" transform="translate(80, 65) rotate(15)"  >
<g id="g47602" transform="translate(-120.51881,-60.591173)"  >
<path d="m 111.15741,81.012722 7.359,36.723478 0.37236,7.01243 -3.70954,6.25007 3.14409,-0.50808 0.29628,3.14489 1.12224,3.02834 c 5.89022,3.06743 5.85856,-2.4262 8.1334,-4.4404 l -2.80693,-11.34151 -0.7107,-42.474682 C 108.35174,47.979082 109.88447,54.946336 98.205961,33.458034 86.547112,39.939142 85.620593,29.984554 99.579242,58.60714 Z" id="path895-3-2-1" style="display:inline;fill:#ffb380;stroke:none;stroke-width:0.267179px;stroke-linecap:butt;stroke-linejoin:miter;stroke-opacity:1"  />
<path d="m 92.035185,56.765838 c 8.625685,9.448627 10.705925,17.801325 16.509795,26.578743 l 7.652,43.646039 c 2.92496,-1.02727 9.05401,1.43265 12.828,-0.61402 L 123.61879,75.435013 C 115.91213,61.188068 108.54222,33.186933 92.715424,27.9514 69.404149,27.148256 84.357855,47.740162 92.035185,56.765838 Z" style="fill:#3d492f;fill-opacity:1;stroke:none;stroke-width:0.281718px;stroke-linecap:butt;stroke-linejoin:miter;stroke-opacity:1" id="path1422-5-0-1"  />
</g>
</g>
<g id="head" transform="translate(40, 0)"  >
<g id="g19121" transform="translate(-91.319917,-6.2483336)"  >
<path d="m 82.46365,20.596417 -2.668718,28.303781 c 0,0 -2.341718,-0.602116 5.836209,1.334495 8.177924,1.936565 19.314449,-17.08936 19.314449,-17.08936 -3.91184,-42.6777793 -8.313316,-5.585008 -22.48194,-12.548916 z" style="fill:#411731;fill-opacity:1;stroke:none;stroke-width:0.254778px;stroke-linecap:butt;stroke-linejoin:miter;stroke-opacity:1" id="path1000"  />
<path d="m 83.188568,18.233008 c -2.070359,9.106357 2.421663,17.062592 3.174206,28.430625 2.250157,8.421345 5.5391,9.048224 13.522005,10.900811 7.898121,-3.260858 7.541831,-2.45108 11.397591,-9.360549 1.42467,-17.760546 4.62414,-23.161023 2.63852,-32.611568 C 95.512523,5.446229 90.824133,13.205652 83.188568,18.233008 Z" id="path899-9" style="fill:#ffb380;stroke:none;stroke-width:0.26523px;stroke-linecap:butt;stroke-linejoin:miter;stroke-opacity:1"  />
<path d="m 105.23416,44.750445 c 0.77372,1.558917 0.76665,5.452347 1.07259,5.955333 0.30595,0.502986 -4.27294,4.688773 -4.75439,2.553379 -0.48146,-2.135393 -3.053275,-6.679403 -2.903303,-5.847129 -0.981644,1.695132 -0.531482,8.436292 -0.413076,9.098671 0.118406,0.662378 2.119409,0.882193 2.910089,0.285419 0.79069,-0.596775 5.22046,-2.352617 5.36857,-2.699115 0.1481,-0.346498 2.01519,-1.084641 2.22458,-2.270115 0.20939,-1.185473 0.76961,-3.383271 0.87977,-6.280429 0.11017,-2.897157 1.73093,-5.915848 -11.164799,-5.750317 -12.895725,0.165531 -10.234015,4.258661 -10.473581,6.066219 -0.239526,1.807563 1.473292,5.920838 1.799069,7.134328 0.325777,1.21349 3.433188,1.703305 3.597425,2.019705 0.164237,0.316401 5.423455,2.49726 5.501183,2.163951 0.07774,-0.333308 0.102364,-7.601702 -0.566,-8.425353 -0.668363,-0.82365 -1.37121,2.048873 -2.221101,4.11074 -0.849891,2.061867 -4.843931,-0.64403 -4.575665,-1.442192 0.268265,-0.798161 0.0886,-5.546133 0.570404,-6.004486 0.481804,-0.458353 1.021407,-0.887051 2.284902,-1.379757 1.263495,-0.492705 6.728153,-0.288025 8.224653,-0.275586 1.49649,0.01244 1.86496,-0.572181 2.63868,0.986734 z" style="fill:#552200;stroke:none;stroke-width:0.226545px;stroke-linecap:butt;stroke-linejoin:miter;stroke-opacity:1" id="path901-8"  />
<ellipse cx="88.580269" cy="27.48982" rx="3.6250823" ry="2.4413819" style="fill:#ffb380;stroke-width:0.310999" id="path128" transform="rotate(-1.2979727)"  />
<ellipse cx="91.169594" cy="32.57222" rx="4.8215404" ry="4.599597" style="fill:none;stroke:#552200;stroke-width:1;stroke-miterlimit:4;stroke-dasharray:none;stroke-opacity:1" id="path132" transform="rotate(-1.2979727)"  />
<ellipse cx="105.07809" cy="32.498241" rx="4.8205857" ry="4.6356325" id="path132-6" style="display:inline;fill:none;stroke:#552200;stroke-width:1;stroke-miterlimit:4;stroke-dasharray:none;stroke-opacity:1" transform="rotate(-1.2979727)"  />
<path d="m 96.194434,28.04386 5.199796,-0.117815" style="fill:#8d634a;fill-opacity:1;stroke:#552200;stroke-width:0.82529;stroke-linecap:butt;stroke-linejoin:miter;stroke-miterlimit:4;stroke-dasharray:none;stroke-opacity:1" id="path982"  />
<path d="M 87.190514,28.753735 82.100042,25.133438" style="fill:none;stroke:#552200;stroke-width:0.6;stroke-linecap:butt;stroke-linejoin:miter;stroke-miterlimit:4;stroke-dasharray:none;stroke-opacity:1" id="path994"  />
<path d="m 96.104428,19.569404 c 4.811252,-0.13657 13.529662,2.148388 13.666492,2.947407 0.13682,0.799018 0.88398,6.848823 2.13981,9.609964 1.25583,2.761142 3.97273,16.993497 3.97273,16.993497 0,0 3.31349,8.37996 3.47389,9.425901 0.16041,1.045941 3.98503,4.652414 3.98503,4.652414 1.93514,0.649417 -0.64139,-45.151271 -4.23503,-50.887265 0,0 -6.73054,-5.9782997 -8.54136,-6.74877 -1.04105,0.5440928 -5.10853,-1.1684828 -17.209567,-0.051985 -3.615702,3.2922473 -10.761774,6.5558001 -13.235455,14.7251841 -0.188405,0.622213 -1.715231,3.471145 -4.685386,10.614729 -3.542949,8.521222 -6.481437,18.290285 -6.481437,18.290285 l 12.091909,-0.03979 c 0,0 1.391289,-25.272931 3.073389,-27.520013 1.6821,-2.24708 7.173735,-1.874978 11.984985,-2.011551 z" style="fill:#651e40;fill-opacity:1;stroke:none;stroke-width:0.272808px;stroke-linecap:butt;stroke-linejoin:miter;stroke-opacity:1" id="path996"  />
<path d="m 82.951888,17.93622 c -0.410255,1.4893 -5.62284,12.844643 -6.278363,13.038058 -0.766942,4.284451 -2.096193,-2.672185 -2.096193,-2.672185 l 8.118582,-14.666964 28.188626,5.53834 2.0741,27.363377 9.05745,5.293421 -10.47429,-39.207302 -8.75541,5.884978 z" style="fill:#6c3950;fill-opacity:1;stroke:#651e40;stroke-width:0.264583px;stroke-linecap:butt;stroke-linejoin:miter;stroke-opacity:1" id="path1077"  />
<path d="m 101.43468,6.5025581 -9.66264,5.3992159 -1.848572,3.861689 6.299611,0.903786 -2.291365,-4.134169 7.932026,-5.5693088 6.58718,2.0484449 -3.22629,5.4103609 6.16452,-5.0583262 -5.46266,-3.2250975 z" style="fill:#6c3950;fill-opacity:1;stroke:none;stroke-width:0.264583px;stroke-linecap:butt;stroke-linejoin:miter;stroke-opacity:1" id="path1079"  />
</g>
</g>
</g>
<g id="g673" style="display:inline"  >
<g id="leg_right" transform="translate(-65, 145)"  >
<g id="g52468" transform="translate(-103.83956,-149.15215)"  >
<path d="M 119.57082,204.70599 109.43502,204.58538 94.172604,84.905223 C 93.382286,74.09352 113.521,77.330434 119.01997,79.406813 l 5.60208,8.939185 z" id="path3150-8" style="display:inline;fill:#5b1c1c;fill-opacity:1;stroke:none;stroke-width:0.264583px;stroke-linecap:butt;stroke-linejoin:miter;stroke-opacity:1"  />
<g transform="rotate(8.3319891,657.90302,228.16952)" id="g3230" style="display:inline"  >
<g id="g3222"  />
<g id="g81"  >
<path d="m 103.41379,260.88352 6.69645,18.22602 -5.50395,11.62918 c -1.22991,4.34187 -0.16532,6.46829 3.75041,6.90799 6.70921,-1.29516 8.23991,-2.44178 10.97221,-4.50522 2.88024,-3.83165 4.78617,-7.78662 4.18841,-11.02863 l -2.62068,-24.35204 c -3.18266,1.72395 -11.36079,4.12157 -17.48285,3.1227 z" id="path855-9-6" style="display:inline;fill:#2b1100;stroke:none;stroke-width:0.264583px;stroke-linecap:butt;stroke-linejoin:miter;stroke-opacity:1"  />
<path d="m 93.435525,215.45431 c 1.996079,2.96759 12.235725,0.66733 16.871955,-2.81423 l 0.0608,1.44154 c -3.05293,4.46245 -11.660459,5.80644 -16.144729,3.29998 z" style="display:inline;fill:#241c1c;stroke:none;stroke-width:0.356346px;stroke-linecap:butt;stroke-linejoin:miter;stroke-opacity:1" id="path1685-96-6"  />
<path d="m 109.55254,277.08503 c 3.70131,0.74267 8.1552,0.16108 12.98238,-2.53582 l -0.21688,-2.65894 c -6.38503,3.03193 -11.72166,3.04871 -13.9928,2.02482 z" id="path1614-3-2" style="fill:#000000;stroke:#000000;stroke-width:0.264583px;stroke-linecap:butt;stroke-linejoin:miter;stroke-opacity:1"  />
<path d="m 107.35128,271.34365 c 3.7013,0.74267 9.76152,-0.094 14.58868,-2.79095 l -0.33897,-2.94871 c -6.38502,3.03193 -13.20587,3.59361 -15.47703,2.56969 z" style="fill:#000000;stroke:#000000;stroke-width:0.264583px;stroke-linecap:butt;stroke-linejoin:miter;stroke-opacity:1" id="path1614-5-3-9"  />
</g>
</g>
</g>
</g>
<g id="arm_left" transform="translate(-150, 70)"  >
<g id="g31247" transform="translate(-20.480936,-67.128329)"  >
<path d="m 113.95578,93.859389 -26.273164,36.356351 -1.519398,3.40084 1.510766,6.97522 -2.338369,-1.43531 -0.777899,3.15349 -1.543405,2.83966 c -6.074926,1.7577 -5.177258,-3.8653 -7.018226,-6.465 l 4.455306,-10.96341 21.094289,-39.083441 c 9.22763,-27.189859 9.19202,-31.424007 19.16091,-45.744509 10.04198,9.38616 14.30143,3.81434 4.97568,31.128329 z" style="display:inline;fill:#ffb380;stroke:none;stroke-width:0.2685px;stroke-linecap:butt;stroke-linejoin:miter;stroke-opacity:1" id="path895-3-2-1-1"  />
<path d="m 129.4758,66.916203 c -3.98808,3.019328 -4.41497,20.104691 -11.30975,27.734891 L 87.906514,136.06972 c -2.61388,-1.74119 -8.819548,-0.66232 -12.078249,-3.6481 L 101.92563,86.755424 c 5.68906,-15.307675 12.75835,-47.771878 24.77515,-48.874693 22.3332,9.408493 3.07371,27.442729 2.77502,29.035472 z" id="path1422-5-0-1-9" style="display:inline;fill:#3d492f;fill-opacity:1;stroke:none;stroke-width:0.283111px;stroke-linecap:butt;stroke-linejoin:miter;stroke-opacity:1"  />
</g>
</g>
<g id="arm_right" transform="translate(-40, 70)"  >
<g id="g47602" transform="translate(-120.51881,-60.591173)"  >
<path d="m 111.15741,81.012722 7.359,36.723478 0.37236,7.01243 -3.70954,6.25007 3.14409,-0.50808 0.29628,3.14489 1.12224,3.02834 c 5.89022,3.06743 5.85856,-2.4262 8.1334,-4.4404 l -2.80693,-11.34151 -0.7107,-42.474682 C 108.35174,47.979082 109.88447,54.946336 98.205961,33.458034 86.547112,39.939142 85.620593,29.984554 99.579242,58.60714 Z" id="path895-3-2-1" style="display:inline;fill:#ffb380;stroke:none;stroke-width:0.267179px;stroke-linecap:butt;stroke-linejoin:miter;stroke-opacity:1"  />
<path d="m 92.035185,56.765838 c 8.625685,9.448627 10.705925,17.801325 16.509795,26.578743 l 7.652,43.646039 c 2.92496,-1.02727 9.05401,1.43265 12.828,-0.61402 L 123.61879,75.435013 C 115.91213,61.188068 108.54222,33.186933 92.715424,27.9514 69.404149,27.148256 84.357855,47.740162 92.035185,56.765838 Z" style="fill:#3d492f;fill-opacity:1;stroke:none;stroke-width:0.281718px;stroke-linecap:butt;stroke-linejoin:miter;stroke-opacity:1" id="path1422-5-0-1"  />
</g>
</g>
<g id="leg_left" transform="translate(-95, 140)"  >
<g id="g48357" transform="translate(-75.852764,-147.14758)"  >
<path d="m 94.19964,215.05209 10.61757,0.77372 26.41755,-115.58959 C 127.65899,90.114961 115.8172,91.863184 105.12851,96.821047 l -4.63259,6.430593 z" style="display:inline;fill:#5b1c1c;fill-opacity:1;stroke:none;stroke-width:0.268541px;stroke-linecap:butt;stroke-linejoin:miter;stroke-opacity:1" id="path3150"  />
<path d="m 92.082172,197.68296 1.353081,19.01408 -8.98724,9.36858 c -2.524193,3.73107 -2.080867,6.02951 1.734344,7.54935 7.143237,0.67971 9.024856,0.0352 12.38848,-1.13083 4.036023,-2.7853 7.126833,-5.96183 7.484023,-9.17629 l 4.56652,-23.61674 c -3.71692,0.71988 -12.666469,0.66059 -18.539208,-2.00815 z" style="display:inline;fill:#2b1100;stroke:none;stroke-width:0.268541px;stroke-linecap:butt;stroke-linejoin:miter;stroke-opacity:1" id="path855-3"  />
<path d="m 98.382566,148.97707 c 0.693101,3.45237 11.524854,5.41808 17.442364,4.11577 l -0.53991,1.31913 c -4.79761,2.80713 -13.65805,0.62498 -16.942603,-3.39294 z" id="path1685-96" style="display:inline;fill:#241c1c;stroke:none;stroke-width:0.361676px;stroke-linecap:butt;stroke-linejoin:miter;stroke-opacity:1"  />
<path d="m 93.677801,214.3512 c 3.509498,1.74385 8.169189,2.4564 13.830999,1.28739 l 0.56841,-2.55908 c -7.3306,1.04342 -12.712552,-0.44923 -14.697843,-2.05301 z" style="display:inline;fill:#000000;stroke:#000000;stroke-width:0.268541px;stroke-linecap:butt;stroke-linejoin:miter;stroke-opacity:1" id="path1614-0"  />
<path d="m 93.159051,208.33563 c 3.509498,1.74384 9.863159,2.67077 15.524989,1.50175 l 0.53112,-2.8658 c -7.3306,1.04342 -14.369252,-0.35687 -16.354542,-1.96068 z" id="path1614-5-7" style="display:inline;fill:#000000;stroke:#000000;stroke-width:0.268541px;stroke-linecap:butt;stroke-linejoin:miter;stroke-opacity:1"  />
</g>
</g>
<g id="torso" transform="translate(-118, 45)"  >
<g id="g20642" transform="translate(-52.531606,-45.914646)"  >
<g id="g71" transform="matrix(0.99149525,0.00183866,-0.00179712,0.99549334,-6.847386,-6.5321321)"  >
<path d="m 96.087885,51.617551 c 3.81242,-4.050854 2.70741,-4.039488 4.549545,-8.885468 l 14.71867,0.0781 c 1.69817,3.383011 -0.43974,7.205007 10.60228,11.639161 18.00272,19.292759 5.3602,12.574054 7.27274,33.351786 l -6.89476,60.76428 -38.175595,0.37798 C 83.532941,76.804966 66.739159,85.33148 96.087885,51.617551 Z" id="path895-3" style="fill:#ffb380;stroke:none;stroke-width:0.264583px;stroke-linecap:butt;stroke-linejoin:miter;stroke-opacity:1"  />
<g transform="translate(-254.40024,-3.7398264)" id="g3248"  />
</g>
<path d="m 76.021818,59.655278 17.286166,78.355992 15.556946,1.90363 13.83636,-79.339827 -8.4766,-16.472075 -14.1212,7.264605 -10.365648,-4.393696 -3.934427,-4.173462 -1.87137,2.28792 z" style="display:inline;fill:#462b07;fill-opacity:1;stroke:none;stroke-width:0.262862px;stroke-linecap:butt;stroke-linejoin:miter;stroke-opacity:1" id="path1004"  />
<path d="m 85.76238,46.455723 c 2.977666,6.073732 9.670458,3.561666 13.508163,6.225029 -2.801495,5.572693 0.426913,10.005064 0.306623,10.64865 -0.371724,1.988721 -2.725342,5.657236 -0.06567,13.143719 -0.727626,3.265095 -1.359807,8.884407 -0.02746,13.0146 -0.204443,0.579823 -1.084004,8.204873 -0.106138,11.780249 -0.321033,2.83125 -0.160813,7.68471 0.286245,12.81357 0.12225,4.99341 -0.361009,6.58772 0.185118,10.41627 0.156049,3.82784 0.307429,6.51082 0.410949,6.92485 0.078,-0.036 0.0236,-3.25604 0.14846,-6.96442 0.12478,-3.70839 0.0944,-5.33087 -0.29623,-10.37359 0.51881,-4.63645 0.53969,-8.29558 0.0588,-12.86695 1.06685,-3.764516 0.38373,-10.893921 0.007,-11.585911 0.8817,-2.891725 1.33552,-8.164557 -0.14135,-13.141825 0.95245,-4.127246 2.6151,-8.789025 0.0337,-13.176238 -0.323548,-0.549888 2.75909,-4.248513 0.83696,-10.514649 2.60701,-1.769674 12.97359,-1.208915 13.17281,-6.983063 l 5.58697,1.871645 c 15.20869,5.284444 11.82525,17.09851 6.72857,87.086511 l 8.44921,31.76097 -31.23509,-0.40792 -37.774597,0.96976 6.023564,-33.26561 C 67.494351,81.642006 56.501336,47.783438 83.825793,47.150185 Z" style="display:inline;fill:#3d492f;fill-opacity:1;stroke:none;stroke-width:0.236534px;stroke-linecap:butt;stroke-linejoin:miter;stroke-opacity:1" id="path1422-5"  />
<path d="m 117.85119,126.86703 2.68473,7.9036 -6.76919,12.02343 1.74144,7.14958 6.33944,1.76701 10.57955,-1.78443 0.38233,-5.3914 -4.64292,-13.41703 4.78243,-8.73326 -6.86726,1.25001 -6.34171,-0.51326 -2.69717,-1.00799 z" style="fill:#b17910;fill-opacity:1;stroke:none;stroke-width:0.328939px;stroke-linecap:butt;stroke-linejoin:miter;stroke-opacity:1" id="path1073"  />
<path d="m 69.261756,131.02346 0.801477,4.49141 61.302517,0.25237 -0.7113,-3.51035 z" style="display:inline;fill:#2b1100;stroke:none;stroke-width:0.26883px;stroke-linecap:butt;stroke-linejoin:miter;stroke-opacity:1" id="path1656"  />
</g>
</g>
<g id="head" transform="translate(-80, 0)"  >
<g id="g19121" transform="translate(-91.319917,-6.2483336)"  >
<path d="m 82.46365,20.596417 -2.668718,28.303781 c 0,0 -2.341718,-0.602116 5.836209,1.334495 8.177924,1.936565 19.314449,-17.08936 19.314449,-17.08936 -3.91184,-42.6777793 -8.313316,-5.585008 -22.48194,-12.548916 z" style="fill:#411731;fill-opacity:1;stroke:none;stroke-width:0.254778px;stroke-linecap:butt;stroke-linejoin:miter;stroke-opacity:1" id="path1000"  />
<path d="m 83.188568,18.233008 c -2.070359,9.106357 2.421663,17.062592 3.174206,28.430625 2.250157,8.421345 5.5391,9.048224 13.522005,10.900811 7.898121,-3.260858 7.541831,-2.45108 11.397591,-9.360549 1.42467,-17.760546 4.62414,-23.161023 2.63852,-32.611568 C 95.512523,5.446229 90.824133,13.205652 83.188568,18.233008 Z" id="path899-9" style="fill:#ffb380;stroke:none;stroke-width:0.26523px;stroke-linecap:butt;stroke-linejoin:miter;stroke-opacity:1"  />
<path d="m 105.23416,44.750445 c 0.77372,1.558917 0.76665,5.452347 1.07259,5.955333 0.30595,0.502986 -4.27294,4.688773 -4.75439,2.553379 -0.48146,-2.135393 -3.053275,-6.679403 -2.903303,-5.847129 -0.981644,1.695132 -0.531482,8.436292 -0.413076,9.098671 0.118406,0.662378 2.119409,0.882193 2.910089,0.285419 0.79069,-0.596775 5.22046,-2.352617 5.36857,-2.699115 0.1481,-0.346498 2.01519,-1.084641 2.22458,-2.270115 0.20939,-1.185473 0.76961,-3.383271 0.87977,-6.280429 0.11017,-2.897157 1.73093,-5.915848 -11.164799,-5.750317 -12.895725,0.165531 -10.234015,4.258661 -10.473581,6.066219 -0.239526,1.807563 1.473292,5.920838 1.799069,7.134328 0.325777,1.21349 3.433188,1.703305 3.597425,2.019705 0.164237,0.316401 5.423455,2.49726 5.501183,2.163951 0.07774,-0.333308 0.102364,-7.601702 -0.566,-8.425353 -0.668363,-0.82365 -1.37121,2.048873 -2.221101,4.11074 -0.849891,2.061867 -4.843931,-0.64403 -4.575665,-1.442192 0.268265,-0.798161 0.0886,-5.546133 0.570404,-6.004486 0.481804,-0.458353 1.021407,-0.887051 2.284902,-1.379757 1.263495,-0.492705 6.728153,-0.288025 8.224653,-0.275586 1.49649,0.01244 1.86496,-0.572181 2.63868,0.986734 z" style="fill:#552200;stroke:none;stroke-width:0.226545px;stroke-linecap:butt;stroke-linejoin:miter;stroke-opacity:1" id="path901-8"  />
<ellipse cx="88.580269" cy="27.48982" rx="3.6250823" ry="2.4413819" style="fill:#ffb380;stroke-width:0.310999" id="path128" transform="rotate(-1.2979727)"  />
<ellipse cx="91.169594" cy="32.57222" rx="4.8215404" ry="4.599597" style="fill:none;stroke:#552200;stroke-width:1;stroke-miterlimit:4;stroke-dasharray:none;stroke-opacity:1" id="path132" transform="rotate(-1.2979727)"  />
<ellipse cx="105.07809" cy="32.498241" rx="4.8205857" ry="4.6356325" id="path132-6" style="display:inline;fill:none;stroke:#552200;stroke-width:1;stroke-miterlimit:4;stroke-dasharray:none;stroke-opacity:1" transform="rotate(-1.2979727)"  />
<path d="m 96.194434,28.04386 5.199796,-0.117815" style="fill:#8d634a;fill-opacity:1;stroke:#552200;stroke-width:0.82529;stroke-linecap:butt;stroke-linejoin:miter;stroke-miterlimit:4;stroke-dasharray:none;stroke-opacity:1" id="path982"  />
<path d="M 87.190514,28.753735 82.100042,25.133438" style="fill:none;stroke:#552200;stroke-width:0.6;stroke-linecap:butt;stroke-linejoin:miter;stroke-miterlimit:4;stroke-dasharray:none;stroke-opacity:1" id="path994"  />
<path d="m 96.104428,19.569404 c 4.811252,-0.13657 13.529662,2.148388 13.666492,2.947407 0.13682,0.799018 0.88398,6.848823 2.13981,9.609964 1.25583,2.761142 3.97273,16.993497 3.97273,16.993497 0,0 3.31349,8.37996 3.47389,9.425901 0.16041,1.045941 3.98503,4.652414 3.98503,4.652414 1.93514,0.649417 -0.64139,-45.151271 -4.23503,-50.887265 0,0 -6.73054,-5.9782997 -8.54136,-6.74877 -1.04105,0.5440928 -5.10853,-1.1684828 -17.209567,-0.051985 -3.615702,3.2922473 -10.761774,6.5558001 -13.235455,14.7251841 -0.188405,0.622213 -1.715231,3.471145 -4.685386,10.614729 -3.542949,8.521222 -6.481437,18.290285 -6.481437,18.290285 l 12.091909,-0.03979 c 0,0 1.391289,-25.272931 3.073389,-27.520013 1.6821,-2.24708 7.173735,-1.874978 11.984985,-2.011551 z" style="fill:#651e40;fill-opacity:1;stroke:none;stroke-width:0.272808px;stroke-linecap:butt;stroke-linejoin:miter;stroke-opacity:1" id="path996"  />
<path d="m 82.951888,17.93622 c -0.410255,1.4893 -5.62284,12.844643 -6.278363,13.038058 -0.766942,4.284451 -2.096193,-2.672185 -2.096193,-2.672185 l 8.118582,-14.666964 28.188626,5.53834 2.0741,27.363377 9.05745,5.293421 -10.47429,-39.207302 -8.75541,5.884978 z" style="fill:#6c3950;fill-opacity:1;stroke:#651e40;stroke-width:0.264583px;stroke-linecap:butt;stroke-linejoin:miter;stroke-opacity:1" id="path1077"  />
<path d="m 101.43468,6.5025581 -9.66264,5.3992159 -1.848572,3.861689 6.299611,0.903786 -2.291365,-4.134169 7.932026,-5.5693088 6.58718,2.0484449 -3.22629,5.4103609 6.16452,-5.0583262 -5.46266,-3.2250975 z" style="fill:#6c3950;fill-opacity:1;stroke:none;stroke-width:0.264583px;stroke-linecap:butt;stroke-linejoin:miter;stroke-opacity:1" id="path1079"  />
</g>
</g>
</g>
</svg>
